<?xml version="1.0" encoding="UTF-8" standalone="no"?>
<!-- Created with Inkscape (http://www.inkscape.org/) -->

<svg
   xmlns:dc="http://purl.org/dc/elements/1.1/"
   xmlns:cc="http://creativecommons.org/ns#"
   xmlns:rdf="http://www.w3.org/1999/02/22-rdf-syntax-ns#"
   xmlns:svg="http://www.w3.org/2000/svg"
   xmlns="http://www.w3.org/2000/svg"
   xmlns:sodipodi="http://sodipodi.sourceforge.net/DTD/sodipodi-0.dtd"
   xmlns:inkscape="http://www.inkscape.org/namespaces/inkscape"
   width="400.09839"
   height="235.29364"
   id="svg5963"
   version="1.1"
   inkscape:version="0.48.4 r9939"
   sodipodi:docname="arab.svg">
  <defs
     id="defs3103" />
  <sodipodi:namedview
     id="base"
     pagecolor="#ffffff"
     bordercolor="#666666"
     borderopacity="1.0"
     inkscape:pageopacity="0.0"
     inkscape:pageshadow="2"
     inkscape:zoom="1.4142136"
     inkscape:cx="211.06089"
     inkscape:cy="129.15099"
     inkscape:document-units="px"
     inkscape:current-layer="layer1"
     showgrid="false"
     height="300px"
     inkscape:window-width="1366"
     inkscape:window-height="715"
     inkscape:window-x="-8"
     inkscape:window-y="-8"
     inkscape:window-maximized="1"
     fit-margin-top="0"
     fit-margin-left="0"
     fit-margin-right="0"
     fit-margin-bottom="0" />
  <metadata
     id="metadata5968">
    <rdf:RDF>
      <cc:Work
         rdf:about="">
        <dc:format>image/svg+xml</dc:format>
        <dc:type
           rdf:resource="http://purl.org/dc/dcmitype/StillImage" />
        <dc:title />
      </cc:Work>
    </rdf:RDF>
  </metadata>
  <g
     inkscape:label="Layer 1"
     inkscape:groupmode="layer"
     id="layer1"
     transform="translate(42.885084,-918.86413)"
     style="display:inline">
    <path
       inkscape:connector-curvature="0"
       id="sd-"
       d="m 231.20361,1004.5901 c -0.46785,0.4733 -1.70124,2.2805 -2.44887,1.8891 -0.98017,-0.5137 -1.32972,0.803 -1.53929,1.3993 -0.40469,1.1488 -0.70751,1.8146 -1.9591,2.0291 -1.2398,0.2132 -1.56161,0.5031 -1.81916,1.7492 -0.56296,2.7247 -3.25744,0.6332 -4.54789,-0.069 -1.11901,-0.6096 -3.04629,-0.1906 -4.26803,-0.14 -1.59592,0.066 -3.24715,0.1321 -4.82777,-0.1399 0.52264,-0.4812 0.28005,-2.144 -0.48977,-0.9096 -0.76132,1.2205 -1.79021,0.9796 -3.07859,0.9796 l -9.86544,0 c -6.70429,0 -13.51706,-0.069 -20.22065,-0.069 0.13455,3.997 0.28467,8.0352 0.34984,12.0344 l -5.17762,0 0.48978,25.888 c -0.85869,-0.2665 -1.73151,-0.6576 -2.58881,-0.2098 -0.70736,0.3707 -1.37846,-0.012 -2.09902,0.3498 -1.68057,0.8317 0.0708,2.0901 -0.97956,3.4285 -0.84202,1.0718 -1.0193,2.221 -2.23896,2.8687 -0.76777,0.4067 0.018,2.3475 0.48977,2.7987 -1.74861,1.3987 -2.86361,1.8349 -1.60926,4.1979 0.4776,0.8995 -0.10588,1.3013 -0.83961,1.8191 -0.7837,0.5533 -0.90816,1.25 -1.25942,2.099 0.6803,1.8369 1.9346,0.1078 3.07858,0.7698 0.67691,0.3942 -0.3096,1.0781 0,1.6091 0.38088,0.6484 0.55941,1.497 0.34984,2.239 0.17979,-0.091 0.37301,-0.2037 0.55975,-0.2799 0.54418,0.8749 -0.51423,1.8432 -0.0699,2.7288 0.44011,0.8816 1.57661,1.0385 1.95909,1.6793 0.56149,0.9413 -0.62641,1.8138 -0.20979,2.7287 0.43037,0.9475 1.23575,1.6563 1.95909,2.3789 1.29324,1.2932 2.36995,3.1862 2.37891,5.0376 0.005,0.7803 0.0689,1.8506 -0.4198,2.5189 -0.42275,0.5783 -0.86,0.7832 -0.69969,1.6093 0.18337,-0.065 0.37637,-0.1433 0.55974,-0.2104 0.14778,0.5555 -0.16052,1.0458 -0.34983,1.5393 0.91147,0.1656 2.95872,-0.1008 3.63832,0.6298 0.24675,0.2644 0,1.1465 0,1.4692 0,0.3128 0.17039,0.4733 0.34983,0.6298 -0.15135,-0.1522 -0.20978,-0.3459 -0.20978,-0.6298 0,-0.1702 0.0452,-0.5291 0.0699,-0.8397 0.6839,0.041 0.15114,-0.7751 0.55975,-0.9795 0.16098,-0.081 0.15627,-0.4075 0.27987,-0.4896 0.30751,-0.2038 0.764,-0.1344 1.04951,-0.4199 0.1274,-0.1275 0.12717,-0.4616 0.20979,-0.6298 0.16546,-0.3309 -0.38257,-0.5692 -0.27987,-0.9795 0.0674,-0.2655 0.2273,-0.5946 0.34984,-0.8396 0.14732,-0.2941 -0.10519,-0.4535 0,-0.6297 0.13411,-0.4047 0.55792,-0.4164 0.69967,-0.6996 0.16524,-0.3324 -0.41094,-1.1992 -0.20978,-1.3994 0.21672,-0.2172 0.30083,-0.5805 0.48977,-0.7698 0.29641,-0.2962 0.68431,-0.6141 0.97954,-0.9094 0.46246,-0.4625 0.018,-1.4231 0.48978,-1.8892 0.33363,-0.3336 1.42134,0.1881 1.81916,-0.2105 0.27308,-0.2731 1.84066,-0.8181 2.09903,-0.5597 0.3495,0.3497 0.31997,1.5092 0.48977,1.6792 0.14755,0.1478 0.64614,0.084 0.76964,0.2105 0.22805,0.2282 0.21024,0.6303 0.34985,0.9097 0.0915,0.1858 0.32144,0.4614 0.4198,0.5598 0.35472,0.3546 0.17867,1.2978 0.48977,1.6091 0.2033,0.2037 0.88534,0.4818 1.11949,0.5597 0.60768,0.2015 3.01539,-0.5665 3.35844,-0.9095 0.0759,-0.076 0.49441,0.056 0.55975,0.07 0.96905,0.1949 2.41764,0.1926 3.14854,0.07 0.36728,0.5154 0.5348,1.2344 0.90959,1.6092 0.4083,0.4084 3.16168,0.2038 3.70828,-0.07 0.18538,-0.091 0.11844,-0.5177 0.20979,-0.6997 0.24678,-0.4935 0.98123,-1.1904 1.53929,-1.4695 0.64252,-0.3212 2.15516,-0.056 2.51883,-0.4197 0.2501,-0.2499 -0.21605,-1.6034 0.13995,-1.9592 0.47736,-0.4773 1.3394,-0.8315 1.81915,-1.1194 1.35955,0.3213 1.96037,1.3309 2.79871,2.1691 0.46953,0.4695 1.14019,0.7202 1.53929,1.1195 0.11399,0.1136 0.24612,-0.1769 0.27987,-0.2104 0.10055,-0.1008 0.98113,-0.07 1.18944,-0.07 0.25587,0 0.94241,0.1078 1.11949,-0.07 0.91388,-0.9136 1.68236,-2.3121 2.65877,-3.2882 0.45476,-0.4551 0.47449,-1.5942 0.90958,-2.0292 0.80879,-0.8089 2.0303,-1.5429 2.3789,-2.5888 -1.05374,-0.8217 0.27325,-3.2251 -0.4198,-3.9181 -0.0916,-0.092 -1.44245,-1.2862 -1.39936,-1.3295 0.4624,-0.4622 2.96064,0.3061 3.28849,-0.3497 0.21449,-0.4279 -0.0542,-1.0024 0,-1.3296 0.26885,-0.1433 2.7987,-0.022 2.7987,0 0,0.5255 -0.50164,2.4027 -0.76964,2.9387 -0.26789,0.5358 0.60651,3.7554 0.76964,4.408 0.0782,0.3122 -0.18404,1.4936 -0.0699,1.6092 0.24533,0.2456 0.8763,0.3249 1.18944,0.5598 1.25264,0.9396 1.88894,2.7284 2.79872,3.6383 0.29413,0.294 0.0134,1.9595 -0.48978,1.5393 0.10055,2.9637 -0.16456,1.0181 1.60926,1.6093 0.0538,-0.4496 0.13545,-0.8871 0.27987,-1.3295 0.32765,-1.0064 0.80927,-1.7137 0.76964,-2.7987 -0.0444,-1.2195 -0.15963,-2.0802 0.62971,-3.0785 0.59977,-0.7573 1.55944,-0.1456 1.53929,0.6996 0.42205,-0.4643 0.65279,-0.7894 0.97955,-1.4692 0.82495,-1.7161 -0.39061,-1.7079 0,-2.1691 0.95289,-1.1251 0.22255,-3.0956 1.25941,-3.7783 0.99754,-0.6566 1.40017,-2.8492 2.02908,-3.848 0.64211,-1.0192 1.45619,-0.5617 2.44886,-0.6997 0.6602,-0.092 0.54855,-2.0546 0.55974,-2.5189 0.032,-1.3106 0.78407,-2.2514 1.04952,-3.4984 0.38409,-1.8024 0.13187,-3.8455 0.0699,-5.1075 -0.0672,-1.3543 -0.49105,-2.9983 0,-3.9183 0.68779,-1.2883 0.88323,-3.029 1.46932,-4.6178 0.22784,-0.6176 0.55885,-1.3142 0.69968,-1.9591 0.15426,-0.7025 -0.1977,-1.197 -0.0699,-1.8891 0.13052,-0.7045 -0.018,-2.2064 0.6297,-2.5888 0.46996,-0.2778 1.77864,0.2861 1.9591,-0.3498 0.35125,-1.2356 0.17733,-1.3734 1.53929,-1.8892 0.75249,-0.2852 2.45453,-0.9373 2.86867,-1.6092 0.31502,-0.5112 1.14221,-1.8955 1.32939,-2.0991 -0.11598,-0.9358 -1.7033,-0.824 -1.7492,-1.6793 -0.64835,0.5832 -2.45378,-2.4228 -3.42841,-2.5888 -1.68684,-0.2866 -2.23594,-3.5522 -2.30894,-4.9677 -0.10414,-2.0158 -0.68218,-3.8254 -0.4198,-5.8072 0.11664,-0.8774 -0.21069,-1.8632 -0.55974,-2.6588 -0.48315,-1.101 0.53016,-1.6454 0.76964,-0.5597 -0.0651,-1.4265 -1.70475,-2.3146 -2.09903,-3.6384 -0.47621,-1.5994 0.2136,-2.189 -1.25942,-3.2185 -1.11137,-0.7768 -1.84725,-2.2619 -3.0086,-2.8686 -1.29739,-0.6783 -2.30473,-1.1885 -2.65878,-2.7287 z m -54.71472,89.7686 c 0.26343,0.089 0.50252,0.2242 0.69967,0.4197 0.22368,0.2217 0.45084,0.4185 0.6297,0.6296 -0.16568,-0.1993 -0.27951,-0.4213 -0.48977,-0.6296 -0.22764,-0.2257 -0.53025,-0.3298 -0.8396,-0.4197 z m 43.7298,1.8889 c 0.0502,0.065 0.11955,0.1433 0.20978,0.2105 -0.0882,-0.06 -0.15538,-0.1523 -0.20978,-0.2105 z m -41.21097,0.2105 c 0.14352,0.1768 0.20979,0.3804 0.20979,0.6295 -0.001,0.4568 -0.73302,0.9712 -0.34984,1.3995 0.27177,0.3042 0.60634,0.5333 0.90958,0.7698 -0.28777,-0.2278 -0.51064,-0.4799 -0.76965,-0.7698 -0.38247,-0.4275 0.27856,-0.9434 0.27988,-1.3995 0,-0.2659 -0.11643,-0.4441 -0.27988,-0.6295 z m 0.83962,2.7988 c 0.89811,0.6884 1.83574,1.2246 2.86867,1.8191 0.1809,0.1031 0.33065,0.1724 0.4198,0.2799 -0.0857,-0.094 -0.12135,-0.1882 -0.27987,-0.2799 -1.0492,-0.6039 -2.10057,-1.1117 -3.0086,-1.8191 z m 3.28847,2.099 c 0.26747,0.3195 0.22862,0.6669 0.55974,1.1194 0.009,0.022 0.0593,-0.022 0.0699,0 -0.34386,-0.4699 -0.32521,-0.7894 -0.62971,-1.1194 z m 1.32939,1.6091 c 0.24447,0.1478 0.4685,0.3934 0.55974,0.6298 0.21941,0.5671 -0.55782,1.0192 -0.13994,1.6091 0.009,0.022 0.0593,-0.022 0.0699,0 -0.41732,-0.5888 0.35946,-1.0431 0.13994,-1.6091 -0.0974,-0.2513 -0.36749,-0.474 -0.62972,-0.6298 z m 0.90957,2.6587 c 0.17487,0.1613 0.34985,0.3305 0.34985,0.5598 -0.005,1.0788 1.10249,1.2699 1.9591,1.8892 -0.8485,-0.5893 -1.89398,-0.8342 -1.88913,-1.8892 0,-0.2479 -0.22656,-0.3879 -0.41982,-0.5598 z m 3.63832,3.2186 c 0.37891,0.2539 0.65439,0.5919 0.69969,1.1194 0.0617,0.7241 -0.16323,1.4813 0.34983,2.0991 0.29177,0.351 0.54071,0.8987 0.83961,1.2594 -0.27759,-0.3594 -0.42009,-0.9231 -0.69967,-1.2594 -0.5121,-0.6166 -0.3581,-1.3764 -0.4198,-2.0991 -0.0468,-0.549 -0.36809,-0.8611 -0.76966,-1.1194 z m 1.88913,4.4779 c 0.0838,0.1008 0.10229,0.2172 0.2098,0.2799 0.34119,0.2014 0.60859,0.342 0.76964,0.5597 -0.15941,-0.1992 -0.30985,-0.3706 -0.62971,-0.5597 -0.12269,-0.072 -0.25731,-0.1613 -0.34983,-0.2799 z m 0.97955,0.8396 c 0.16099,0.2172 0.22233,0.5046 0.27987,0.9096 0.0331,0.2336 0.20151,0.3454 0.34984,0.4897 -0.12807,-0.1366 -0.24975,-0.2773 -0.27987,-0.4897 -0.0605,-0.4289 -0.16971,-0.6851 -0.34984,-0.9096 z m 0.62971,1.3993 c 0.39178,0.3821 1.02717,0.5874 1.32939,0.9796 -0.32591,-0.3761 -0.95801,-0.5828 -1.32939,-0.9796 z m 9.44564,-0.2104 c -0.0291,0 -0.0434,0.056 -0.0699,0.07 0.10391,-0.027 0.2062,-0.058 0.34983,0 -0.10855,-0.031 -0.19613,-0.092 -0.27988,-0.07 z m 28.05704,0.4198 c -0.6448,0.031 -1.29288,0.1209 -1.88913,0.2104 1.19467,-0.1813 2.44853,-0.2037 3.77826,-0.2104 -0.63981,0 -1.26737,-0.031 -1.88913,0 z m -26.93756,0.3499 c 0.25888,0.3742 0.35013,0.8181 0.62971,1.1894 0.34778,0.4617 0.65871,1.0431 1.04951,1.4694 0.0116,0.022 0.0578,-0.022 0.0699,0 -0.39018,-0.4254 -0.70236,-1.0785 -1.04952,-1.5392 -0.28835,-0.3829 -0.42238,-0.7367 -0.69967,-1.1196 z m -4.89774,0.2105 c -0.0235,0 -0.0456,0.065 -0.0699,0.07 0.50888,-0.076 0.87287,0.1546 1.32939,0.3498 -0.42683,-0.1904 -0.77302,-0.4917 -1.25941,-0.4199 z m -3.21851,0.8397 c 0.49456,0.2986 0.81581,0.3839 1.11948,0.2798 -0.29845,0.082 -0.62001,0.034 -1.11948,-0.2798 z m 29.31646,2.6587 c -0.0915,0.1078 -0.39844,0.3813 -0.76965,0.6295 0.33127,-0.2288 0.68623,-0.4611 0.76965,-0.5596 0.009,0 -0.009,-0.058 0,-0.07 z m -17.21205,0.4896 c 0.11237,0.1077 0.28107,0.2239 0.34984,0.35 -0.0768,-0.1568 -0.20845,-0.2216 -0.34984,-0.35 z m 0.34984,0.4198 c 0.14016,0.2857 0.12425,0.6265 -0.0699,1.0497 0.3495,-0.083 0.75119,-0.168 1.04952,-0.07 -0.29778,-0.096 -0.63065,-0.081 -0.97956,0 0.18114,-0.3946 0.11446,-0.7067 0,-0.9796 z m 3.49838,0 c -0.0242,0 -0.0459,0.067 -0.0699,0.07 0.12091,-0.022 0.22715,-0.027 0.34984,0 -0.0987,-0.022 -0.18224,-0.08 -0.27987,-0.07 z m 3.00861,0 c -0.025,7e-4 -0.0444,0.065 -0.0699,0.07 0.1256,0 0.25248,0 0.34983,0.1389 -0.0874,-0.094 -0.17306,-0.2127 -0.27986,-0.2105 z m 0.27987,0.2105 c 0.27237,0.3755 0.54391,0.6184 0.83962,0.8397 -0.27504,-0.215 -0.51118,-0.4835 -0.76964,-0.8397 -0.0134,-0.022 -0.0549,0.022 -0.0699,0 z m 0.83962,0.8397 c 0.2665,0.1992 0.5386,0.4007 0.97954,0.5597 -0.0116,-0.029 0.009,-0.043 0,-0.07 -0.40758,-0.1544 -0.72641,-0.2919 -0.97954,-0.4895 z m -1.18946,-0.9796 c -0.36034,0.062 -0.77399,0.4361 -1.04951,0.5597 0.29543,-0.1656 0.69952,-0.5523 1.04951,-0.5597 z m -1.04951,0.5597 c -0.68452,0.3083 -0.94347,-0.4251 -1.53929,-0.5597 0.55641,0.1702 0.80634,0.9282 1.46932,0.6298 0.0202,0 0.0475,-0.058 0.0699,-0.07 z m 5.52745,-0.4896 c -0.38996,0.081 -0.77388,0.1881 -1.11949,0.2798 0.34608,-0.087 0.73702,-0.1992 1.11949,-0.2798 z m -1.67923,0.4198 c -0.20016,0.081 -0.30353,0.1634 -0.41981,0.2799 0.11238,-0.096 0.24495,-0.2083 0.41981,-0.2799 z m -7.90634,0.6997 c 0.10009,0.1253 0.18292,0.2689 0.20978,0.4896 0.0116,-0.027 0.0571,-0.043 0.0699,-0.07 -0.0367,-0.206 -0.17375,-0.3059 -0.27988,-0.4199 z"
       style="fill:#b3b3b3;fill-opacity:1;stroke:#757575;stroke-width:0.40000001;stroke-miterlimit:9.75;stroke-opacity:1;stroke-dasharray:none" />
    <path
       class="limitxx xj sd"
       d="m 174.1532,1091.1784 c 0.16097,-0.081 0.20106,-0.3602 0.3246,-0.4425 0.30752,-0.2037 0.71728,-0.1275 1.00279,-0.4128 0.1274,-0.1276 0.12291,-0.4662 0.20553,-0.6343 0.16547,-0.331 -0.32391,-0.6217 -0.2212,-1.0322 0.0674,-0.2657 0.23148,-0.5662 0.35402,-0.8111 0.14732,-0.294 -0.14979,-0.458 -0.0446,-0.6342 0.13411,-0.4047 0.59561,-0.3951 0.73736,-0.6784 0.16523,-0.3324 -0.40657,-1.1861 -0.20554,-1.3863 0.21673,-0.2172 0.25343,-0.6368 0.44237,-0.8257 0.29642,-0.2962 0.73716,-0.5603 1.0324,-0.8553 0.46245,-0.4626 0,-1.4511 0.47181,-1.9173 0.33363,-0.3335 1.37197,0.1613 1.76979,-0.2359 0.27308,-0.2732 1.86524,-0.7596 2.12361,-0.5013 0.34951,0.3495 0.30195,1.5113 0.47175,1.681 0.14755,0.1477 0.67299,0.053 0.7965,0.1769 0.22803,0.2281 0.24364,0.6645 0.38331,0.9439 0.0915,0.1859 0.31468,0.4031 0.41303,0.5013 0.35472,0.3547 0.16099,1.3111 0.47205,1.6224 0.2033,0.2037 0.85707,0.5118 1.09123,0.5897 0.60767,0.2037 3.04893,-0.6007 3.39199,-0.9437 0.0759,-0.076 0.46543,0.045 0.53077,0.058 0.96905,0.1948 2.42499,0.2104 3.15591,0.089 0.36728,0.5154 0.56901,1.2766 0.94378,1.6516 0.4083,0.4083 3.16977,0.1546 3.71638,-0.1186 0.18539,-0.091 0.085,-0.5257 0.17642,-0.7079 0.24679,-0.4935 1.0053,-1.1368 1.56336,-1.4158 0.64252,-0.3215 2.14325,-0.05 2.50693,-0.4129 0.25009,-0.2501 -0.23763,-1.6205 0.11844,-1.9763 0.47737,-0.4773 1.34904,-0.8622 1.82879,-1.1501 1.35955,0.321 1.93411,1.3443 2.77245,2.1825 0.46953,0.4696 1.13468,0.6923 1.53377,1.0913 0.11399,0.1147 0.26107,-0.1724 0.2948,-0.206 0.10056,-0.1008 1.03051,-0.029 1.23882,-0.029 0.25588,0 0.94373,0.058 1.12081,-0.1188 0.91388,-0.9136 1.64867,-2.2973 2.62507,-3.2738 0.45477,-0.4549 0.50871,-1.5706 0.9438,-2.0056 0.80878,-0.809 1.9815,-1.5496 2.33011,-2.5954 -1.05375,-0.8217 0.28003,-3.2004 -0.41302,-3.8934 -0.0915,-0.091 -1.45886,-1.284 -1.41577,-1.3272 0.4624,-0.4621 3.00502,0.2725 3.33286,-0.3836 0.2145,-0.4278 -0.0542,-1.0001 0,-1.3272 0.26885,-0.1433 2.77265,-0.022 2.77265,0 0,0.5257 -0.46934,2.384 -0.73734,2.92 -0.26789,0.5358 0.57421,3.7718 0.73734,4.4243 0.0782,0.3123 -0.2033,1.477 -0.0893,1.5927 0.24533,0.2454 0.8666,0.3549 1.17974,0.5898 1.25264,0.9396 1.95111,2.7474 2.86088,3.6574 0.29414,0.2939 -0.0264,1.9245 -0.53075,1.5043 0.10056,2.9637 -0.17889,1.002 1.59493,1.593 -0.10079,0.8255 -0.0761,1.6616 0,2.505 0.1227,1.5761 1.09296,4.3998 -1.30858,4.6568 -0.73251,0.079 -1.63595,-0.2454 -2.4128,-0.2105 -1.18634,0.051 -0.99476,0.7432 -1.16383,1.7207 -0.13613,0.7928 -1.67276,1.3344 -0.36939,2.0903 0.8535,0.4955 1.87865,0.2991 2.77439,0.763 0.99171,0.5134 1.47198,1.1058 2.06288,1.8167 0.65966,0.7935 1.31205,2.3572 1.80226,2.5822 0.60068,0.2758 0.98079,0.8788 1.74049,1.4539 0.82884,0.6277 0.78463,1.9571 1.20461,2.7735 0.49945,0.9699 0.53409,2.0704 1.04618,3.0515 0.18986,0.3639 0.32273,0.909 0.70395,1.1232 0.45093,0.2528 0.27913,0.8184 0.65689,1.1836 0.58788,-0.7585 1.26741,-0.6298 1.88196,-0.1031 0.59631,0.5104 0.41012,0.3056 0.61366,0.8313 0.23296,0.5961 -0.15426,1.3194 -0.15426,1.9277 0,0.7658 0.45959,1.1767 0.90095,1.7343 -2.44938,0.1321 -5.34143,-0.087 -7.72646,0.2718 -1.53112,0.2314 -2.81666,2.7019 -3.80765,3.8741 -0.18316,0.2172 -1.38947,1.1047 -1.76335,1.0996 -1.0091,-0.022 -1.84379,-0.9596 -2.61348,-0.5571 -1.37875,0.7212 -4.44344,0.5267 -3.84403,1.947 -0.92839,-0.3346 -1.30588,-0.6701 -1.82281,-1.3822 -0.38869,-0.5365 -1.07652,0.2662 -1.47013,0.4427 -0.68452,0.3084 -0.94753,-0.4732 -1.54334,-0.6076 -0.97982,-0.2216 -1.94505,0.9422 -2.25217,1.6967 -0.10727,-0.8812 -0.89588,-0.9117 -1.59368,-0.7482 0.77553,-1.6893 -1.7341,-2.0378 -2.6023,-2.987 -0.39019,-0.4254 -0.66932,-1.0298 -1.01647,-1.4905 -0.37208,-0.4942 -0.45142,-1.0707 -0.9697,-1.517 -1.57762,-1.3594 -1.20125,1.2948 -2.51761,1.186 -1.3067,-0.1077 -1.52426,-1.1493 -3.0401,-0.1768 -0.99968,0.6414 -1.23327,1.0904 -2.29882,0.4205 -0.28141,-0.1747 -0.83815,-0.3641 -1.04174,-0.6283 -0.41589,-0.5396 -1.53108,-0.635 -1.65158,-1.4837 -0.11399,-0.8085 -0.36,-1.0725 -1.04125,-1.4751 -0.49049,-0.2897 -0.67959,-1.0581 -1.05236,-1.5063 -0.51209,-0.6167 -0.29926,-1.4033 -0.36096,-2.126 -0.0938,-1.0982 -1.27825,-1.3115 -2.0281,-1.8534 -0.85507,-0.6182 -1.99559,-0.81 -1.99067,-1.8868 0,-0.4581 -0.58226,-0.7097 -0.8142,-1.038 -0.41732,-0.5891 0.34916,-1.0366 0.12963,-1.6028 -0.19456,-0.5022 -0.98675,-0.6561 -1.3056,-1.0927 -0.44058,-0.602 -0.2333,-1.0124 -0.95553,-1.4279 -1.39894,-0.8054 -2.76666,-1.3651 -3.8518,-2.5798 -0.38249,-0.4277 0.31605,-0.9244 0.31737,-1.3803 0,-0.4978 -0.29572,-0.774 -0.85085,-1.1289 -0.55886,-0.3574 -0.73172,-0.7684 -1.15224,-1.1849 -0.39352,-0.39 -0.98537,-0.5105 -1.51218,-0.5931 -0.7663,-0.1186 -2.25369,-0.024 -2.25369,-1.1604 0,-0.1702 0.0712,-0.4897 0.096,-0.8003 0.68389,0.041 0.1162,-0.8359 0.52478,-1.0404 z"
       id="xj"
       style="fill:#b3b3b3;fill-opacity:1;stroke:#757575;stroke-width:0.40000001;stroke-miterlimit:9.75;stroke-opacity:1;stroke-dasharray:none"
       inkscape:connector-curvature="0" />
    <path
       inkscape:connector-curvature="0"
       style="fill:#b3b3b3;fill-opacity:1;stroke:#757575;stroke-width:0.40000001;stroke-miterlimit:9.75;stroke-opacity:1;stroke-dasharray:none"
       inkscape:transform-center-y="-69.99838"
       inkscape:transform-center-x="95.787589"
       id="ly"
       d="m 95.233858,963.08052 c -0.668487,-0.57545 0.762902,-1.25296 1.132901,-1.42443 1.113428,-0.51716 1.713903,-0.81357 2.388634,-1.90757 0.542146,-0.87951 1.086169,-1.30848 0.87445,-2.44137 -0.182469,-0.97668 -0.645377,-1.96107 -0.545413,-2.9801 0.137474,-1.39737 1.83332,-1.03938 2.10402,-2.04118 0.29183,-1.07981 1.17211,-1.63608 2.07488,-2.06554 0.69188,-0.32913 2.93911,-0.94267 2.95716,-1.89924 0.009,-0.47899 -0.46022,-0.77541 -0.41025,-1.28424 0.0903,-0.93156 0.12628,-1.86729 0.21874,-2.79887 0.89757,0.62475 2.10195,0.94061 3.06616,1.53341 1.0121,0.62199 2.16096,0.83371 3.33826,0.70459 1.19119,-0.13054 2.06792,-0.88506 3.29315,-0.44217 1.09124,0.39497 2.24703,0.43592 3.3091,0.88852 0.94545,0.4033 1.70835,1.13149 2.66216,1.50497 0.83438,0.32696 1.96102,-0.0156 2.70516,0.49911 0.87674,0.606 1.04056,1.64587 1.20924,2.6191 0.21584,1.24533 0.70459,2.238 1.67504,3.07448 1.75278,1.51052 3.9179,1.15649 6.02609,1.53897 2.11654,0.38457 5.12922,1.346 6.82439,2.71907 1.35502,1.09817 2.60868,2.95231 4.54613,2.77806 2.2387,-0.20195 4.6322,-2.17553 5.13339,-4.42325 0.23115,-1.03778 -0.47066,-1.84511 -0.78858,-2.78015 -0.35126,-1.03084 -0.60811,-2.21579 -0.25476,-3.28273 0.64834,-1.95757 3.87138,-4.38576 5.91501,-4.45448 1.05791,-0.0353 1.67573,-0.80108 2.65452,-0.87604 0.99822,-0.0763 2.06308,-0.0945 3.03767,0.14441 1.13984,0.27834 2.13389,0.82952 3.21471,1.25297 1.28145,0.50189 0.942,0.67612 1.00516,1.79789 0.0499,0.90868 1.51746,1.10097 2.17207,1.14956 1.27032,0.0958 2.09222,0.67125 3.26607,1.0114 1.16549,0.33806 2.38864,-0.0528 3.5715,0.1639 0.67055,0.12224 1.68127,1.45913 1.44248,2.16162 -0.2513,0.74139 -1.1558,0.93021 -1.28145,1.7646 -0.17419,1.15232 0.5616,2.00683 0.7643,3.07864 0.22767,1.20578 -0.54965,2.27403 -0.9592,3.32222 -0.43526,1.11208 0.70429,2.43303 0.89379,3.58397 0.32141,1.96171 0.67113,3.81615 0.79401,5.82787 l 1.23797,52.25771 c -1.73057,0 -3.46183,0 -5.19239,0 0.048,0.9988 0.0116,2.0012 0.0972,2.9987 l -41.40813,-23.4357 -9.39054,4.4995 c -0.7955,0.2171 -1.77033,-1.0809 -2.23404,-1.5425 -1.93812,-1.9318 -4.04193,-2.3269 -6.62286,-2.9134 -0.92186,-0.2096 -2.12764,-0.3166 -2.94883,-0.8261 -0.65044,-0.404 -0.95816,-1.5432 -1.22751,-2.20269 -0.79067,-1.9374 -1.75346,-2.46462 -3.64994,-3.17823 -0.62962,-0.23667 -1.23195,-0.77153 -1.92125,-0.75346 -0.67475,0.0174 -1.40292,0.76632 -2.036014,0.0822 -0.514378,-0.55525 -1.402914,-1.98246 -1.416097,-2.75099 -0.0278,-1.6077 -0.183372,-2.19492 -1.067646,-3.56376 -0.680987,-1.05523 -2.945365,-2.9295 -1.970743,-4.33378 1.124572,-1.62022 2.844718,-1.00033 2.107499,-3.6576 -0.368609,-1.32933 -0.633768,-2.35039 -0.178449,-3.69918 0.390134,-1.15579 0.621292,-2.10955 0.194343,-3.30427 -0.448427,-1.25644 -0.09986,-2.51429 0.01344,-3.79086 0.133223,-1.5133 -0.09291,-3.03977 -0.595586,-4.46906 -0.43317,-1.22591 -1.059988,-2.38032 -1.820121,-3.43406"
       class="landxx ly" />
    <path
       style="fill:#b3b3b3;fill-opacity:1;stroke:#757575;stroke-width:0.39999998;stroke-miterlimit:9.75;stroke-opacity:1;stroke-dasharray:none"
       d="M 360.5625 110 C 355.61661 110.9719 350.64863 112.06105 345.78125 112.71875 C 341.72008 113.97165 339.66853 115.9893 338.75 118.1875 C 337.90242 119.4536 337.46933 122.65415 335.4375 122.53125 C 334.05471 122.44825 334.20503 120.37435 332.875 120.53125 C 331.19858 120.72915 329.82433 120.6761 328.125 120.4375 C 327.1608 120.3022 326.16352 119.625 325.21875 119.625 C 324.17264 119.625 323.13362 119.714 322.09375 119.8125 C 320.81717 119.9333 319.72934 120.5104 318.40625 120.4375 C 317.67876 120.3975 317.43096 119.5924 316.6875 119.5 C 315.97667 119.411 315.4228 119.8989 315.125 120.5 C 314.79944 121.156 314.68963 121.93565 314.8125 122.65625 C 314.8916 123.12275 315.54291 123.5843 315.1875 124.0625 C 314.85152 124.5158 314.5957 124.99665 314.25 125.46875 C 314.06535 125.72695 313.811 125.9133 313.53125 126.0625 C 312.86484 126.3957 313.2063 126.67525 313.34375 127.40625 C 313.56033 128.56405 313.14367 129.10105 312.9375 130.15625 C 312.7466 131.13295 313.56177 131.9663 313.46875 132.9375 C 313.28341 132.7709 312.2716 132.737 312.4375 133.125 C 312.4021 133.044 313.47083 133.6278 313.46875 133.625 C 314.02547 134.2192 314.21674 134.8476 314.40625 135.625 C 314.77971 137.1494 314.80227 138.86105 315.28125 140.34375 C 315.4777 140.95255 315.9869 141.4065 316.21875 142 C 316.49712 142.7157 316.23405 143.48645 316.21875 144.21875 C 316.19025 145.66755 317.94287 146.87205 317.46875 148.34375 C 318.10808 148.39275 318.54053 148.0539 319.1875 148.3125 C 319.87611 148.5874 320.33502 148.80695 321.09375 148.65625 C 322.6591 148.34595 323.368 147.23785 325 148.09375 C 324.916 147.64955 325.37159 147.19755 325.53125 147.84375 C 325.80128 147.54665 325.96953 147.2054 326.1875 146.875 C 326.53181 146.3523 327.10157 146.37975 327.5625 146.03125 C 328.58988 145.25515 328.67904 144.4499 330.09375 144.125 C 331.41337 143.8217 332.81025 143.78275 334.15625 143.90625 C 334.94899 143.97825 336.29962 143.06865 337.09375 142.84375 C 338.2787 142.50845 338.86361 141.48385 339.90625 140.90625 C 340.22627 140.72925 340.68486 140.32225 341.03125 140.21875 C 341.41374 140.23175 341.77792 140.332 342.125 140.5 C 342.51651 140.519 342.87653 140.45565 343.25 140.34375 C 345.76845 139.93835 346.33006 137.33005 348.59375 136.21875 C 349.64542 135.70225 350.59489 135.5714 351.71875 135.375 C 353.10362 135.1334 354.23109 134.1999 355.59375 133.875 C 356.54129 133.6487 357.51842 133.48805 358.4375 133.15625 C 359.35589 132.82445 359.69267 132.0838 360.46875 131.6875 C 361.11294 131.3584 362.48966 131.40595 362.6875 130.53125 C 362.91727 129.51775 362.22584 128.5961 362.59375 127.5625 C 363.33512 125.4737 365.88117 125.54885 367.4375 124.40625 C 365.75344 124.34425 366.70142 120.884 365.03125 120.6875 C 365.78054 119.4975 363.0094 115.83345 362.53125 114.53125 L 360.5625 110 z M 308.40625 122.84375 C 308.27227 122.99375 308.13397 123.13055 308 123.28125 C 308.15063 123.39645 308.31674 123.48025 308.5 123.53125 C 308.58675 123.27995 308.55827 123.05895 308.40625 122.84375 z M 313.6875 140.375 C 312.92253 140.4979 313.25086 140.7911 313.65625 141.0625 C 313.72285 140.8328 313.7215 140.6117 313.6875 140.375 z M 370.53125 148.3125 C 370.00368 148.4075 369.53281 149.428 369.96875 149.8125 C 370.42343 150.2159 371.17524 150.6008 371.78125 150.6875 C 372.95092 150.4189 374.96413 150.52795 375.5625 149.21875 C 374.86 148.79745 373.92882 148.14875 373.0625 148.34375 C 372.65224 148.43675 372.31441 148.7298 371.875 148.6875 C 371.4099 148.6435 371.01439 148.225 370.53125 148.3125 z "
       transform="translate(-42.885084,918.86413)"
       id="ye" />
    <path
       inkscape:connector-curvature="0"
       style="fill:#b3b3b3;fill-opacity:1;stroke:#757575;stroke-width:0.40000001;stroke-miterlimit:9.75;stroke-opacity:1;stroke-dasharray:none"
       inkscape:transform-center-y="-80.244187"
       inkscape:transform-center-x="176.04359"
       id="dz"
       d="m 2.5205046,979.57401 0.3540244,-7.54703 c -0.3270231,-2.02935 2.7843104,-2.69891 3.9047119,-3.71934 0.555465,-0.50592 1.4634553,-1.53962 2.3184486,-1.48636 0.7438069,0.0463 0.9158945,-1.07435 1.8937845,-1.26394 1.591927,-0.30869 2.408277,1.23499 3.365547,-0.87462 0.297087,-0.6532 1.28886,-0.37969 1.858767,-0.45466 1.025983,-0.13613 2.059602,-0.27566 3.027977,-0.63385 1.945057,-0.71915 2.025435,-2.80804 3.683815,-3.68408 0.683758,-0.36166 1.578672,-0.4018 2.299933,-0.66835 0.887839,-0.32904 1.470933,-1.32449 2.386559,-1.50844 0.335284,-0.0674 2.139487,-0.21405 1.401592,-1.16493 -0.476901,-0.61436 -1.234991,-0.83845 -0.256227,-1.73323 -1.400138,-0.38457 -0.136129,-1.85206 0.891331,-1.76596 1.359164,0.11376 2.612851,-0.37069 3.094609,-1.64311 0.923238,-2.43723 7.214508,-0.27838 9.008927,-0.73929 -2.05752,-0.92863 1.502817,-2.06262 0.384565,-2.92454 -0.528038,-0.40705 -1.11899,-0.76638 -1.547998,-1.287 -0.497029,-0.60183 -0.238092,-1.46468 -0.726098,-2.20191 -0.510214,-0.77052 -0.227411,-1.40462 -0.08015,-2.17168 0.138144,-0.71916 -0.416783,-0.72787 -0.339024,-1.4255 0.07276,-0.65182 0.06314,-1.43707 0.0712,-2.0861 0.01124,-0.8712 -0.568944,-1.57079 0.294603,-2.24692 -0.897557,-0.36651 -0.534441,-0.86683 -0.664256,-1.53809 -0.172849,-0.8941 -1.723421,-1.18427 -2.062871,-2.10402 1.662544,-0.005 2.373102,-0.40768 3.785732,-1.12962 0.615045,-0.31446 1.002385,-0.31515 1.373762,-0.96348 0.328345,-0.5741 0.576154,-1.05586 1.186339,-1.38212 0.344308,-0.18472 1.011408,-0.72054 1.37515,-0.43315 0.472041,0.37277 1.067628,-0.2749 1.381398,-0.56227 0.81496,-0.74486 1.933951,1.1301 2.766959,-0.58312 1.116929,-2.29561 4.966092,-3.28897 7.220754,-3.54857 1.604935,-0.18472 3.226501,-0.62616 4.843938,-0.51716 1.206464,0.0813 2.037367,-1.45707 3.084195,-0.86496 0.455354,0.25754 0.351939,0.11306 0.525487,-0.17352 0.038,-0.0624 1.84716,-0.036 2.116513,-0.14307 1.563267,-0.61991 3.141804,-0.38598 4.785608,-0.43179 1.369597,-0.0381 1.69517,0.24576 2.737804,1.03223 1.332121,1.00447 1.794426,-0.48106 2.949535,-0.62266 0.371367,-0.0452 2.676024,-0.14508 2.549683,-0.82745 -0.227684,-1.22868 1.450133,-0.47203 1.849279,-0.20397 0.833695,0.55881 2.08806,0.84132 2.942584,0.1583 0.469257,-0.37554 0.163215,-0.86425 1.056513,-0.6414 0.634487,0.1583 1.132206,0.62474 1.822206,0.58796 -0.584499,0.96559 0.864939,0.62753 1.323097,0.50813 0.914219,-0.2381 1.902024,-0.0156 2.779451,-0.30891 0.0658,1.24536 -1.512597,1.85552 -2.200524,2.64896 1.873572,0.404 0.07634,3.03836 0.454695,4.24556 0.657354,2.09707 0.383171,3.68186 -0.05908,5.75048 -0.363755,1.70211 -2.258145,3.02798 -3.523608,4.14489 -0.737903,0.65114 -0.379013,2.35186 0.0519,3.07309 0.696939,1.16691 0.379707,2.43862 1.81595,2.98425 1.961024,0.74415 1.385561,3.22859 2.966182,4.41144 0.733037,0.5491 1.597976,0.94616 2.218573,1.63547 0.83856,0.93226 0.961415,2.46013 1.156487,3.643 0.40261,2.44348 1.561889,5.15838 1.561889,7.622 0,0.66501 -1.39806,0.41063 -0.49634,1.61293 0.872572,1.16551 1.594928,2.53567 1.883291,3.96957 0.992578,4.93582 -0.46636,4.90531 0.277648,7.43596 0.355009,1.20745 0.373822,2.09008 -0.09534,3.26533 -0.529716,1.32655 -0.04657,2.56656 0.241376,3.89033 0.434537,2.00135 -0.455517,2.03309 -1.877882,3.10768 -1.620878,1.22599 1.073889,3.60685 1.777084,4.68839 1.314745,2.02139 0.524098,4.42113 2.272707,6.30861 0.67127,0.72473 1.44317,-0.14435 2.15957,-0.0904 0.90659,0.0683 1.89024,0.75253 2.74128,1.06137 1.94228,0.70527 2.59481,2.33522 3.31119,4.18033 0.34014,0.8741 0.68306,0.9795 -0.2638,1.5168 -9.852476,6.2841 -19.791399,12.5717 -28.187453,20.7453 -0.482949,0.703 -2.045036,2.4601 -3.258438,3.1307 -0.920753,0.5088 -2.275487,0.5554 -3.290365,0.7656 -1.379317,0.2854 -2.762097,0.5561 -4.140023,0.8484 -0.691414,0.1464 -6.75012,2.2283 -6.489803,0.083 0.09152,-0.7559 0.631683,-1.0489 0.557415,-1.886 -0.02838,-0.3215 0.06812,-2.0096 -0.2667,-2.1769 -1.018353,-0.5096 -2.2902,-0.7426 -3.414065,-0.9586 -0.553945,-0.1066 -1.29811,-1.5158 -1.721118,-1.4119 -2.427733,0.5959 -2.809724,-1.8234 -3.246098,-2.1854 -0.515544,-0.4276 -1.404995,-0.4664 -1.877036,-0.8253 -0.531039,-0.4034 -0.07389,-1.4051 -0.393163,-1.9466 -0.401245,-0.6809 -1.0979,-1.2737 -1.751117,-1.6604 -1.119013,-0.6622 -2.167208,-1.4486 -3.192497,-2.2448 -2.547607,-1.9778 -5.050771,-4.0144 -7.586579,-6.0075 -9.779467,-7.68856 -19.545745,-15.34874 -29.7778185,-22.43282 -2.441391,-1.69378 -4.8952748,-3.36323 -7.3582049,-5.02017"
       class="landxx dz" />
    <path
       inkscape:connector-curvature="0"
       style="fill:#b3b3b3;fill-opacity:1;stroke:#757575;stroke-width:0.40000001;stroke-miterlimit:9.75;stroke-opacity:1;stroke-dasharray:none"
       inkscape:transform-center-y="-99.694492"
       inkscape:transform-center-x="-4.4440024"
       id="jo"
       d="m 225.7316,967.12893 c -0.0958,-1.67573 0.57892,-3.27162 0.59491,-4.93763 0.018,-1.91522 0.87327,-3.3355 1.10511,-5.15838 0.0972,-0.75943 -0.12224,-1.53412 -0.0624,-2.30535 0.0569,-0.72888 0.29953,-1.44595 0.32659,-2.15608 0.0555,-1.48831 -0.14821,-3.27583 -0.20306,-4.77802 -0.0459,-1.27518 1.54528,-0.88293 2.2721,-0.38035 1.19744,0.82745 2.27984,2.08103 3.88963,1.76448 1.62088,-0.31933 3.11247,-1.84364 4.45288,-2.73703 1.71322,-1.14122 3.42366,-2.40321 5.22156,-3.40213 0.55465,1.7771 1.28212,3.49239 1.89508,5.24863 -0.61781,0.0651 -0.21448,0.90866 0.18338,1.01072 0.63031,0.16165 1.42555,0.0627 0.40582,1.13231 -3.19908,1.95563 -6.40318,2.99223 -10.24854,3.95139 l 5.73344,6.01648 c -0.51577,0.25337 -1.87946,0.22256 -2.24668,0.68477 -0.42206,0.53173 0.0562,1.60529 -0.39512,2.13703 -0.75733,0.892 -2.66901,0.13255 -3.65058,1.06955 -1.11971,1.06904 -1.48586,3.0788 -3.08525,3.70842 -1.44733,0.56852 -4.72186,-0.4891 -6.18865,-0.86881"
       class="landxx jo" />
    <path
       class="landxx so so-"
       d="m 262.72326,1129.5647 c 0,-0.9767 -0.25198,-2.3275 0.16938,-3.2417 0.40123,-0.8705 1.22015,-1.5426 1.77062,-2.327 1.10234,-1.5674 2.05842,-4.3732 3.72929,-5.3818 1.52509,-0.9212 3.30981,-0.3256 4.64469,-1.759 1.51607,-1.6278 2.95092,-2.6913 5.24515,-3.0231 1.71599,-0.2478 4.73216,0.9725 5.9178,-0.5991 l 15.05655,-17.8041 c -1.82011,0 -3.70825,0.3096 -5.49782,-0.1499 -2.02837,-0.5206 -3.9651,-1.498 -5.92544,-2.2283 -2.02073,-0.7525 -4.03105,-1.5334 -6.04761,-2.297 -1.86662,-0.7067 -3.50486,-1.2002 -4.93763,-2.6365 -0.47898,-0.481 -0.63447,-0.7337 -1.29879,-0.91 -0.67613,-0.1798 -0.93922,-1.228 -1.25506,-1.7826 -0.5359,-0.9413 -0.89271,-1.7028 -1.65213,-2.5331 -0.9052,-0.9906 -1.97005,-2.2609 -1.55772,-3.7346 0.4526,-1.6174 1.8692,-3.0371 2.50089,-4.6316 1.6674,0.9302 2.58599,3.1523 3.72651,4.5913 1.42444,1.7965 3.59511,2.295 5.79771,1.5689 0.84342,-0.2777 1.93535,-1.0302 2.6559,-1.5619 1.27241,-0.9399 1.63199,-0.7817 3.19804,-0.5241 1.61811,0.2665 2.34629,0.6053 3.8575,-0.3374 0.7629,-0.4762 2.51359,-2.2519 3.49654,-1.902 1.0829,0.3845 1.82983,0.4324 2.99395,0.032 0.70181,-0.2416 1.36682,-0.597 2.0957,-0.7587 0.83439,-0.1861 1.39251,0.177 2.18803,0.2561 1.30365,0.1305 2.30186,-0.6428 3.4292,-1.1016 1.17523,-0.4783 2.5122,-0.2666 3.69715,-0.8684 0.98641,-0.5012 1.08637,-1.7896 1.92493,-2.2019 0.81287,-0.4006 3.43823,0.2957 3.11544,1.4688 -0.41859,1.5196 -0.70042,2.4463 -0.42067,4.0575 0.19367,1.1224 0.48661,2.7315 -0.49425,3.5923 0.65252,0.245 1.19189,0.093 1.0482,-0.5998 0.32348,0.2159 0.67542,0.3659 1.05514,0.4498 -0.21659,1.0767 -2.65798,-0.3984 -2.66701,1.4918 -0.007,1.5439 0.12287,3.1238 -0.30682,4.6371 -0.36652,1.2925 -1.14399,2.2817 -1.87495,3.3667 -0.85106,1.2662 -0.75179,3.1418 -1.79443,4.3615 -0.4047,0.4734 -0.96282,0.5942 -1.24326,1.2189 -0.27906,0.6213 -0.0375,1.3224 -0.27003,1.9798 -0.53174,1.4994 -1.60423,2.6899 -2.35116,4.0713 -0.99474,1.8382 -1.07527,3.8617 -1.85204,5.7623 -0.78927,1.9319 -2.01934,3.6389 -3.15223,5.3778 -1.09887,1.6875 -1.82706,3.6423 -3.08489,5.218 -1.39667,1.75 -2.79681,3.4952 -4.22056,5.223 -2.86206,3.4736 -5.77202,6.2968 -9.56497,8.7375 -1.58895,1.0232 -3.17027,2.086 -4.49752,3.4438 -1.49455,1.5278 -3.2036,3.0363 -4.55445,4.687 -1.33698,1.6341 -2.74267,3.2244 -4.06368,4.8647 -0.64349,0.799 -1.20646,1.6577 -1.83261,2.4706 -0.38734,0.5026 -1.5473,2.3164 -1.75347,1.2585 0,1.7188 -1.12254,3.3709 -2.15894,4.6683 0.0889,-1.3483 -1.2123,-2.4632 -2.13735,-3.7944 -1.05618,-1.5198 -0.88798,-2.5664 -0.90533,-4.3268 -0.0451,-5.3223 0.0583,-10.5186 0.0583,-15.8388"
       id="so-"
       style="fill:#b3b3b3;fill-opacity:1;stroke:#757575;stroke-width:0.39999998;stroke-miterlimit:9.75;stroke-opacity:1;stroke-dasharray:none"
       inkscape:connector-curvature="0" />
    <path
       class="limitxx so xs"
       d="m 299.25674,1095.4289 c -1.82011,0 -3.70825,0.3096 -5.49782,-0.1499 -2.02837,-0.5206 -3.9651,-1.498 -5.92544,-2.2283 -2.02073,-0.7525 -4.03105,-1.5334 -6.04761,-2.297 -1.86662,-0.7067 -3.50486,-1.2002 -4.93763,-2.6365 -0.47898,-0.481 -0.63447,-0.7337 -1.29879,-0.91 -0.67613,-0.1798 -0.93922,-1.228 -1.25506,-1.7826 -0.5359,-0.9413 -0.89271,-1.7028 -1.65213,-2.5331 -0.9052,-0.9906 -1.97005,-2.2609 -1.55772,-3.7346 0.4526,-1.6174 1.8692,-3.0371 2.50089,-4.6316 1.6674,0.9302 2.58599,3.1523 3.72651,4.5913 1.42444,1.7965 3.59511,2.295 5.79771,1.5689 0.84342,-0.2777 1.93535,-1.0302 2.6559,-1.5619 1.27241,-0.9399 1.63199,-0.7817 3.19804,-0.5241 1.61811,0.2665 2.34629,0.6053 3.8575,-0.3374 0.7629,-0.4762 2.51359,-2.2519 3.49654,-1.902 1.0829,0.3845 1.82983,0.4324 2.99395,0.032 0.70181,-0.2416 1.36689,-0.5968 2.0957,-0.7587 0.24268,-0.054 0.46197,-0.062 0.6705,-0.043 l 0.0548,16.3596 -2.8756,3.4796 z"
       id="xs"
       style="fill:#b3b3b3;fill-opacity:1;stroke:#757575;stroke-width:0.39999998;stroke-miterlimit:9.75;stroke-opacity:1;stroke-dasharray:none"
       inkscape:connector-curvature="0" />
    <path
       style="fill:#b3b3b3;fill-opacity:1;stroke:#757575;stroke-width:0.39999998;stroke-miterlimit:9.75;stroke-opacity:1;stroke-dasharray:none"
       d="m -39.462871,1025.7557 c 0.352638,-0.4449 0.422749,-1.0044 0.45121,-1.5493 -0.403312,0.3838 -0.747621,0.9864 -0.45121,1.5493"
       id="path3878"
       inkscape:connector-curvature="0" />
    <path
       class="landxx mr"
       d="m -42.406152,1018.7585 c -0.141611,-0.9559 -0.0597,-1.6158 0.322233,-2.536 0.106764,-0.2572 0.461901,-0.8777 1.134274,-0.9126 l 19.355823,-0.022 c 0.984403,-0.5186 0.308142,-4.7962 0.242543,-6.4427 -0.120091,-1.6549 -0.287386,-2.7328 1.039312,-3.9884 1.111019,-1.0515 1.074367,-0.7835 4.604152,-2.2267 l 0.775388,-15.15532 17.270328,-0.20245 0.2321305,-7.6851 c 6.5751792,4.42395 13.0276985,8.98061 19.3703305,13.7322 -3.050183,0 -6.124385,0 -9.173874,0 l 3.764832,50.61257 c 0.309877,0.8278 1.162249,1.1847 1.238052,1.3781 0.504176,1.2873 -0.159451,1.6765 -0.207002,2.6684 -0.05553,1.1624 -0.170418,2.2093 -0.509104,2.3341 l -11.0288358,0.013 c -6.2645382,0.2168 -8.9478527,1.0748 -9.5015228,-0.7779 -0.2672555,1.6771 -2.7516209,1.9513 -3.9769006,1.4647 -1.9350688,-0.7685 -3.1706218,-0.4446 -3.9637118,1.734 -0.450377,-0.7437 -1.10609,-1.3779 -1.777769,-2.0255 -0.795866,-0.7675 -1.563063,-1.179 -1.985743,-0.9447 -1.588886,0.881 0.62871,5.3107 -3.273776,5.031 0.02013,0.071 -1.052501,-0.7588 -1.336624,-1.302 -0.351042,-0.6712 -0.756299,-0.4573 -1.429852,-1.0323 -0.729573,-0.6227 -0.678274,-1.6388 -1.276718,-2.0367 -1.602422,-1.0652 -0.967256,-1.0785 -1.116086,-1.8008 -0.183331,-0.8895 -1.088667,-2.0224 -1.541752,-2.0289 -2.35768,-0.034 -2.526641,-1.9472 -4.055481,-2.6838 -0.771292,-0.3716 -1.443527,-0.568 -2.483324,-0.602 -1.61936,-0.053 -2.176293,1.5297 -5.893157,1.2522 -0.78351,-0.059 -0.678968,-0.5819 -1.346274,-0.3924 -0.647869,0.2372 -1.409651,2.3223 -1.667882,2.8689 0,-3.6111 2.376977,-6.5564 2.719897,-10.096 0.206169,-2.1311 -0.08816,-3.9332 -0.355415,-6.0199 -0.09649,-0.7524 -0.07219,-1.5778 -0.550477,-2.2158 -0.417196,-0.5567 -1.144686,-0.9524 -1.221739,-1.7104 0.556724,0.1736 1.169676,-0.2395 1.10373,-0.8497 -0.37624,0.1007 -0.676816,0.3832 -0.805237,0.7497 0.136751,-0.7247 0.721243,-1.2335 1.039173,-1.87 0.205474,-0.4117 -0.09233,-1.0698 0.148552,-1.3453 1.086376,-1.244 -0.576855,-3.4501 -0.986416,-4.6815 -0.169377,0.2971 -0.285304,0.6136 -0.347085,0.9496 -1.102342,-0.8344 -0.839251,-2.5601 -1.950618,-3.3987 -0.177013,0.7372 -0.443574,1.4522 -0.598374,2.1971"
       id="path3882"
       style="fill:#b3b3b3;fill-opacity:1;stroke:#757575;stroke-width:0.39999998;stroke-miterlimit:9.75;stroke-opacity:1;stroke-dasharray:none"
       inkscape:connector-curvature="0" />
    <path
       inkscape:connector-curvature="0"
       style="fill:#b3b3b3;fill-opacity:1;stroke:#757575;stroke-width:0.40000001;stroke-miterlimit:9.75;stroke-opacity:1;stroke-dasharray:none"
       inkscape:transform-center-y="-111.29006"
       inkscape:transform-center-x="-37.450028"
       id="iq"
       d="m 243.32813,943.03844 c 3.02843,-1.48523 5.68865,-2.93494 8.3825,-4.78536 0.85634,-0.58822 1.78007,-1.31613 2.27231,-2.06748 0.94524,-1.44281 0.19166,-3.35006 0.38033,-3.88993 0.0202,-2.24304 0.6249,-2.52049 0.49614,-3.59828 -0.14375,-1.20478 -1.85824,-3.31977 -0.53494,-4.35086 0.75713,-0.58994 1.69725,-0.56524 2.47873,-1.21744 0.6562,-0.54763 2.42113,-1.98139 1.89759,-2.56022 -0.23934,-0.26461 0.24047,0.0249 0.59935,-0.0842 0.59282,-0.1791 0.78615,-0.73645 1.04417,-1.2091 0.25331,-0.46389 2.89351,-0.035 3.47223,0.1874 0.45815,0.17598 0.92048,0.34222 1.40293,0.4415 0.79343,0.1639 1.03084,-0.34961 1.72086,-0.47759 1.73999,-0.32273 0.55226,1.9573 1.53897,1.86802 0.71886,-0.0651 1.00418,-1.15357 1.79554,-1.12372 1.00446,0.0374 0.96877,1.74432 1.40959,2.33504 0.20889,0.28045 0.48159,0.23118 0.65583,0.58242 0.21248,0.42899 -0.0694,1.03933 0.29183,1.39235 0.76122,0.74396 2.43467,1.47698 1.75125,2.76183 1.12956,-0.25267 1.59347,0.76149 2.0971,0.95211 0.963,0.36458 0.97738,-0.39927 3.05364,0.15002 -0.18113,0.78026 -1.08749,0.59934 -1.41303,1.2026 -0.55119,1.01903 1.00611,1.77679 1.09565,2.70281 0.11733,1.22242 -1.37653,-0.12158 -1.33347,1.11762 0.0179,0.55811 -0.58521,0.46412 -0.73931,0.9896 -0.1742,0.59423 0.11866,1.03669 0.22076,1.58438 -0.37765,-0.002 -0.72751,-0.10206 -1.04892,-0.30058 -0.0847,0.50265 -0.43391,0.88502 -0.0374,1.30089 0.43218,0.45321 0.75656,0.64683 0.51798,1.38986 -0.22762,0.70876 -0.86243,0.86965 -0.25225,1.42152 0.52271,0.47203 0.98204,1.03666 1.56952,1.43136 0.58686,0.39431 3.64396,3.0141 1.90202,3.5035 0.67917,0.16568 0.50681,0.95617 1.06694,0.82591 0.80495,-0.18718 1.25581,0.325 1.90077,0.68917 1.18488,0.66905 1.94207,2.18908 3.58205,2.31686 0.77755,0.0607 2.21066,2.59373 2.89734,3.20055 1.03867,0.91789 0.40178,1.86607 0.14082,3.12876 -0.12493,0.60325 -0.0936,2.3159 0.80053,2.37977 0.31374,0.0228 0.83856,-0.0423 1.08428,0.27069 0.31724,0.40195 0.31578,1.21224 0.24351,1.70338 -0.16053,1.09114 0.40879,1.41086 1.62853,2.28977 0.61503,0.44323 0.47599,1.81849 1.34766,2.02909 -0.45052,0.0341 -3.13655,-0.3489 -3.19623,-0.84037 0.36999,0.87326 -1.16608,0.17262 -1.76652,0.1462 -0.86841,-0.0374 -1.99129,0.16769 -2.38461,1.00322 -0.85244,1.8111 -0.69959,5.41919 -3.59233,5.08827 l -7.30087,-0.8352 c -2.4437,-0.34957 -2.5354,-1.63402 -4.77076,-3.03897 -6.18192,-4.54685 -12.10348,-9.99555 -19.02532,-13.02774 -2.48722,-1.08956 -4.69599,-0.99688 -6.94345,-1.49258 1.40884,-1.52668 -0.28801,-0.85388 -0.71042,-1.50333 -0.10484,-0.16143 -0.19233,-0.48278 -0.10148,-0.6452 0.35333,-0.40539 0,-0.81786 -0.21718,-1.4093 -0.49078,-1.3092 -0.95496,-2.59631 -1.37076,-3.92911"
       class="landxx iq" />
    <path
       inkscape:connector-curvature="0"
       style="fill:#b3b3b3;fill-opacity:1;stroke:#757575;stroke-width:0.40000001;stroke-miterlimit:9.75;stroke-opacity:1;stroke-dasharray:none"
       inkscape:transform-center-y="-57.34635"
       inkscape:transform-center-x="251.5772"
       id="eh"
       d="m -42.40618,1018.7585 c -0.821902,-1.448 0.397059,-3.9047 0.646971,-5.4062 0.171505,-1.0266 0.435928,-1.9894 0.985706,-2.8849 0.665711,-1.0857 1.883977,-1.0878 2.292857,-2.4449 0.209567,-0.6956 0.196357,-1.7667 0.887839,-2.1818 0.3922,-0.2347 0.160311,-1.0225 0.466488,-1.4717 0.489394,-0.7184 2.460132,-3.1716 1.911742,-4.1039 -0.368601,0.2375 -0.678899,0.5686 -0.895475,0.9497 0.861465,-1.89512 3.042532,-3.28967 4.475312,-4.75234 1.908271,-1.94852 1.53967,-3.96227 2.46846,-6.35228 0.760129,-1.9542 1.34947,-4.1109 3.249411,-5.19313 2.093613,-1.19263 3.232127,-2.16504 4.099076,-4.47118 0.551032,-1.46591 1.594167,-3.54662 1.232439,-3.11984 l 23.2541446,-0.18779 -0.3311878,10.13163 -17.2546568,0.19914 -0.794116,15.15579 c -1.026678,0.7407 -2.485834,0.8219 -3.558321,1.489 -1.613937,1.003 -2.265767,2.0762 -2.138034,3.9825 0.07434,1.1078 0.924626,6.8799 -0.251996,7.2131 l -19.193108,0 c -1.473037,7e-4 -1.708353,2.4067 -1.553551,3.4493"
       class="landxx eh" />
    <path
       inkscape:connector-curvature="0"
       style="fill:#b3b3b3;fill-opacity:1;stroke:#757575;stroke-width:0.40000001;stroke-miterlimit:9.75;stroke-opacity:1;stroke-dasharray:none"
       inkscape:transform-center-y="-120.89145"
       inkscape:transform-center-x="-11.461677"
       id="sy"
       d="m 227.38303,943.63822 c 0.43531,-0.55151 1.27367,-1.69906 2.04781,-1.84928 -1.18148,-1.10235 0.50674,-1.79583 1.49869,-1.49941 -0.87187,-1.0593 0.42743,-1.18799 0.72764,-2.20039 0.16637,-0.56099 -0.53076,-1.69565 -1.1737,-1.81484 -0.73318,-0.13589 0.66287,-1.18799 -0.47328,-0.86936 -1.89328,0.53092 -2.03273,-0.67628 -2.12041,-1.65587 -0.0797,-0.89024 0.49634,-2.51638 -0.30335,-3.17167 -0.64074,-0.52549 -0.14285,-1.92243 -0.16725,-2.69087 -0.018,-0.57684 1.0543,0.32971 1.26047,0.43177 0.0156,0.0763 0.26254,-0.51221 0.71806,-0.7876 0.56213,-0.33983 0.18225,-1.10444 0.28085,-1.63547 0.48939,0.11799 1.00932,-0.0224 1.49942,-0.0492 -0.39138,-0.80317 -0.64712,-1.01141 -0.75944,-1.9777 -0.041,-0.35165 -0.009,-1.34502 0.48384,-1.4679 0.37068,-0.0929 0.74305,-0.0965 1.03807,0.0591 0.7955,0.41859 0.9517,1.12924 1.77151,1.0015 1.00031,-0.15605 1.66365,-0.27474 2.61814,-0.68706 0.97879,-0.42277 1.69586,-1.01003 2.79472,-0.85244 0.8115,0.11597 1.2884,0.6925 1.97492,1.01389 0.78163,0.36654 2.31214,0.21404 3.15903,0.14105 2.16143,-0.18606 3.70527,-1.42072 5.66248,-2.20343 1.97866,-0.79132 4.14032,0.31874 6.17077,-0.49177 1.03652,-0.41374 2.55809,-1.99755 2.70906,0.47925 0.0353,0.57688 -1.37168,1.74655 -1.77707,2.14778 -0.73514,0.72817 -1.55494,0.67681 -2.38309,1.16273 -1.77708,1.04334 0.0847,3.30217 0.22421,4.54889 0.0826,0.73722 -0.36305,1.64172 -0.41649,2.40391 -0.0784,1.13498 2e-4,2.97102 -0.007,4.09487 -0.0134,2.62919 -11.08362,7.65817 -16.70168,11.50382 -1.52979,1.04719 -4.00466,3.56596 -5.99416,2.17345 -0.72401,-0.50605 -1.24547,-0.89511 -1.99225,-1.40846 -1.29553,-0.89063 -1.87779,-0.22394 -2.09265,-0.25491 -0.0452,-0.16321 0.46814,-3.26802 -0.27933,-3.59427"
       class="landxx sy" />
    <path
       style="fill:#b3b3b3;fill-opacity:1;stroke:#757575;stroke-width:0.39999998;stroke-miterlimit:9.75;stroke-opacity:1;stroke-dasharray:none"
       d="M 378.4375 74.6875 C 378.33275 74.679766 378.23643 74.752825 378.15625 74.875 C 377.46833 75.92111 377.86409 78.18721 378.375 79.21875 C 378.56728 79.60609 379.52269 79.32531 378.9375 80.09375 C 378.40438 80.79414 377.17684 80.1746 376.5625 80.90625 C 377.9307 81.70874 375.1759 86.777 375.6875 88.25 C 376.09428 89.4218 377.38637 90.3143 378.03125 91.375 C 378.92673 92.8494 378.05624 94.79545 377.6875 96.34375 C 377.15458 98.58175 376.81021 100.93275 376.28125 103.28125 C 376.21338 103.58259 376.18355 103.77301 376.15625 103.9375 C 376.06366 104.06375 375.93971 104.26608 375.71875 104.6875 C 372.40895 106.485 367.83926 108.22645 360.53125 109.90625 L 360.5 109.90625 C 361.24138 112.16645 362.58725 114.9092 363.71875 117 C 364.04223 117.5991 365.62058 120.0072 364.96875 120.6875 C 366.50634 120.8555 365.88042 124.36525 367.3125 124.40625 C 369.52343 124.46875 371.43212 122.34375 373.625 122.34375 C 374.38234 122.34375 374.88983 122.2064 375.5 122.6875 C 375.85334 122.9659 376.2168 122.7298 376.5625 122.5625 C 377.27958 122.2133 378.17015 121.5781 378.21875 120.6875 C 378.27983 119.5678 377.80029 119.38645 378.53125 118.40625 C 379.28582 117.39345 379.80815 117.18975 381.09375 117.09375 C 382.15514 117.01385 383.48499 117.05935 384.15625 116.15625 C 384.69562 115.43085 384.86675 114.4837 385.0625 113.625 C 385.56161 111.4398 387.78553 110.84125 389.8125 110.78125 C 391.07381 110.74305 390.90753 109.94465 390.625 108.90625 C 390.27863 107.63585 389.84042 106.6238 390.21875 105.3125 C 390.50752 104.3094 390.44142 101.8664 391.5625 101.1875 C 392.50241 100.6037 392.35863 101.99865 393.09375 102.21875 C 394.02255 102.49775 394.24729 100.80465 394.40625 100.21875 C 395.07891 97.73635 397.55656 96.53595 398.34375 94.21875 C 398.76025 92.99215 401.12278 90.0233 399.03125 89.1875 C 398.13924 88.8314 397.80042 88.80105 397.125 88.03125 C 396.47595 87.29195 396.02613 86.36645 395.375 85.59375 C 394.56837 84.63585 393.78417 82.9083 392.375 82.75 C 391.32125 82.632 390.44126 82.23875 389.40625 82.03125 C 387.19462 81.58695 385.02161 80.97501 383.46875 79.25 C 382.4865 78.15876 381.67893 76.89391 381.0625 75.5625 C 380.69182 74.76142 380.7206 74.65092 380.125 75.21875 C 379.93202 75.40201 378.71263 76.70577 379.03125 75.5 C 379.10726 75.210012 378.75176 74.710701 378.4375 74.6875 z M 395.65625 100.40625 C 395.39871 101.49055 394.27934 102.2907 394.71875 103.5 C 395.18454 103.087 395.33897 102.52475 395.5625 101.96875 C 395.68953 101.80145 395.8584 101.65065 396.03125 101.53125 C 396.22076 101.30835 395.7097 100.63885 395.65625 100.40625 z "
       transform="translate(-42.885084,918.86413)"
       id="om"
       inkscape:label="#path4692" />
    <path
       class="landxx om"
       d="m 335.63958,986.92109 c 0.1437,-0.40192 0.32626,-0.78441 0.5477,-1.14885 0.47204,0.52757 0.92603,-0.1902 0.70181,-0.65043 0.4054,0.21935 1.21966,1.59867 0.20131,1.34946 0.6546,0.45468 0.17632,3.24108 -0.54631,3.11266 -0.98156,-0.17354 0.34778,-2.59897 -0.90451,-2.66284"
       id="path4696"
       style="fill:#b3b3b3;fill-opacity:1;stroke:#757575;stroke-width:0.39999998;stroke-miterlimit:9.75;stroke-opacity:1;stroke-dasharray:none"
       inkscape:connector-curvature="0" />
    <path
       class="landxx tn"
       d="m 85.890371,938.94008 c 0.119397,-0.58866 0.670568,-0.81287 1.098177,-1.13844 0.665709,-0.50674 0.721173,-0.96057 1.457757,-1.51954 0.588101,-0.44629 1.031121,-1.2813 1.258461,-2.02146 0.456417,-1.48558 0.329037,-2.64189 0.402619,-4.0671 0.04651,-0.89746 -0.51917,-1.67781 -0.399078,-2.57815 0.136057,-1.02251 1.271025,-2.96619 -0.367911,-3.31952 0.589351,-0.6796 1.548694,-1.02876 2.003375,-1.83469 0.16799,-0.2978 0.06039,-0.80802 0.469259,-0.92533 0.449128,-0.12842 0.730267,-10e-4 1.087071,-0.37902 0.776082,-0.8219 1.58479,-1.18634 2.674637,-1.49802 0.50605,-0.14439 1.200914,-0.52479 1.73959,-0.3096 0.639331,0.25615 0,0.56575 0.0715,1.0475 0.532428,0 0.658767,-0.26517 0.347085,-0.69972 0.976697,0.21242 1.256448,0.0639 1.652125,0.94963 0.174237,0.38942 -0.36791,0.42691 0.158271,0.7976 0.402618,0.28391 0.467871,0.77747 0.09232,1.10164 0.03054,-0.0319 0.449131,0.46024 0.876051,0.28461 0.58032,-0.23948 1.07041,-0.71291 1.54383,-1.11206 0.18465,-0.15549 0.82467,-0.84411 1.12386,-0.70805 0.71569,0.32626 0.62059,1.03154 0.29641,1.61881 -0.62197,1.12663 -2.74891,2.20746 -2.82041,3.48889 -0.0528,0.96212 0.51577,2.12139 1.38487,2.59065 1.31545,0.70874 1.27172,0.74206 1.58479,2.25119 0.39429,1.90064 -0.93366,3.87625 -2.3935,5.02926 -1.451513,1.14608 -3.671469,1.79166 -2.232455,4.01717 0.315848,0.48939 0.737903,0.95031 1.277975,1.19605 0.60115,0.2735 0.8455,-0.10274 1.39875,-0.0257 0.18187,0.025 0.2971,0.91561 0.40817,1.10373 0.27142,0.45884 1.03154,-0.89409 1.44596,-0.74346 0.56644,0.20617 0.18395,0.6664 0.35402,1.04959 0.23672,0.53242 1.05237,1.01487 0.20131,1.09956 0.44774,0.47828 1.42375,-0.0479 1.84164,0.50189 0.34916,0.46023 -0.22769,2.24911 -0.10205,2.92106 0.18812,1.00724 0.92394,1.43684 -0.1802,2.09774 -1.09207,0.65369 -3.32681,1.37868 -3.97649,2.27831 -0.37138,0.29572 -0.24143,1.14763 -0.76018,1.35801 -1.103043,0.44738 -2.150962,0.81143 -1.714537,2.49255 0.34889,1.34393 0.866327,2.40044 0.08816,3.71867 -0.907281,1.53759 -1.704882,2.12555 -3.298003,2.82458 -0.381099,-2.50873 -1.099565,-4.92449 -1.59312,-7.40679 -0.510909,-2.56959 -0.769904,-4.05153 -2.937797,-5.25626 -1.013003,-0.56293 -1.467615,-1.24335 -1.722375,-2.3679 -0.223523,-0.9892 -0.671263,-1.69009 -1.570213,-2.21835 -0.449128,-0.26448 -0.882082,-0.47911 -1.180575,-0.95114 -0.305435,-0.48384 -0.200476,-1.13926 -0.506258,-1.62857 -0.635166,-1.01655 -0.98482,-2.09456 -0.582895,-3.10984"
       id="path5410"
       style="fill:#b3b3b3;fill-opacity:1;stroke:#757575;stroke-width:0.39999998;stroke-miterlimit:9.75;stroke-opacity:1;stroke-dasharray:none"
       inkscape:connector-curvature="0" />
    <path
       d="m 102.73094,941.43909 c -0.0819,-0.66501 -0.54145,-0.12495 -0.69417,-0.44982 -0.37347,-0.79482 -0.007,-1.04958 0.66362,-1.04056 1.46887,0.0194 0.55048,0.89617 0.0306,1.49038"
       id="path5412"
       style="fill:#b3b3b3;fill-opacity:1;stroke:#757575;stroke-width:0.39999998;stroke-miterlimit:9.75;stroke-opacity:1;stroke-dasharray:none"
       inkscape:connector-curvature="0" />
    <path
       inkscape:connector-curvature="0"
       style="fill:#b3b3b3;fill-opacity:1;stroke:#757575;stroke-width:0.40000001;stroke-miterlimit:9.75;stroke-opacity:1;stroke-dasharray:none"
       inkscape:transform-center-y="-72.080611"
       inkscape:transform-center-x="28.936737"
       id="eg"
       d="m 173.65426,963.28045 c -0.98919,-1.58341 1.04819,-3.24228 0.79761,-4.86614 -0.26905,-1.74325 -1.8574,-2.96047 0.65252,-5.02993 0.0528,1.27031 1.53341,0.81562 2.30117,0.58725 1.40292,-0.41719 2.55247,0.048 3.94636,0.18808 1.52509,0.15269 2.98841,0.49216 4.4649,0.88575 0.62407,0.16658 0.72331,0.8455 1.35711,1.04125 0.56296,0.17352 0.99128,0.10345 1.54937,0.0444 0.37486,-0.0403 0.54839,0.54562 0.97116,0.63309 0.46299,0.0958 0.93573,0.0979 1.40292,0.14442 1.50148,0.14844 2.50387,1.09052 3.91234,1.32586 1.36196,0.22769 2.66421,-0.6893 3.64092,-1.52231 0.50675,-0.43178 0.97878,-0.90105 1.44316,-1.37793 0.39778,0.31028 0.69767,0.6296 1.20091,0.54978 -0.28736,-0.14441 -0.2249,-0.22699 -0.60391,-0.19994 0.49217,-0.26102 0.98365,-0.73512 1.10372,-1.2995 0.85036,0.50814 1.65006,-0.40469 2.49902,-0.39845 -0.5706,0.26241 -1.11831,0.58865 -1.55424,1.04889 0.15068,-0.0888 3.59511,-1.1301 1.95061,-1.2495 1.21688,-0.40263 2.00685,0.99059 3.17584,0.82468 0.55811,-0.079 1.08428,-0.63101 1.67642,-0.42414 0.55048,0.19165 0.81009,0.98919 1.29809,1.29879 -0.49426,-0.3457 -1.0003,-1.10512 -1.65211,-1.14885 0.193,0.51785 -0.52062,1.49733 0.32207,1.69863 0.91632,0.21875 0.48732,0.44567 1.08015,0.99961 0,-0.20397 1.63476,-0.89409 0.45119,-1.44944 1.25925,0.29295 1.67782,1.45499 3.15502,1.32587 0.47898,-0.0416 1.89301,-0.92602 1.6417,0.12359 0.91562,-0.5817 1.943,-0.24225 2.92662,-0.53867 0.86634,-0.26033 1.73343,-0.59949 2.42829,-1.20273 l 4.2202,11.14094 c -1.06693,1.35711 -0.82857,3.86676 -1.50746,5.47445 -0.39706,0.9399 -0.38041,1.52579 -0.36999,2.51915 0.009,0.84966 -1.07111,1.67151 -0.80523,2.49969 -0.51577,-0.47694 -1.20577,-0.69207 -1.775,-1.09057 -0.72264,-0.50601 -1.22799,-1.24321 -1.72293,-1.95614 -0.62683,-0.90381 -2.46013,-1.49384 -2.19428,-2.85095 0.26796,-1.36751 -1.05097,-2.31576 -1.72501,-3.27926 -0.93226,-1.33073 -1.59728,-2.8808 -1.9749,-4.46767 -0.62615,0.67265 -1.29256,2.14011 -0.63934,2.90788 1.11693,1.31544 1.001,2.93009 1.93742,4.28928 0.8108,1.17732 1.6327,2.6184 2.64619,3.62287 0.44842,0.44425 0.96002,0.82675 1.36891,1.31057 0.21382,0.25335 1.09469,1.7056 0.0327,0.91356 0.85939,0.67051 0.14844,1.5243 0.69347,2.07688 0.73166,0.74141 1.1204,1.52719 1.50359,2.46149 0.18807,0.45956 0.49841,0.8532 0.76566,1.26619 0.20397,0.31591 -0.20129,0.71848 -0.21943,1.02744 -0.025,0.41299 0.64976,1.02593 0.83371,1.38204 0.42273,0.81497 0.88367,1.61048 1.3106,2.42407 1.40152,2.67256 2.81624,5.29785 4.1428,8.01142 0.51924,1.06138 1.28212,1.82144 1.93395,2.77532 0.60672,0.88784 1.67018,1.16274 2.23245,2.06587 -0.53173,0.0278 -1.06832,-0.0637 -1.5473,-0.29992 -0.35055,1.45014 -0.18136,3.66414 0.5588,4.51904 0.70464,0.8138 -0.92178,2.448 -1.91383,2.4962 -0.49147,0.024 -0.67813,-0.3339 -1.17348,0.2185 -0.39021,0.4352 -0.59594,1.1815 -0.77365,1.7396 -0.20397,0.6449 -0.50744,1.2148 -1.21966,1.3808 -0.57617,0.1338 -1.61298,0.016 -1.91911,0.6769 -0.55949,1.21 -0.21807,2.6219 -1.92369,2.4865 -1.98706,-0.1578 -2.99735,-1.7689 -4.04423,-1.7251 -3.44899,0.1445 -5.42861,0.459 -8.13234,0 0.0777,-0.2714 0.3915,-0.8454 0.19792,-1.1245 -0.488,-0.7059 -0.86216,0.574 -1.0239,0.8053 -0.64766,0.926 -3.88387,0.3693 -4.92095,0.3693 l -27.82869,-0.06 -0.99198,-37.6137 c -0.10414,-1.75833 -0.0612,-3.60274 -0.30405,-5.34441 -0.20822,-1.49802 -0.5928,-3.71382 -1.26685,-5.06399"
       class="landxx eg" />
    <path
       d="m 266.97158,1043.9985 c -0.0285,-0.5629 -0.26101,-1.0877 -0.74901,-1.4001 -0.0111,0.184 -0.0299,0.3672 -0.0555,0.5498 -0.65113,0.026 -0.88507,-0.6623 -1.44387,-0.8497 0.54145,0.901 1.93604,0.883 2.24841,1.7"
       id="path3234"
       style="fill:#b3b3b3;fill-opacity:1;stroke:#757575;stroke-width:0.39999998;stroke-miterlimit:9.75;stroke-opacity:1;stroke-dasharray:none"
       inkscape:connector-curvature="0" />
    <path
       class="landxx sa"
       d="m 270.32442,1044.9239 c 0.0673,-0.6303 -0.31723,-2.1242 -0.88437,-2.4852 -0.28877,-0.1839 -1.68753,-3.123 -1.607,-1.7048 -0.12981,-2.54 -1.89023,-3.1932 -3.29106,-4.9127 -0.53035,-0.6511 -1.27866,-1.591 -1.52718,-2.3872 -0.3214,-1.0274 -0.90103,-1.3203 -1.42721,-2.1554 -0.30821,-0.4901 -0.0458,-0.9177 -0.40123,-1.421 -0.25337,-0.3575 -0.67682,-1.4952 -0.84411,-1.9541 -0.15688,-0.4297 -0.25199,-0.8837 -0.4533,-1.2967 -0.18534,-0.3797 -0.57199,-0.4332 -0.75803,-0.7671 -0.17771,-0.3207 -0.007,-0.758 -0.24921,-1.0391 -0.2492,-0.2839 -0.65599,-0.3235 -0.92602,-0.5748 -0.6782,-0.631 -1.46331,-1.2689 -2.06238,-1.9721 -0.72679,-0.8539 -1.57854,-0.4964 -2.39836,-1.1003 -1.35988,-1.0038 -2.26438,-2.8676 -3.1189,-4.2948 -0.49772,-0.831 -0.35472,-1.3065 -0.39637,-2.1832 -0.0458,-0.9496 -0.73305,-1.7354 -0.80385,-2.6955 -0.093,-1.2599 0.4283,-2.5129 0.1777,-3.7679 -0.11453,-0.572 -0.42691,-1.0558 -0.73373,-1.5383 -0.16105,-0.2541 -1.13775,-1.514 -0.0354,-0.6525 -0.24226,-0.6331 -0.79274,-0.64 -0.93574,-1.3335 -0.12842,-0.6199 -0.43246,-1.2981 -0.67473,-1.8833 -0.67057,-1.6209 -1.97908,-2.7253 -3.20568,-3.89152 -0.89478,-0.84966 -1.78124,-0.98364 -2.87247,-1.28213 -0.4651,-0.12703 -0.68723,-1.0121 -0.82398,-1.38973 -0.29294,-0.8094 -0.85939,-1.36474 -1.36682,-2.03947 1.75625,-0.64002 -0.69001,-3.52291 -1.26339,-4.22055 -0.38666,-0.46857 -1.47164,-1.3224 -1.42514,-1.9409 0.0812,-1.06555 -1.29115,-1.68128 -1.75278,-2.63993 -1.39944,-2.90858 -3.60829,-5.32498 -5.15907,-8.17871 -0.47273,-0.86911 -1.0003,-2.20955 -2.04225,-2.50318 -0.47342,-0.13328 -2.33518,-0.44288 -2.37198,0.43108 -0.62267,-0.56922 0.38388,-2.06516 0.55881,-2.66284 0.36652,-1.25298 0.0736,-2.55643 0.27836,-3.82141 0.25942,-1.6025 0.01,-0.60503 0.23498,-1.56005 1.19606,0.35581 4.48677,1.2392 5.68005,0.97903 2.37059,-0.51685 2.3331,-3.96371 4.5607,-4.31496 0.83508,-0.13189 2.8849,0.0792 2.79542,-1.04681 -0.20416,-2.56802 0.91304,-1.79707 2.4675,-2.32134 -2.02879,-1.94332 -3.95886,-3.97008 -5.81472,-6.07677 3.60448,-0.75302 5.99714,-1.56514 10.24595,-3.835 1.79978,0.34517 5.00983,0.54135 6.983,1.45483 6.6303,3.06941 12.09134,7.76211 17.8467,12.14163 1.21896,0.92811 2.4053,1.84927 3.54305,2.87179 1.29601,1.16412 2.19684,1.106 3.90449,1.27121 1.96867,0.1902 4.04306,0.46838 6.01242,0.65025 0.72263,0.0673 1.07943,-0.30127 1.86385,-0.13189 1.05999,0.22838 2.15956,0.35749 3.23899,0.45537 1.144,0.10274 1.23424,1.43277 1.59937,2.2748 0.54076,1.25089 2.36296,0.46093 3.39727,0.55186 1.06972,0.0944 1.20925,0.67404 1.55911,1.54939 0.37832,0.94754 2.25952,2.1547 1.96728,3.21748 -0.0965,-0.1673 -0.2145,-0.31724 -0.35473,-0.44913 -0.32001,0.76151 0.44774,0.67473 0.35473,1.34669 0.0132,0.0104 3.21539,0.30682 1.99226,1.24742 0.46926,0.14856 1.4654,2.55108 1.94368,1.19745 -0.31932,1.20508 2.57259,2.55871 3.24177,3.29106 -0.3568,-0.1069 -0.62267,-0.32348 -0.79829,-0.64836 0.0167,1.32865 0.8219,1.34808 1.10789,2.41433 0.1673,0.62475 0.10066,1.94298 -0.8087,1.12733 0.0826,0.70875 -0.14647,0.84966 0.49772,0.98017 0.0993,0.0194 0.94337,1.84996 1.00168,2.06238 -0.18742,-0.16174 -0.36999,-0.32835 -0.54909,-0.49911 0.55326,0.81148 1.54106,1.26755 1.97839,2.16581 0.44357,0.90797 0.57824,1.74098 1.11137,2.62327 0.40956,0.6789 1.00168,1.84233 1.84996,2.05058 0.38804,0.0951 1.79582,-0.27281 1.59312,0.49286 0.14855,-0.38874 0.48522,-0.53104 0.84758,-0.29988 -0.47412,0.57893 -0.90256,2.15757 0.69889,1.74871 -0.10551,0.0271 0.81926,1.83014 0.90811,1.95718 1.84643,2.09521 4.33711,5.78081 5.31589,6.17811 6.08343,0.6796 8.89641,1.0101 12.20622,1.7471 0.43142,-0.1034 0.80947,-0.3626 0.94761,-0.6418 0.73867,1.7075 2.41648,2.6011 2.69845,3.7096 0.25476,1.0016 0.18374,1.6667 -0.0788,2.6968 -0.87896,3.4489 -1.36307,9.6605 -2.63695,10.3468 -8.67303,4.6729 -19.52756,6.3081 -29.83473,8.0156 -1.33697,0.4734 -2.62299,1.0779 -3.84328,1.7841 -1.83496,1.0619 -3.61919,4.2517 -4.21451,6.1559 -0.2751,0.88 -1.31059,1.8435 -2.27896,1.8477 -1.0121,0 -1.19918,-1.6412 -2.02399,-1.9187 -0.93727,-0.3154 -1.62929,0.1635 -2.43737,0.065 -1.25305,-0.1534 -2.92787,0.043 -4.05416,-0.536 -1.35294,-0.6962 -2.34984,-0.3767 -3.84855,-0.3737 -1.31268,0 -2.6988,0.8063 -4.00571,0.7896 -1.62276,-0.021 -1.85996,-1.2556 -2.70449,-1.0336 -1.13184,0.2976 -1.43207,1.7835 -1.4951,2.7227 -0.0625,0.9269 1.09755,1.4658 0.11523,2.1353 -0.1884,0.1284 -0.38492,1.4414 -1.79728,1.9085 -0.009,-0.1243 0.0725,-0.158 0.0653,-0.2795"
       id="sa"
       style="fill:#b3b3b3;fill-opacity:1;stroke:#757575;stroke-width:0.39999998;stroke-miterlimit:9.75;stroke-opacity:1;stroke-dasharray:none"
       inkscape:connector-curvature="0"
       inkscape:label="#path3380" />
    <path
       d="m 265.27087,1041.3496 c 0.3686,0.092 0.45121,0.2082 0.2499,0.3498 -0.0833,-0.1166 -0.1666,-0.2332 -0.2499,-0.3498"
       id="path5480"
       style="fill:#b3b3b3;fill-opacity:1;stroke:#757575;stroke-width:0.39999998;stroke-miterlimit:9.75;stroke-opacity:1;stroke-dasharray:none"
       inkscape:connector-curvature="0" />
    <path
       d="m 301.10462,979.47404 c 0.24643,-0.37416 0.6317,-0.2742 0.90242,0 -0.30127,0.0576 -0.60184,0.0576 -0.90242,0"
       id="path5488"
       style="fill:#b3b3b3;fill-opacity:1;stroke:#757575;stroke-width:0.39999998;stroke-miterlimit:9.75;stroke-opacity:1;stroke-dasharray:none"
       inkscape:connector-curvature="0" />
    <path
       inkscape:connector-curvature="0"
       style="fill:#b3b3b3;fill-opacity:1;stroke:#757575;stroke-width:0.40000001;stroke-miterlimit:9.75;stroke-opacity:1;stroke-dasharray:none"
       inkscape:transform-center-y="17.139782"
       inkscape:transform-center-x="-38.688647"
       id="dj"
       d="m 266.16701,1077.2354 c 0,-1.6111 -0.62474,-3.2126 0.35194,-4.669 0.73512,-1.0954 1.40846,-2.0894 2.04572,-3.2397 0.74414,-1.3431 1.11901,-0.6239 2.18386,-0.338 0.54006,0.1433 0.51092,-0.7017 0.72263,-0.9816 0.32835,-0.4332 0.89547,-0.6046 1.34599,-0.867 0.46442,1.019 2.41225,2.9183 1.47375,4.1089 -0.48108,0.6107 -1.98395,1.3077 -2.70242,1.5909 -0.73723,0.2909 -0.83231,1.1627 -1.67364,1.2981 0.55185,0.711 2.19913,-0.4602 2.99881,-0.15 1.44596,0.5602 0.007,1.9748 -0.3811,2.7697 -0.58171,1.1995 -1.50633,-0.052 -2.40947,0.1858 -0.92324,0.2422 -3.34034,1.4495 -3.95607,0.2924"
       class="landxx dj" />
    <path
       inkscape:connector-curvature="0"
       style="fill:#b3b3b3;fill-opacity:1;stroke:#757575;stroke-width:0.40000001;stroke-miterlimit:9.75;stroke-opacity:1;stroke-dasharray:none"
       inkscape:transform-center-y="-102.56488"
       inkscape:transform-center-x="220.59956"
       id="ma"
       d="m -20.470405,977.32487 c 0.240173,-0.26448 1.019737,-1.50148 1.293921,-1.60145 0.982256,-0.35747 2.056848,-0.40329 3.072397,-0.62682 1.884673,-0.4151 3.795742,-1.01071 5.21809,-2.37406 1.394585,-1.33695 2.846105,-2.38725 4.3059337,-3.62634 1.3987485,-1.18634 2.4670716,-2.76904 3.586778,-4.20944 0.7594125,-0.97739 2.5038805,-3.79155 1.0322302,-4.85781 -0.5699063,-0.41233 -0.9704566,-0.42621 -0.60602,-1.1905 0.3616818,-0.75872 0.3234852,-1.51746 0.3644586,-2.34489 0.113969,-2.30396 0.9461418,-3.33204 2.3559965,-5.04872 0.8059384,-0.98156 0.584504,-1.98045 0.92326,-3.10918 0.245726,-0.81705 0.9169904,-1.45011 1.5278701,-2.00616 1.3050259,-1.18911 2.339339,-2.65311 3.9768954,-3.39308 1.7826206,-0.80594 3.6777025,-1.43556 5.3811975,-2.40532 3.370203,-1.91938 4.991774,-6.59461 6.268366,-10.03561 0.123591,-0.33251 0.571294,-2.02906 1.08498,-1.97701 0.630313,0.0645 1.26618,-0.19098 1.80277,-0.47895 0.678206,-0.36377 0.807998,0.53659 1.005856,1.02112 0.381094,0.93573 0.889228,1.5716 1.713905,2.15747 1.722235,1.22312 3.15083,0.8809 5.12018,0.64489 1.632698,-0.19502 3.708958,0.7976 4.70232,-1.12041 -0.01567,0.62477 0.15628,0.78026 0.24295,1.25438 0.09292,0.50813 1.016267,0.76498 0.208225,-0.0548 0.436642,0.60532 1.217571,0.91424 1.918703,0.56507 0.714298,-0.35611 1.139813,0.37762 1.579927,0.7844 0.472041,0.43665 1.314743,0.68376 1.596584,1.2995 0.322097,0.70388 -0.375542,1.34877 0.603938,1.7493 -0.530344,0.4158 -0.358189,1.17939 -0.257548,1.73889 0.159639,0.88576 -0.135457,1.66463 -0.03471,2.51915 0.08128,0.68654 0.52618,1.12455 0.355414,1.86177 -0.256832,1.10858 -0.130532,1.50219 0.397775,2.47748 0.268631,0.49633 0.02508,0.93853 0.293617,1.3932 0.399163,0.67612 1.024596,0.94478 1.613959,1.41057 1.086368,0.85868 -2.163737,2.2845 -0.425538,2.94328 -1.794419,0.4609 -8.085688,-1.69725 -9.008926,0.73928 -0.481758,1.27243 -1.736139,1.75694 -3.094609,1.64311 -1.027372,-0.0869 -2.291469,1.3814 -0.891333,1.76596 -1.185643,1.08428 0.990586,1.88745 0.471347,2.40183 -0.59281,0.58795 -1.631982,0.37554 -2.272707,0.84272 -0.67057,0.49009 -1.406384,1.22451 -2.200522,1.49872 -0.600469,0.20689 -1.278673,0.18875 -1.842333,0.50398 -1.092615,0.61015 -1.532729,1.88952 -2.333786,2.78499 -0.917707,1.02669 -2.614261,1.42791 -3.948439,1.48067 -1.002385,0.0389 -2.081141,-0.3811 -2.485834,0.81355 -0.431784,1.27452 -1.684754,0.32003 -2.687834,0.39432 -0.707356,0.0519 -1.118989,0.40538 -1.5743728,0.89685 -0.4623239,0.49981 -1.0079373,0.39428 -1.5840912,0.62475 -0.6650167,0.26588 -1.0752634,0.92395 -1.6063011,1.36681 -0.5643759,0.47066 -1.2634038,0.7636 -1.8402504,1.23078 -1.1252589,0.91144 -2.1116802,1.04404 -1.9992172,2.62119 0.1117215,1.56881 -0.054181,3.3077 -0.2297626,4.86745 -0.07501,0.66102 -20.9611757,0.16323 -23.0957377,0.16323"
       class="landxx ma" />
    <path
       class="landxx lb"
       d="m 224.83546,944.73779 c 1.10373,-1.28699 1.06763,-3.60899 2.00476,-5.05564 0.4644,-0.71639 -0.0798,-1.68406 0.4533,-2.37476 0.4158,-0.53729 1.55216,-1.1315 1.18633,-1.96589 0.42831,0.0902 1.07666,0.27281 1.48692,0.0285 0.94337,-0.56227 0.27697,0.50814 0.4158,0.83023 -0.018,-0.043 0.62129,0.19576 0.68793,0.26031 0.4755,0.45746 0.20755,0.35611 0.56713,1.01558 0.76637,1.40291 -1.68197,1.62782 -0.70736,2.81277 -0.99197,-0.29641 -2.68019,0.39707 -1.49871,1.49941 -0.4401,0.10135 -1.93396,1.55078 -1.9999,1.99921 -0.10829,-0.0576 -0.19159,-0.14092 -0.24921,-0.2499 -0.16452,0.32279 -0.17431,0.70562 -0.35056,1.03501 -0.3736,0.69824 -1.45317,-0.27278 -1.99643,0.16521"
       id="lb-"
       style="fill:#b3b3b3;fill-opacity:1;stroke:#757575;stroke-width:0.39999998;stroke-miterlimit:9.75;stroke-opacity:1;stroke-dasharray:none"
       inkscape:connector-curvature="0" />
    <path
       inkscape:connector-curvature="0"
       style="fill:#b3b3b3;fill-opacity:1;stroke:#757575;stroke-width:0.39999998;stroke-miterlimit:9.75;stroke-opacity:1;stroke-dasharray:none"
       id="path5440"
       d="m 292.85719,963.43037 c 0.0979,0.21727 -1.18148,2.33102 0.40261,2.17414 1.37099,-0.13606 -0.025,-1.70974 -0.40261,-2.17414" />
    <path
       inkscape:connector-curvature="0"
       style="fill:#b3b3b3;fill-opacity:1;stroke:#757575;stroke-width:0.39999998;stroke-miterlimit:9.75;stroke-opacity:1;stroke-dasharray:none"
       id="path5486"
       d="m 285.01306,968.6776 c 2.22392,-0.80982 1.19099,-5.31826 3.51042,-5.74565 0.89673,-0.16524 2.17574,-0.24878 3.35354,0.72333 0.30481,0.25159 1.08846,1.87981 0.77886,2.2741 -0.66085,-0.92672 -1.60076,0.64488 -1.95062,1.09957 1.01487,-0.13467 2.14429,0.25961 2.39489,1.3564 0.30543,1.3335 1.32461,2.52163 1.77374,3.86832 -0.85966,-0.4936 -3.00152,0.33757 -3.84445,-0.25377 -0.65787,-0.46153 -0.73832,-1.46108 -0.99892,-2.15193 -0.34833,-0.92356 -3.67215,-0.67546 -5.01746,-1.17037"
       class="landxx kw" />
    <path
       class="landxx qa"
       d="m 308.60097,991.61926 c -0.0306,-0.27072 -0.42206,-1.93396 0.34708,-1.14954 -0.0437,-0.26934 -0.22005,-1.76458 0.25685,-0.49981 0.0382,-1.26061 0.4873,-4.58777 2.22412,-2.75308 0.43524,0.46024 1.27102,0.78303 1.27519,1.50497 0,0.50396 -0.24574,0.82328 -0.36028,1.28352 -0.1,0.39845 0.1437,0.9163 0.18257,1.31406 0.0382,0.39776 0.46093,0.4054 0.572,0.7497 0.18326,0.56159 0.0472,1.07111 -0.17979,1.58965 -0.3929,0.89757 -0.26379,1.55286 -1.24812,1.84788 -0.81773,0.24574 -1.55425,0.89618 -2.10195,-0.30474 -0.4998,-1.0954 -0.70805,-2.41363 -0.96767,-3.58261"
       id="qa-"
       style="fill:#b3b3b3;fill-opacity:1;stroke:#757575;stroke-width:0.39999998;stroke-miterlimit:9.75;stroke-opacity:1;stroke-dasharray:none"
       inkscape:connector-curvature="0" />
    <path
       style="fill:#b3b3b3;fill-opacity:1;stroke:#757575;stroke-width:0.39999998;stroke-miterlimit:9.75;stroke-opacity:1;stroke-dasharray:none"
       d="M 268.5 29.21875 C 267.79812 29.412605 267.69148 30.760502 267.46875 31.28125 C 267.60064 31.67301 267.27144 32.37973 267.59375 33.3125 C 267.77624 33.84061 268.57234 33.52157 268.875 33.625 C 268.72922 33.57571 267.7034 35.08831 267.625 35.375 C 267.32929 36.45721 268.02881 36.44802 268.71875 36.125 L 270.15625 35.4375 C 270.54819 35.25382 270.57085 34.4316 270.59375 33.6875 C 270.62728 32.60435 270.72013 31.21506 270.34375 30.21875 C 270.21421 29.87581 269.1968 29.28815 268.84375 29.21875 C 268.71651 29.193729 268.60027 29.191056 268.5 29.21875 z M 265.3125 34.875 C 264.99249 35.47615 264.54426 35.99324 264.0625 36.46875 C 264.14303 36.69435 264.2563 36.9487 264.375 37.15625 C 264.65475 36.86539 265.91018 35.25263 265.3125 34.875 z "
       transform="translate(-42.885084,918.86413)"
       id="ps" />
    <path
       inkscape:connector-curvature="0"
       style="fill:#b3b3b3;fill-opacity:1;stroke:#757575;stroke-width:0.39999998;stroke-miterlimit:9.75;stroke-opacity:1;stroke-dasharray:none"
       id="path2704"
       d="m 324.75139,998.51466 c 0.34709,0.0229 0.61295,-0.11037 0.7983,-0.39984 -0.4533,-0.37485 -1.02668,-0.28669 -1.2981,0.2499 0.1666,0.0507 0.33251,0.1 0.4998,0.14994" />
    <path
       inkscape:connector-curvature="0"
       sodipodi:nodetypes="cccssssssccsssscssssssssccssssssc"
       style="fill:#b3b3b3;fill-opacity:1;stroke:#757575;stroke-width:0.39999998;stroke-miterlimit:9.75;stroke-opacity:1;stroke-dasharray:none"
       id="ae"
       d="m 313.15854,997.61502 c 0.33945,-0.22422 0.71944,0.0575 0.64239,0.54826 0.16243,-0.15411 0.0823,-0.45247 0.2524,-0.59824 0.32418,0.47342 0.0368,1.15787 0.40262,1.59937 0.35402,0.42691 1.17314,0.32834 1.65282,0.30057 0.62336,-0.0368 1.14885,-0.13536 1.62852,-0.56644 0.21797,-0.19576 0.46995,-0.76845 0.76636,-0.83301 0.3214,-0.0715 1.12248,0.41234 1.51746,0.42067 0.64766,0.0146 1.29254,0.0895 1.93951,0.0666 1.75833,-0.0625 2.97105,0.74693 4.69328,-0.28739 -0.15618,-0.24087 -0.32278,-0.47411 -0.4998,-0.69972 0.54215,-0.20478 0.46718,0.44774 0.89548,0.39984 0.62337,-0.0694 1.15232,-0.8212 1.40639,-1.31961 0.69139,-1.35919 0.77955,-2.13319 1.98949,-3.14321 1.17801,-0.98364 1.65837,-2.75724 2.77182,-3.67563 1.23285,-1.01626 1.97283,-1.28768 2.32825,-2.95716 0.89826,0.0458 0.51091,1.3453 0.51785,1.89369 0.0125,1.03709 1.13913,0.51161 1.2738,1.66393 0.13467,1.15579 0.9238,2.66697 0.0146,3.56136 -1.94048,1.90878 -0.86306,0.24491 -1.3646,-0.23722 -0.63621,-0.61155 -1.0282,0.25399 -1.13705,1.11411 -0.0479,0.37673 -0.0312,0.41239 0.0264,0.81315 0.0618,0.42899 0.18847,1.24153 0.28398,1.70005 0.31335,1.50406 1.36453,0.77718 0.9581,1.45744 -0.44531,0.74529 -1.91473,0.23866 -2.48187,0.91409 1.30629,0.72728 -0.83398,4.76998 -0.99738,6.87698 0.0187,0.516 -0.54159,1.0134 -1.73765,0.733 -1.47164,-0.345 -2.99326,-0.4839 -4.48712,-0.7053 -1.56674,-0.2319 -3.13279,-0.4616 -4.70439,-0.6574 -1.1544,-0.1444 -1.97401,-0.1808 -2.13755,-0.2995 -1.25062,-0.9076 -2.04191,-1.9776 -2.96696,-3.1917 -0.55443,-0.7278 -1.72327,-2.0787 -2.36045,-2.97087 -0.60095,-0.84139 -0.79302,-1.56704 -0.8639,-1.90838"
       class="landxx ae"
       inkscape:label="#path2784" />
  </g>
</svg>
