<?xml version="1.0" encoding="utf-8"?>
<!-- Generator: Adobe Illustrator 16.0.0, SVG Export Plug-In . SVG Version: 6.00 Build 0)  -->
<!DOCTYPE svg PUBLIC "-//W3C//DTD SVG 1.1//EN" "http://www.w3.org/Graphics/SVG/1.1/DTD/svg11.dtd">
<svg version="1.1"
	 id="Layer_1" sodipodi:docname="world_high.svg" inkscape:version="0.48.2 r9819" xmlns:dc="http://purl.org/dc/elements/1.1/" xmlns:cc="http://creativecommons.org/ns#" xmlns:rdf="http://www.w3.org/1999/02/22-rdf-syntax-ns#" xmlns:svg="http://www.w3.org/2000/svg" xmlns:sodipodi="http://sodipodi.sourceforge.net/DTD/sodipodi-0.dtd" xmlns:inkscape="http://www.inkscape.org/namespaces/inkscape"
	 xmlns="http://www.w3.org/2000/svg" xmlns:xlink="http://www.w3.org/1999/xlink" x="0px" y="0px" width="1024px"
	 height="561.649px" viewBox="0 0 1024 561.649" enable-background="new 0 0 1024 561.649" xml:space="preserve">
<sodipodi:namedview  fit-margin-bottom="0" fit-margin-right="0" inkscape:current-layer="Layer_1" inkscape:window-maximized="1" inkscape:window-y="-8" inkscape:window-x="-8" inkscape:window-height="716" inkscape:window-width="1366" inkscape:pageshadow="2" inkscape:pageopacity="0" fit-margin-left="0" fit-margin-top="0" inkscape:cy="438.88328" inkscape:cx="736.05782" inkscape:zoom="1.8" showgrid="false" guidetolerance="10" gridtolerance="10" objecttolerance="10" borderopacity="1" bordercolor="#666666" pagecolor="#ffffff" id="namedview5561">
	</sodipodi:namedview>
<path id="polygon5193" inkscape:connector-curvature="0" fill="#E1E1E1" stroke="#007BB6" stroke-width="0.4014" d="
	M483.167,430.751l1.467,3.667l-3.298-2.933l-2.568,5.502l-4.403-4.034l6.972-3.67L483.167,430.751z"/>
<path id="Papua_New_Guinea" inkscape:label="#polygon5195" fill="#E1E1E1" stroke="#007BB6" stroke-width="0.4014" d="
	M711.036,480.272l0.316,1.826h2.222l1.11-1.826H711.036z M738.17,483.605l-2.539,0.317l1.429,1.507l1.825-0.712L738.17,483.605z
	 M670.651,484.32l0.397,18.01l-0.793,12.773l1.902,16.9l11.346,1.11l4.047-2.935l-2.617-3.652l3.728-1.506l0.317-1.111l2.224-0.715
	l-0.397-2.537l2.222,0.713l2.221-1.11l12.854,5.555l3.251,5.474l2.222,0.396v1.429l6.269,5.475l15.393,2.617l2.935,1.825
	l2.223-1.507l-2.223-0.715l3.65-1.111l-7.3-2.143l1.11-1.507l-5.553-1.825l-0.318-2.935l-4.045-0.714l-4.762-6.269l-4.759-4.761
	l-1.904-4.045l5.87-0.715l-1.428-4.761l-12.853-4.443l-2.54-6.584l-8.488-5.873L670.651,484.32z M753.245,491.699l3.253,8.806h0.715
	l1.507-3.332l-1.507-2.539L753.245,491.699z M751.341,496.458l-3.967,0.318l0.316,4.046l-6.584,4.76l-4.762-0.715l0.396-2.537
	l-3.014,3.65h-10.235l1.824,2.22l4.443,2.144l2.144-0.318l1.824,1.429l6.981-0.318l4.761-1.903l2.221-3.252h2.618l2.54-7.697
	L751.341,496.458z M769.747,504.867l0.319,2.937l3.33,3.332l0.398,2.54l2.141,1.428l2.62-0.317v-2.617l-6.983-6.587L769.747,504.867
	z M719.843,505.98l1.824,1.823v-1.428L719.843,505.98z"/>
<path id="polygon5199" inkscape:connector-curvature="0" fill="#E1E1E1" stroke="#007BB6" stroke-width="0.4014" d="
	M742.571,536.054l-2.569-0.367l-0.735-2.202l2.938,0.731L742.571,536.054z"/>
<path id="Phillipines" inkscape:label="#polygon5211" fill="#E1E1E1" stroke="#007BB6" stroke-width="0.4014" d="M522.763,329.844
	l-0.715,0.713l-1.823,18.011l-4.048-0.398l2.222,8.095l3.333,5.158l0.316-2.619l2.221,0.794l-1.824,3.648l0.318,2.935l4.838,0.715
	l1.827-1.824h2.142l5.553,5.157l-1.508-5.157l1.508,0.397l4.76,5.475l4.366,1.825l-0.715,0.714l1.109,1.903l0.715-3.332l-1.824-1.11
	v-1.112l-1.826-2.538l1.826-1.112l-4.364-1.824l-0.794,2.222l-3.253-4.839l-3.332,1.109v1.825l-1.825,0.397l-2.537-3.648
	l-1.509-6.982l2.221-4.047l2.938-1.825l2.537-5.871l-2.142-4.442l0.317-7.3l-1.111-0.715l-0.714,1.429l-2.221,0.396L522.763,329.844
	z M531.965,356.264l-0.713,0.714l0.713,2.22V356.264z M530.854,368.005l0.397,1.112l1.427,1.11v-1.825L530.854,368.005z
	 M525.38,368.403l-5.155,0.317l2.22,1.508l4.047,7.299l1.824-1.11v-5.871L525.38,368.403z M533.077,374.593l-1.112,1.108v2.224
	L533.077,374.593z M541.169,374.593l-0.397,4.44l2.223-1.108l3.648,2.933l-0.395-1.824L541.169,374.593z M549.183,375.385
	l6.267,10.235l3.65,0.713l-1.825-4.364v-4.442l-1.825-1.825L549.183,375.385z M531.569,380.146l0.396,10.632l7.379-5.157
	l0.715-2.938l-4.762-0.714L531.569,380.146z M549.183,383.082l0.792,4.364l1.43-0.317l0.713,4.76l1.507,1.825l0.319-1.509h1.506
	l-1.825-6.98L549.183,383.082z M513.639,383.796l-2.222,6.981l-12.141,11.027l-1.427,3.253l5.157-2.935l5.871-5.476l0.317-1.824
	l5.555-4.046L513.639,383.796z M546.643,384.906l-4.442,9.918v2.936l4.442-6.981V384.906z M540.375,386.731l-1.429,0.715
	l-1.506,6.268l-1.826,0.315l-0.317,1.906l4.762,5.076l0.713-1.109v-5.078l2.223-6.268v-1.11L540.375,386.731z M558.782,390.778
	l-1.11,1.825l1.11,2.221V390.778z M548.072,392.603l-2.539,2.221l0.715,1.824l4.044-0.396l0.715-3.254L548.072,392.603z
	 M556.957,395.935l0.317,5.076l-5.157,0.397l-1.11,3.333h-2.539l-0.713,2.142l-3.333,1.508l0.397-4.442l-2.619-0.715l-3.649,3.649
	l-4.046,1.508l-2.936,6.188l0.396,1.507h1.825l2.937-5.476h1.507l0.317,2.54l2.221-2.54l1.429,1.825l2.222-3.331l3.65,3.331
	l-1.43,3.253l1.43,4.76l5.157,3.333l2.618-1.506l1.427,3.332l1.825-3.648l-2.143-3.651l0.317-1.825l3.332-3.332l2.144,6.982
	l2.22-8.093l-1.824-6.982l-0.714-1.109l0.714-1.112l-0.714-2.935l-4.046-3.967H556.957z M530.854,418.308l1.11,1.429l2.54-1.429
	H530.854z M525.697,422.276l-1.031,1.506l2.935,0.397l0.318-0.793L525.697,422.276z"/>
<path id="Myanmar" inkscape:connector-curvature="0" inkscape:label="#polygon5267" fill="#E1E1E1" stroke="#007BB6" stroke-width="0.4014" d="
	M372.361,316.277l-7.702,5.138l-5.873,0.733l-2.569,8.807l2.202,6.236l3.673,3.669l0.365,5.869l1.835,1.468l-4.037,9.539
	l0.731,2.203l5.135,4.402l0.367,6.239l3.669,9.17l-5.132,7.339l-1.101,5.137l-1.468-1.103l2.202-10.271l-2.202-1.469l1.1-1.101
	l-0.733-6.236l-1.837-5.87l-0.731,0.734l-2.938-9.909l-0.734-11.743l-6.233-2.566l-1.106-4.402l-0.361,5.869l-9.91,6.605
	l-5.505-0.733v-1.835l-2.201,0.733l2.201-8.437l-1.463-8.806l-2.935-5.87l-0.734,1.1l-2.202-2.201l0.729-1.468l1.106,1.101
	l-0.734-3.302l-5.509-2.568l-4.765-6.606v-3.302h2.566v-4.404l3.671-1.834l-1.101-4.403l0.362-1.101l1.835-0.367l0.367-6.603
	l6.237-1.835l3.674-9.538l3.665-4.77l0.367-5.504l6.604-5.504l5.874-0.367l0.729-4.77l1.838-1.101v-1.835l1.836-1.1l2.196,1.1
	l2.941,5.138h1.831l1.468,6.604l-0.369,5.137l-5.872,8.074l-2.196,9.904l5.866-2.568h3.305l1.099,6.238l3.672,2.565l-1.472,5.872
	l4.403,1.467l2.568,3.669l4.771-1.833l1.472,1.101l-6.242,7.339L372.361,316.277z"/>
<path id="polygon5269" inkscape:connector-curvature="0" fill="#E1E1E1" stroke="#007BB6" stroke-width="0.4014" d="
	M362.457,381.954l-0.365-1.835l-1.469,1.468L362.457,381.954z"/>
<path id="Cambodia" inkscape:connector-curvature="0" inkscape:label="#polygon5271" fill="#E1E1E1" stroke="#007BB6" stroke-width="0.4014" d="
	M419.692,379.384l-0.363,1.469l-3.669,0.365v4.036l-6.61,1.835l-0.733,1.834l-2.931,1.1l-6.241-0.734v-3.665l-3.302,1.466
	l-1.835-5.503l-0.367-4.036l-2.936-3.3l-1.095-4.038l1.834-4.769l5.131-4.405l13.942,0.734l5.143,2.568l3.302-3.669l4.399,0.735
	l3.302-2.569l0.734,16.878L419.692,379.384z"/>
<path id="China" inkscape:label="#path4063" fill="#E1E1E1" stroke="#007BB6" stroke-width="0.4014" d="M543.707,8.832
	l-19.835,2.936l-5.871,6.584l-0.714,2.222h5.157l0.318,5.474l-5.871,5.158l-4.365,12.457l-0.712,4.046l-9.918,5.872l-10.632-4.444
	l-5.553,8.807l-0.715,11.742l1.11,4.444l9.521,1.109l8.807-5.156l6.585,6.981l0.398,4.364l2.222,2.935l-19.122,1.508l-8.806,9.123
	l-5.872,1.905l-9.124,7.696l-8.807-3.333l-2.618,1.111l-3.253,6.982l3.253,5.157l-13.567,11.742l-8.013,2.143l-9.602-0.317
	l-20.151,7.696l-17.615-5.554l-11.742-6.188l-27.134,1.111l-7.379-6.982l-5.473-8.807l-16.9-7.378l-4.76,0.396l-11.743-3.65
	l1.11-4.046l-0.395-8.807l-3.65-10.632l-1.11-2.221l-9.522-1.825l-5.157-5.871l-2.141-5.157l-2.619,1.824l-3.333-1.11l-2.855,5.157
	l-5.157,0.396l-1.826,6.189v7.695l-5.157,2.619l-2.22-2.222l-11.346-1.428l-5.157,12.773l0.396,7.379l-17.296,4.046l2.222,2.936
	l2.936,12.456l-2.222,8.808l-1.428,4.442l-11.028,5.079l-2.937,3.649l-9.521,1.903l-4.443,4.762l-9.838-1.112l-1.11,1.826
	l-5.872,2.539l-0.793,4.442l-1.429,6.585l2.222,3.332l5.077-0.396l0.795,1.11l1.427,10.633h-1.427l-2.222,1.11l1.427,0.714
	l5.158,1.111l0.396,2.221h2.539l1.508,1.826l-0.397,3.65l1.825,1.824l2.539-0.316l1.507,1.824l6.268,2.222l12.06-4.839l5.158,3.333
	l0.396,1.825l2.142-0.715l-2.142,6.585l-3.332,2.936l-0.396,2.935l-4.364,0.714l0.317,5.554l3.333,1.824l1.111,3.65l-4.443,3.332
	l-1.824-2.936l-1.825,1.429l2.221,4.76l-0.396,4.444l1.824,3.649l3.729-0.316l11.346,6.902l1.825,1.508l0.396-2.222l7.298,1.507
	l5.872,4.364l2.618,4.443l4.761-1.904l-0.396,4.046l7.377,1.508l-0.397,2.221l4.047,1.429l1.825,2.222l5.158-0.715l5.155,1.428
	l5.476-0.713l4.363-1.508v5.157l1.509,0.714l7.298-7.696l10.633,2.618l2.22,1.428l9.522-3.65l11.027-8.489l5.158,0.397l5.473-2.222
	l1.509,4.046l1.11,0.396l-0.397,3.651l5.475,1.11l1.904,1.825l1.825-1.11l2.141,1.11l2.936,5.157h1.904l1.428,6.585l-0.396,5.158
	l-5.872,8.093l-2.141,9.838l5.871-2.539h3.253l1.11,6.268l3.649,2.538l-1.428,5.872l4.364,1.508l2.62,3.648l4.759-1.824l1.428,1.11
	l1.11,3.65l2.619-1.111l-0.396-8.092l1.428-1.111l3.333,1.111l1.507-2.936l4.363,1.824l2.54-1.428l2.935,1.11l9.918-5.157l9.6,3.65
	l2.143,6.585l3.729,2.617l4.363,1.111l1.825-1.508l0.397,1.508l2.221-2.618l4.364,2.935l3.65-1.428v5.158l2.936,5.077l2.618-1.111
	l-1.825-3.966l1.825-3.73l17.931-4.045l1.111-5.475l3.332,2.539v-4.364l3.253,4.046l2.22-0.396l-0.397-1.429h0.397l1.508,1.11
	l0.715-1.11l1.11-1.507l0.318,1.11l2.618-1.825l2.143,1.111l6.665-2.223l4.363-4.363l3.649-1.11l0.794-1.111v0.715l3.253-3.333
	v-2.539l4.046-1.11l4.444-6.982l1.427,0.794l2.222-6.982l-1.111-2.618l2.222-1.428l0.318,2.221l8.488-13.964l1.824,0.714
	l1.825-6.586l-0.714-1.825l2.539-0.396v-1.428v-1.825l-2.539,1.031l3.649-3.253l-5.87-3.333l-6.982,1.507l12.457-6.982l-5.475-5.554
	l-4.047-2.539l-3.254-0.396l3.254-0.713l9.521,2.935l-7.301-8.41l-5.156-14.36l-7.298-4.364l3.649-5.871l3.331-2.936l0.318-2.935
	l3.332,1.11l1.824-3.333l-0.396-1.428l5.872-1.111l1.825-2.221h1.903l1.032,1.825l2.222-5.157l-7.697-0.714l-5.157-3.252
	l-9.521,6.188l-3.649-1.428l-1.825-4.76l-5.156-2.937l-3.333-3.729l0.395-2.142l2.54-4.046l3.73,0.715l4.363-1.826l2.935-4.443
	l6.585-3.649l5.158-6.982l5.157-1.428l2.538,5.474l-6.586,8.808l2.936,1.825l-0.712,2.935l-3.333,2.222l1.109,0.396l14.996-9.601
	l7.38-1.428l3.649-5.157l6.981-3.649l7.379-6.982l4.363,2.221l5.474-0.714l-0.317-5.554l5.871-0.317l4.047-3.332l3.65-5.871
	l3.65,3.65v-2.222l4.759-5.475v-8.092l-1.824-5.078l6.269-5.871l7.298,2.54l1.825-1.508l4.839-9.837l3.65-12.537l3.253-3.253
	l-0.713-7.378l1.109-2.141l-19.835,8.41l-6.981-0.397l-2.142-3.649V65.72l-1.825-5.158l-9.918-5.554l-12.139-2.142l-2.539-13.964
	l-4.444-9.917l-1.109-6.585l-5.475-7.696l-8.806-1.825L543.707,8.832z"/>
<path id="Hainan" inkscape:label="#China" fill="#E1E1E1" stroke="#007BB6" stroke-width="0.4014" d="M448.658,318.499l-6.982,0.713
	l-6.188,5.158l1.428,6.188l6.268,1.825l5.474-4.364l3.73-6.584l-0.794-2.619L448.658,318.499z"/>
<path id="Taiwan" inkscape:connector-curvature="0" inkscape:label="#polygon5277" fill="#E1E1E1" stroke="#007BB6" stroke-width="0.4014" d="
	M530.865,282.889l-7.339,21.277l-4.767-6.971l-0.733-5.869l6.234-11.739l3.674-1.469l2.931,1.469V282.889z"/>
<path id="polygon5283" inkscape:connector-curvature="0" fill="#E1E1E1" stroke="#007BB6" stroke-width="0.4014" d="M573.426,270.78
	l0.372-2.936l2.93-2.936L573.426,270.78z"/>
<path id="North_Korea" inkscape:connector-curvature="0" inkscape:label="#polygon5301" fill="#E1E1E1" stroke="#007BB6" stroke-width="0.4014" d="
	M588.104,136.124v6.609l-9.54,7.7l-6.605,2.936v5.87l6.605,5.872l-4.407,2.938h-4.399l-4.769,4.403l-6.237-2.201l-0.367,1.83
	l-2.57,0.734l-1.096-2.202l0.735-1.462l-3.309,0.362l1.836-4.032l2.939-1.839l-1.467-0.733l1.83-6.972l-5.872-0.367l-1.835-3.302
	l3.674-5.133l6.968-3.673l7.338-6.972l4.402,2.202l5.504-0.731l-0.366-5.502l5.873-0.371l4.033-3.298l3.671-5.87l3.671,3.668
	l0.729,1.831L588.104,136.124z"/>
<path id="polygon5303" inkscape:connector-curvature="0" fill="#E1E1E1" stroke="#007BB6" stroke-width="0.4014" d="
	M564.254,212.809l3.669-1.836h-4.77l-0.368,1.469L564.254,212.809z"/>
<path id="South_Korea" inkscape:connector-curvature="0" inkscape:label="#polygon5305" fill="#E1E1E1" stroke="#007BB6" stroke-width="0.4014" d="
	M587.002,187.495l-2.201,6.233l-2.567,2.202l-2.569-0.734l-1.834,2.936l-2.936-1.464l-2.569,2.932l-0.729-1.468l-1.105,2.936
	l-0.731-0.733l0.731-1.468l-2.934,2.568l-4.771,0.734l0.368-2.569l1.471,0.734l0.364-1.834l-1.835-0.735l3.304-8.438l-1.833-7.339
	l-1.471,1.839l-1.099-2.574l4.036-1.83l1.466,1.102l-2.568-8.073l4.769-4.403h4.399l4.407-2.938l6.237,9.543L587.002,187.495z"/>
<path id="Laos" inkscape:connector-curvature="0" inkscape:label="#polygon5307" fill="#E1E1E1" stroke="#007BB6" stroke-width="0.4014" d="
	M374.562,315.175l2.201,1.102l0.367,4.771l4.039,1.101l-1.47,15.043l6.969-4.771l5.143,2.2l2.563-1.101l1.101-1.834l2.569-0.731h2.2
	l5.142,6.236l2.198,9.538l4.769,5.137v8.073l-1.836,1.834l5.143,2.568l3.302-3.669l4.399,0.735l3.302-2.569l0.369-4.404
	l-2.568-7.339l-4.401-2.2l-0.371-1.836l-0.73-3.667l-3.302-1.835l-5.871-8.07l-8.443-5.138l1.101-2.935h2.938l2.198-2.203
	l-2.936-5.87l-1.467-1.469h-7.339l-1.835-1.834l-0.367-4.036l-4.404-5.505l-3.302-1.102l-1.467,1.102l0.367,8.073l-2.563,1.101
	l-1.102-3.669l-6.24,7.339L374.562,315.175z"/>
<path id="Malaysia" inkscape:label="#polygon5309" fill="#E1E1E1" stroke="#007BB6" stroke-width="0.4014" d="M494.199,416.086
	l-6.98,9.917l-2.222,0.715l0.397,2.22l-2.222,1.825l1.428,3.651l-3.253-2.937l-2.538,5.475l-4.444-3.967l-1.428,3.254l-6.665,7.694
	l-8.806,1.508l-1.428,4.047h-1.825l-1.112,5.078l-7.377-1.429l-2.54-2.221l-0.396,0.396l2.936,5.871l3.649,1.825h8.093l5.155-4.047
	h3.65l4.047,2.222l5.473-1.112l2.223-1.506l1.825-2.144l7.695-17.612l9.205-0.396l3.65,1.507l1.111-1.11l2.222,1.11l3.648-1.507
	l-2.221-3.651h3.728l3.649-2.22l-6.982-3.649l-1.823,0.317v-2.143l-2.938,0.317v-3.649l-2.538-1.429l-1.11-2.222l-2.937,2.54
	V416.086z M374.554,417.514l0.398,1.824l2.538,15.076l5.554,10.633l14.996,10.313l2.538-1.111l2.619,1.111l1.111-2.937l-6.268-9.917
	v-12.853l-2.937-4.442l-4.761-3.967h-1.11l-1.428,1.824h-2.936l-2.619,1.825l-1.825-5.556L374.554,417.514z"/>
<path id="polygon5315" inkscape:connector-curvature="0" fill="#E1E1E1" stroke="#007BB6" stroke-width="0.4014" d="
	M400.245,456.064l2.203-0.728l-1.101-0.735L400.245,456.064z"/>
<path id="Thailand" inkscape:connector-curvature="0" inkscape:label="#polygon5317" fill="#E1E1E1" stroke="#007BB6" stroke-width="0.4014" d="
	M391.444,365.444l-1.834,4.769l1.095,4.038l2.936,3.3l0.367,4.036l-1.83-3.303l-5.51-4.033H379.7l-0.367-6.238l-4.771-0.734
	l-1.462,1.1l-0.738,9.173l-5.133,14.308l0.729,7.339h4.042l5.132,13.577l2.569,2.936l4.768,0.368l4.769,5.137l-1.462,1.834h-2.94
	l-2.563,1.834l-1.835-5.509l-5.874-1.83l0.367,1.83l-11.004-13.576l-2.938,0.738v-5.51l2.938-8.8l1.101-5.137l5.132-7.339
	l-3.669-9.17l-0.367-6.239l-5.136-4.402l-0.73-2.203l4.037-9.539l-1.835-1.468l-0.365-5.869l-3.673-3.669l-2.202-6.236l2.569-8.807
	l5.873-0.733l7.702-5.138l2.568-2.936l-0.367,1.834l2.201,1.102l0.367,4.771l4.039,1.101l-1.473,15.043l6.972-4.769l5.143,2.198
	l2.563-1.097l1.101-1.836l2.569-0.733h2.2l5.142,6.236l2.196,9.538l4.771,5.137v8.073l-1.836,1.834l-13.942-0.734L391.444,365.444z"
	/>
<path id="Vietnam" inkscape:connector-curvature="0" inkscape:label="#polygon5319" fill="#E1E1E1" stroke="#007BB6" stroke-width="0.4014" d="
	M395.109,299.396l2.568-1.467l2.938,1.102l9.903-5.135l9.546,3.666l2.2,6.604l3.667,2.568l4.4,1.102l-4.032,1.102l-5.506,5.138
	l-4.77,5.503l-2.203,6.606l0.367,3.669l4.404,3.666l0.739,3.303l4.4,4.404l4.771,5.502l4.03,1.468l1.107,3.303l3.296,2.569
	l3.676,18.713l-1.473,2.935v5.502l-1.102,2.569l-7.336,4.4l-4.771,2.204h-3.665l-2.935,3.667l0.363,2.565l-3.304-2.565l1.102,3.672
	l-7.7,5.869l-1.472-0.366l-0.364-5.503l1.835-4.771l-4.403-2.937l2.932-1.1l0.735-1.836l6.607-1.833v-4.036l3.669-0.365l0.363-1.469
	l7.706-3.668l-0.734-16.878l0.369-4.404l-2.565-7.339l-4.404-2.2l-0.371-1.836l-0.73-3.667l-3.302-1.835l-5.871-8.072l-8.443-5.136
	l1.101-2.935h2.938l2.198-2.203l-2.936-5.87l-1.467-1.469h-7.339l-1.835-1.834l-0.367-4.036l-4.404-5.505l1.469-2.936
	L395.109,299.396z"/>
<path id="polygon5405" inkscape:connector-curvature="0" fill="#E1E1E1" stroke="#007BB6" stroke-width="0.4014" d="M490.51,495.328
	l-0.739-3.669l1.101-1.836l1.1,4.036L490.51,495.328z"/>
<path id="polygon5415" inkscape:connector-curvature="0" fill="#E1E1E1" stroke="#007BB6" stroke-width="0.4014" d="
	M406.486,470.009h-1.1l-0.37-0.366l1.102-1.465L406.486,470.009z"/>
<path id="Singapore" inkscape:connector-curvature="0" inkscape:label="#polygon5417" fill="#E1E1E1" stroke="#007BB6" stroke-width="0.4014" d="
	M405.016,457.169l1.835,0.734l-0.365,1.835L405.016,457.169z"/>
<path id="polygon5421" inkscape:connector-curvature="0" fill="#E1E1E1" stroke="#007BB6" stroke-width="0.4014" d="
	M391.811,456.064l-3.307-1.834l2.939,0.371L391.811,456.064z"/>
<path id="polygon5423" inkscape:connector-curvature="0" fill="#E1E1E1" stroke="#007BB6" stroke-width="0.4014" d="
	M386.668,451.299l-0.367,1.833l-2.201-1.833H386.668z"/>
<path id="Indonesia" inkscape:connector-curvature="0" fill="#E1E1E1" stroke="#007BB6" stroke-width="0.4014" d="M327.602,416.446
	l0.734-3.306l-1.101,0.734L327.602,416.446z M347.778,449.096l-4.771-3.303l0.738-0.738L347.778,449.096z M451.612,525.042
	l-8.071-3.664l-6.606-0.369l-2.201,1.104l-11.001-2.568l-4.041-1.836l1.1-1.101l-8.439-1.832l-0.734-1.468l2.568,0.367l2.941-4.409
	l1.462-0.729l4.403,1.102l3.67-1.102l0.734,1.835l5.867,0.729l4.408,4.043l10.637,0.728l2.202-2.932l1.837-1.105l1.832,2.207
	l2.2-0.733l7.343,2.201l3.665,5.5l10.271,1.104l-0.368,4.403l1.102,2.931l-9.906-3.665l-3.297,0.734l-4.036-0.734l-3.309,0.367
	L451.612,525.042z M487.57,434.786l-7.702,17.614l-1.84,2.201l-2.199,1.463l-5.502,1.105l-4.038-2.201h-3.669l-5.138,4.037h-8.07
	l-3.67-1.836l-2.931-5.87l-0.734,0.36l-2.573,2.941l-1.469,7.706l1.836,6.97l3.307,1.835l1.83,3.669l2.935,12.474l5.874,0.367
	l4.032-1.836l1.469,5.505l4.77-1.101l3.304-2.568l4.772,1.468l0.364,1.83l4.036-0.729l1.833,1.469l1.473,4.036h1.095l8.079-4.404
	l4.402-9.175l-2.573-3.299l5.871-4.406l2.938-4.768l0.734-6.24l3.298-3.298v-1.834l2.572,1.834l3.666-0.366l-6.973-7.339
	l0.735-2.937l-5.867-9.174l4.035-0.732l-2.571-2.937l1.104-0.737l-3.672-1.465L487.57,434.786z M577.83,491.291l-1.831,2.197v-1.463
	L577.83,491.291z M635.805,474.411l-1.842,0.37l-4.031-3.303h2.567L635.805,474.411z M639.838,479.179l-9.173-1.097l2.201-1.101
	l6.237,1.469L639.838,479.179z M599.114,468.178l-2.94,1.101l-2.932-2.2l1.831-0.734L599.114,468.178z M597.274,475.148
	l-1.468-0.367l-0.733-1.468l2.201-0.367V475.148z M592.502,480.285l-2.197,0.734l-1.834-1.84l3.673-0.729L592.502,480.285z
	 M577.096,486.52l9.54-0.366l6.97,1.835l2.568,4.765l-0.367,1.105l-7.703-3.669l-3.669,0.729l-2.201-1.465l-2.937,1.836
	l-2.569-2.201l-1.467,2.201l-0.366-1.836L577.096,486.52z M611.953,508.17l0.366-3.304l1.469-0.365L611.953,508.17z
	 M623.691,505.602v6.232l-1.829-0.733v-2.931l-0.739-0.367l1.47-2.937L623.691,505.602z M622.959,511.475l0.367,1.833l-2.569-2.207
	v-1.462L622.959,511.475z M621.123,515.872l-1.461-2.196l1.095,0.366l-0.736-2.94l2.572,2.207L621.123,515.872z M602.412,517.708
	v2.935l-2.569,3.305l-1.096-1.835l2.197-4.771L602.412,517.708z M565.723,520.275l1.834,1.104l-2.933,1.835l-4.04,0.734v-2.569
	L565.723,520.275z M546.278,540.824l-2.568-0.368l1.836-5.504l6.599-3.301l2.573-3.303l15.041-1.832l-0.366,2.199l-14.675,5.137
	l-2.938,4.766L546.278,540.824z M541.139,544.125l-2.563,0.734l3.666-3.302L541.139,544.125z M551.045,526.883l-1.101-1.841
	l4.773,0.739L551.045,526.883z M547.747,527.981l-1.104-1.098l1.838-1.841L547.747,527.981z M543.71,526.149l1.098-1.106
	l-0.729,2.568h-2.205l0.734-2.568L543.71,526.149z M528.295,527.981l4.403-1.098l2.569,1.098l3.308-2.199v-1.834l0.732,2.201
	l-2.934,2.566l-10.643,1.835l-8.809-1.104l0.367-2.565l5.135-1.839L528.295,527.981z M523.893,538.991l-3.665,1.465l-4.771-3.673
	h-3.666l-0.734-2.566l6.233-1.099l4.771,2.937L523.893,538.991z M502.979,528.715l2.201-0.734l-2.935-1.832l1.101-1.836l1.834,1.836
	l2.207-0.367l0.729,1.829l1.836-1.829l1.839,2.934l-3.675,1.101l-1.095-1.101l-10.645,2.936l-1.834-3.303l2.201-1.832l3.672,0.367
	L502.979,528.715z M494.175,526.149l-0.73,4.032h-4.769l0.729-3.298l1.84-1.841L494.175,526.149z M486.102,525.782l-2.564,4.034
	l-2.203-3.3l-2.939-0.734v-1.469h3.302h2.935L486.102,525.782z M474.729,516.974l-4.035,0.734l-4.038-0.366l-1.102-1.471
	l8.441-0.362L474.729,516.974z M484.633,516.608l-1.095-1.464l2.197,0.365L484.633,516.608z M522.061,460.105l-2.203-0.366
	l-1.831,1.096l-2.57,5.51l0.736,3.665l-2.939,5.139v4.031l-3.301,6.239l1.105,5.872l3.298-0.371l1.102,4.408l-2.203,8.806
	l2.203,2.563l5.507-0.728l-0.37-15.779l-0.735-1.836l4.035-3.668l1.839,1.1l-1.106,4.404l1.106,1.835l3.669,3.67l0.363,5.136h1.836
	l2.2-2.201l4.404-1.468v-1.467l-1.47-0.367l-2.195-3.303l1.097-2.936l-7.701-10.272l2.2,0.362l4.771-1.829l3.669-4.404l4.032-0.369
	l-0.366-2.567l-1.837-0.362l-2.2,1.831l-5.139,0.368l-0.367,1.1l-2.935-0.369l-4.032,3.672h-2.937l-4.035-4.771l1.468-7.337
	l0.735-1.466l6.601-0.368l20.917,1.096l6.6-7.339l-1.1-2.563l-8.07,6.238h-7.335l-12.844-3.303l-2.204,0.733L522.061,460.105z
	 M557.654,480.285l-0.734-1.105l6.233-0.362L557.654,480.285z M569.757,489.823l0.365,1.836l-3.298,2.2l-1.836-0.371l-2.565-2.197
	l-1.104-3.302l5.138-0.367L569.757,489.823z M577.83,451.299l-0.368-2.569l2.202-1.84l0.738,2.573L577.83,451.299z M573.059,459.739
	l1.098,0.366l4.407-5.137l2.206,1.468v1.835l-2.939,2.2l3.669,3.67l-5.873-1.466l-0.365,0.728v4.407l2.201,4.767l-3.664-4.767
	l-2.569-9.906l1.097-4.771l2.936-3.302l0.365,6.972L573.059,459.739z M574.156,472.577l-2.198-0.73l-1.468-2.934h1.468
	L574.156,472.577z M576.728,477.35l-4.77,1.101l-0.729-1.835l2.928-0.367L576.728,477.35z M660.018,482.484l-12.838-6.235
	l-4.044,2.568l-1.832,2.932l-4.769,0.367l-5.87,8.074h-2.569l-2.568-1.101l-1.836-4.403l-0.732-0.366l-0.366,1.834l-1.836-2.571
	v-8.435l-1.468-3.67h-4.77l-3.672-2.565h-3.666l-8.067,3.664l-2.207,3.672l6.238,1.102l1.835,4.398l2.201,0.735l11.007-1.833
	l-0.729,3.301l-1.106,0.368l-2.933-0.368l-3.669,1.834l-5.138,0.368v1.101l2.568,0.367l3.305,2.568l1.1,5.138l3.669-0.734
	l2.567-6.972v4.403l4.04,3.303l2.563-0.366l2.936,3.302l11.003,2.201l10.645,4.402l4.775,8.809l-1.477,2.196l3.307,1.837
	l-1.466,0.731l1.466,2.203l-2.567-1.465l-2.569,0.366l-3.67,6.972l8.072-0.367l0.734-1.468l6.604-0.368l9.911,7.704l-1.839-16.873
	l0.733-12.844l-0.372-17.98L660.018,482.484z M347.411,427.817l8.806,1.099l5.137,7.338l8.076,5.137l8.801,8.44l1.468,1.102
	l1.47-1.102l2.202,3.302l4.771,2.204l1.468,1.833l0.361-0.733l2.207,1.835l3.665,0.368l-0.367,4.036l-0.367,1.1l2.936-1.468
	l2.2,1.468l0.741,1.835l-1.841,1.835l1.1,0.365l-1.461,2.938l0.362,1.098l5.871,1.835l1.47,5.5l2.564,1.471l-0.732,2.199
	l5.869,0.731l2.941,4.039l-1.468,20.182l-3.307-2.201l-1.836,1.835l-2.201-1.835l-0.732,0.367v2.201l-6.603-6.243l-9.171-6.6
	l-2.201-3.669l-8.807-9.175l-5.14-11.735l-3.665-4.771l-3.674-2.203l-3.298-10.274l-2.203-2.201l-5.506-2.203l-0.734-3.669
	l-3.663-4.77l-3.676-1.835l-7.706-7.337l-2.568-5.865h3.669L347.411,427.817z M415.293,478.451l1.095-1.835l2.941,6.967l2.934,0.369
	v3.67l-4.402-1.468l-2.201-4.405l-4.408-1.83l1.467-2.568L415.293,478.451z M432.532,488.354l-3.667-0.365l0.734-3.669l3.667,1.466
	L432.532,488.354z M536.374,504.867l-2.574-0.365l0.739-4.037l2.195-0.373L536.374,504.867z M533.065,504.867l-1.833-1.099
	l0.732-1.106L533.065,504.867z M540.771,500.464l-1.464,1.463l1.097,2.574l-2.2,2.195l-1.098-1.83l1.098-2.939l1.104-4.766
	L540.771,500.464z M540.771,496.429l-1.464-1.468h1.464V496.429z M538.575,476.982v-1.834l1.462-0.737l0.367,1.104L538.575,476.982z
	 M542.607,476.982l-1.469,0.368l-0.367-1.102l2.203-0.733L542.607,476.982z M551.045,480.652l-1.469-2.569l6.237,0.734
	L551.045,480.652z"/>
<path id="Hong_Kong" inkscape:connector-curvature="0" inkscape:label="#polygon5275-7" sodipodi:nodetypes="ccccccccc" fill="#E1E1E1" stroke="#007BB6" stroke-width="0.4014" d="
	M487.604,301.019l-2.363,0.262l-3.533,1.126l-1.431,1.225l-1.901-2.521l1.205-2.73l6.972-0.733l1.188,0.803L487.604,301.019z"/>
<path id="Japan" inkscape:connector-curvature="0" fill="#D9D9D9" stroke="#001895" stroke-width="0.1847" d="M673.904,96.166
	c-5.582,4.938,2.753,13.289-2.607,19.189c0.777,6.866-3.458,6.845-8.639,5.926c2.718,4.875-9.173,9.999-1.43,15.102
	c-3.44,7.45,3.905,2.87,5.749,1.373c7.789-0.804-10.342-6.14-1.695-8.459c2.979,0.31,2.688,3.923,5.112,0.151
	c6.986-3.878,16.847,11.87,17.975-0.969c2.929-6.304,15.333-5.457,15.834-10.574c-6.76,3.404-0.404-15.998-5.912-7.178
	c-6.268,3.426-13.665-2.819-17.923-7.666C678.539,100.488,676.417,98.094,673.904,96.166L673.904,96.166z M667.035,97.24
	C664.984,99.639,669.22,98.846,667.035,97.24z M668.695,99.364C666.19,101.065,671.578,100.499,668.695,99.364z M656.428,132.893
	C653.024,134.765,657.919,135.834,656.428,132.893z M668.557,140.251c-4.996,3.644,1.742,3.773,2.137,4.854
	c-1.766,3.277-5.101,1.889-5.608-1.288c-3.647-0.318-1.351,4.81-4.692,5.519c0.39,5.676-2.559,7.963,0.95,12.723
	c-1.2,8.078-5.687,15.427-10.906,21.741c-3.023,3.447-13.515,11.871-14.495,4.835c3.979-2.593,2.916-6.524-1.23-2.711
	c-1.175,5.723-3.452,10.78-6.81,14.885c0.668,5.947-6.544,5.799-8.546,2.704c-6.579,2.855-13.797,0.917-20.217,2.309
	c-4.834,6.064-13.058,8.742-17.647,13.905c0.471,2.584-5.264,3.356-7.312,6.112c-2.712,0.686-8.615,1.617-3.069,4.021
	c2.928,4.858-1.831-1.815-0.87,3.244c0.883,4.999,3.48-0.781,4.966,1.953c1.919-1.185-1.864-7.492,1.748-3.281
	c3.603,5.618-5.378,10.567-3.04,16.266c-1.705,3.282,7.215,3.768,2.961-0.053c3.204-7.252-0.151,11.118,4.861,1.788
	c5.912-2.149,3.511-11.907,9.222-15.772c1.484-4.298-5.68-4.879-1.927-8.007c-4.147,0.587-10.097-4.924-2.746-4.747
	c3.825-0.367,5.9,3.331,9.426,0.945c-5.242,0.611,2.04-7.575,0.163-1.589c6.03-2.568,11.921-3.975,18.813-6.286
	c3.607,1.032,10.016-0.217,5.246,4.104c-4.025,7.097,7.736,14.14,9.273,4.527c0.27-4.794,9.764-2.248,4.243-7.089
	c-3.383-2.923,2.828-6.94,1.136-1.981c1.393,0.703,5.268-0.338,2.064,2.258c5.751,0.072,11.963-1.005,14.712-5.974
	c0.742,2.781,1.621,8.477,3.143,2.073c-0.346-6.012,6.645-1.436,5.138-5.321c6.325-8.234-3.111,9.128,4.604,3.768
	c3.207-4.837,6.082-8.246,3.166-13.477c2.462-6.604,3.42-12.961,2.721-19.892c1.188-4.344,5.69-1.816,4.326-7.038
	c6.444-7.042,2.034-15.395-1.594-22.186C672.465,145.108,672.567,140.641,668.557,140.251L668.557,140.251z M648.68,175.441
	c-5.027,2.508,1.238,8.73,0.129,1.349L648.68,175.441L648.68,175.441z M657.087,213.358
	C655.666,216.031,660.265,214.428,657.087,213.358z M655.883,215.638C655.285,216.265,656.458,216.136,655.883,215.638z
	 M618.479,215.842C613.152,216.771,617.409,224.374,618.479,215.842z M611.887,216.038
	C609.762,217.278,613.418,217.446,611.887,216.038z M656.756,216.168C655.954,216.658,657.554,216.658,656.756,216.168z
	 M609.972,217.821c-3.617,0.186-6.31,7.49-9.759,2.62c-0.637,4.163-12.075,7.979-5.073,8.642c-0.799,5.839,6.046,8.956,6.887,1.676
	c2.075-6.189,8.693,0.08,9.656-1.959c4.74-4.228,5.682-9.786-1.711-10.98V217.821z M594.695,218.724
	C593.404,219.213,595.389,219.793,594.695,218.724z M571.339,221.564C568.732,224.661,573.879,222.856,571.339,221.564z
	 M593.709,223.566C592.871,224.367,594.836,224.005,593.709,223.566z M589.053,223.95
	C587.236,224.381,589.811,225.029,589.053,223.95z M593.173,224.364C591.712,225.143,593.363,225.385,593.173,224.364z
	 M565.056,229.981C561.416,233.208,567.435,232.83,565.056,229.981z M594.026,230.194
	C593.249,230.605,594.785,230.505,594.026,230.194z M593.528,230.518C592.891,231.65,595.259,230.923,593.528,230.518z
	 M563.883,231.593C563.3,232.254,564.476,232.226,563.883,231.593z M563.086,232C562.013,232.599,564.045,232.633,563.086,232z
	 M561.668,232.603C556.976,235.502,565.745,234.324,561.668,232.603z M576.565,235.257
	C575.447,236.873,578.416,235.663,576.565,235.257z M596.069,235.485C595.071,235.975,597.115,236.117,596.069,235.485z
	 M573.816,235.916C568.226,240.65,577.591,240.169,573.816,235.916z M576.216,236.364
	C571.479,237.265,578.813,239.306,576.216,236.364z M573.701,239.653C572.796,241.106,575.111,240.011,573.701,239.653z
	 M572.869,239.911C572.3,240.413,573.445,240.377,572.869,239.911z M571.241,242.992
	C569.811,243.914,571.964,244.02,571.241,242.992z M570.079,244.202C566.961,245.372,571.437,246.621,570.079,244.202z
	 M574.557,254.664C573.71,255.269,575.28,255.259,574.557,254.664z M581.335,255.078
	C576.684,260.565,581.896,260.773,581.335,255.078z M577.901,255.2C577.145,255.522,578.657,255.522,577.901,255.2z
	 M579.513,255.468C578.717,255.934,580.301,255.973,579.513,255.468z M573.205,258.284
	C572.415,258.787,574.002,258.75,573.205,258.284z M575.891,258.577C571.294,262.377,581.24,261.029,575.891,258.577z"/>
</svg>
