<?xml version="1.0" encoding="UTF-8" standalone="no"?>
<!-- Created with Inkscape (http://www.inkscape.org/) -->

<svg
   xmlns:dc="http://purl.org/dc/elements/1.1/"
   xmlns:cc="http://creativecommons.org/ns#"
   xmlns:rdf="http://www.w3.org/1999/02/22-rdf-syntax-ns#"
   xmlns:svg="http://www.w3.org/2000/svg"
   xmlns="http://www.w3.org/2000/svg"
   xmlns:sodipodi="http://sodipodi.sourceforge.net/DTD/sodipodi-0.dtd"
   xmlns:inkscape="http://www.inkscape.org/namespaces/inkscape"
   version="1.0"
   width="1282.943"
   height="1243.5814"
   id="svg4468"
   inkscape:version="0.48.2 r9819"
   sodipodi:docname="canada.svg">
  <metadata
     id="metadata3207">
    <rdf:RDF>
      <cc:Work
         rdf:about="">
        <dc:format>image/svg+xml</dc:format>
        <dc:type
           rdf:resource="http://purl.org/dc/dcmitype/StillImage" />
      </cc:Work>
    </rdf:RDF>
  </metadata>
  <sodipodi:namedview
     pagecolor="#ffffff"
     bordercolor="#666666"
     borderopacity="1"
     objecttolerance="10"
     gridtolerance="10"
     guidetolerance="10"
     inkscape:pageopacity="0"
     inkscape:pageshadow="2"
     inkscape:window-width="1366"
     inkscape:window-height="716"
     id="namedview3205"
     showgrid="false"
     inkscape:zoom="0.3680198"
     inkscape:cx="640.46434"
     inkscape:cy="528.07173"
     inkscape:window-x="-8"
     inkscape:window-y="-8"
     inkscape:window-maximized="1"
     inkscape:current-layer="svg4468"
     fit-margin-top="0"
     fit-margin-left="0"
     fit-margin-right="0"
     fit-margin-bottom="0" />
  <defs
     id="defs4470" />
  <path
     style="fill:#d3d3d3"
     inkscape:connector-curvature="0"
     d="m 288.29934,1019.7609 c -53.5216,-14.1346 -47.7588,-11.9781 -50.9375,-19.0612 l -2.6783,-5.96813 2.1718,-11.05137 c 2.2903,-11.65427 2.1636,-14.6033 -0.8888,-20.68462 -1.0369,-2.06573 -3.959,-7.88887 -6.4935,-12.94032 -2.5346,-5.05145 -5.5611,-12.02645 -6.7256,-15.5 -1.1645,-3.47355 -3.421,-8.29274 -5.0144,-10.7093 -1.5933,-2.41656 -3.1944,-6.01656 -3.5579,-8 -0.3636,-1.98344 -1.9468,-5.08441 -3.5184,-6.89105 -1.5716,-1.80663 -2.8574,-3.76217 -2.8574,-4.34563 0,-0.58345 -0.9348,-2.37357 -2.0772,-3.97804 -1.2018,-1.68768 -2.4788,-5.75224 -3.0299,-9.64365 -0.6001,-4.23785 -1.8458,-8.0253 -3.3668,-10.23716 -1.3279,-1.93089 -2.8725,-4.73299 -3.4326,-6.22686 -0.56,-1.49388 -2.6046,-3.74388 -4.5435,-5 -3.4746,-2.25108 -4.7587,-5.91882 -2.55,-7.28386 0.55,-0.33992 1,-3.11674 1,-6.17071 0,-5.43129 6.559,-24.26144 51.1754,-146.91967 l 4.0341,-11.09037 22.1452,7.3645 c 12.1799,4.05047 30.6953,9.86977 41.1453,12.93178 10.45,3.062 28.8657,8.45432 40.9237,11.98292 12.0581,3.52861 22.0347,6.52663 22.1704,6.66228 0.6596,0.65959 -2.974,15.33806 -3.9602,15.99811 -0.6237,0.41736 -2.2194,1.04698 -3.5462,1.39915 -2.5095,0.6661 -13.0087,11.04291 -13.059,12.9068 -0.016,0.58563 1.5782,1.83106 3.5422,2.76762 3.4362,1.63861 3.6791,1.62576 6.4408,-0.34077 1.5785,-1.12398 3.1627,-2.96582 3.5205,-4.09298 0.3577,-1.12716 0.8569,-1.84291 1.1092,-1.59055 0.2524,0.25236 -1.3132,7.82377 -3.479,16.82536 -5.1132,21.251 -10.6244,44.26812 -18.1657,75.86653 -3.3472,14.025 -7.1693,30 -8.4936,35.5 -6.6776,27.7332 -12.6219,52.50632 -15.8366,66 -16.9717,71.23859 -15.5381,65.55429 -16.4839,65.35919 -0.3754,-0.077 -6.9826,-1.8045 -14.6826,-3.838 z"
     id="AB"
     inkscape:label="#CA-AB" />
  <path
     style="fill:#d3d3d3"
     inkscape:connector-curvature="0"
     id="BC"
     d="m 17.526838,577.50002 c -1.955729,0.12081 -2.148203,8.92864 -0.15625,11.96875 1.94062,2.96175 2.82291,15.03184 1.46875,20.03125 -0.48417,1.7875 -0.78361,3.25 -0.65625,3.25 0.12736,0 2.02169,-0.84219 4.1875,-1.875 2.16581,-1.03281 6.6581,-2.88774 10,-4.09375 4.4272,-1.59769 6.5788,-2.99327 7.875,-5.1875 1.9292,-3.26595 2.83105,-3.3051 9.84375,-0.375 2.297,0.95972 3.84625,2.37845 4.15625,3.78125 0.2727,1.23414 1.83405,7.875 3.46875,14.75 1.6346,6.875 3.2503,14.2312 3.5625,16.375 0.3122,2.14381 0.7568,4.84381 1,6 0.2432,1.1562 0.6887,6.4 1,11.625 0.3112,5.225 1.05965,12.04785 1.65625,15.15625 0.9579,4.99122 0.78245,6.93726 -1.59375,16.875 -2.3278,9.73508 -2.56375,11.86644 -1.59375,15.71875 1.6484,6.54643 7.6362,17.85345 11.0625,20.90625 2.701,2.40665 3,3.24195 3,8.8125 0,5.49058 -0.3428,6.53371 -3.125,9.59375 -3.7203,4.09181 -5.875,8.78784 -5.875,12.78125 0,3.8086 -5.6858,8.9492 -12.875,11.65625 -2.9213,1.1 -6.44255,3.13075 -7.84375,4.53125 -2.4643,2.46299 -2.56375,2.97049 -2.59375,15.5 -0.0264,11.08252 0.2613,13.54654 2,16.96875 3.4535,6.79724 3.68035,8.37044 1.40625,10.28125 -1.1272,0.94712 -2.313,3.22439 -2.625,5.09375 -0.4754,2.84813 0.08295,4.3607 3.46875,9.1875 3.0631,4.36676 4.0625,6.69918 4.0625,9.6875 0,2.168 0.49265,5.33798 1.09375,7.0625 1.0057,2.88495 0.82685,3.36641 -1.96875,5.71875 -2.9564,2.48768 -3.02695,2.79116 -3.15625,11.75 -0.155,10.73125 -0.08955,12.52047 0.46875,15.21875 0.2276,1.1 0.42675,2.52318 0.46875,3.1875 0.0421,0.66431 2.23125,2.45346 4.84375,3.96875 2.6125,1.5153 4.8792,3.09836 5.0625,3.53125 0.1834,0.43289 1.039,0.8125 1.875,0.8125 1.2317,0 1.38395,0.92222 0.90625,4.84375 -0.5829,4.78579 -0.50325,4.89884 4.78125,10.25 5.9031,5.97756 9.22595,12.48498 10.21875,19.96875 0.6129,4.62074 4.10635,9.9375 6.53125,9.9375 0.475,0 0.875,0.93942 0.875,2.09375 0,1.91032 2.09305,4.30839 7.90625,9.125 1.4455,1.19764 2.08275,2.91247 2.09375,5.5 0.0188,4.6206 0.6793,5.6335 4.5,7.03125 1.65,0.60364 6.375002,2.42513 10.500002,4.03125 24.0536,9.36554 82.4855,31.2801 88,33 15.9891,4.9868 36.5878,11.39033 37.5,11.65623 1.7375,0.5068 1.8016,-0.3194 0.25,-2.6874 -2.6633,-4.06483 -2.9252,-8.21133 -1.125,-17.87508 0.9604,-5.15562 1.76,-10.77676 1.75,-12.46875 -0.007,-1.77872 -3.03645,-9.16032 -7.15625,-17.5 -3.9189,-7.93301 -7.4274,-15.75625 -7.8125,-17.40625 -0.8238,-3.53065 -4.9814,-12.12221 -6.25,-12.90625 -0.485,-0.29975 -1.4813,-2.71708 -2.1875,-5.34375 -0.7062,-2.62667 -2.3307,-5.9074 -3.625,-7.3125 -1.2942,-1.40509 -2.34375,-3.01277 -2.34375,-3.5625 0,-0.54972 -1.28325,-3.00818 -2.84375,-5.46875 -1.8907,-2.98128 -3.0426,-6.3923 -3.4375,-10.21875 -0.7216,-6.99172 -6.7751,-18.19049 -11.4375,-21.1875 -3.7304,-2.39793 -4.94645,-6.72124 -2.78125,-9.8125 0.8608,-1.22903 1.5,-4.33679 1.5,-7.34375 0,-5.0243 4.852,-19.29721 28,-82.34375 2.1203,-5.775 8.63485,-23.775 14.46875,-40 5.834,-16.225 11.03655,-30.58508 11.59375,-31.90625 0.5572,-1.32116 0.65755,-2.71478 0.21875,-3.09375 -0.4389,-0.37897 -10.45625,-4.41507 -22.28125,-8.96875 -11.825,-4.55369 -27.35,-10.96762 -34.5,-14.25 -11.4339,-5.24902 -42.279,-20.86265 -45,-22.78125 -0.55,-0.38781 -7.75,-4.22683 -16,-8.53125 -16.8379,-8.78516 -51.453102,-29.83815 -83.125002,-50.5625 -11.61862,-7.6026 -21.73861,-13.96455 -22.46875,-14.125 -0.06674,-0.0147 -0.124412,-0.0352 -0.1875,-0.0312 z M 5.4018376,758.96877 c -1.268793,0.11103 -2.114369,0.73575 -2.125,1.875 -0.0083,0.88796 -0.58453,2.31676 -1.28125,3.15625 -0.82198,0.99043 -1.45895002,6.55748 -1.84375002,15.875 -0.66112,16.00805 0.81379,27.19165 4.87500002,36.59375 2.20779,5.11126 4.7748,7.02544 4.75,3.53125 -0.0068,-0.9625 -1.13184,-5.80387 -2.5,-10.75 -4.14405,-14.98138 -3.98527,-15.54399 6.5312504,-26.5 4.95,-5.15686 9,-9.93491 9,-10.59375 0,-1.52325 -6.39976,-7.85717 -11.1875,-11.09375 -2.2496064,-1.52076 -4.5874444,-2.23651 -6.2187504,-2.09375 z m 30.8125004,115.8125 c -1.0574,0.0198 -3.26715,1.12943 -4.90625,2.46875 -2.85277,2.33106 -2.90832,2.57994 -1.625,5.71875 0.7373,1.80341 1.89815,6.07182 2.59375,9.5 0.7633,3.76235 2.89395,8.91537 5.34375,13 2.2323,3.72182 4.81915,8.80625 5.78125,11.28125 0.9622,2.475 2.79045,6.075 4.03125,8 1.2409,1.925 2.5266,4.85 2.875,6.5 1.3102,6.20615 3.5933,10.098 6.5625,11.21875 2.3453,0.88526 2.9375,1.70821 2.9375,4.09375 0,4.29073 9.6135,16.84373 16,20.90625 3.3141,2.10815 11.7483,3.18913 13.25,1.6875 0.3247,-0.32472 -0.0148,-2.29134 -0.75,-4.375 -0.7351,-2.08367 -1.666,-6.42715 -2.0625,-9.65625 -0.9598,-7.81546 -1.45025,-8.9413 -7.21875,-16.5625 -4.3334,-5.72525 -5.0185,-7.33962 -5.625,-12.9375 -0.6339,-5.85025 -3.1644,-14.66388 -4.5625,-15.875 -0.3174,-0.275 -2.1596,-2.525 -4.0625,-5 -1.9028,-2.475 -3.91085,-4.997 -4.46875,-5.59375 -0.5579,-0.59675 -3.475,-3.95212 -6.5,-7.46875 -9.6408,-11.20769 -15.61615,-16.94325 -17.59375,-16.90625 z"
     inkscape:label="#path3102" />
  <path
     style="fill:#d3d3d3"
     inkscape:connector-curvature="0"
     d="m 482.01814,757.58346 -0.7188,6.3125 c -0.3982,3.48099 -0.8534,7.01875 -1,7.84375 -0.1466,0.825 -0.5963,3.975 -1,7 -0.4037,3.025 -0.8503,6.175 -1,7 -0.1498,0.825 -1.0468,7.30718 -2,14.40625 -1.6346,12.17273 -1.6404,13.08838 -0.031,15.8125 1.6706,2.82817 1.6493,2.94551 -1.125,6.4375 -1.5586,1.96156 -3.3439,4.31809 -3.9688,5.21875 -0.6248,0.90069 -1.4652,7.475 -1.8437,14.625 -0.3786,7.15 -0.8273,14.8 -1,17 -0.1727,2.2 -0.6123,8.05 -0.9688,13 -0.3565,4.95 -0.8202,11.7 -1.0625,15 -1.0079,13.72694 -1.4516,19.41294 -2,27 -0.3181,4.4 -0.7658,10.25 -1,13 -0.2342,2.75 -0.6922,9.5 -1.0312,15 -0.3391,5.5 -0.7786,11.8 -0.9688,14 -0.1902,2.2 -0.6305,8.725 -1,14.5 -0.3695,5.775 -0.8214,12.075 -1,14 -0.1786,1.925 -0.6489,8.67496 -1.0312,14.99996 -0.3824,6.32503 -0.814,12.17503 -0.9688,13.00003 -0.512,2.7295 -1.8827,25.3849 -1.9375,32 l -0.062,6.5 6,0.5938 c 9.6211,0.9766 18.8031,2.0107 21.5,2.4062 1.375,0.2017 4.975,0.6339 8,0.9688 5.833,0.6457 9.1474,1.034 18,2.0937 3.025,0.3621 9.775,0.9561 15,1.3125 5.225,0.3564 14.0752,0.7713 19.6563,0.9375 l 10.125,0.3125 0.625,-4.8125 c 0.3299,-2.6479 0.8294,-10.2125 1.125,-16.8125 0.2956,-6.6 0.7397,-15.15 0.9687,-19 0.2289,-3.85 0.6785,-13.75 1,-22.00003 1.1133,-28.57447 1.4323,-31.53979 3.8125,-35.53121 1.2185,-2.04329 8.3087,-10.19065 15.7813,-18.09375 7.4725,-7.9031 15.5767,-16.6041 18,-19.34375 2.4232,-2.73967 4.8562,-5.50501 5.4062,-6.125 9.624,-10.8488 14.2515,-16.16275 19.4375,-22.375 3.4319,-4.11104 9.3502,-10.91664 13.1563,-15.125 3.806,-4.20839 8.4621,-9.40068 10.3437,-11.53125 1.8815,-2.13057 5.6868,-6.35 8.4688,-9.375 2.7819,-3.025 5.0852,-5.98547 5.0937,-6.5625 0.016,-1.12029 -5.2312,-3.28502 -9.75,-4.03125 -6.9159,-1.14212 -8.8209,-1.79863 -9.9687,-3.4375 -0.9677,-1.38145 -2.5581,-1.73775 -7.3125,-1.625 -3.3301,0.079 -6.3579,0.64647 -6.75,1.25 -0.8065,1.241 -12.3731,2.67667 -14.625,1.8125 -1.0232,-0.39258 -1.2247,-1.20413 -0.6875,-2.65625 0.7823,-2.1147 0.6087,-3.34772 -2.2188,-16.75 -2.0306,-9.62508 -2.552,-12.49247 -3.25,-18 -0.8002,-6.3135 -3.3596,-8.24391 -13.8125,-10.4375 -6.6928,-1.4045 -8.9567,-2.31141 -9.8437,-3.9375 -1.2489,-2.28968 -1.2233,-10.19488 0.062,-20.875 l 0.8125,-6.75 -5.3438,-0.125 c -2.9266,-0.0688 -5.65,-0.21387 -6.0625,-0.3125 -0.4125,-0.0986 -4.125,-0.52673 -8.25,-0.96875 -4.125,-0.44203 -8.175,-0.92077 -9,-1.0625 -0.825,-0.14176 -4.626,-0.59678 -8.4375,-1 -3.8116,-0.40323 -7.8616,-0.883 -9,-1.0625 -1.1385,-0.17947 -4.7625,-0.59912 -8.0625,-0.9375 -3.3,-0.3384 -9.6,-1.00689 -14,-1.5 -4.4,-0.49311 -10.7,-1.15395 -14,-1.46875 -3.3,-0.31482 -8.1029,-0.84291 -10.6562,-1.15625 l -4.625,-0.5625 z m 28.5937,171.875 c 3.858,0.033 6.4408,1.84052 8.375,5.65625 1.1518,2.27233 2.4188,4.35 2.8125,4.625 1.8726,1.30772 6.4481,13.46154 5.5938,14.84375 -0.5406,0.87456 1.2557,6.38921 3.2187,9.90625 0.6866,1.23026 1.1399,4.60526 1.0313,7.5 -0.2085,5.55652 3.0986,17.80656 6.25,23.21876 1.2688,2.1791 1.8489,5.69363 2.0625,12.53123 0.2925,9.3671 0.2451,9.5055 -2.125,9.8438 -1.322,0.1886 -3.24,1.4261 -4.2813,2.75 -2.1639,2.7508 -3.9848,3.0463 -6.0625,0.9687 -1.7095,-1.7095 -1.1849,-8.8654 0.875,-12.0312 0.728,-1.1191 1.5646,-3.3149 1.8438,-4.875 0.2792,-1.5602 1.0602,-3.5129 1.75,-4.3438 1.9968,-2.40623 1.9204,-4.77713 -0.1875,-6.09373 -1.6466,-1.0282 -2.1323,-0.9087 -3.1875,0.7812 -1.3645,2.1847 -3.7813,2.6992 -3.7813,0.8125 0,-0.6485 0.5283,-2.6069 1.1563,-4.3437 2.6933,-7.44844 -1.692,-13.8756 -7.9688,-11.68751 -2.5606,0.89264 -3.2884,0.7316 -4.9687,-1.125 -1.0777,-1.19077 -2.6385,-4.27529 -3.5,-6.875 -0.8616,-2.59972 -2.6797,-6.19973 -4.0313,-8 -1.7375,-2.3143 -2.3444,-4.16014 -2.0312,-6.28125 0.4036,-2.73472 0.028,-3.22998 -4.4375,-5.5625 -6.5052,-3.39761 -9.1425,-2.41192 -9.3438,3.46875 -0.077,2.25346 -0.2904,6.34375 -0.4687,9.09375 -0.8907,13.74088 -0.8933,13.75917 3.1875,17 8.7653,6.96101 9.4674,7.85399 10.875,13.99996 0.7558,3.3 1.3518,7.62163 1.3437,9.59383 -0.01,1.9722 1.1637,5.8967 2.5938,8.7187 3.3421,6.5954 3.4788,11.7222 0.3437,12.5625 -3.3008,0.8846 -4.5572,0.7727 -5.3437,-0.5 -0.6831,-1.1051 -3.4385,-13.8445 -5.375,-24.75 -1.0947,-6.16403 -2.5507,-8.07883 -9.5313,-12.59374 -5.5399,-3.58323 -8.2231,-6.38644 -7.9375,-8.28125 0.1036,-0.6875 0.2438,-2.12677 0.3125,-3.1875 0.069,-1.06072 0.7467,-2.52802 1.5,-3.28125 0.8921,-0.89217 1.3367,-3.69288 1.3125,-8 -0.037,-6.61053 -0.013,-6.59713 -3.8437,-8.75 -4.2782,-2.40448 -5.8438,-4.66848 -5.8438,-8.46875 0,-2.06036 0.4894,-2.5625 2.4688,-2.5625 3.7058,0 4.9589,-3.18642 2.5,-6.3125 -1.0879,-1.38303 -1.9688,-3.01062 -1.9688,-3.625 0,-1.31541 4.6949,-3.37133 7.4063,-3.25 2.4,0.1074 7.5937,5.0236 7.5937,7.1875 0,0.90122 1.0459,2.62253 2.3125,3.8125 l 2.2813,2.15625 1.3437,-3.625 c 2.2331,-6.17549 6.2895,-11.30233 9.5625,-12.0625 1.5959,-0.37064 3.0265,-0.57349 4.3125,-0.5625 z"
     id="MB"
     inkscape:label="#CA-MB" />
  <path
     style="fill:#d3d3d3"
     inkscape:connector-curvature="0"
     d="m 1058.3727,1108.0164 c -2.2757,-0.5804 -5.0159,-3.6856 -6.653,-7.5394 -0.6455,-1.5195 -2.1741,-3.0139 -3.3969,-3.3208 -4.0563,-1.018 -10.466,-17.7085 -10.5289,-27.4165 -0.022,-3.3336 -0.6079,-5.0478 -2.2619,-6.6134 -3.891,-3.683 -9.126,-6.379 -12.3939,-6.3829 l -3.1612,0 -0.39,-6.25 c -0.2145,-3.4375 -0.2279,-6.5875 -0.03,-7 0.1981,-0.4125 3.1462,-0.7842 6.5512,-0.8261 7.3514,-0.09 11.4384,-1.4458 15.6034,-5.1749 1.8883,-1.6907 5.9398,-3.5376 10.5118,-4.7919 6.9097,-1.8957 7.7048,-1.93 11.1682,-0.4829 3.5559,1.4857 3.821,1.4592 5.7132,-0.5719 4.0627,-4.3608 15.7491,-7.8328 15.659,-4.6523 -0.019,0.6875 -0.6786,2.375 -1.4646,3.75 -2.1168,3.703 -1.9088,12.2088 0.3697,15.1151 1.0283,1.3117 2.1942,3.8709 2.5909,5.6872 0.4415,2.0212 2.522,5.0278 5.3629,7.75 4.4565,4.2704 4.8848,4.4477 10.7424,4.4477 3.3554,0 6.3612,0.2604 6.6795,0.5787 0.3182,0.3183 -1.6683,2.9058 -4.4147,5.75 -2.7463,2.8442 -6.134,7.5759 -7.5281,10.5149 -3.5627,7.5102 -16.072,20.1564 -19.9383,20.1564 -2.1875,0 -3.1725,0.6696 -4.1141,2.7969 -1.8122,4.0941 -8.3566,6.0916 -14.6768,4.4798 z"
     id="NB"
     inkscape:label="#CA-NB" />
  <path
     style="fill:#d3d3d3"
     inkscape:connector-curvature="0"
     id="NL"
     d="m 982.33934,703.93752 c -0.0528,0.011 -0.0923,0.0298 -0.125,0.0625 -0.6249,0.62491 3.48355,15.62812 4.90625,17.90625 0.6049,0.96864 1.99455,1.87097 3.06255,2.03125 1.5226,0.22854 2.2961,1.85942 3.625,7.53125 0.932,3.97787 1.4483,7.48914 1.1562,7.78125 -0.2921,0.29206 1.2447,0.43525 3.4062,0.34375 9.10356,-0.38555 9.66286,-0.16362 8.90626,3.28125 -1.1841,5.39111 -1.2323,6.30075 -0.3437,8.6875 0.6035,1.62121 0.4235,2.97182 -0.625,4.46875 -2.4646,3.51854 -1.8652,6.49845 1.75,8.75 1.7874,1.11326 4.4197,2.28903 5.8437,2.59375 3.7851,0.80992 5.6488,4.84377 5.7187,12.375 0.033,3.575 0.5508,9.425 1.1876,13 0.6365,3.575 1.5202,8.41552 1.9374,10.78125 0.5214,2.95702 1.7292,5.14474 3.8438,7 3.2311,2.83487 8.2188,11.523 8.2188,14.3125 0,0.89953 0.7248,2.25295 1.625,3 2.0561,1.7065 5.375,9.32366 5.375,12.34375 0,1.25198 -1.35,4.81422 -3,7.90625 -4.621,8.65944 -3.9682,10.65625 3.5624,10.65625 2.1391,0 4.2171,-0.81081 5.5313,-2.125 1.1965,-1.1965 2.4713,-1.71622 2.9687,-1.21875 1.5392,1.53917 1.319,6.72637 -0.4374,10.625 -2.0807,4.61814 -5.6895,6.30802 -10.4063,4.875 -3.6425,-1.10661 -8.6536,0.70141 -11,3.96875 -1.9605,2.72984 -7.886,3.51146 -10.2813,1.34375 -2.6771,-2.42285 -2.4523,-3.62779 1.0626,-5.96875 1.6515,-1.1 3.2535,-2.78713 3.5624,-3.75 0.4443,-1.38435 3.8654,-4.45105 8.3126,-7.4375 0.2113,-0.14194 0.5708,-1.80943 0.7812,-3.71875 0.3102,-2.81505 0.027,-3.46325 -1.4062,-3.40625 -0.9718,0.0387 -4,-0.23951 -6.75,-0.625 -4.7889,-0.67131 -5.1052,-0.58509 -7,2.3125 -2.3554,3.60209 -5.9776,4.33178 -9.5,1.90625 -1.375,-0.94684 -4.4421,-2.13796 -6.8126,-2.65625 -4.11916,-0.9006 -4.36496,-0.82077 -5.31236,1.71875 -0.5453,1.46145 -1.9282,3.38309 -3.0938,4.28125 -1.1656,0.89817 -2.2712,2.53564 -2.4375,3.625 -0.5213,3.41604 -2.25005,7.25 -3.28125,7.25 -0.5442,0 -1.45595,0.86257 -2.03125,1.9375 -2.5131,4.69575 5.2507,16.7976 12.625,19.65625 2.60376,1.00938 4.35796,2.40515 4.71876,3.75 0.9486,3.53534 0.7029,9.48261 -0.4376,10.1875 -1.5703,0.97046 1.9296,4.47375 4.4688,4.46875 1.1522,-0.002 3.5444,-0.89069 5.3125,-1.96875 2.8904,-1.76233 3.3697,-1.81787 4.75,-0.4375 0.8444,0.8444 1.5518,2.07053 1.5937,2.71875 0.075,1.15557 0.2143,1.92153 1.4063,8.34375 0.7184,3.87065 1.4636,4.19635 8.7813,3.5625 4.5682,-0.39572 6.1621,-0.16169 7.6874,1.21875 1.059,0.95831 3.6553,1.97364 5.75,2.25 2.0948,0.27636 3.9486,0.64768 4.125,0.8125 0.4221,0.39409 5.1441,-0.1305 5.625,-0.625 0.5055,-0.51955 1.5936,-9.43777 1.75,-14.375 0.07,-2.2 0.5909,-4.31787 1.1563,-4.6875 0.5653,-0.36964 3.5319,0.5596 6.5937,2.0625 4.5156,2.21642 6.318,2.59679 9.5626,2.03125 3.9039,-0.68049 24.682,-7.84625 34.2187,-11.8125 2.627,-1.09254 9.7312,-3.86645 15.7813,-6.15625 6.0499,-2.28981 14.2572,-5.43316 18.25,-6.96875 3.9927,-1.53558 9.6177,-3.353 12.5,-4.03125 2.8822,-0.67826 6.853,-2.01605 8.8124,-3 1.9596,-0.98396 4.0022,-1.49613 4.5313,-1.125 0.529,0.37112 2.7874,3.01621 5.0313,5.875 l 4.0624,5.1875 3.0626,-3.1875 c 3.4427,-3.62056 10.25,-14.03853 10.25,-15.6875 0,-2.20933 -4.2517,-9.34547 -7.5313,-12.625 -4.2981,-4.29811 -6.2778,-10.33521 -4.5937,-14.03125 0.658,-1.44445 1.0643,-2.7052 0.9062,-2.8125 -0.1581,-0.10731 -2.9812,-1.67739 -6.2812,-3.5 -3.3001,-1.82261 -7.0946,-4.16349 -8.4063,-5.1875 -2.4331,-1.89954 -7.3924,-2.27773 -12.0937,-0.9375 -2.0912,0.59616 -2.869,0.17702 -4.7813,-2.59375 -1.8943,-2.74483 -2.9226,-3.3125 -6,-3.3125 -3.3574,0 -4.4689,0.78814 -11.4063,8.1875 -5.3501,5.70639 -7.8683,9.19461 -8.3124,11.5625 -0.7149,3.81026 -10.9977,14.66012 -13.125,13.84375 -2.5531,-0.97967 -0.3419,-7.00473 4.4374,-12.0625 2.5701,-2.7199 6.0375,-6.37695 7.6876,-8.125 1.65,-1.74804 5.378,-5.89652 8.3124,-9.21875 2.9345,-3.32224 6.6089,-6.54656 8.1563,-7.1875 2.7324,-1.13179 4.4135,-4.78295 3.125,-6.8125 -0.3295,-0.51888 -3.8888,-1.84008 -7.9063,-2.9375 -5.735,-1.56661 -7.5764,-1.73611 -8.5312,-0.78125 -3.0472,3.04713 -5.4774,3.58713 -9.375,2.09375 -2.088,-0.8 -7.7715,-1.64964 -12.6562,-1.875 l -8.9063,-0.40625 -3.8125,-4.15625 c -2.1057,-2.28038 -4.6404,-4.12535 -5.625,-4.125 -0.9845,3.4e-4 -6.6316,-1.68716 -12.5625,-3.75 -9.3235,-3.24284 -10.8561,-4.08847 -11.3125,-6.25 -0.2904,-1.375 -1.1425,-3.60213 -1.875,-4.9375 -1.1185,-2.03895 -1.1017,-3.21301 0.125,-7.34375 1.3315,-4.48372 1.3042,-5.09513 -0.25,-6.8125 -0.9377,-1.0362 -3.7757,-2.47152 -6.3125,-3.1875 -4.3213,-1.21958 -4.6274,-1.53301 -5.1563,-5.25 -0.3105,-2.18213 -1.5706,-5.88638 -2.7812,-8.21875 -1.8996,-3.65966 -2.7395,-4.34491 -6.25,-4.90625 -3.15,-0.50372 -4.5722,-1.37725 -6.25,-3.96875 -1.1917,-1.84057 -2.9278,-3.368 -3.875,-3.375 -1.1075,-0.008 -2.4938,-1.78938 -3.875,-5 -1.4019,-3.25885 -3.3365,-5.70616 -5.5312,-7.0625 -1.8492,-1.14286 -4.2902,-3.42003 -5.4376,-5.03125 -1.1472,-1.61123 -2.8428,-2.90625 -3.7812,-2.90625 -0.9383,0 -3.6608,-2.68219 -6.03116,-5.9375 -3.9244,-5.38886 -14.95634,-15.21631 -16.5938,-14.875 z m 206.59376,175.375 c -0.9604,0.12302 -2.2947,1.00021 -4.75,2.875 -7.1829,5.4846 -9.0195,8.85176 -9.9063,18.09375 -0.4206,4.38362 -0.8585,8.86875 -0.9687,9.96875 -1.6314,16.2734 -1.9525,32.696 -0.9063,46.6875 0.581,7.77049 0.4298,9.02173 -1.4687,12.09375 -2.6564,4.298 -2.7021,6.40081 -0.125,7.21875 2.7379,0.86898 2.3892,5.98456 -0.6876,10.1875 -2.8987,3.95989 -2.9526,8.20335 -0.1874,11.71875 1.1662,1.4826 2.6287,2.49823 3.25,2.25003 0.6213,-0.2482 5.6473,-2.25183 11.1874,-4.46883 5.5402,-2.2171 11.6153,-4.307 13.5,-4.625 1.885,-0.31796 4.665,-0.75937 6.1876,-0.99995 1.5226,-0.24059 5.2757,-1.9279 8.3124,-3.75 10.0493,-6.02948 11.7385,-6.80764 12.9376,-5.8125 1.1982,0.99437 5.5508,0.0924 9.3437,-1.9375 2.0182,-1.0801 2.1563,-0.91743 2.1563,2.8125 0,3.22331 -0.6468,4.55875 -3.5,7.25 -5.2443,4.94655 -4.7356,6.55205 2.0312,6.37505 7.8523,-0.2055 10.2524,-2.7584 11.5938,-12.43755 0.912,-6.58114 1.3773,-7.64462 4.9374,-11.03125 3.1782,-3.02332 3.9376,-4.42214 3.9376,-7.375 0,-2.01016 0.3922,-3.65625 0.875,-3.65625 1.9863,0 3.1007,3.05413 3.9687,10.8125 1.1855,10.59638 3.4365,13.76954 6.1563,8.6875 1.6819,-3.1427 2.3742,-3.15647 3.8124,0 0.9161,2.01062 1.7985,2.4728 4.3126,2.28125 4.1873,-0.31908 8.2363,-6.17731 8,-11.5625 -0.09,-2.05074 -0.278,-6.71121 -0.4063,-10.375 -0.1284,-3.66378 -0.5807,-7.01535 -1,-7.4375 -0.4193,-0.42215 -2.0665,0.20782 -3.6875,1.40625 -4.1828,3.09249 -5.5729,2.7419 -6.9375,-1.8125 -0.6612,-2.20698 -1.8164,-4 -2.5937,-4 -1.5411,0 -6.5,5.98694 -6.5,7.84375 0,1.70525 -1.7039,1.39284 -2.4063,-0.4375 -0.3339,-0.86998 -0.5937,-3.11998 -0.5937,-5 0,-1.91455 -0.5105,-3.40625 -1.1563,-3.40625 -0.6342,0 -0.2649,-0.7875 0.8125,-1.75 3.2847,-2.9345 5.3438,-6.57296 5.3438,-9.40625 0,-3.32527 -1.0822,-3.69708 -7.4688,-2.6875 -4.3399,0.68605 -5.3178,0.52602 -7.0312,-1.1875 -1.6605,-1.66045 -1.7654,-2.31165 -0.75,-3.9375 1.5255,-2.44266 0.52,-7.81721 -1.6563,-8.9375 -4.1522,-2.13745 -8.6238,-2.07456 -13.5937,0.21875 -2.75,1.26894 -7.1546,2.89944 -9.7813,3.625 -2.6266,0.72556 -5.0192,1.71295 -5.3125,2.1875 -0.2933,0.47456 -2.8029,0.875 -5.5625,0.875 l -5,0 0.1875,-3.25 c 0.2787,-5.0904 0.1782,-5.28365 -3.5312,-6.625 -3.3052,-1.19513 -7.4523,-0.81435 -7.5313,0.6875 -0.02,0.37543 -1.1995,2.0375 -2.5937,3.6875 l -2.5313,3 0.6563,-5.96875 c 0.3546,-3.28071 0.8838,-6.38366 1.1874,-6.875 0.3036,-0.49135 0.7623,-6.21295 1,-12.71875 0.4457,-12.19548 -0.3446,-15.7323 -4.0937,-18.84375 -0.4737,-0.3931 -0.8925,-0.60506 -1.4687,-0.53125 z"
     inkscape:label="#path3111" />
  <path
     style="fill:#d3d3d3"
     inkscape:connector-curvature="0"
     id="NS"
     d="m 1161.7768,1023.7501 c -1.3962,0 -4.6507,6.8984 -8.0937,17.2187 -1.6986,5.0915 -3.5616,9.8392 -4.125,10.5313 -0.7511,0.9224 0.2842,2.6563 3.8437,6.5 2.67,2.883 5.5364,5.7987 6.375,6.4687 2.2058,1.7624 2.6624,1.608 5.0313,-1.7187 1.326,-1.8624 3.0238,-3 4.4687,-3 1.6884,0 3.1546,-1.3351 5.4063,-4.8438 1.7073,-2.6607 3.125,-5.726 3.125,-6.8125 0,-2.4984 -4.6722,-7.0143 -8.1563,-7.875 -2.8616,-0.7069 -3.8218,-2.798 -3.8437,-8.5 -0.014,-3.5044 -2.2646,-7.9687 -4.0313,-7.9687 z m -19.0313,38.4374 c -1.0829,0.076 -2.5923,0.74 -4.2187,1.8438 -3.4931,2.3704 -14.1899,4.0817 -23.7187,3.7812 -3.0726,-0.097 -4.1609,0.5848 -8.625,5.6563 -10.1549,11.5365 -11.4338,20.3031 -2.1876,14.9063 5.3192,-3.1047 9.8126,-4.8535 9.8126,-3.8126 0,1.2008 -8.6894,7.068 -11.5313,7.7813 -1.3859,0.3478 -3.1374,1.4782 -3.875,2.5313 -0.7376,1.053 -3.0817,3.8345 -5.2187,6.1562 -4.3466,4.7218 -10.9714,14.4876 -12.4376,18.3438 -0.6865,1.8057 -0.501,4.1349 0.6563,8.1874 2.3651,8.2821 5.2177,11.5798 11.0625,12.8438 2.6618,0.5757 4.9208,1.1115 5.0312,1.1875 0.1105,0.076 3.1528,-2.8757 6.75,-6.5625 4.943,-5.066 7.2574,-8.4754 9.5313,-13.9375 1.6548,-3.975 3.0313,-7.6877 3.0313,-8.25 0,-0.5624 0.5075,-2.1134 1.125,-3.4687 0.929,-2.0394 1.6624,-2.3871 4.25,-2 2.8708,0.4294 3.3538,0.044 6.0312,-4.5313 1.7106,-2.9231 3.8369,-5.2001 5.1562,-5.5313 2.0671,-0.5188 10.8826,-7.2063 14.4376,-10.9687 0.825,-0.8731 4.3946,-4.4932 7.9374,-8.0313 5.9944,-5.986 6.3478,-6.5968 5.2813,-8.9374 -1.6724,-3.6708 -5.8218,-5.9958 -11.0937,-6.1876 -2.5458,-0.092 -5.3585,-0.4929 -6.25,-0.875 -0.2483,-0.1064 -0.5766,-0.1501 -0.9376,-0.125 z"
     inkscape:label="#path3116" />
  <path
     style="fill:#d3d3d3"
     inkscape:connector-curvature="0"
     id="NT"
     d="m 495.77684,169.00002 c -1.58491,0.0673 -2.9632,0.29386 -3.4375,0.6875 -0.8062,0.66909 -1.87335,0.95433 -2.40625,0.625 -2.5578,-1.58083 -10.12645,5.01997 -8.59375,7.5 0.3503,0.56667 1.8815,0.76554 3.375,0.4375 1.9559,-0.42958 3.20005,-0.027 4.46875,1.375 0.9689,1.07058 3.0773,2.48926 4.6875,3.15625 1.6102,0.66698 2.9375,1.61048 2.9375,2.09375 0,0.48327 0.57705,0.875 1.28125,0.875 1.1236,0 5.02195,-14.86689 4.15625,-15.84375 -0.60769,-0.68574 -3.82723,-1.01842 -6.46875,-0.90625 z m -30.125,15.75 c -4.5911,0 -2.29265,9.45425 3.09375,12.75 1.1312,0.69216 2.0625,1.87801 2.0625,2.625 0,0.747 0.9836,3.72829 2.1875,6.625 1.7861,4.29785 2.91775,5.58134 6.15625,7.03125 4.6308,2.07329 9.9958,1.84817 12.625,-0.53125 1.6055,-1.45299 2.98225,-5.4177 4.46875,-13 0.2157,-1.1 0.8293,-3.93845 1.375,-6.3125 0.7719,-3.35813 0.71,-4.45134 -0.3125,-4.84375 -1.6979,-0.65152 -19.0165,0.21375 -23.25,1.15625 -2.3557,0.52444 -3.25,0.36872 -3.25,-0.5625 0,-1.96821 -3.11095,-4.9375 -5.15625,-4.9375 z m -20.6875,12.625 c -0.40947,-0.0101 -0.7858,0.0273 -1.15625,0.0937 -1.375,0.24678 -5.30055,0.3884 -8.71875,0.3125 -7.5515,-0.16778 -9.09675,0.609 -18.28125,9.21875 -3.9614,3.71353 -7.56895,6.50445 -8.03125,6.21875 -0.4623,-0.2857 -3.01475,0.6815 -5.65625,2.15625 -2.6416,1.47474 -6.8297,3.21123 -9.3125,3.84375 -3.3029,0.84143 -5.1038,2.02934 -6.75,4.46875 -4.5031,6.67284 -1.6359,11.0625 7.25,11.0625 5.1569,0 5.5,0.1292 5.5,2.40625 0,1.33572 0.6982,3.13572 1.5625,4 3.3547,3.35468 6.21885,1.99272 15.84375,-7.65625 9.9237,-9.94859 13.59375,-13.18499 13.59375,-11.96875 0,0.42238 -0.9,1.5269 -2,2.46875 -2.4085,2.06223 -2.7714,8.85431 -0.5625,10.6875 1.8342,1.5222 5.2331,0.51516 6.5625,-1.96875 0.5595,-1.04549 2.979,-3.06456 5.375,-4.46875 4.0798,-2.39089 4.38355,-2.86736 4.84375,-7.65625 0.3194,-3.32477 1.08405,-5.46246 2.15625,-6.0625 4.8195,-2.69708 6.9188,-8.24961 5,-13.25 -0.76597,-1.99605 -4.35246,-3.83539 -7.21875,-3.90625 z m 1.34375,36.375 c -2.93959,0.10582 -3.8915,0.66519 -5.09375,2.5 -0.9009,1.375 -2.47205,2.5 -3.46875,2.5 -2.251,0 -7.9375,6.74078 -7.9375,9.40625 0,1.08209 -1.17995,3.1805 -2.59375,4.65625 -2.2332,2.33095 -3.02415,4.05456 -3.34375,7.1875 -0.0421,0.4125 -0.66655,0.75 -1.40625,0.75 -2.3628,0 -4.9626,3.70913 -4.3125,6.1875 0.7147,2.72493 10.023,13.83448 12.9375,15.4375 2.7828,1.53057 8.53105,0.83695 10.90625,-1.3125 1.8738,-1.69581 2.0181,-1.69145 3.8125,0.6875 1.4688,1.94724 2.76965,2.5 6.09375,2.5 8.2084,0 5.2428,3.26857 -4.875,5.375 -6.289,1.3093 -10.21875,3.67969 -10.21875,6.15625 0,0.99421 2.0837,4.08247 4.625,6.875 l 4.59375,5.09375 6.96875,0 c 6.5151,0 7.3576,-0.26129 12.6875,-4 3.1363,-2.2 6.39185,-4 7.21875,-4 1.0982,0 2.3093,-3.43787 4.5625,-12.75 3.2729,-13.52642 3.20915,-14.2205 -1.71875,-14.25 -4.7985,-0.0287 -6.2724,-2.1121 -6.4375,-9.125 -0.1865,-7.92624 -2.5678,-12.98692 -7.6875,-16.375 -3.1888,-2.11024 -3.8125,-3.08974 -3.8125,-5.9375 0,-4.79462 -3.7106,-7.5625 -10.125,-7.5625 -0.50768,0 -0.95506,-0.0151 -1.375,0 z m -22.40625,7.09375 c -1.58692,0.0393 -3.93152,0.78698 -7.6875,2.3125 -7.6895,3.12311 -9.7603,5.77312 -8.375,10.75 0.5665,2.03528 1.7983,3.90647 2.75,4.15625 0.9469,0.24853 1.952,0.4987 2.25,0.5625 0.2979,0.0638 2.13335,-1.3375 4.09375,-3.125 1.9605,-1.7875 5.1501,-4.44344 7.0625,-5.90625 3.5002,-2.67723 4.35445,-5.28273 2.53125,-7.59375 -0.62326,-0.79007 -1.39073,-1.18682 -2.625,-1.15625 z m -70.0625,31.375 c -1.54148,-0.0206 -4.23016,3.00821 -4,4.6875 0.101,0.74138 0.15875,3.87674 0.0937,7 -0.1134,5.43258 -0.4495,6.10424 -7.5,15.5 -4.0534,5.40174 -8.2109,10.74375 -9.25,11.84375 -1.0391,1.1 -4.38625,5.97239 -7.40625,10.84375 -3.02,4.87135 -6.59375,9.56928 -7.96875,10.4375 -2.9839,1.88413 -5.969,5.28341 -6,6.84375 -0.0122,0.61723 2.47795,5.28612 5.53125,10.375 5.0617,8.43613 5.6508,10.01077 6.5625,17.875 0.5499,4.74389 1.21645,9.22192 1.46875,9.96875 0.3552,1.05172 2.1926,1.23058 8.1875,0.8125 4.257,-0.29687 8.875,-0.79058 10.25,-1.09375 7.2951,-1.60855 8.5,-1.80918 8.5,-1.53125 0,0.16683 0.9775,-0.22747 2.1875,-0.875 1.2099,-0.64753 3.81525,-4.22959 5.78125,-7.9375 2.8519,-5.37857 4.91965,-7.72969 10.28125,-11.71875 3.6962,-2.75 7.8389,-6.00312 9.1875,-7.21875 1.3487,-1.21563 3.8208,-2.75936 5.5,-3.4375 1.6792,-0.67815 3.2875,-1.50849 3.5625,-1.84375 1.7235,-2.10121 8.63375,-5.12979 15.59375,-6.8125 15.1473,-3.66215 15.9142,-5.49768 10,-23.65625 -4.6524,-14.28475 -5.7747,-15.49681 -13.9375,-15.28125 -5.7947,0.15302 -5.8222,0.11641 -11.1875,-5.3125 -2.9645,-2.9996 -5.8894,-6.91066 -6.5,-8.6875 -0.9074,-2.64103 -1.8962,-3.40287 -5.3125,-4.25 -2.2983,-0.56993 -6.55315,-2.00128 -9.46875,-3.15625 -2.9157,-1.15497 -6.9657,-2.28976 -9,-2.53125 -2.0344,-0.24149 -4.20795,-0.60533 -4.84375,-0.8125 -0.0914,-0.0298 -0.20973,-0.0299 -0.3125,-0.0312 z m 71.71875,62.71875 c -0.66195,0.0298 -1.51213,0.13389 -2.625,0.28125 -2.546,0.33714 -9.0797,1.4975 -14.5,2.59375 -14.8122,2.99576 -29.625,11.10617 -29.625,16.1875 0,2.59443 -1.56705,5.26595 -5.53125,9.46875 -4.3024,4.56136 -5.1728,8.26032 -2.8125,11.96875 0.9852,1.54796 2.35335,3.1667 3.03125,3.59375 0.6776,0.42704 0.9795,1.39544 0.6875,2.15625 -0.9956,2.59463 2.23515,7.10159 5.28125,7.375 1.5608,0.14009 4.41875,0.61892 6.34375,1.0625 l 3.5,0.8125 -4.5,1.21875 c -13.3195,3.63311 -18.013,5.28697 -18,6.375 0.008,0.66421 0.8604,3.87421 1.875,7.125 1.7489,5.6029 2.08295,6.01107 6.71875,7.875 6.3732,2.56246 22.133,6.6619 25.6875,6.6875 4.6808,0.0337 9.5024,2.69704 15.75,8.65625 3.2838,3.13218 5.7807,5.87552 5.5625,6.09375 -0.7422,0.74223 -12.94165,-2.87572 -17.53125,-5.1875 -3.7046,-1.86597 -6.6484,-2.36629 -15.5625,-2.71875 -6.05,-0.23921 -12.575,-0.18582 -14.5,0.125 -3.2913,0.53141 -3.023,0.68924 4.5,2.8125 4.4,1.24185 13.4,3.87207 20,5.84375 6.6,1.97169 17.85,5.29161 25,7.375 7.15,2.08339 13.28505,3.50533 13.65625,3.15625 0.9982,-0.93853 22.7333,-88.46054 22.1875,-89.34375 -0.3828,-0.6194 -1.9409,0.078 -6.1875,2.8125 -0.1761,0.1134 0.3694,2.17193 1.1875,4.5625 0.8202,2.39056 1.1795,4.65029 0.8125,5.03125 -0.367,0.38096 -2.52335,1.08855 -4.78125,1.59375 l -4.09375,0.9375 2.03125,-4.8125 2.03125,-4.8125 -2.4375,-2.0625 c -1.3343,-1.13548 -5.22645,-3.66332 -8.65625,-5.625 l -6.21875,-3.5625 -4.5625,3.71875 c -2.4966,2.04577 -4.796,3.45395 -5.125,3.125 -0.3289,-0.32895 0.36155,-2.44332 1.53125,-4.6875 3.0539,-5.85894 4.14915,-11.59089 2.90625,-15.15625 -0.747,-2.1428 -1.04541,-2.74553 -3.03125,-2.65625 z m -224.6875,31.0625 c -1.6967,-0.0291 -4.131,0.27895 -7.625,0.71875 -5.3707,0.67603 -10.35875,1.43668 -11.09375,1.71875 -0.9609,0.36872 -1.19975,1.86694 -0.84375,5.34375 0.5762,5.62827 -0.7007,7.10462 -3.0625,3.5 -0.9124,-1.39253 -1.97475,-2.53125 -2.34375,-2.53125 -1.6675,0 -16.2028,26.30822 -19.0625,34.5 -1.7281,4.95 -3.79915,10.00061 -4.59375,11.21875 -2.2978,3.52222 -1.74975,4.52138 4.84375,9 14.0041,9.5126 14.3842,10.4677 8.625,22.28125 -2.0111,4.125 -3.89175,9.38117 -4.15625,11.6875 -0.4481,3.90648 -0.21065,4.40606 3.40625,7.3125 2.1351,1.71592 3.6909,3.46489 3.4375,3.875 -0.2535,0.41012 -0.58985,3.34397 -0.71875,6.53125 -0.2498,6.17414 -1.43875,8.20727 -5.46875,9.21875 -2.8306,0.7104 -4.40625,3.1389 -4.40625,6.8125 0,1.41116 -0.41585,2.5625 -0.90625,2.5625 -0.4905,0 -1.16815,1.17826 -1.53125,2.625 -0.4808,1.91591 -0.1194,3.22172 1.375,4.8125 1.4282,1.5202 2.0561,3.53761 2.0625,6.625 0.01,2.61988 0.99105,6.45255 2.40625,9.375 1.6509,3.40925 2.2392,5.97348 1.875,8.21875 -0.355,2.1872 0.14855,4.56611 1.53125,7.21875 2.0256,3.88619 2.0183,4.03471 0.25,9.875 -2.3951,7.91051 -4.82005,21.12821 -5.46875,29.75 -0.2898,3.85 -0.7983,7.91524 -1.125,9.03125 -0.3807,1.29982 0.1869,2.9172 1.5625,4.5 2.6592,3.06029 4.2673,6.85814 5.9375,13.96875 1.5029,6.39891 3.4279,10.59539 6.3125,13.75 l 2.0625,2.25 -2.15625,2.3125 c -1.4347,1.52716 -2.1875,3.58727 -2.1875,6.0625 0,2.06321 -0.4821,4.63419 -1.0625,5.71875 -0.9479,1.77113 -0.4134,2.26432 5.25,4.84375 3.4679,1.57951 8.04565,4.05928 10.15625,5.5 3.0446,2.07848 4.5418,2.4768 7.25,1.96875 4.0487,-0.75953 3.76385,-1.78459 3.84375,14.4375 l 0.0625,12.34375 11,4.4375 c 35.7027,14.42325 77.8294,28.77928 118.5,40.375 11.825,3.37145 28.025,8.09074 36,10.5 7.975,2.40927 15.85,4.64703 17.5,4.9375 1.65,0.29048 9.75,1.88562 18,3.5625 8.25,1.67688 16.2433,3.26289 17.75,3.53125 1.5066,0.26836 7.3565,1.41605 13,2.53125 5.6434,1.11521 11.6,2.24354 13.25,2.53125 1.65,0.28772 9.3,1.81642 17,3.375 15.7728,3.19258 21.4478,3.65584 21.5625,1.78125 0.042,-0.6875 0.2421,-2.08654 0.4375,-3.125 0.1954,-1.03847 0.6435,-5.76347 1,-10.5 0.3566,-4.73654 0.82955,-9.75 1.03125,-11.125 0.2016,-1.375 0.6183,-5.425 0.9375,-9 0.911,-10.20923 2.48515,-26.51352 3.03125,-31.5 0.1807,-1.65 0.6359,-7.05 1,-12 0.364,-4.95 0.82745,-9.675 1.03125,-10.5 0.2037,-0.825 0.63295,-5.325 0.96875,-10 0.3359,-4.675 1.05515,-12.22085 1.59375,-16.78125 0.5383,-4.56039 0.7346,-8.70636 0.4375,-9.1875 -0.2975,-0.48112 -6.94785,-4.21112 -14.78125,-8.3125 -16.5671,-8.67402 -33.5578,-17.66501 -46.1875,-24.4375 l -8.90625,-4.78125 -6.15625,-10 -6.15625,-10 -11.3125,-2.40625 -11.3125,-2.4375 -9.6875,-13.0625 c -5.3321,-7.19532 -13.738,-18.71875 -18.6875,-25.59375 -4.9495,-6.875 -14.72825,-20.30246 -21.71875,-29.84375 -6.9905,-9.5413 -13.3972,-18.41726 -14.25,-19.71875 -1.4476,-2.2094 -1.31195,-2.98623 1.96875,-11.65625 12.34,-32.61114 12.31405,-32.44725 6.09375,-40.59375 -1.8837,-2.46708 -3.4375,-4.87284 -3.4375,-5.34375 0,-0.47091 -0.49125,-0.84375 -1.09375,-0.84375 -0.6026,0 -2.2902,-0.8449 -3.75,-1.875 -1.4599,-1.03011 -4.45625,-2.08625 -6.65625,-2.34375 -3.4224,-0.40057 -4.5922,0.0294 -8.125,2.90625 -3.5642,2.90252 -4.4874,3.20398 -6.75,2.34375 -3.3402,-1.26996 -3.29265,-2.01609 0.34375,-5.5 1.6305,-1.56207 2.66205,-3.33417 2.28125,-3.9375 -0.3808,-0.60334 -0.70675,-3.42132 -0.71875,-6.28125 -0.037,-8.66159 -1.39445,-8.6679 -10.09375,0.0312 -4.211,4.21105 -7.8728,7.65625 -8.125,7.65625 -0.7212,0 -3.7987,-3.27566 -3.9375,-4.1875 -0.069,-0.45179 -0.1813,-6.59454 -0.25,-13.65625 -0.124,-12.73613 -0.1609,-12.84883 -2.6875,-14 -3.589,-1.63528 -5.24815,-1.46184 -8.21875,0.875 -1.9195,1.50983 -3.8329,2.00537 -7.375,1.84375 -3.2405,-0.14785 -4.5067,-0.58673 -3.9375,-1.3125 0.4625,-0.58984 1.06605,-2.33571 1.34375,-3.875 0.4526,-2.50903 0.017,-3.03639 -4.125,-5.125 -4.632,-2.33549 -11.9484,-2.83743 -18.125,-1.28125 -1.375,0.34643 -7.2319,0.88831 -13,1.21875 -7.6463,0.43803 -10.68925,1.00455 -11.28125,2.0625 -0.4466,0.79811 -2.15855,1.4375 -3.78125,1.4375 -2.8019,0 -2.923,-0.21381 -2.9375,-4.25 -0.017,-4.83719 -0.2049,-6.43589 -3.9375,-6.5 z m 73.125,140.15625 c 3.01916,-0.022 6.309,-0.0122 9.71875,0 26.0064,0.0934 28.09375,0.45499 28.09375,4.625 0,0.97542 -2.1375,3.56477 -4.75,5.78125 -3.1659,2.68597 -4.4165,4.36512 -3.75,5.03125 1.1861,1.18538 14.9712,6.75396 21.8125,8.8125 4.6998,1.41422 4.7907,1.54214 4.125,4.65625 -0.7354,3.44121 -2.15555,5.6875 -3.59375,5.6875 -0.4944,0 -2.6528,1.16445 -4.8125,2.59375 l -3.9375,2.59375 -5.78125,-2.6875 c -3.1909,-1.47712 -6.6553,-3.13712 -7.6875,-3.6875 -2.5026,-1.33445 -3.942,0.31694 -6.0625,6.875 -2.0178,6.24051 -2.40335,6.56981 -10.28125,9.21875 -3.4201,1.15002 -6.6827,2.09375 -7.25,2.09375 -1.8795,0 -1.0639,-2.88756 1.75,-6.21875 5.8539,-6.93037 5.78335,-6.78125 2.40625,-6.78125 -1.8089,0 -4.2557,1.04217 -6.0625,2.5625 -4.9241,4.14335 -8.6755,4.75311 -13.1875,2.15625 -2.1093,-1.21392 -4.34215,-3.34313 -4.96875,-4.71875 -1.0651,-2.33734 -0.69815,-2.92082 5.90625,-9.21875 3.8869,-3.70655 9.0673,-7.70033 11.5,-8.84375 2.4325,-1.14344 4.63765,-2.91033 4.90625,-3.9375 0.7549,-2.88717 -3.23645,-5.99157 -7.84375,-6.09375 -2.1645,-0.048 -6.81805,-1.06052 -10.34375,-2.25 -5.2637,-1.77574 -6.48545,-2.60016 -6.78125,-4.59375 -0.1982,-1.33543 0.13045,-2.73018 0.71875,-3.09375 0.44107,-0.27266 7.09876,-0.49639 16.15625,-0.5625 z m 43.71875,128.59375 c 0.4109,0 2.2483,2.06749 4.0625,4.59375 1.8142,2.52626 4.8729,6.01375 6.8125,7.75 5.3795,4.81546 9.3353,9.30175 11.8125,13.40625 1.9729,3.26896 3.0338,3.90085 8.875,5.375 6.1965,1.56382 7.0441,1.57394 12.5,0.0312 3.9491,-1.11663 6.56215,-2.56827 8.03125,-4.4375 3.0395,-3.86738 6.78805,-5.54552 13.09375,-5.90625 5.3639,-0.30684 5.40795,-0.27566 5.21875,2.46875 -0.2757,3.99783 -4.2275,8.47411 -8.5625,9.71875 -2.0613,0.59182 -5.6613,2.9337 -8,5.1875 -2.3387,2.2538 -7.175,5.40715 -10.75,7.03125 -3.575,1.6241 -8.2116,3.86076 -10.3125,4.96875 -2.2042,1.16249 -4.88305,1.81045 -6.34375,1.53125 -1.7984,-0.34377 -3.4506,0.31791 -5.6875,2.28125 -1.7319,1.51996 -4.89425,3.48252 -7.03125,4.375 -2.137,0.89246 -5.062,1.53518 -6.5,1.40625 -18.4612,-1.65488 -20.20265,-2.28764 -29.03125,-10.5 -7.9522,-7.39716 -7.8744,-9.28125 0.4375,-9.28125 3.0783,0 6.46745,0.46192 7.53125,1.03125 2.2693,1.21446 4.99245,0.0677 9.21875,-3.875 2.2004,-2.05292 3.58785,-2.51182 6.78125,-2.28125 4.5902,0.33143 6.9375,-1.11944 6.9375,-4.3125 0,-2.97361 -4.0713,-14.70129 -7.6875,-22.125 -2.7376,-5.6199 -3.21345,-8.4375 -1.40625,-8.4375 z"
     inkscape:label="#path3121" />
  <path
     style="fill:#d3d3d3"
     inkscape:connector-curvature="0"
     id="NU"
     d="M 755.90184,1.9308922e-5 C 754.47702,0.00321931 752.61478,0.38504221 749.96434,1.1875193 c -4.1804,1.265737 -6.42705,1.490652 -7.78125,0.78125 -3.0669,-1.60657279 -10.7799,-0.614578 -15.75,2.03125 -4.4615,2.375027 -6.83445,2.580495 -14.40625,1.25 -3.8134,-0.670078 -7.9971,1.381509 -9.0625,4.4375 -0.8149,2.3377067 -1.40225,2.7314387 -3.59375,2.3124997 -2.1195,-0.405163 -3.40165,0.30072 -6.59375,3.65625 -2.1795,2.291185 -3.96875,4.957471 -3.96875,5.9375 0,0.980029 -1.575,4.011196 -3.5,6.71875 -1.925,2.707554 -3.5,5.899475 -3.5,7.09375 0,4.825962 -0.89635,5.343909 -4.71875,2.75 -1.9601,-1.330167 -4.0768,-2.45792 -4.6875,-2.5 -0.6108,-0.04208 -1.9812,-0.235814 -3.0625,-0.4375 -2.4957,-0.465524 -4.53125,1.212847 -4.53125,3.71875 0,1.068163 -1.3515,3.081611 -3,4.46875 -2.3256,1.956626 -2.87615,3.033952 -2.40625,4.90625 0.5687,2.265916 0.3417,2.4375 -3.625,2.4375 -3.5894,0 -4.75665,0.548837 -7.84375,3.78125 -1.9985,2.092535 -5.2,4.441024 -7.125,5.1875 -9.6159,3.728833 -11.9817,13.03125 -3.3125,13.03125 1.2699,0 3.2125,0.9 4.3125,2 1.1,1.1 2.675,2 3.5,2 2.3737,0 1.7922,1.170306 -2.5,5.09375 -3.175,2.902221 -3.99375,4.359879 -3.96875,7.03125 0.0301,3.18107 1.56485,6.38629 3.21875,6.71875 0.4125,0.083 1.7077,0.15625 2.875,0.15625 1.7942,0 1.92005,0.23442 0.84375,1.53125 -2.4592,2.963201 2.39565,8.547771 9.09375,10.468751 2.2679,0.65042 3.3204,0.34164 5.375,-1.5625 1.4047,-1.30183 2.5625,-2.98289 2.5625,-3.75 0,-1.41263 3.2429,-5.687501 4.3125,-5.687501 0.3199,0 -0.1106,1.61467 -0.9375,3.593751 -0.8269,1.97908 -1.355,5.22035 -1.1875,7.21875 0.4129,4.92665 3.6294,6.1151 11.5625,4.21875 3.1493,-0.75285 7.84035,-1.42335 10.40625,-1.46875 7.53,-0.13335 12.318,-4.39552 18.5,-16.562501 1.2576,-2.475 2.2955,-3.764051 2.3125,-2.84375 0.0172,0.9203 1.18185,3.04087 2.59375,4.71875 l 2.5625,3.0625 -4.0625,4.000001 c -2.2369,2.19255 -4.0625,4.87822 -4.0625,6 0,1.28366 -0.66855,2.0625 -1.78125,2.0625 -0.9723,0 -3.5598,1.22404 -5.75,2.71875 -2.1901,1.49471 -5.76875,3.63221 -7.96875,4.75 -5.5541,2.82198 -5.7778,5.82609 -0.8125,11.46875 3.2252,3.66527 5.9207,9.76681 4.8125,10.875 -0.1792,0.17924 -3.08505,-3.33622 -6.46875,-7.78125 -7.3179,-9.61323 -9.11645,-10.91219 -15.78125,-11.5 -6.4178,-0.56604 -7.44665,0.55162 -8.34375,9.21875 -0.7668,7.40803 0.31675,11.88002 3.15625,12.78125 1.054,0.33453 1.9375,0.94115 1.9375,1.375 0,0.43384 1.50455,2.77091 3.34375,5.1875 1.8393,2.41659 4.12265,6.8138 5.09375,9.75 2.2296,6.74143 9.03485,14.32572 13.15625,14.6875 1.5921,0.13976 3.2786,0.28915 3.75,0.34375 0.4713,0.0546 0.5243,0.9125 0.125,1.875 -0.3994,0.9625 -0.724,2.32847 -0.75,3.03125 -0.0555,1.49229 0.4371,1.65065 -8,-2.78125 l -6.625,-3.46875 -6.59375,3.375 c -5.9979,3.07633 -10.48195,7.79921 -8.90625,9.375 0.2915,0.29143 -0.39295,2.33111 -1.53125,4.5625 -1.1384,2.23138 -2.0625,5.64677 -2.0625,7.5625 0,4.98132 2.737,6.59375 11.25,6.59375 l 6.84375,0 -2.6875,3.5 c -2.3791,3.1192 -2.52735,3.81931 -1.46875,6.375 0.6537,1.57824 3.20705,4.9176 5.65625,7.4375 4.2368,4.35899 4.33575,4.62364 2.40625,5.65625 -1.6657,0.89147 -2.4572,0.66782 -4.4375,-1.3125 -1.3261,-1.32607 -2.8738,-4.08332 -3.4375,-6.125 -1.5471,-5.60307 -5.5469,-8.54835 -11.625,-8.53125 -5.5736,0.0157 -6.67845,0.52361 -8.34375,3.6875 -2.5238,4.79487 -0.84435,10.42992 4.71875,15.71875 3.4162,3.24768 2.80955,5.59375 -1.46875,5.59375 -2.6478,0 -8.5376,5.42155 -10.9375,10.0625 -1.0204,1.97317 -1.47575,4.97378 -1.28125,8.625 0.2559,4.80203 0.7181,5.89574 3.125,7.6875 2.4604,1.83164 4.3352,2.11494 15.125,2.25 6.7744,0.0848 13.67175,0.44528 15.34375,0.8125 4.0246,0.88396 7.21875,-1.12556 7.21875,-4.5625 0,-1.45036 0.6995,-3.22128 1.5625,-3.9375 1.3285,-1.10261 1.9034,-0.902 3.75,1.28125 1.1995,1.41818 3.3125,2.80745 4.6875,3.09375 1.375,0.28629 3.4767,0.81093 4.6875,1.1875 1.6245,0.50521 2.82015,0.0339 4.53125,-1.8125 2.2153,-2.39038 2.43475,-2.41214 5.28125,-0.9375 3.2908,1.70482 4.6352,3.20742 3.875,4.4375 -0.2742,0.44368 -0.2225,1.71742 0.125,2.8125 1.9228,6.05799 16.2489,-2.79919 20.6875,-12.78125 2.3261,-5.23119 2.9345,-10.33163 1.4375,-12.375 -0.6177,-0.84306 -2.5442,-2.27484 -4.25,-3.15625 -1.7058,-0.88141 -3.8626,-2.76913 -4.8125,-4.21875 -1.898,-2.89673 -1.87155,-2.95756 4.28125,-9.46875 2.1069,-2.22958 2.3071,-3.23061 2,-10 l -0.34375,-7.5 3.46875,-0.34375 c 4.5593,-0.43294 9.03125,-5.25762 9.03125,-9.75 0,-2.59159 0.4826,-3.30616 2.5,-3.8125 1.5741,-0.39508 2.5,-1.3609 2.5,-2.5625 0,-1.0496 -1.125,-2.79342 -2.5,-3.875 -3.0229,-2.37782 -3.1173,-3.30294 -0.5,-4.9375 3.2573,-2.03419 2.76015,-9.20011 -0.90625,-13.125 -1.5957,-1.70817 -3.7332,-3.1662 -4.75,-3.25 -1.0168,-0.0838 -2.29375,-0.27847 -2.84375,-0.40625 -0.55,-0.12779 -1.63345,-0.28035 -2.40625,-0.34375 -1.1288,-0.0927 -1.0796,-0.46827 0.25,-1.9375 2.3709,-2.61984 2.08855,-6.64571 -0.59375,-8.4375 -2.2224,-1.48454 -2.23075,-1.52602 -0.34375,-3.625 1.0508,-1.1688 2.0823,-1.91768 2.3125,-1.6875 0.9209,0.92096 9.1507,-2.67162 11.25,-4.90625 1.2317,-1.31107 2.5639,-3.86406 2.9375,-5.6875 0.614,-2.99636 0.96255,-3.28562 3.78125,-3 4.6222,0.46837 9.3589,-4.0731 9.75,-9.34375 0.403,-5.43073 2.5501,-16.41039 3.8125,-19.46875 0.5676,-1.375 3.14785,-7.2654 5.71875,-13.062501 2.571,-5.797099 4.48935,-11.031934 4.28125,-11.65625 -0.4201,-1.260267 2.6961,-7.783858 6.4375,-13.4375 1.8485,-2.793262 2.4375,-5.019451 2.4375,-9.25 0,-3.065032 -0.2782,-6.032704 -0.625,-6.59375 -0.7225,-1.169097 -5.5,-1.383502 -5.5,-0.25 -0.002,0.4125 -1.3626,1.652895 -3,2.75 -1.6375,1.097105 -3.44405,3.122105 -4.03125,4.5 -0.9221,2.163642 -5.96875,6.918807 -5.96875,5.625 0,-0.255488 1.1424,-2.797501 2.5625,-5.625 2.8895,-5.752782 8.0085,-12 9.8125,-12 0.6513,0 2.66345,-1.2375 4.46875,-2.75 2.5187,-2.110209 3.73795,-4.395166 5.21875,-9.75 2.1028,-7.603457 2.36575,-12.884221 0.96875,-18.90625 -1.0957,-4.723149 -2.73235,-6.514761 -6.59375,-7.15625 -4.592,-0.7628607 -7.3185,-2.5353727 -8.6875,-5.6562497 -1.4819,-3.378388 -3.3154,-3.97496529 -10.75,-3.5 -3.025,0.193255 -6.5141,-0.084995 -7.75,-0.62499999 -0.61024,-0.2666257 -1.30136,-0.4081716 -2.15625,-0.406250001078 z M 620.83934,82.937519 c -3.2977,0.277651 -3.55365,0.555707 -3.84375,4.0625 -0.2469,2.984241 -0.9223,4.07753 -3.25,5.28125 -1.6112,0.83319 -3.8253,3.2886 -4.9375,5.46875 l -2.03125,3.968751 3.5,3.71875 c 4.7918,5.08026 4.6118,5.81475 -1.625,6.5625 -3.6009,0.43171 -5.59845,2.29127 -6.40625,5.96875 -0.5757,2.62142 -0.23595,3.48978 2.28125,5.6875 1.6334,1.42614 3.2956,3.60897 3.6875,4.84375 0.6568,2.06937 0.4089,2.25 -3.25,2.25 -3.5533,0 -4.0798,0.30597 -5.0625,3.125 -1.7041,4.88835 -1.34105,9.62769 0.90625,11.875 1.1,1.1 2.46375,2 3.03125,2 0.6143,0 0.43735,1.07738 -0.40625,2.6875 -1.0617,2.02632 -1.13535,3.29382 -0.34375,5.03125 1.3276,2.91369 4.41385,3.72447 10.46875,2.71875 2.6055,-0.43276 5.2,-0.8105 5.75,-0.8125 1.6448,-0.006 6.5,2.60797 6.5,3.5 0,2.01035 -3.68375,4.875 -6.28125,4.875 -3.8295,0 -7.71875,4.01269 -7.71875,7.96875 0,3.61379 3.7188,11.38466 7.3125,15.25 1.3897,1.49478 2.77325,3.52137 3.09375,4.53125 0.3206,1.00988 2.4438,3.75877 4.6875,6.09375 3.8896,4.04789 4.29365,4.2229 9.21875,3.9375 5.041,-0.29212 5.1908,-0.37699 5.5,-3.59375 0.276,-2.87129 0.5982,-3.20112 2.5,-2.625 4.2297,1.28134 4.85235,0.96029 8.96875,-4.4375 2.038,-2.67243 3.71875,-5.95287 3.71875,-7.3125 0,-1.62067 0.87405,-2.95684 2.53125,-3.84375 1.3903,-0.74407 5.2153,-4.89974 8.5,-9.25 5.1393,-6.80651 5.96875,-8.52652 5.96875,-12.21875 0,-3.79158 -0.4897,-4.68173 -4.0625,-7.65625 -9.5826,-7.97802 -9.9375,-8.45979 -9.9375,-12.9375 0,-3.70479 -0.6211,-4.86998 -5,-9.5 -3.7897,-4.00707 -5,-6.05458 -5,-8.40625 0,-2.28359 -1.17705,-4.34803 -4.40625,-7.8125 -4.4138,-4.73534 -8.59375,-11.26305 -8.59375,-13.40625 0,-1.013991 -2.7221,-7.482761 -4.9375,-11.781251 -1.5692,-3.04473 -7.38105,-6.119818 -11.03125,-5.8125 z m -42.09375,43.812501 c -2.9459,0 -4.37415,1.26735 -5.21875,4.71875 -0.5376,2.19687 1.8437,6.27631 5.25,9 2.1843,1.74657 3.75255,1.55995 6.03125,-0.71875 2.6318,-2.63183 2.5166,-4.01228 -0.6875,-8.90625 -2.0397,-3.11532 -3.3183,-4.09375 -5.375,-4.09375 z m -34.03125,26 c -8.176,0 -10.94325,8.32693 -4.53125,13.65625 2.0246,1.68274 3.8172,4.38312 4.4375,6.65625 0.897,3.28698 0.7946,4.08043 -0.875,5.75 -1.0652,1.06525 -2.60065,1.9375 -3.40625,1.9375 -0.8057,0 -1.9307,0.87366 -2.5,1.9375 -1.8575,3.47081 -1.1725,7.07756 1.9375,10.1875 2.6649,2.66498 3.56375,2.95097 8.53125,2.75 6.2648,-0.25346 9.3354,1.42238 15.5,8.46875 1.925,2.20035 4.4753,5.03502 5.6875,6.3125 1.8775,1.97854 2.58145,2.16409 4.65625,1.21875 2.4651,-1.12317 4.65625,-4.68631 4.65625,-7.5625 0,-0.86401 -1.35,-3.08951 -3,-4.96875 -3.3707,-3.83905 -3.57505,-5.15034 -1.59375,-10.84375 1.4694,-4.22241 1.02955,-6.0621 -2.40625,-9.75 -0.9516,-1.02147 -2.74865,-3.74932 -3.96875,-6.0625 -2.1746,-4.12279 -6.8735,-8.69229 -9.3125,-9.0625 -2.2891,-0.34744 -3.71875,-1.73243 -3.71875,-3.59375 0,-3.10876 -5.63765,-7.03125 -10.09375,-7.03125 z m -38.78125,21 c -0.5043,0 -1.21995,1.6875 -1.59375,3.75 -0.3737,2.0625 -0.91305,4.875 -1.21875,6.25 -0.497,2.23523 -0.40385,2.34114 0.96875,1 1.7195,-1.68009 3.28025,-11 1.84375,-11 z m 81,5.375 c -2.90168,0.0252 -5.31385,3.14262 -5.84375,7.84375 -0.6832,6.06145 0.0274,8.53693 3.6875,12.78125 1.8785,2.17833 2.7846,4.1564 2.4375,5.25 -0.9411,2.96515 0.631,5.84269 3.9375,7.28125 4.4551,1.93828 4.8209,1.8608 10,-2.09375 l 4.65625,-3.53125 0,-6.90625 c 0,-6.41214 -1.3949,-12 -3,-12 -0.3758,0 -3.34535,-1.76022 -6.59375,-3.90625 -3.2485,-2.14604 -6.87045,-4.18955 -8.03125,-4.53125 -0.43051,-0.12672 -0.83547,-0.1911 -1.25,-0.1875 z m 18.65625,34.5625 c -2.90518,-0.0288 -5.73022,1.0745 -8.1875,3.25 -5.3593,4.74479 -4.6285,8.33297 2.5,12.03125 4.6007,2.38687 9.3636,2.09954 12.75,-0.75 5.4231,-4.56319 5.31005,-8.98194 -0.28125,-12.4375 -2.23046,-1.37851 -4.52167,-2.07139 -6.78125,-2.09375 z m -78.28125,1.1875 c -0.9462,0.0555 -1.72735,1.05253 -2.40625,3 -1.8515,5.31131 -1.35075,9.68053 1.40625,12.4375 2.0371,2.03704 2.83895,2.30976 4.46875,1.4375 3.8693,-2.07077 3.8063,-8.66645 -0.125,-14.1875 -1.3039,-1.83119 -2.39755,-2.74299 -3.34375,-2.6875 z m -31.15625,21.03125 c -1.41362,0.0209 -2.826,0.64577 -3.75,2.09375 -1.922,3.01201 -6.59375,26.70382 -6.59375,33.40625 0,3.45564 -0.42385,5.25552 -1.15625,5.09375 -1.6777,-0.37054 -7.1016,22.45505 -5.5625,23.40625 0.6472,0.39995 1.9128,0.0643 2.8125,-0.75 2.6838,-2.42884 5.3927,-2.39891 9.5,0.125 7.4292,4.56516 16.62805,2.49849 21.28125,-4.8125 1.1264,-1.76974 2.7294,-4.15881 3.5625,-5.28125 3.1861,-4.29243 2.3205,-18.14821 -1.375,-21.84375 -1.7265,-1.72643 -2.35235,-1.77379 -6.34375,-0.65625 -2.4339,0.68142 -5.52545,1.0926 -6.84375,0.90625 -2.0521,-0.29006 -2.412,-0.91929 -2.5,-4.34375 -0.0565,-2.2 0.29965,-4.79989 0.78125,-5.75 1.3236,-2.61083 1.66525,-8.98035 0.59375,-11.375 -0.6202,-1.3861 -0.59515,-2.80662 0.0937,-4.09375 1.77286,-3.3127 -1.39004,-6.17097 -4.5,-6.125 z m 98.3125,5.875 c -4.09237,0.0438 -5.6689,1.31448 -6.53125,4.4375 -0.5266,1.9074 -0.71645,4.49918 -0.40625,5.75 0.6828,2.75312 9.88545,14.3591 12.15625,15.34375 0.8924,0.38694 4.97435,0.98001 9.09375,1.3125 6.4563,0.52111 7.54405,0.901 7.84375,2.625 0.1912,1.1 1.59335,3.575 3.09375,5.5 2.301,2.95209 2.68265,4.37168 2.53125,9.0625 -0.0987,3.05879 -0.67745,6.4656 -1.28125,7.59375 -1.2263,2.29136 -0.59595,11.63877 0.96875,14.5625 0.5509,1.02938 1.1286,4.62316 1.3125,8 0.3754,6.89274 1.879,8.77225 7,8.78125 1.6824,0.003 4.8625,1.11374 7.0625,2.46875 2.2,1.35502 4.45165,2.4828 5.03125,2.5 0.5796,0.0172 2.60295,-1.54375 4.46875,-3.46875 3.923,-4.04756 4.6272,-4.24998 5.5,-1.5 1.2532,3.9484 4.9665,4.7211 21,4.3125 12.9937,-0.33113 15.59295,-0.6758 19.46875,-2.59375 2.4609,-1.21775 5.1247,-2.86564 5.9375,-3.625 1.2683,-1.18492 1.6285,-1.06301 2.4375,0.75 1.8604,4.16923 13.9472,4.20633 22.25,0.0625 4.2023,-2.09734 4.8717,-2.85644 5.1875,-5.90625 0.1993,-1.925 1.1086,-4.32244 2,-5.3125 1.3599,-1.51024 1.40635,-2.31913 0.40625,-4.96875 -0.7881,-2.08791 -0.8432,-3.46934 -0.1875,-4.125 3.1924,-3.19249 -1.2252,-10.64258 -9.5,-16 -6.8813,-4.45525 -9.74015,-5.27873 -19.09375,-5.5 -7.9279,-0.18755 -8.18565,-0.13028 -12.34375,3.34375 -2.3359,1.95159 -4.7301,3.5625 -5.3125,3.5625 -0.5824,0 -3.57815,1.19528 -6.65625,2.65625 l -5.59375,2.65625 -8.5,-1.65625 c -4.675,-0.91148 -10.4125,-1.93646 -12.75,-2.28125 -3.5432,-0.52262 -4.25,-1.01442 -4.25,-2.875 0,-1.22746 -1.50685,-3.7039 -3.34375,-5.5 -3.3193,-3.24546 -3.335,-3.28737 -1.9375,-7.34375 1.6756,-4.86347 0.61345,-8.09771 -3.21875,-9.84375 -1.7356,-0.7908 -2.52025,-1.93155 -2.53125,-3.71875 -0.0303,-5.12982 -3.48265,-7.07714 -11.46875,-6.4375 -6.6678,0.53405 -9.2391,-0.20422 -10.0625,-2.90625 -1.6066,-5.27211 -6.52595,-8.40474 -14.78125,-9.375 -1.98765,-0.23361 -3.63588,-0.35836 -5,-0.34375 z m -32.71875,10.46875 c -1.81255,0.012 -3.7057,1.0145 -6.96875,3.59375 -2.7395,2.1655 -4.96875,4.52512 -4.96875,5.21875 0,0.69362 1.2375,1.97372 2.75,2.875 5.5015,3.27828 6.8909,5.27225 6.4375,9.15625 -0.3792,3.24767 -0.7139,3.65625 -3.3125,3.65625 -2.1569,0 -4.08045,-1.21648 -7.40625,-4.6875 -2.4658,-2.5734 -4.46875,-5.26149 -4.46875,-5.96875 0,-1.76221 -2.6483,-2.95171 -8.0625,-3.65625 -4.2375,-0.55142 -4.6808,-0.40647 -6.25,2.25 -0.9289,1.57259 -1.6875,3.13602 -1.6875,3.46875 0,0.33272 2.2412,1.99 5,3.6875 5.7107,3.51381 7,5.34897 7,10.125 0,6.33656 1.56415,7.25034 12.09375,6.90625 l 9.3125,-0.3125 -3.21875,2.8125 c -1.7618,1.5459 -3.1875,3.56467 -3.1875,4.5 0,2.6728 4.78255,7.68227 9.34375,9.78125 2.288,1.05285 6.0569,1.9537 8.375,2 5.0649,0.10125 6.8244,-2.19965 5.8125,-7.59375 -0.3775,-2.01249 -0.1904,-4.02471 0.4375,-4.78125 0.6423,-0.77395 1.2957,-8.84204 1.625,-19.84375 l 0.5625,-18.5625 -2.4375,-1.5625 c -1.3311,-0.87218 -4.838,-1.81516 -7.8125,-2.09375 -2.9744,-0.27859 -6.6645,-0.68843 -8.1875,-0.90625 -0.25913,-0.0371 -0.52231,-0.0642 -0.78125,-0.0625 z m -35.40625,37.84375 c -0.47895,-0.0169 -1.06495,0.0558 -1.8125,0.1875 -1.7437,0.3072 -3.204,0.64163 -3.25,0.75 -0.0457,0.10838 -0.85165,1.41914 -1.78125,2.90625 -1.2659,2.02519 -1.42865,3.32034 -0.71875,5.1875 0.8683,2.28387 1.37685,2.47712 6.09375,2.15625 2.8317,-0.19262 5.5571,-0.7759 6.0625,-1.28125 0.5584,-0.55842 0.10275,-2.74745 -1.15625,-5.59375 -1.46542,-3.3128 -2.00064,-4.26176 -3.4375,-4.3125 z m 75.4375,0.125 c -1.43878,-0.0217 -2.89738,0.19967 -4.3125,0.6875 -3.282,1.1314 -4.3885,2.37772 -7.75,8.6875 -4.2472,7.97245 -4.78815,11.11808 -2.34375,13.5625 2.8014,2.80146 13.88,10.33669 15.9375,10.84375 4.3885,1.08156 6.7072,0.63654 9.1875,-1.84375 2.5852,-2.58524 2.56915,-2.64203 1.90625,-14.25 -0.6336,-11.09372 -0.7806,-11.78087 -3.375,-13.9375 -2.92889,-2.43475 -6.08469,-3.70228 -9.25,-3.75 z m 9.78125,49.75 c -0.67718,-0.007 -1.37088,0.0257 -2.125,0.125 -11.0816,1.45926 -14.1501,3.21589 -15,8.53125 -0.3349,2.0943 -1.56555,5.92439 -2.71875,8.53125 -3.4761,7.85846 -5.2892,30.8145 -2.9375,37 0.5674,1.49249 1.03125,4.66322 1.03125,7.0625 0,3.52161 0.4979,4.76435 2.625,6.4375 1.4491,1.13992 3.7344,2.09375 5.0625,2.09375 3.069,0 8.299,-2.67542 8.375,-4.28125 0.2924,-6.19979 1.2084,-13.37473 1.8125,-14 0.4091,-0.42351 3.651,-1.00791 7.1875,-1.3125 3.5365,-0.30459 6.9125,-0.69622 7.5,-0.875 0.5876,-0.17879 1.6201,-2.96937 2.3125,-6.1875 0.7085,-3.29345 2.7315,-8.02937 4.625,-10.84375 1.8502,-2.75 3.5918,-6.29504 3.875,-7.875 0.2832,-1.57997 1.1547,-3.60497 1.9375,-4.5 0.7829,-0.89504 2.1714,-3.08405 3.0625,-4.84375 1.6144,-3.18828 1.6043,-3.20794 -1.6875,-5.71875 -3.9238,-2.99282 -9.83095,-5.5625 -12.71875,-5.5625 -1.1396,0 -3.90675,-0.94616 -6.15625,-2.09375 -2.24572,-1.14567 -4.03098,-1.66714 -6.0625,-1.6875 z m -110.8125,0.78125 c -0.62758,0.037 -1.2694,0.12246 -1.9375,0.25 -5.9586,1.13744 -9.1538,4.7588 -7.9375,9 0.4718,1.64513 1.5629,4.17999 2.4375,5.625 1.5364,2.5385 1.53645,2.5059 -0.78125,-0.21875 -1.3877,-1.63124 -4.0527,-3.19749 -6.3125,-3.71875 -3.6463,-0.84108 -4.13385,-0.66203 -7.09375,2.4375 l -3.15625,3.3125 0.46875,12.40625 c 0.2539,6.82017 0.60555,15.71672 0.78125,19.78125 0.2736,6.32966 0.005,7.68287 -1.71875,9.40625 -3.4184,3.41843 -4.52485,0.37278 -4.03125,-11.0625 0.4083,-9.45971 0.3111,-10.00593 -3.5625,-19.71875 -2.1917,-5.49552 -4.19205,-9.32052 -4.46875,-8.5 -0.2768,0.82052 -5.5181,21.48346 -11.625,45.9375 -6.1069,24.45405 -11.2473,44.62227 -11.4375,44.8125 -0.1903,0.19022 -14.24635,-3.76869 -31.21875,-8.8125 -43.1347,-12.81866 -43.3415,-12.88283 -43.3125,-12.125 0.0141,0.37368 0.8169,4.2875 1.8125,8.6875 0.9956,4.4 1.87875,8.3375 1.96875,8.75 0.0901,0.4125 0.1875,1.1293 0.1875,1.59375 0,3.15353 12.035,11.59192 18,12.625 5.2586,0.91072 7.0993,3.33528 7.625,10.125 0.2508,3.23912 0.61805,7.70625 0.84375,9.90625 0.2256,2.2 0.44075,4.54889 0.46875,5.25 0.1084,2.71996 6.40735,3.81852 27.65625,4.8125 14.2733,0.66769 19.7185,-0.031 22.6875,-3 0.7048,-0.70484 3.97905,-1.53421 7.28125,-1.8125 6.9425,-0.58507 11.9977,-2.85127 12.9375,-5.8125 0.7209,-2.27141 4.9016,-2.42146 5.125,-0.1875 0.0687,0.6875 0.181,1.85228 0.25,2.59375 0.0687,0.74146 1.9139,2.1592 4.125,3.15625 2.211,0.99704 5.3414,2.98226 6.9375,4.40625 5.2921,4.72131 12.6593,8.97648 17.5625,10.15625 5.0794,1.22216 8.53845,1.01268 12.34375,-0.78125 8.0762,-3.8074 9.16825,-9.19581 3.65625,-17.8125 -3.3086,-5.17209 -3.72005,-8.46875 -1.09375,-8.46875 0.6561,0 1.6025,0.41037 2.125,0.90625 0.5225,0.49589 3.49195,1.18243 6.59375,1.53125 5.5868,0.62827 5.6488,0.60466 6.6875,-2.375 2.1974,-6.30351 -1.5433,-13.06799 -12.125,-21.90625 -9.1797,-7.66726 -15.45055,-15.87096 -16.34375,-21.375 -0.4238,-2.61169 0.0685,-5.06526 1.8125,-8.9375 2.2088,-4.90402 2.31735,-5.67928 1.09375,-9.3125 -1.9713,-5.85333 -2.89295,-14.08502 -3.15625,-28.125 l -0.25,-12.53125 5.5,-6.78125 c 6.8848,-8.52118 7.8273,-12.68897 4.0625,-17.625 -3.61454,-4.73883 -7.07566,-6.72752 -11.46875,-6.46875 z m 47.75,5 c -2.2717,0 -5.2958,4.78079 -6.4375,10.1875 -1.0529,4.98668 0.1477,8.22399 4.9375,13.4375 1.6901,1.83958 1.819,2.68249 0.9375,5.875 -0.5654,2.04766 -1.7759,4.5552 -2.6875,5.5625 -1.5926,1.75976 -1.8673,1.6565 -7,-2.21875 -5.3112,-4.01001 -5.35945,-4.01039 -7.78125,-2.1875 -1.3396,1.00837 -3.06505,3.86875 -3.84375,6.34375 -1.3802,4.38667 -1.3422,4.63458 1.75,10.4375 1.7447,3.27406 4.60055,6.93054 6.34375,8.125 9.0842,6.22459 10.6662,8.95001 11.5625,19.71875 0.0819,0.98483 2.27005,3.52952 4.84375,5.65625 4.4246,3.65628 4.8709,3.81833 8.25,2.78125 3.7319,-1.14536 8.8526,-6.23072 7.875,-7.8125 -0.3112,-0.50343 0.195,-0.90625 1.125,-0.90625 2.9396,0 8.4754,-4.12045 11.0625,-8.21875 2.2224,-3.5205 2.4286,-4.73026 2,-11.125 -0.4682,-6.98618 -1.17845,-9.4948 -4.15625,-14.65625 -0.7933,-1.375 -1.45875,-3.69756 -1.46875,-5.15625 -0.0113,-2.04163 -0.6906,-2.91369 -3,-3.71875 -1.65,-0.57519 -3,-1.50225 -3,-2.0625 0,-0.56025 2.025,-3.27578 4.5,-6.0625 4.9731,-5.59945 5.3188,-6.70192 2.75,-8.59375 -1.6667,-1.22745 -1.6667,-1.29139 0,-1.9375 1.3595,-0.52703 1.75,-1.87428 1.75,-5.96875 0,-3.00187 -0.5381,-5.69611 -1.25,-6.28125 -2.3603,-1.93991 -13.3587,0.35581 -15.8125,3.3125 -1.0336,1.24542 -1.9339,1.04545 -6.4375,-1.53125 -2.8861,-1.65124 -5.9544,-3 -6.8125,-3 z m 128.6875,3.59375 c -4.50001,-0.11889 -9.46493,0.91966 -13.375,3.25 -5.6369,3.35952 -10.29095,11.7844 -16.53125,29.96875 -4.2932,12.51032 -4.686,14.84577 -5.9375,35.4375 -0.2639,4.3427 1.20195,12.67693 2.96875,17 0.5229,1.2794 1.8349,1.75 4.9375,1.75 4.8122,0 10.36275,1.59809 12.53125,3.625 1.2559,1.17385 0.8697,1.375 -2.625,1.375 -2.2411,0 -6.16705,0.27525 -8.71875,0.625 -3.6647,0.5023 -4.625,1.0335 -4.625,2.53125 0,4.66716 5.41105,12.4595 12.03125,17.34375 2.9959,2.21027 3.54575,2.27459 15.34375,1.25 2.4797,-0.21535 3.05865,0.21026 4.03125,3.0625 1.7292,5.07128 5.0779,7.16813 9.5,5.9375 2.1994,-0.61205 7.66075,-0.72072 14.09375,-0.25 5.775,0.42256 14.325,0.817 19,0.875 7.3161,0.0908 8.4799,-0.11296 8.375,-1.53125 -0.1027,-1.38895 0.9185,-1.64307 6.5,-1.53125 3.6421,0.073 11.2375,0.0354 16.875,-0.0937 l 10.25,-0.21875 0,-3.4375 c 0,-1.87916 0.5625,-3.60265 1.25,-3.84375 1.3029,-0.45692 5.90235,3.17192 14.03125,11.09375 4.4538,4.34042 4.6421,4.71821 2.75,5.5625 -1.3613,0.60742 -2.03125,1.88333 -2.03125,3.8125 0,3.61483 1.93435,4.39664 5.84375,2.375 3.7324,-1.93009 5.0873,-1.91824 7.625,0 1.9327,1.46093 1.9208,1.55577 -1.125,4.21875 -3.6585,3.19872 -5.01915,6.70011 -3.34375,8.71875 1.01,1.21707 1.79095,1.12939 5.34375,-0.65625 2.2836,-1.1478 4.83125,-2.66494 5.65625,-3.375 0.825,-0.71007 2.8106,-1.43665 4.4375,-1.625 2.655,-0.3074 3.0592,0.0147 3.8125,3.15625 0.67,2.79422 1.84295,4.03229 5.78125,6.21875 2.8179,1.5644 5.951,4.37439 7.3125,6.53125 1.311,2.07677 3.1707,4.42679 4.125,5.21875 4.9251,4.08747 10.7598,13.39429 12.625,20.125 l 1.9375,7.0625 -5.15625,10.15625 c -2.8453,5.59396 -5.8245,11.45446 -6.625,13 -0.8004,1.54555 -1.68495,4.54048 -1.96875,6.65625 -0.4851,3.61648 -0.27875,3.99981 3.59375,6.5625 2.2656,1.49928 4.1455,3.00433 4.1875,3.34375 0.1071,0.86402 0.7155,3.22764 1.5,5.875 0.5472,1.84612 0.2774,2.25 -1.5,2.25 -2.5248,0 -7.2488,2.24224 -11.6875,5.5625 -2.8376,2.12254 -4.2365,2.3671 -15,2.5 -6.5288,0.0806 -12.6625,0.55116 -13.625,1.0625 -1.1938,0.6342 -1.75,2.14176 -1.75,4.71875 0,2.91669 -0.71605,4.45109 -3.09375,6.71875 -2.791,2.66187 -3.015,3.35926 -2.5625,7.625 1.301,12.26622 4.399,14.8125 18.1875,14.8125 l 8.28125,0 4.3125,-4 c 3.6389,-3.39321 4.9436,-4 8.625,-4 3.1691,0 4.9244,-0.60691 6.5625,-2.25 1.9022,-1.90802 3.01105,-2.1776 7.21875,-1.75 5.6455,0.57371 10.76105,3.73082 12.96875,8 0.9283,1.79516 2.55695,3.0801 4.46875,3.5 1.6622,0.36508 5.266,2.18178 8,4.0625 2.7341,1.88071 5.4367,3.4375 6,3.4375 1.6177,0 1.20655,1.8013 -0.65625,2.84375 -1.5012,0.84013 -1.55065,1.37637 -0.40625,4.84375 1.1488,3.48086 2.05675,4.28962 8.34375,7.21875 10.4571,4.87197 13.7292,5.81407 19.1875,5.5 4.1415,-0.23831 5.43295,0.14898 8.09375,2.40625 1.7442,1.47967 4.12895,3.4404 5.28125,4.375 1.6489,1.33752 5.01855,1.81739 15.84375,2.28125 7.5642,0.32413 13.90915,0.75296 14.09375,0.9375 0.1845,0.18449 2.89115,0.28705 6.03125,0.21875 l 5.71875,-0.125 0.25,-6 0.25,-6 -10.75,-6.96875 c -5.9137,-3.8186 -14.20065,-8.24463 -18.40625,-9.84375 -6.276,-2.38637 -7.98155,-3.48841 -9.46875,-6.25 -0.9966,-1.85057 -3.05845,-3.89532 -4.59375,-4.53125 -2.6023,-1.07792 -3.74015,-2.7871 -2.03125,-3.03125 5.9816,-0.85461 8.80375,-0.3345 11.65625,2.125 1.6958,1.46221 6.94885,4.30853 11.65625,6.3125 9.6384,4.10313 27.75625,9.89093 28.84375,9.21875 0.3927,-0.24269 0.8242,-6.68607 0.9375,-14.34375 l 0.1875,-13.9375 -7.03125,-7.1875 c -3.8785,-3.95627 -8.17925,-8.95216 -9.53125,-11.09375 -1.3519,-2.1416 -3.336,-4.37922 -4.4375,-4.96875 -1.1015,-0.58952 -2.2852,-2.17765 -2.625,-3.53125 -0.4648,-1.85213 -1.66255,-2.71802 -4.78125,-3.53125 -10.4697,-2.73011 -11.78855,-3.39009 -15.71875,-7.78125 -2.2206,-2.48116 -4.6185,-5.32176 -5.3125,-6.3125 -1.3667,-1.95127 -8.5724,-5.37488 -8.6875,-4.125 -0.0386,0.41988 -0.41745,-0.12709 -0.84375,-1.21875 -0.5814,-1.48865 -0.22785,-2.25249 1.34375,-3.03125 3.2643,-1.61772 3.28105,-6.17042 0.0312,-9.5625 l -2.75,-2.8125 2.65625,-1.21875 c 1.4545,-0.66271 2.65625,-1.56953 2.65625,-2.03125 0,-2.50586 6.7664,-0.10894 10.8125,3.84375 0.7268,0.71 1.9659,1.3125 2.75,1.3125 2.1625,0 9.14195,6.70348 12.96875,12.46875 2.9456,4.43775 4.0636,5.28605 8.3125,6.375 2.7025,0.69264 6.48305,2.12548 8.40625,3.15625 3.441,1.84423 3.5671,1.82018 7.625,-0.1875 3.9931,-1.97564 5.18425,-4.05176 3.09375,-5.34375 -1.1334,-0.70048 -4.33725,-6.76145 -5.40625,-10.21875 -0.5932,-1.91874 -0.35005,-2.25 1.78125,-2.25 3.6985,0 7.0475,-5.12699 6.3125,-9.65625 -0.312,-1.9224 -0.0774,-4.57036 0.53125,-5.90625 0.89,-1.95336 0.80915,-2.80009 -0.53125,-4.28125 -1.5613,-1.72519 -1.56275,-1.98926 0.34375,-4.1875 2.6156,-3.01577 3.193,-5.37368 2.8125,-11.84375 -0.2885,-4.90627 -0.57575,-5.40116 -4.09375,-7.40625 l -3.75,-2.15625 -6.96875,2.40625 c -3.8206,1.32483 -7.23585,2.1392 -7.59375,1.78125 -0.358,-0.35796 -0.9412,-2.15334 -1.3125,-3.96875 -0.3713,-1.81541 -1.24125,-3.33745 -1.90625,-3.40625 -0.6649,-0.0688 -3.03375,-0.1812 -5.28125,-0.25 -3.5838,-0.10963 -4.76165,-0.81979 -9.46875,-5.71875 l -5.34375,-5.59375 -5.8125,0.4375 c -3.1881,0.24068 -6.90625,-0.0199 -8.28125,-0.59375 -1.375,-0.57382 -4.075,-1.13015 -6,-1.21875 -1.925,-0.0886 -5.26465,-1.35482 -7.40625,-2.8125 -2.1417,-1.45768 -5.61305,-3.15037 -7.71875,-3.78125 -4.8799,-1.46204 -8.2417,-4.53114 -7.375,-6.71875 1.6125,-4.06997 1.67015,-8.18951 0.15625,-10.5 -1.9311,-2.94735 -1.2263,-3.85053 1.875,-2.4375 1.9231,0.87621 3.14965,0.57649 6.90625,-1.625 l 4.5625,-2.65625 -1.5625,-3 c -0.8515,-1.6466 -3.0998,-3.71888 -5,-4.625 -3.3148,-1.58072 -3.6087,-2.207 -3.875,-7.78125 -0.1415,-2.96075 -2.31585,-6.48172 -6.90625,-11.25 -4.8545,-5.04264 -7.9168,-5.48345 -10.4375,-1.5 -0.9571,1.5125 -2.34335,2.87187 -3.09375,3.03125 -1.3723,0.29143 -1.31215,-1.03645 0.40625,-7.96875 0.5755,-2.32129 0.1049,-3.07936 -3.625,-5.78125 -5.8459,-4.23473 -8.28285,-4.69354 -11.46875,-2.1875 -2.936,2.30942 -5.37035,1.54588 -7.46875,-2.375 -0.6264,-1.17034 -2.4034,-2.87508 -3.9375,-3.78125 -1.6371,-0.96705 -3.66005,-3.69689 -4.90625,-6.59375 -1.8103,-4.20824 -2.7433,-5.1441 -6.375,-6.4375 -8.6735,-3.08899 -9.6177,-3.05157 -11.1875,0.5625 -0.7814,1.79885 -1.66615,4.05644 -1.96875,5.03125 -0.4532,1.45974 -1.5403,0.79825 -6.125,-3.75 -3.0617,-3.03731 -5.96,-5.5 -6.4375,-5.5 -0.4775,0 -1.15955,-1.8 -1.53125,-4 -0.4887,-2.89262 -1.1668,-4 -2.4375,-4 -2.1378,0 -4.5702,-2.62572 -5.5625,-6 -0.9723,-3.30641 -5.3776,-6.91915 -8.5,-6.96875 -1.375,-0.0218 -4.0485,-1.00469 -5.9375,-2.15625 -3.1953,-1.94796 -3.8568,-1.99739 -9.5,-0.8125 -7.1225,1.4955 -13.17805,6.42759 -12.09375,9.84375 0.5142,1.62014 -0.0549,2.16136 -3.1875,3.03125 -2.089,0.58011 -4.77115,1.02825 -5.96875,1.03125 -2.9094,0.007 -6.5882,-4.75217 -5.875,-7.59375 0.5151,-2.05227 -2.33235,-9.82143 -6.15625,-16.875 -6.0611,-11.18058 -7.7616,-13.74009 -9.5625,-14.40625 -2.9918,-1.10674 -12.55105,0.67336 -16.96875,3.15625 -4.153,2.33414 -11.75,13.15005 -11.75,16.71875 0,1.11348 -0.46395,2.03125 -1.03125,2.03125 -0.5672,0 -1.35025,0.7875 -1.71875,1.75 -0.3684,0.9625 -1.59195,2.49234 -2.71875,3.40625 -1.5779,1.27988 -2.02575,2.77325 -1.96875,6.5 0.0713,4.6877 1.1142,8.02247 3.625,11.53125 0.9743,1.36166 0.90595,2.04411 -0.40625,3.5 -0.8966,0.9947 -1.935,3.05 -2.3125,4.5625 -0.4367,1.74991 -1.36515,2.75 -2.53125,2.75 -2.6372,0 -3.0457,-1.18001 -3.375,-9.40625 -0.162,-4.04724 -0.5544,-7.79364 -0.875,-8.3125 -0.8119,-1.31371 1.6939,-11.72478 3.5,-14.5 0.8192,-1.25867 1.82975,-3.99844 2.21875,-6.09375 0.4081,-2.1979 2.13025,-5.42042 4.09375,-7.59375 2.8983,-3.20807 3.2903,-4.19985 2.625,-6.6875 -0.96519,-3.60893 -5.96427,-5.65964 -11.75,-5.8125 z m 58.25,0.3125 c -4.81112,0.0611 -8.87134,0.54452 -9.25,1.53125 -0.5186,1.35156 6.14155,15.76808 10.78125,23.3125 2.4344,3.95836 5.8368,4.24233 11.9375,1.0625 3.1709,-1.65279 5.6007,-2.07934 10.375,-1.90625 7.4576,0.27036 10.335,-1.54614 8.375,-5.25 -3.347,-6.32498 -10.46935,-13.72889 -16.21875,-16.875 -2.38708,-1.30622 -9.81427,-1.95353 -16,-1.875 z m -140.875,61.34375 c -1.69277,-0.0144 -2.7519,1.46153 -8.625,8.71875 -2.9084,3.59386 -3.2431,4.52014 -2.3125,6.5625 0.9884,2.16936 0.7258,2.5411 -3.125,4.65625 -3.5463,1.94789 -4.4923,3.20491 -6.125,7.9375 l -1.9375,5.59375 2.6875,6.21875 c 2.0951,4.83089 2.4458,6.6227 1.625,8.15625 -0.5787,1.0814 -1.07875,4.57846 -1.09375,7.78125 -0.0237,4.96915 0.49125,6.62661 3.46875,11.28125 2.8029,4.38171 4.34555,5.74114 7.78125,6.875 5.692,1.87853 11.8357,7.4143 10.125,9.125 -2.0211,2.02112 -1.51825,9.2627 0.78125,11.34375 1.5503,1.40299 2,3.05948 2,7.4375 0,4.71714 -0.49585,6.33365 -3.03125,9.78125 -3.217,4.37438 -10.27685,7.96402 -13.84375,7.03125 -3.6398,-0.95182 -4.63875,0.78738 -4.59375,7.96875 0.0254,4.03054 0.6546,7.99906 1.5625,9.78125 0.9839,1.93135 1.3121,4.06865 0.875,6 l -0.6875,3 -1.28125,-3.34375 c -0.6994,-1.83665 -2.321,-3.72296 -3.625,-4.21875 -1.297,-0.49311 -2.1633,-1.45114 -1.9375,-2.15625 2.0258,-6.3272 5.67945,-20.00602 5.40625,-20.25 -0.1898,-0.16947 -2.6914,-1.49537 -5.5625,-2.9375 -6.7798,-3.40539 -12.9657,-5.46574 -18.6875,-6.25 -4.4565,-0.61083 -4.59375,-0.53332 -4.59375,2 0,1.43863 -0.71,4.33816 -1.5625,6.46875 -0.8525,2.13059 -1.64,5.5259 -1.75,7.53125 -0.1102,2.00535 -0.1875,3.65606 -0.1875,3.65625 -0.002,1.9e-4 -3.1535,-0.9 -7,-2 -3.8465,-1.1 -9.96025,-2 -13.59375,-2 -3.6336,0 -9.3838,-0.30442 -12.75,-0.65625 l -6.125,-0.625 -4.125,-6.375 c -2.2792,-3.49817 -4.65835,-6.4162 -5.28125,-6.5 -0.6229,-0.0838 -1.575,-0.27847 -2.125,-0.40625 -0.55,-0.12779 -2.02925,-0.28035 -3.28125,-0.34375 -2.6744,-0.13552 -10.3213,-7.43858 -12.8125,-12.25 -0.9561,-1.84672 -1.788,-4.7707 -1.875,-6.5 -0.2228,-4.41951 -2.97585,-8.15236 -6.28125,-8.5625 -1.5246,-0.18916 -5.06725,0.4136 -7.90625,1.34375 -2.8389,0.93015 -6.8889,1.80057 -9,1.9375 -10.1506,0.65841 -15.84585,10.20882 -9.09375,15.25 2.5558,1.90817 3.1041,1.96747 8,0.71875 2.8909,-0.73732 7.1012,-2.1231 9.375,-3.09375 3.8842,-1.6581 4.1099,-1.67795 3.6875,-0.0625 -0.2583,0.98764 -4.9352,3.95251 -11,6.96875 l -10.5625,5.25 0.59375,10.1875 c 0.3742,6.31906 0.22685,10.78896 -0.40625,11.71875 -0.7718,1.13356 -0.91395,0.74708 -0.59375,-1.5625 0.5356,-3.86205 -2.04405,-8.87783 -9.84375,-19.125 -3.3,-4.33549 -6.7416,-8.96505 -7.625,-10.3125 -1.4435,-2.20187 -1.8669,-2.33579 -4.25,-1.25 -1.4583,0.66446 -5.54435,1.68298 -9.09375,2.25 -7.2628,1.16023 -10.30475,0.65257 -26.09375,-4.15625 -8.5419,-2.60157 -10.3766,-3.51598 -12.25,-6.25 -1.2119,-1.76861 -2.1875,-3.72229 -2.1875,-4.3125 0,-1.92525 4.52695,-4.09041 9.96875,-4.78125 5.4439,-0.69111 8.03125,-2.24023 8.03125,-4.8125 0,-1.95312 -3.8257,-10.54342 -6.1875,-13.90625 -1.052,-1.49777 -3.8991,-4.36615 -6.3125,-6.34375 -3.8273,-3.13623 -4.6528,-3.42829 -6.5625,-2.40625 -1.678,0.89804 -2.8019,0.88173 -4.8125,-0.0312 -4.7545,-2.15891 -12.0963,-8.36024 -14.75,-12.46875 -3.9341,-6.09061 -13.6118,-14.8336 -14.8125,-13.375 -0.6428,0.78091 -13.60375,36.43398 -13.59375,37.40625 0.004,0.59009 2.6197,4.64009 5.8125,9 3.1928,4.35991 14.9911,20.5375 26.1875,35.9375 11.1964,15.4 22.84665,31.41891 25.90625,35.59375 l 5.5625,7.5625 11.4375,2.40625 11.40625,2.40625 3.59375,5.84375 c 7.6725,12.42673 9.7575,15.0151 13.625,17.125 2.2,1.2002 9.175,4.92186 15.5,8.25 14.8387,7.80794 33.3713,17.58516 43.5,22.96875 6.6286,3.52322 7.97575,4.6339 7.84375,6.53125 -0.0876,1.25943 -0.4593,5.0125 -0.8125,8.3125 -1.0437,9.74991 -1.46225,13.98776 -3.09375,32 -0.249,2.75 -0.64805,7.025 -0.90625,9.5 -0.6401,6.13569 -1.3841,14.13076 -2.0625,22.5 -0.312,3.85 -0.74115,8.125 -0.96875,9.5 -0.2277,1.375 -0.7014,6.325 -1.0625,11 -0.3611,4.675 -0.7822,9.175 -0.9375,10 -0.1552,0.825 -0.611,5.775 -1,11 -0.389,5.225 -0.8958,9.78176 -1.125,10.15625 -0.7547,1.23341 1.0007,1.64338 12.625,2.78125 11.1694,1.09333 14.5917,1.44788 24,2.5 2.475,0.27677 7.425,0.7984 11,1.15625 3.575,0.35785 6.7243,0.74929 7,0.90625 0.2758,0.15696 4.1008,0.61 8.5,1 4.3993,0.39 8.2243,0.84 8.5,1 0.2758,0.16 4.1008,0.61069 8.5,1 4.3993,0.38932 8.17705,0.881 8.40625,1.09375 0.2291,0.21274 2.3409,0.40625 4.6875,0.40625 l 4.25,0 -0.0937,-5.34375 c -0.0908,-4.48258 0.7189,-7.09135 5.0625,-16.28125 2.8463,-6.02184 5.1875,-11.75056 5.1875,-12.71875 0,-2.44363 2.3636,-6.77365 5,-9.15625 1.2158,-1.0987 3.2404,-4.025 4.5,-6.5 2.7086,-5.32201 8.5566,-13.03609 13.625,-17.96875 3.4213,-3.32966 3.5414,-3.66144 2.125,-5.78125 -1.6758,-2.50817 -2.0397,-2.36207 5.8125,-2.6875 6.9464,-0.2879 10.64585,-2.21017 11.96875,-6.21875 0.9916,-3.00438 0.88995,-10.93042 -0.15625,-11.71875 -0.2071,-0.15605 -1.86225,-1.29231 -3.65625,-2.53125 -3.7415,-2.58401 -3.47535,-4.25055 0.53125,-3.34375 1.5035,0.3403 4.775,0.6533 7.25,0.6875 4.4275,0.0611 4.4896,0.006 4.8125,-3.4375 0.5207,-5.55393 2.5298,-7 9.6875,-7 9.7401,0 11.3752,-0.98345 16.4375,-9.78125 2.4457,-4.25054 5.3441,-9.06875 6.4375,-10.71875 1.0934,-1.65 2.71105,-4.125 3.59375,-5.5 0.8826,-1.375 1.73805,-4.28632 1.90625,-6.46875 0.2582,-3.35207 -0.12755,-4.3265 -2.53125,-6.25 -1.565,-1.25234 -2.34665,-2.27825 -1.71875,-2.28125 0.6279,-0.003 1.43445,-1.14923 1.78125,-2.53125 0.3469,-1.38203 3.0512,-5.33637 6,-8.8125 3.8655,-4.55657 5.5498,-7.49659 6.0625,-10.53125 0.6655,-3.93879 0.47805,-4.43322 -2.90625,-7.625 -3.2368,-3.05271 -3.42935,-3.51087 -1.84375,-4.34375 0.9744,-0.51185 3.58125,-1.23049 5.78125,-1.59375 3.3742,-0.55714 4.2347,-0.32036 5.5,1.46875 0.825,1.1665 3.03315,2.77189 4.90625,3.5625 2.9091,1.22785 3.6383,1.21801 5,0.0312 1.5682,-1.36664 3.00865,-1.40602 6.71875,-0.25 3.6046,1.12316 4.6811,-0.67063 2.9375,-4.84375 l -1.5625,-3.78125 2.65625,1.75 c 1.457,0.95462 4.3785,1.91851 6.5,2.125 4.3525,0.42362 4.9344,-0.2139 13.3125,-14.53125 7.0747,-12.09092 7.0831,-22.14657 0,-27 -2.17,-1.48691 -3.49345,-3.33091 -3.90625,-5.53125 -0.3413,-1.81944 -1.73075,-4.60267 -3.09375,-6.1875 -2.9862,-3.47228 -3.1534,-5.375 -0.5,-5.375 1.0807,0 2.4505,-0.95028 3.0625,-2.09375 0.612,-1.14346 2.4696,-2.54794 4.125,-3.125 2.7926,-0.97349 2.9699,-1.29586 2.375,-4.65625 -0.3527,-1.99197 -1.5994,-4.93253 -2.75,-6.53125 -1.9189,-2.66646 -1.9473,-3.02103 -0.4375,-4.125 0.9052,-0.66191 1.643,-1.60439 1.625,-2.09375 -0.0682,-1.82406 -3.75825,-5.22696 -7.96875,-7.375 -2.391,-1.21979 -5.77035,-3.75786 -7.53125,-5.625 -1.761,-1.86714 -4.12365,-3.375 -5.21875,-3.375 -1.0951,0 -4.50175,-1.35 -7.59375,-3 -4.2384,-2.26174 -6.9561,-3 -11,-3 -5.626,0 -7.7661,1.32663 -9.0625,5.59375 -0.9867,3.24809 1.89935,15.24587 4.28125,17.78125 2.835,3.01771 2.6373,5.28642 -0.9375,10.5625 -1.657,2.44556 -3.92005,7.62056 -5.03125,11.5 -1.1113,3.87943 -2.6535,8.4125 -3.4375,10.0625 -0.7841,1.65 -1.70145,5.63759 -2.03125,8.875 -0.3297,3.23741 -0.99555,6.91166 -1.46875,8.15625 -0.7981,2.09905 -4.54685,5.46875 -6.09375,5.46875 -0.3702,0 -2.1733,-2.3625 -4,-5.25 -1.8268,-2.8875 -3.597,-5.475 -3.9375,-5.75 -1.1081,-0.89509 -2.9375,-7.23449 -2.9375,-10.15625 0,-1.56793 0.9,-3.74375 2,-4.84375 2.2415,-2.24153 2.5327,-6.03787 0.9375,-12.3125 -0.7455,-2.93224 -3.08335,-6.41957 -7.78125,-11.5625 l -6.7188,-7.34375 -3.53125,1.46875 c -3.9612,1.65507 -5.31495,4.85212 -6.46875,15.25 -0.7412,6.67981 -2.3066,10.75113 -2.5,6.5 -0.3656,-8.03724 -1.16925,-10.7705 -4.84375,-16.125 -4.6436,-6.76661 -4.13605,-8.42501 2.90625,-9.40625 2.475,-0.34485 5.1096,-1.22148 5.875,-1.96875 1.1818,-1.15376 0.82685,-1.61273 -2.34375,-2.9375 -7.6559,-3.19885 -11.01435,-3.80735 -14.84375,-2.75 -3.0613,0.84525 -4.0387,0.70569 -5.875,-0.78125 -2.0725,-1.67821 -2.15315,-2.03436 -0.90625,-5.8125 0.7314,-2.21624 1.14855,-5.38031 0.90625,-7.03125 -0.4031,-2.74635 -0.272,-2.92498 1.75,-2.15625 5.2303,1.98858 4.5569,-3.64882 -1.6875,-14.03125 -4.9616,-8.24974 -5.0969,-8.73149 -5.4375,-17.28125 -0.3869,-9.71309 -1.3733,-11.81619 -8.1875,-17.78125 -2.0708,-1.81277 -4.27935,-4.4981 -4.90625,-5.96875 -0.7923,-1.85856 -2.1645,-2.90044 -4.5,-3.375 -0.9052,-0.18393 -1.52949,-0.33896 -2.09375,-0.34375 z m 170.25,64.75 c -1.6259,0 -3.94305,4.96967 -4.59375,9.875 -0.4216,3.17791 -1.55495,6.12718 -3.03125,7.84375 -2.5315,2.94346 -2.76635,3.54616 -1.71875,4.59375 2.6112,2.61128 9.5411,-6.11006 9.1875,-11.5625 -0.1167,-1.79967 0.32205,-4.23984 0.96875,-5.4375 1.1663,-2.15986 0.6821,-5.3125 -0.8125,-5.3125 z m -202.28125,2 c -1.8629,0 -17.71875,21.36205 -17.71875,23.875 0,1.80391 4.67805,6.11417 6.65625,6.125 0.4651,0.003 2.19375,1.25367 3.84375,2.78125 4.2683,3.95159 8.5234,6.78565 11.875,7.875 5.4623,1.77532 8.82525,1.46175 12.78125,-1.15625 2.8887,-1.91161 3.84375,-3.2073 3.84375,-5.25 0,-2.98377 -2.84585,-10.81481 -6.90625,-19.09375 -2.6823,-5.46912 -11.8638,-15.15625 -14.375,-15.15625 z m 232.5625,31.21875 c -1.36463,0.0554 -2.67178,0.46054 -3.78125,1.1875 -8.0147,5.25141 -10.2342,26.01574 -3.5,32.75 3.2565,3.25644 5.69575,3.50352 10.84375,1.15625 7.724,-3.52182 8.15625,-4.39596 8.15625,-16.78125 0,-10.83891 -0.0928,-11.16959 -2.90625,-14.25 -2.49274,-2.7292 -5.81031,-4.18431 -8.8125,-4.0625 z m 19.21875,7.5625 c -1.65342,0.0733 -3.0512,0.4613 -3.5,1.1875 -1.0017,1.62081 1.5178,5.44556 4.5,6.84375 1.3743,0.64434 2.8603,0.49246 4.75,-0.46875 3.0076,-1.52987 3.4206,-3.0822 1.5,-5.625 -1.00725,-1.33357 -4.4943,-2.05973 -7.25,-1.9375 z m -117.65625,78.4375 c -0.53006,0.0152 -1.14442,0.10708 -1.90625,0.25 -3.2314,0.60622 -3.5951,1.06726 -4.8125,5.84375 -3.8951,15.29071 -4.49015,21.53999 -3.90625,41.1875 0.1686,5.67339 -0.51815,7.4551 -4.28125,11.53125 -6.5487,7.09354 -4.71215,9.63171 7.09375,9.84375 3.0525,0.0548 6.09,0.6525 6.75,1.3125 0.66,0.66 1.21875,3.33782 1.21875,5.9375 0,3.68953 0.384,4.79584 1.75,5.09375 1.5385,0.33554 4.01855,0.30823 6.53125,-0.0937 0.9408,-0.15049 4.8628,-4.28432 8,-8.4375 1.2231,-1.61921 3.41895,-4.14208 4.90625,-5.625 2.9787,-2.96988 4.8125,-6.94211 4.8125,-10.5 0,-1.27186 0.6698,-2.90477 1.5,-3.59375 2.1287,-1.76667 11.12605,2.85434 10.65625,5.46875 -0.1757,0.97777 0.66405,2.80679 1.84375,4.0625 1.7016,1.81153 2.8973,2.1914 5.8125,1.8125 2.3606,-0.30682 5.2967,0.21756 8.1875,1.46875 4.4988,1.94714 4.48695,1.92673 8.21875,-0.1875 4.1156,-2.33162 4.8061,-3.42978 5.3125,-8.59375 0.2981,-3.03996 -0.13525,-3.87423 -3.34375,-6.34375 -3.3193,-2.55478 -4.2201,-2.7909 -8.9375,-2.25 -4.5646,0.52338 -5.25425,0.37287 -5.28125,-1.15625 -0.0172,-0.96731 -1.145,-3.55 -2.5,-5.75 -1.355,-2.2 -2.486,-4.675 -2.5,-5.5 -0.0142,-0.825 -2.824,-3.43569 -6.25,-5.78125 -3.4261,-2.34555 -10.04375,-6.92522 -14.71875,-10.1875 -5.606,-3.91191 -9.5214,-5.9619 -11.5,-6 -2.5667,-0.0494 -3.2503,-0.64833 -4.75,-4.28125 -0.9641,-2.33544 -2.78125,-5.53317 -4.03125,-7.09375 -1.48208,-1.85043 -2.28481,-2.48303 -3.875,-2.4375 z m 108.875,52.9375 c -0.21313,-0.002 -0.44612,0.007 -0.65625,0.0312 -1.9555,0.22744 -2.6406,0.94112 -2.875,2.96875 -0.2449,2.11902 0.1694,2.77528 2,3.125 4.8241,0.92157 6.5991,0.66506 7.25,-1.03125 0.84337,-2.19789 -2.52183,-5.0662 -5.71875,-5.09375 z m -13.25,8.90625 c -0.94173,0.0347 -1.71361,0.50276 -2.4375,1.375 -1.7145,2.06585 -0.53975,4.71581 3.21875,7.25 3.879,2.61537 4.00085,2.62415 5.53125,1.09375 2.1095,-2.10945 1.3663,-5.54427 -1.6875,-7.71875 -1.9251,-1.37081 -3.4142,-2.04462 -4.625,-2 z m -57.5625,20.78125 c -3.75109,0.11783 -5.101,0.75197 -8.03125,2.75 -4.8766,3.32523 -8.1345,13.16131 -5.8125,17.5 0.9807,1.8324 1.81555,2.06099 6.28125,1.6875 6.6263,-0.55418 12.55155,-4.41213 16.71875,-10.90625 2.8661,-4.46638 3.0629,-5.1893 1.9375,-7.90625 -1.1336,-2.73674 -1.6711,-2.98814 -6.375,-3.09375 -1.93133,-0.0434 -3.46839,-0.0705 -4.71875,-0.0312 z m 41.5,10.6875 c -1.1249,0.066 -2.14216,0.62363 -3.125,1.6875 -5.5339,5.99019 -5.7656,15.75619 -0.4375,19.0625 3.3513,2.07963 3.35195,2.09851 5.90625,-0.28125 4.1095,-3.82859 5.7035,-15.43698 2.5,-18.25 -1.79004,-1.57185 -3.39745,-2.30365 -4.84375,-2.21875 z m 7.8125,256.84375 c -0.73844,0.006 -1.63193,0.094 -2.78125,0.21875 -6.8921,0.74833 -7.4375,1.00871 -7.4375,3.75 0,2.03609 0.96305,2.82221 6.09375,4.875 3.3617,1.34499 7.2992,2.3871 8.75,2.3125 3.8661,-0.19872 4.0485,-4.16675 0.375,-8.28125 -1.99455,-2.23403 -2.78468,-2.8943 -5,-2.875 z"
     inkscape:label="#path3138" />
  <path
     style="fill:#d3d3d3"
     inkscape:connector-curvature="0"
     d="m 778.27054,1240.7954 c 1.0601,-2.05 2.443,-2.9535 5.2347,-3.4202 2.0868,-0.3488 4.3725,-1.0084 5.0795,-1.4658 1.8595,-1.2029 2.8196,-8.1778 1.2584,-9.1426 -0.8791,-0.5433 -0.9618,-1.3301 -0.2787,-2.6499 0.5344,-1.0325 1.2738,-3.5518 1.6432,-5.5985 0.3693,-2.0466 1.4915,-4.2966 2.4938,-5 3.604,-2.5291 6.7456,-8.359 6.4112,-11.8977 -0.1757,-1.8595 -0.3904,-7.0334 -0.4771,-11.4974 -0.1477,-7.5986 0.072,-8.5264 3.4358,-14.5423 l 3.5935,-6.4258 -1.7915,-3.9577 c -0.9854,-2.1768 -2.7551,-4.815 -3.9328,-5.8628 -2.0884,-1.858 -2.9076,-4.595 -1.3752,-4.595 0.4212,0 3.4011,2.6864 6.6218,5.9698 5.3179,5.4213 10.7247,8.9103 16.1122,10.397 5.4772,1.5115 8.4955,-7.6781 4.4478,-13.5417 -2.6433,-3.8291 -13.5355,-15.6472 -16.3463,-17.7358 -1.0441,-0.7759 -4.8691,-1.752 -8.5,-2.1692 -3.6308,-0.4172 -9.0621,-1.4699 -12.0694,-2.3393 -3.8807,-1.1219 -9.7424,-1.5808 -20.1933,-1.5808 -13.7352,0 -14.8224,-0.1385 -16.1684,-2.0602 -0.7937,-1.1331 -3.8181,-3.2875 -6.721,-4.7875 -4.2877,-2.2156 -5.3,-3.2301 -5.3953,-5.4071 -0.064,-1.4739 -1.412,-4.0312 -2.9945,-5.683 -2.4685,-2.5765 -2.6416,-3.0935 -1.2184,-3.6396 2.2172,-0.8508 2.0913,-3.0064 -0.378,-6.4742 -1.1202,-1.5733 -2.9155,-4.847 -3.9895,-7.2749 -1.7095,-3.8647 -2.4312,-4.491 -5.7938,-5.0287 -3.8429,-0.6145 -14.4695,-5.6951 -17.0493,-8.1512 -0.7531,-0.7171 -1.4866,-3.034 -1.6299,-5.1487 -0.1433,-2.1147 -0.6023,-5.1376 -1.0199,-6.7176 l -0.7592,-2.8728 -8.0745,0.5293 c -7.4824,0.4905 -8.4986,0.3152 -13.8591,-2.3908 l -5.7847,-2.9201 -4.1253,2.6041 c -3.7541,2.3699 -3.9836,2.7459 -2.5505,4.1791 1.4331,1.4331 0.9718,1.9679 -5.1263,5.9426 -3.6857,2.4023 -8.3301,6.1089 -10.3209,8.2369 -4.0487,4.3276 -4.5316,4.3791 -18.8803,2.0125 -4.125,-0.6803 -10.6855,-1.326 -14.579,-1.4349 -6.7106,-0.1877 -13.421,-2.5521 -13.421,-4.7288 0,-0.4314 -1.155,-0.7844 -2.5668,-0.7844 -1.5622,0 -4.0082,-1.3664 -6.25,-3.4913 -3.656,-3.4655 -3.7511,-3.4914 -12.8618,-3.5 -6.6095,-0.01 -9.5782,-0.4083 -10.6063,-1.4364 -0.7852,-0.7853 -3.1799,-1.744 -5.3214,-2.1304 -5.5037,-0.9932 -6.0829,-1.7308 -6.8468,-8.7202 -0.6237,-5.7053 -0.9444,-6.3548 -3.8635,-7.8247 -3.0595,-1.5406 -3.1793,-1.8325 -3.0772,-7.5 0.1152,-6.3917 1.3025,-33.1995 1.8999,-42.897 0.2033,-3.3 0.6573,-13.15133 1.0088,-21.8919 0.8025,-19.95266 -0.9234,-16.8192 22.9172,-41.60809 5.0252,-5.225 12.0462,-12.82618 15.6023,-16.8915 3.5561,-4.06533 6.9315,-7.89033 7.5009,-8.5 0.5694,-0.60968 6.4166,-7.4085 12.9937,-15.1085 6.5771,-7.7 14.2113,-16.49119 16.9647,-19.53598 13.4836,-14.91026 19.515,-21.68198 21.344,-23.96402 l 2.0037,-2.5 3.3293,1.88762 c 4.0839,2.31544 10.8293,8.61851 10.8293,10.11916 0,0.60549 1.4797,2.5351 3.2883,4.28803 2.4286,2.35391 4.8469,3.48719 9.25,4.33481 4.1114,0.79147 6.8982,2.02666 8.9792,3.97981 2.8616,2.68591 5.391,3.64803 10.0329,3.81626 1.1277,0.0409 4.5027,2.25581 7.5,4.92208 l 5.4496,4.84778 18.7381,0.62582 c 16.3226,0.54515 19.271,0.89769 22.8721,2.73483 l 4.1339,2.109 -0.6786,8.6674 c -0.3733,4.76707 -1.0651,9.05675 -1.5373,9.53263 -0.4792,0.48289 -0.025,2.23605 1.0279,3.96742 1.0376,1.70621 2.1644,5.14186 2.504,7.63478 1.0896,7.99931 1.2594,8.82488 2.2004,10.69486 0.5086,1.01074 0.783,3.90676 0.6098,6.43559 -0.2543,3.71317 0.2571,5.4998 2.6577,9.28521 3.86,6.0866 15.8855,20.61691 17.0628,20.61691 2.2869,0 8.671,8.25485 10.4643,13.53079 l 1.9289,5.67477 6.183,-0.4658 6.183,-0.4657 0.6337,5.1129 c 1.0019,8.08343 1.4152,11.72023 2.0019,17.61303 0.3011,3.025 0.7424,6.625 0.9805,8 0.2382,1.375 0.7051,5.2 1.0375,8.5 0.3325,3.3 0.7695,7.125 0.9712,8.5 0.482,3.287 1.4236,11.261 2.0664,17.5 0.2833,2.75 0.7115,6.575 0.9514,8.5 1.5011,12.0411 2.4751,20.2365 3.017,25.3855 0.3407,3.2371 1.9706,8.9073 3.6219,12.6004 2.5325,5.6638 3.9117,7.3561 8.8107,10.811 6.4614,4.5566 15.4874,7.7582 24.5578,8.7107 4.1491,0.4357 7.4152,1.5343 10.5875,3.5612 2.5232,1.6122 5.4482,2.9408 6.5,2.9526 1.0669,0.012 3.1222,1.7319 4.6484,3.8901 l 2.736,3.8689 8.6349,-0.4756 c 7.4783,-0.4118 9.4802,-0.9401 14.9447,-3.9438 6.3268,-3.4777 11.3819,-5.0701 11.525,-3.6306 0.1521,1.5301 0.724,4.0655 1.3906,6.166 0.5351,1.686 -0.1334,2.8333 -3.1313,5.3736 -6.2453,5.2921 -11.4309,10.7887 -18.8358,19.9654 -3.85,4.7712 -7.45,8.71 -8,8.753 -1.6859,0.1317 -5.686,3.9016 -5.1169,4.8224 1.1628,1.8815 -6.8527,4.9225 -13.4961,5.1203 -11.9364,0.3553 -29.132,7.4287 -32.7981,13.4915 -3.6336,6.0091 -3.6047,7.4639 0.1797,9.0452 1.879,0.785 4.2908,1.1987 5.3597,0.9191 1.4711,-0.3846 2.3463,0.3366 3.6008,2.9673 1.9451,4.0789 1.2817,4.6458 -5.4358,4.6458 -4.0483,0 -14.9728,4.1237 -17.7933,6.7165 -1.3207,1.2141 -1.2041,1.6033 0.9755,3.2556 l 2.4754,1.8766 -2.7459,0.6892 c -1.5103,0.3791 -4.736,0.1881 -7.1683,-0.4243 -9.4841,-2.3882 -11.7296,-1.3358 -23.537,11.0309 -6.4716,6.7782 -7.9801,7.8674 -11,7.9423 -1.9248,0.048 -4.9553,0.2371 -6.7345,0.4208 l -3.2347,0.3341 1.4407,-2.786 z"
     id="ON"
     inkscape:label="#CA-ON" />
  <path
     style="fill:#d3d3d3"
     inkscape:connector-curvature="0"
     d="m 1129.4695,1063.0766 c -0.2889,-0.2889 -4.2704,-0.6863 -8.8478,-0.8831 -4.5773,-0.1968 -10.7974,-1.085 -13.8224,-1.9738 -6.6994,-1.9685 -8.0737,-2.3009 -10,-2.4188 -4.0759,-0.2495 -4.5024,-1.7185 -2.031,-6.995 1.3051,-2.7864 2.9631,-5.0662 3.6844,-5.0662 0.7213,0 3.3494,1.9526 5.8401,4.3392 3.6422,3.4898 4.7461,4.077 5.64,3 0.6543,-0.7884 3.1445,-1.3392 6.0547,-1.3392 2.7188,0 5.7012,-0.4021 6.6275,-0.8936 3.1978,-1.6966 12.1423,-3.9835 12.6114,-3.2243 0.2588,0.4187 -0.1614,1.9793 -0.9337,3.4679 -0.7723,1.4887 -1.5075,4.7027 -1.6338,7.1423 -0.2048,3.9559 -1.7424,6.2915 -3.1894,4.8446 z"
     id="PE"
     inkscape:label="#CA-PE" />
  <path
     style="fill:#d3d3d3"
     d="m 850.24559,674.75002 c -0.5789,-0.0125 -2.84085,1.76882 -5.03125,3.9375 -2.1903,2.16868 -5.21045,4.39533 -6.71875,4.96875 -3.2127,1.22148 -11.18725,0.51777 -16.90625,-1.5 -4.3448,-1.53293 -10.70785,-1.81074 -18.21875,-0.78125 -4.5004,0.61684 -4.8598,0.90528 -7.3125,5.90625 l -2.5625,5.25 2.84375,6.84375 c 1.5622,3.77006 3.45785,7.6223 4.21875,8.53125 0.998,1.19213 1.365,4.81466 1.375,13 0.01,10.24769 0.22765,11.63448 2.28125,14.34375 3.0088,3.96928 5.66515,9.13465 6.21875,12.1875 0.2463,1.35792 1.0911,4.34955 1.875,6.625 1.3212,3.83476 1.2553,4.28375 -0.5625,6.21875 -1.383,1.47215 -1.9375,3.50754 -1.9375,6.875 0,3.60908 -0.5116,5.18169 -2.0625,6.4375 -1.1286,0.91388 -2.1633,2.33197 -2.3125,3.15625 -0.1491,0.82429 -1.04345,3.23801 -1.96875,5.375 -0.9253,2.13699 -1.5619,5.21165 -1.4375,6.84375 0.296,3.88525 6.219,9.82357 13.9375,13.9375 6.452,3.4389 15.3905,13.06321 16.4375,17.6875 0.331,1.46168 1.8586,6.33493 3.375,10.84375 2.0224,6.01357 2.8008,10.45461 2.9375,16.65625 0.169,7.6664 -0.14445,9.27807 -3.46875,17.40625 -2.4551,6.00278 -5.1379,10.57266 -8.125,13.84375 -2.4533,2.68645 -5.91115,6.62392 -7.65625,8.71875 -1.745,2.09483 -5.41725,5.18462 -8.15625,6.875 -5.6445,3.4836 -10.533,7.82187 -10.5,9.3125 0.0123,0.55179 0.9245,2.125 2,3.5 1.0755,1.375 1.95675,3.7256 1.96875,5.21875 0.0133,1.63255 0.7886,3.10384 1.9375,3.71875 3.6126,1.93338 6.24655,7.64078 5.96875,12.875 -0.1741,3.27932 0.31075,5.602 1.46875,7.25 0.9386,1.3357 2.19045,4.2375 2.78125,6.4375 0.5907,2.2 2.8923,7.825 5.125,12.5 2.2326,4.675 4.0625,9.61423 4.0625,11 0.005,1.38577 -1.2323,4.39412 -2.75,6.6875 -2.1583,3.26193 -2.62115,4.84891 -2.09375,7.25 0.6232,2.83761 0.4572,3.10854 -2.4375,3.6875 -2.7485,0.54968 -3.07135,0.95463 -2.59375,3.25 0.2993,1.43827 1.88705,14.32508 3.53125,28.62508 1.6442,14.2999 3.23325,28.025 3.53125,30.5 0.298,2.4749 0.73715,6.075 0.96875,8 0.2316,1.9249 0.92555,7.775 1.53125,13 0.6058,5.2249 1.279,10.8499 1.5,12.5 0.2209,1.65 0.67805,5.9249 1.03125,9.5 0.3881,3.9285 1.8485,9.1565 3.6875,13.2187 2.491,5.5022 3.97175,7.3562 8.21875,10.2813 5.7612,3.9678 15.15305,7.0637 23.59375,7.7812 3.8715,0.3291 7.0917,1.4197 10.625,3.5938 2.7847,1.7134 5.8983,3.125 6.9375,3.125 1.0392,0 2.97285,1.5788 4.28125,3.5 2.3608,3.4661 2.43385,3.5 9.84375,3.5 5.6796,0 8.106,-0.453 10.125,-1.875 5.9275,-4.1747 11.28395,-6.2418 15.40625,-5.9376 3.8953,0.2874 4.1288,0.4886 4.5,3.7813 0.2161,1.9169 1.13305,4.7294 2.03125,6.25 1.46,2.4715 2.2189,2.7813 7,2.7813 2.9416,0 12.62895,-1.605 21.53125,-3.5626 8.9023,-1.9575 17.12065,-3.7663 18.28125,-4 1.1605,-0.2336 3.1345,-1.8912 4.375,-3.6874 1.2404,-1.7965 3.876,-4.4311 5.875,-5.8438 3.9702,-2.8059 6.9723,-9.379 7.75,-17.0938 0.2389,-2.3704 0.8741,-7.2374 1.4063,-10.8124 0.5321,-3.5751 1.2173,-8.5251 1.5312,-11 0.777,-6.1266 5.04216,-20.0113 6.99996,-22.7813 1.1824,-1.673 2.2748,-2.1082 4.25,-1.75 1.4664,0.2659 4.4111,0.1827 6.5312,-0.1563 l 3.8438,-0.5937 -0.6562,-8.1875 c -0.7866,-10.0179 -0.2131,-10.6965 9.25,-11.0625 7.9112,-0.306 11.2563,-1.4592 15.3124,-5.25 3.1278,-2.9231 12.6825,-5.6023 24.1563,-6.7813 5.8615,-0.6022 7.9042,-1.9338 13.4687,-8.6874 5.7338,-6.9591 6.347,-12.0928 2.375,-19.65633 -1.4598,-2.7799 -2.8224,-3.7328 -7.625,-5.2187 -5.5043,-1.703 -6.2692,-1.699 -12.4062,-0.1876 -4.5541,1.1218 -8.8063,3.1698 -14.0312,6.78133 -4.125,2.8513 -10.2169,6.8578 -13.5313,8.875 -3.3143,2.0171 -8.2643,5.7276 -11,8.25 -2.7356,2.5225 -6.5438,6.0264 -8.4687,7.7813 -3.8311,3.4924 -13.0557,14.8395 -14.87496,18.3124 -0.6293,1.2013 -1.125,3.1423 -1.125,4.3126 0,2.076 -7.3079,16.5133 -11.37505,22.5 -4.5566,6.7069 -11.3487,13.8867 -17.5625,18.5624 -3.6166,2.7216 -10.3875,9.1726 -15.0625,14.3438 -4.675,5.1711 -8.68695,9.2167 -8.90625,9 -1.443,-1.4267 13.9752,-17.8142 25.1875,-26.7812 7.9838,-6.385 23.3342,-31.216 24.4688,-39.5938 0.2586,-1.9099 1.9052,-5.7349 3.6562,-8.5 1.7509,-2.7652 4.01436,-7.2812 5.03116,-10.0312 3.4557,-9.3446 13.2449,-20.5 18,-20.5 2.0689,0 2.6643,-0.8873 4.4688,-6.75 1.1427,-3.71253 2.4745,-8.94753 2.9688,-11.62508 0.4943,-2.67749 1.7535,-5.9986 2.7812,-7.375 3.4883,-4.6722 22.1707,-11.70773 60.8438,-22.90625 6.5999,-1.91116 15.15,-4.39946 19,-5.53125 10.298,-3.02729 26.4711,-11.70418 27.5937,-14.8125 0.4966,-1.375 2.9074,-6.55 5.375,-11.5 2.4676,-4.95 4.7424,-10.575 5.0313,-12.5 0.6207,-4.13761 6.08,-10.34742 15.25,-17.34375 3.4374,-2.6227 6.25,-5.04255 6.25,-5.34375 0,-0.47093 -4.8172,-6.99593 -7.1563,-9.71875 -0.4591,-0.53444 -1.3212,-0.44833 -2.125,0.21875 -0.7507,0.62308 -4.2775,1.85254 -7.8125,2.75 -5.8925,1.49594 -21.6952,7.3251 -47.4062,17.4375 -16.7583,6.59119 -32.7861,12.0425 -37.125,12.625 -3.035,0.40742 -5.2035,-0.008 -8.25,-1.5625 -2.2733,-1.15967 -4.1798,-1.99243 -4.2188,-1.84375 -0.092,0.34861 -0.8131,7.04286 -1.375,12.6875 -0.2413,2.42436 -1.0081,4.74835 -1.7188,5.1875 -1.1391,0.70404 -11.3798,0.44462 -16.0312,-0.40625 -0.9361,-0.17124 -2.5742,-1.11452 -3.6562,-2.09375 -1.6172,-1.46349 -2.9638,-1.66051 -7.5,-1.09375 -5.0351,0.62909 -5.7363,0.4825 -8.0313,-1.8125 -1.7356,-1.73563 -2.7141,-4.11857 -3.1875,-7.6875 -0.6227,-4.69431 -0.897,-5.09833 -2.8125,-4.46875 -5.8027,1.90721 -9.2668,1.66856 -12.1875,-0.84375 -2.69916,-2.32179 -2.79806,-2.72355 -1.71876,-5.84375 1.98276,-5.73152 1.2416,-8.1333 -3.0937,-10.25 -4.1067,-2.00508 -10.05725,-7.96763 -12.34375,-12.375 -0.7517,-1.44894 -1.60215,-4.46301 -1.90625,-6.6875 -0.4842,-3.54258 -0.1529,-4.44257 2.5625,-7.28125 2.2044,-2.30449 3.09375,-4.21269 3.09375,-6.59375 0,-2.59144 0.55535,-3.59695 2.46875,-4.46875 1.4024,-0.63899 2.7475,-2.32708 3.125,-3.90625 1.1443,-4.78737 1.7966,-5.06247 8.46866,-3.6875 3.3565,0.69169 6.8859,1.94563 7.8438,2.8125 2.6489,2.39723 4.3565,1.92693 7.0312,-2 2.1628,-3.17517 2.7853,-3.52315 5.5,-2.9375 1.6838,0.36322 5.4229,0.91889 8.3126,1.21875 l 5.25,0.53125 2.0937,-4.71875 c 2.0267,-4.58166 2.0244,-4.86657 0.3437,-8.59375 -0.9555,-2.11901 -2.5699,-4.6047 -3.5937,-5.53125 -1.0238,-0.92654 -1.865,-2.40399 -1.875,-3.28125 -0.02,-3.20629 -4.8781,-11.97179 -7.875,-14.1875 -2.0793,-1.53733 -3.2868,-3.43275 -3.6875,-5.84375 -0.3264,-1.9638 -1.2071,-5.85368 -1.9688,-8.625 -0.7615,-2.77132 -1.6094,-9.27529 -1.9062,-14.46875 -0.6703,-11.73202 -0.9543,-12.63064 -4.3125,-13.46875 -3.7009,-0.92361 -9.0584,-4.30065 -10.2187,-6.46875 -0.6174,-1.15371 -0.5638,-2.97052 0.125,-5.15625 0.5854,-1.85775 1.1347,-6.25626 1.2187,-9.75 l 0.1563,-6.34375 -5.74996,0.40625 c -5.5177,0.39925 -6.3319,0.0399 -5.7813,-2.6875 0.5049,-2.50051 -2.3456,-12.5 -3.5625,-12.5 -1.7839,0 -6.11795,-7.62952 -6.96875,-12.28125 -0.3783,-2.06857 -0.9563,-3.9361 -1.3125,-4.15625 -1.6784,-1.03734 -4.05305,2.54636 -4.96875,7.5 -0.5567,3.01168 -1.1538,5.89923 -1.3125,6.4375 -0.1588,0.53827 0.22785,1.89387 0.84375,3 1.682,3.02081 1.83515,13.40637 0.28125,18.34375 -0.8468,2.69043 -2.20885,4.74402 -3.59375,5.375 -1.5798,0.71982 -2.4586,2.25526 -2.9375,5.15625 -0.5068,3.06978 -1.7812,5.20796 -5.0625,8.375 -4.2527,4.10462 -6.375,5.20562 -6.375,3.34375 0,-0.49038 -1.2469,-1.18525 -2.75,-1.5625 -1.5031,-0.37726 -5.11975,-2.73137 -8.03125,-5.21875 -5.0976,-4.35503 -5.47455,-4.51533 -10.21875,-3.9375 l -4.90625,0.625 -2,-4.5 c -1.0901,-2.46439 -3.1117,-5.61172 -4.5,-7 -1.562,-1.56197 -2.4985,-3.55124 -2.4375,-5.25 0.0544,-1.50985 -0.3524,-4.1 -0.9375,-5.75 -4.6192,-13.02556 -5.38495,-16.48099 -4.71875,-21.8125 l 0.6875,-5.46875 -4.84375,-1.5625 c -2.6681,-0.86344 -9.4789,-2.12867 -15.125,-2.8125 -9.2136,-1.11591 -10.4237,-1.52319 -11.9375,-3.8125 -0.9277,-1.40289 -1.601,-3.65625 -1.5,-5.03125 0.1492,-2.03061 -0.95535,-3.25102 -5.84375,-6.5 -6.4198,-4.26671 -25.7439,-14.4621 -27.5,-14.5 z m 237.28121,293.8125 c -1.4603,0.009 -3.0105,0.0526 -4.7187,0.0937 -5.1839,0.12485 -7.0961,0.63591 -9.375,2.5 -4.3805,3.58296 -2.9913,6.14208 4.1562,7.6875 3.1361,0.67807 6.8365,2.01862 8.2188,2.96875 1.3822,0.95013 3.6322,1.90166 5,2.125 2.71,0.44252 5.3833,0.36138 17.5,-0.65625 11.1295,-0.93473 11.5,-1.12044 11.5,-4.9375 0,-3.20655 -0.1196,-3.27502 -9.25,-6.34375 -8.0187,-2.69509 -12.8093,-3.50243 -23.0313,-3.4375 z"
     id="QC"
     inkscape:label="#path3199"
     inkscape:connector-curvature="0" />
  <path
     style="fill:#d3d3d3"
     inkscape:connector-curvature="0"
     d="m 448.71604,1050.3529 c -0.2292,-0.2128 -4.0167,-0.691 -8.4167,-1.0627 -4.4,-0.3717 -9.125,-0.8417 -10.5,-1.0445 -1.375,-0.2028 -5.425,-0.6555 -9,-1.006 -3.575,-0.3505 -7.625,-0.7959 -9,-0.9897 -1.375,-0.1939 -5.425,-0.6505 -9,-1.0148 -3.575,-0.3643 -17.525,-3.1382 -31,-6.1642 -13.475,-3.026 -25.175,-5.6462 -26,-5.8227 -4.5446,-0.9723 -7.1169,-1.5529 -13,-2.9342 -3.575,-0.8394 -7.4,-1.6829 -8.5,-1.8744 -1.1,-0.1915 -5.5024,-1.1509 -9.7832,-2.1319 -6.3238,-1.4492 -7.6873,-2.0916 -7.2721,-3.4259 0.477,-1.5329 8.3409,-33.84055 9.0407,-37.14219 0.1749,-0.825 1.7306,-7.35 3.4572,-14.5 1.7265,-7.15 4.7469,-19.75 6.7118,-28 1.965,-8.25 5.8124,-24.225 8.5499,-35.5 2.7375,-11.275 5.1564,-21.39568 5.3754,-22.4904 0.2189,-1.09472 1.7548,-7.61972 3.4131,-14.5 1.6583,-6.88028 5.0595,-21.0596 7.5582,-31.5096 2.4987,-10.45 6.0621,-25.3 7.9186,-33 1.8565,-7.7 5.019,-20.82724 7.0278,-29.17164 l 3.6524,-15.17164 5.1751,0.42821 c 2.8463,0.23552 7.3837,0.76276 10.0831,1.17164 2.6994,0.40889 8.4026,0.32908 12.6738,-0.17735 7.3287,-0.86898 8.1077,-0.76729 13.8447,1.80731 5.6663,2.54288 8.0735,2.72821 8.0735,0.6216 0,-1.12423 -21.2468,-11.47108 -26.5,-12.90507 -2.2,-0.60055 -5.0125,-1.09442 -6.25,-1.09748 -1.2375,-0.003 -3.15,-0.90558 -4.25,-2.00558 -2.2049,-2.20492 -5.1012,-2.55137 -8.0657,-0.96482 -2.2816,1.22107 -2.3272,0.89536 -0.8432,-6.02443 0.8561,-3.992 1.4484,-4.98656 2.75,-4.61809 1.4822,0.41957 8.5483,1.87308 15.2308,3.13298 1.3355,0.25178 3.3281,0.64622 4.4281,0.87652 3.3367,0.69861 44.8204,8.77468 47.5,9.24735 1.375,0.24253 7.9,1.51473 14.5,2.8271 6.6,1.31237 13.8,2.55824 16,2.76859 3.8523,0.36833 3.9944,0.50936 3.8475,3.81863 -0.084,1.88989 -1.3091,11.76117 -2.7228,21.93617 -1.4137,10.175 -2.8546,20.75 -3.2019,23.5 -0.6196,4.90466 -1.8348,7.5 -3.5119,7.5 -1.5333,0 -7.5203,6.64289 -8.8243,9.79099 -0.948,2.28858 -1.0096,3.95066 -0.2374,6.4002 2.2242,7.05465 1.8338,10.50892 -1.5864,14.03765 -2.2184,2.2888 -2.9187,3.70987 -2.3121,4.69145 0.7073,1.14436 1.4634,0.90908 4.0365,-1.25609 1.7414,-1.46531 3.8323,-2.6642 4.6464,-2.6642 1.5014,0 1.4826,3.15089 -0.1367,23 -0.2468,3.025 -0.7058,9.55 -1.02,14.5 -0.3142,4.95 -0.7597,11.025 -0.9899,13.5 -0.2303,2.475 -0.686,9 -1.0128,14.5 -0.3268,5.5 -0.7705,11.575 -0.9861,13.5 -0.2157,1.925 -0.6749,8.45 -1.0206,14.5 -0.3458,6.05 -0.7861,12.125 -0.9785,13.5 -0.1925,1.375 -0.6594,7.9 -1.0375,14.5 -0.3782,6.6 -0.8086,12.675 -0.9565,13.5 -0.1479,0.825 -0.5956,7.125 -0.995,13.99996 -0.3994,6.87503 -0.8494,13.17503 -1,14.00003 -0.1506,0.825 -0.6006,7.125 -1,14 -0.3994,6.875 -0.8769,13.3004 -1.0612,14.2786 -0.1842,0.9783 -0.4293,4.6908 -0.5445,8.25 -0.1871,5.7784 -1.1619,7.7703 -2.9776,6.0846 z"
     id="SK"
     inkscape:label="#CA-SK" />
  <path
     style="fill:#d3d3d3"
     inkscape:connector-curvature="0"
     d="m 189.23904,672.415 c -1.0668,-0.70329 -5.3147,-2.79428 -9.4397,-4.64665 -6.2983,-2.82831 -28.0222,-14.10455 -63.6742,-33.05141 -11.3331,-6.02281 -52.851502,-31.826 -83.575802,-51.94126 -10.88063,-7.12358 -15.75,-10.87982 -15.75,-12.1496 0,-2.53109 3.08744,-7.38071 6.31523,-9.91969 5.80007,-4.56236 2.45128,-7.5066 -8.9486,-7.86749 -2.25866,-0.0715 -3.28147,-0.66552 -3.66389,-2.12789 -0.29178,-1.11579 -0.9067604,-1.92664 -1.3666304,-1.80188 -1.87096,0.50758 -5.27417,-1.39891 -5.87471,-3.29102 -0.47788,-1.50567 1.89077,-5.75319 9.3121704,-16.69885 13.76387,-20.30003 39.20883,-57.98265 58.86743,-87.17955 15.6575,-23.25445 35.890202,-53.23674 63.213502,-93.67448 l 12.2803,-18.17448 3.1826,1.09681 c 6.5599,2.26073 8.4583,4.51184 9.2009,10.9102 0.377,3.24799 1.7359,7.98034 3.0198,10.51632 1.2839,2.53599 2.6273,6.3453 2.9855,8.46512 0.4784,2.83154 1.7333,4.78056 4.7297,7.34531 3.7206,3.18469 3.9473,3.64572 2.5833,5.25314 -2.0997,2.47449 -12.2174,18.95338 -14.5893,23.76206 -1.0852,2.2 -2.772,6.475 -3.7485,9.5 -0.9764,3.025 -2.7799,7.525 -4.0076,10 -4.3609,8.79134 -4.6091,8.12209 5.9592,16.06576 7.2784,5.47081 9.5496,7.73189 9.5496,9.50716 0,1.28108 -1.6097,5.41081 -3.5771,9.17718 -2.3351,4.47042 -3.7584,8.7597 -4.0995,12.35433 -0.5119,5.39554 -0.4491,5.56231 3.1208,8.28522 3.8981,2.97322 3.741,2.14722 2.6204,13.78089 -0.035,0.3688 -1.3815,0.95979 -2.9911,1.31331 -3.1647,0.69509 -6.0735,4.25061 -6.0735,7.42381 0,1.08791 -0.9106,3.52145 -2.0237,5.40786 -2.1822,3.69862 -1.6993,7.00966 1.3973,9.57956 1.1404,0.94646 1.4429,2.41902 1.0839,5.27615 -0.382,3.04067 0.021,4.6918 1.7305,7.09286 1.596,2.24127 2.2692,4.70941 2.3718,8.69542 0.079,3.07425 0.9269,7.08104 1.8937,8.95058 1.6835,3.25561 1.6724,3.65569 -0.2921,10.48732 -2.6118,9.08248 -3.882,16.17339 -4.6138,25.75617 -0.3214,4.20947 -1.0809,9.07772 -1.6876,10.81832 -0.9809,2.8137 -0.826,3.46219 1.3962,5.84642 3.3383,3.58173 4.2702,5.55518 6.2355,13.20505 0.9151,3.56215 2.9214,8.81302 4.4584,11.66861 2.0409,3.79153 2.4518,5.32355 1.5235,5.67976 -0.6991,0.26828 -1.4987,2.65689 -1.7768,5.30802 -0.2782,2.65113 -0.8303,6.07926 -1.227,7.61807 -0.8598,3.33545 0.418,4.57628 8.5302,8.28347 3.025,1.38238 7.2306,3.70816 9.3457,5.16839 2.1151,1.46023 5.0401,2.67641 6.5,2.70264 l 2.6543,0.0477 -0.279,10.44563 c -0.1534,5.74509 -0.4055,10.57224 -0.5603,10.727 -0.1547,0.15475 -1.1542,-0.29405 -2.221,-0.99734 z"
     id="YT"
     inkscape:label="#CA-YT" />
</svg>
