<svg xmlns="http://www.w3.org/2000/svg" version="1.1" width="128px" height="128px" style="shape-rendering:geometricPrecision; text-rendering:geometricPrecision; image-rendering:optimizeQuality; fill-rule:evenodd; clip-rule:evenodd" xmlns:xlink="http://www.w3.org/1999/xlink">
<g><path style="opacity:0.942" fill="#000000" d="M -0.5,22.5 C -0.5,22.1667 -0.5,21.8333 -0.5,21.5C 8.41613,20.5289 17.4161,20.1956 26.5,20.5C 26.1456,39.5044 25.9789,58.5044 26,77.5C 33.7358,58.7927 41.5691,40.126 49.5,21.5C 59.1437,20.5016 68.8104,20.1682 78.5,20.5C 77.7463,39.1711 77.2463,57.8377 77,76.5C 84.1376,58.087 91.4709,39.7536 99,21.5C 108.107,20.1834 117.273,20.1834 126.5,21.5C 112.772,49.9566 98.7718,78.2899 84.5,106.5C 74.8563,107.498 65.1896,107.832 55.5,107.5C 55.4821,88.6309 55.6488,70.2975 56,52.5C 48.9747,70.8808 41.1413,88.8808 32.5,106.5C 22.8563,107.498 13.1896,107.832 3.5,107.5C 2.50462,79.2726 1.17129,50.9393 -0.5,22.5 Z"/></g>
</svg>
