<?xml version="1.0" encoding="UTF-8" standalone="no"?>
<!-- Created with Inkscape (http://www.inkscape.org/) -->

<svg
   xmlns:dc="http://purl.org/dc/elements/1.1/"
   xmlns:cc="http://creativecommons.org/ns#"
   xmlns:rdf="http://www.w3.org/1999/02/22-rdf-syntax-ns#"
   xmlns:svg="http://www.w3.org/2000/svg"
   xmlns="http://www.w3.org/2000/svg"
   xmlns:sodipodi="http://sodipodi.sourceforge.net/DTD/sodipodi-0.dtd"
   xmlns:inkscape="http://www.inkscape.org/namespaces/inkscape"
   id="svg1412"
   sodipodi:version="0.32"
   inkscape:version="0.48.2 r9819"
   width="625"
   height="482"
   version="1.0"
   sodipodi:docname="afganistan.svg">
  <metadata
     id="metadata1417">
    <rdf:RDF>
      <cc:Work
         rdf:about="">
        <dc:format>image/svg+xml</dc:format>
        <dc:type
           rdf:resource="http://purl.org/dc/dcmitype/StillImage" />
      </cc:Work>
    </rdf:RDF>
  </metadata>
  <defs
     id="defs1415" />
  <sodipodi:namedview
     inkscape:window-height="716"
     inkscape:window-width="1366"
     inkscape:pageshadow="2"
     inkscape:pageopacity="0.0"
     borderopacity="1.0"
     bordercolor="#666666"
     pagecolor="#ffffff"
     id="base"
     inkscape:zoom="0.8"
     inkscape:cx="228.38094"
     inkscape:cy="228.48399"
     inkscape:window-x="-8"
     inkscape:window-y="-8"
     inkscape:current-layer="layer1"
     showgrid="false"
     showguides="true"
     inkscape:guide-bbox="true"
     inkscape:window-maximized="1">
    <sodipodi:guide
       orientation="0,1"
       position="681,-12"
       id="guide3354" />
    <sodipodi:guide
       orientation="0,1"
       position="407,-12"
       id="guide3356" />
  </sodipodi:namedview>
  <g
     inkscape:groupmode="layer"
     id="layer1"
     inkscape:label="Layer"
     style="display:inline">
    <path
       style="opacity:0.71000013;fill:#d9d9d9;fill-opacity:1;stroke:#001895;stroke-width:1.11111116;stroke-opacity:1"
       d="m 60.908319,294.43733 c -1.791931,-1.90742 -2.309591,-3.92205 -2.325085,-9.04878 -0.02865,-9.48017 -2.949646,-27.34608 -4.646994,-28.42273 -2.276879,-1.44426 -6.928311,-1.10308 -9.287376,0.68123 -4.258925,3.22129 -18.787895,0.69863 -22.89047,-3.97446 -1.290951,-1.47048 -3.330756,-2.10131 -6.794601,-2.10131 -7.4533607,0 -13.0729551,-5.06546 -9.5395461,-8.59886 0.7920424,-0.79205 1.1846118,-4.94682 1.0492573,-11.10486 -0.1879289,-8.54995 0.093611,-10.23328 2.148451,-12.84558 2.1320868,-2.71051 3.0672858,-3.00626 9.5062978,-3.00626 3.927868,0 7.141578,-0.26973 7.141578,-0.59939 0,-0.32966 -1.759639,-3.20466 -3.910308,-6.38889 -3.666414,-5.4284 -3.768445,-5.8119 -1.635855,-6.14859 2.689888,-0.42469 7.768385,-5.21899 7.768385,-7.33367 0,-0.81435 1.00612,-2.16662 2.235824,-3.00505 3.094771,-2.11005 7.04909,-16.6861 6.216123,-22.9133 -0.602692,-4.50568 -0.499313,-4.72222 2.254456,-4.72222 2.405222,0 2.782135,-0.39761 2.262083,-2.38629 -0.34852,-1.33274 0.330098,-4.25653 1.537077,-6.6224 1.188607,-2.32986 2.161104,-5.00603 2.161104,-5.94705 0,-2.73497 1.398038,-1.91093 5.555556,3.27459 3.185998,3.97379 4.943634,5.09817 9.724487,6.22091 4.450258,1.0451 6.503794,1.06598 8.650296,0.088 2.550528,-1.1621 3.134669,-0.91804 6.223949,2.60046 2.250346,2.563 4.408796,3.89493 6.349703,3.91825 2.772128,0.0333 2.821787,0.12522 0.867493,1.60536 -2.011788,1.52368 -2.000917,1.68658 0.3684,5.52022 1.342747,2.17261 2.754498,3.9502 3.137224,3.9502 0.382725,0 2.591945,-1.85147 4.909378,-4.11439 2.317433,-2.26291 4.213514,-3.55264 4.213514,-2.86606 0,0.68658 1.474638,1.57221 3.276973,1.96807 3.031147,0.66575 3.191387,0.94327 2.136054,3.6994 -0.627506,1.6388 -0.829535,5.49765 -0.448954,8.5752 0.570817,4.61587 1.353647,6.12352 4.471247,8.61111 2.07861,1.65856 4.58083,3.01556 5.56049,3.01556 2.35053,0 7.57411,2.74134 9.38783,4.92674 0.93895,1.13136 3.28615,1.73993 6.71074,1.73993 4.16902,0 6.1335,0.68882 9.42545,3.30494 2.28731,1.81772 5.88415,3.62864 7.99299,4.02426 6.13917,1.15171 14.61759,-0.0961 17.35677,-2.55447 2.11549,-1.89862 3.60242,-2.13905 10.5193,-1.7009 6.97399,0.44176 8.05555,0.7918 8.05555,2.60711 0,1.82206 -0.87362,2.09683 -6.66666,2.09683 l -6.66667,0 0,6.11112 0,6.11111 -8.82331,0 c -4.85282,0 -9.13233,-0.5 -9.51002,-1.11111 -0.37769,-0.61112 -2.91957,-1.11112 -5.64864,-1.11112 -4.39163,0 -5.09497,0.35119 -6.11954,3.05556 -0.6367,1.68056 -2.11484,4.0777 -3.28479,5.32698 -1.86642,1.99302 -2.00171,3.0422 -1.10372,8.55967 0.5629,3.45854 1.55342,7.27852 2.20118,8.48886 0.64775,1.21034 1.17773,3.48349 1.17773,5.05144 0,2.65472 -0.36306,2.85354 -5.27778,2.8902 -5.30992,0.0396 -7.4544,0.87596 -12.70188,4.95374 -2.8162,2.18845 -2.83123,2.28119 -1.23886,7.64328 l 1.61193,5.42794 -4.05348,4.15113 c -3.47018,3.55379 -4.96381,4.24629 -10.37951,4.81235 -3.479319,0.36367 -8.943769,1.22261 -12.143226,1.90877 -4.832552,1.0364 -5.820074,1.65514 -5.834208,3.65548 -0.03322,4.70207 -2.448327,6.19443 -14.619474,9.03376 -6.035572,1.408 -6.40858,1.36548 -8.613913,-0.98199 l 0,0 z"
       id="path3392"
       inkscape:connector-curvature="0" />
    <path
       style="opacity:0.71000013;fill:#d9d9d9;fill-opacity:1;stroke:#001895;stroke-width:1.11111116;stroke-opacity:1"
       d="m 140.82539,207.45605 c -0.91667,-0.33356 -3.01829,-1.86523 -4.67028,-3.40373 -2.17692,-2.02737 -4.62343,-2.94323 -8.88889,-3.3276 -3.36583,-0.30329 -6.8366,-1.36532 -8.1075,-2.48081 -3.01388,-2.64535 -6.65861,-4.44315 -9.09362,-4.48552 -3.30018,-0.0574 -7.92566,-4.97542 -8.73449,-9.28684 -1.04123,-5.55027 0.0593,-8.96119 3.37933,-10.47391 1.5547,-0.70837 3.34021,-2.63848 3.96778,-4.28914 1.36336,-3.58591 4.51845,-6.03946 9.87126,-7.67636 3.7018,-1.13202 3.9638,-1.52313 4.28185,-6.3919 0.29298,-4.48492 0.79084,-5.41987 3.68231,-6.9151 l 3.34352,-1.72901 -2.29341,-3.88705 c -1.26138,-2.13788 -2.29342,-4.10847 -2.29342,-4.37909 0,-0.27063 3.125,-0.49513 6.94445,-0.49889 3.98604,-0.004 8.30024,-0.71395 10.127,-1.66667 1.75041,-0.9129 4.65828,-1.65982 6.46194,-1.65982 1.80365,0 4.2465,-0.51759 5.42855,-1.15021 1.9339,-1.03499 2.14917,-0.76198 2.14917,2.7255 0,2.13164 -0.60802,5.21016 -1.35116,6.84117 -1.22415,2.68672 -1.06749,3.19166 1.66667,5.3718 2.11859,1.6893 3.01783,3.43449 3.01783,5.85682 0,3.73894 1.47917,4.79936 6.69453,4.79936 1.98414,0 3.8024,0.88937 4.83642,2.36565 1.19347,1.70392 2.45433,2.21323 4.50745,1.82075 2.73303,-0.52245 2.85048,-0.32961 2.85048,4.67976 l 0,5.22467 6.22638,1.3934 c 3.4245,0.76637 7.86912,2.36264 9.87692,3.54728 4.30341,2.53907 8.79981,8.96188 9.78822,13.98182 0.66245,3.36446 0.4661,3.63958 -3.42774,4.803 -2.27174,0.67876 -7.63044,1.52168 -11.90822,1.87314 -6.02924,0.49536 -8.12745,1.1349 -9.33318,2.84478 -1.38455,1.96347 -2.44257,2.13867 -9.63177,1.59495 -7.31802,-0.55346 -8.41811,-0.35868 -11.71602,2.07444 -2.87254,2.1193 -4.94071,2.66676 -9.81267,2.59753 -3.39517,-0.0482 -6.92303,-0.36062 -7.83969,-0.69417 z"
       id="path3394"
       inkscape:connector-curvature="0" />
    <path
       style="opacity:0.71000013;fill:#d9d9d9;fill-opacity:1;stroke:#001895;stroke-width:1.11111116;stroke-opacity:1"
       d="m 213.60316,173.02484 c -3.16624,-1.14008 -7.00085,-1.41718 -13.33333,-0.9635 -12.82063,0.91851 -13.63236,0.92634 -16.6821,0.1609 -2.48713,-0.62423 -2.76234,-1.25349 -2.76234,-6.31597 l 0,-5.62267 -3.27657,0.71965 c -2.5858,0.56794 -3.57914,0.23518 -4.71172,-1.57838 -1.08603,-1.73901 -2.58644,-2.29804 -6.16788,-2.29804 -4.649,0 -4.73272,-0.0674 -4.73272,-3.80824 0,-2.60853 -0.78758,-4.44622 -2.5,-5.83334 -2.15631,-1.74668 -2.45419,-2.90341 -2.16678,-8.41397 l 0.33323,-6.38889 3.83344,0 c 3.32355,0 3.83344,-0.36076 3.83344,-2.71221 0,-3.27608 1.76605,-4.53412 5.77475,-4.11363 2.05713,0.21578 3.44916,-0.40744 4.43461,-1.98539 0.88618,-1.419 2.60529,-2.29988 4.48839,-2.29988 2.66397,0 3.5484,-0.98555 6.95495,-7.75004 2.14657,-4.26253 3.90414,-9.38753 3.90571,-11.38889 0.002,-2.20524 1.57988,-6.254237 4.00571,-10.277311 3.46221,-5.741838 3.91505,-7.27907 3.35275,-11.381459 l -0.6501,-4.742999 5.49635,-2.785209 c 4.19901,-2.127802 7.20975,-2.785208 12.7555,-2.785208 3.99254,0 7.25729,0.375 7.25501,0.833334 -0.002,0.458333 -1.00229,2.470418 -2.22223,4.471299 -2.77127,4.545306 -3.03885,13.742073 -0.46205,15.880631 1.07611,0.893093 1.55277,2.520553 1.23109,4.203313 -0.28871,1.510273 -0.12111,4.040682 0.37243,5.623129 0.49354,1.58245 1.15811,4.75218 1.47683,7.04385 l 0.57948,4.16667 -4.95765,0 c -4.37764,0 -5.09757,0.35747 -6.1537,3.05555 -0.65783,1.68056 -1.45849,5.05556 -1.77924,7.5 -0.32076,2.44445 -1.55937,6.06691 -2.75248,8.04993 l -2.16928,3.60548 2.58714,0.96058 c 7.26989,2.69923 14.31916,3.68973 17.74933,2.49397 5.28312,-1.84171 8.41843,-1.48128 10.28403,1.18223 2.27831,3.25275 1.22233,4.46864 -3.16596,3.64539 -3.29067,-0.61733 -3.73306,-0.3854 -4.41007,2.31204 -0.41388,1.64901 -2.47898,4.62648 -4.58912,6.6166 -2.11014,1.99012 -3.83662,4.70005 -3.83662,6.02207 0,1.32202 -0.75,2.69148 -1.66667,3.04324 -2.35977,0.90553 -2.06574,5.15033 0.59067,8.52741 2.13724,2.71706 2.15202,2.9245 0.27778,3.89901 -1.31463,0.68355 -3.47244,0.49173 -6.42401,-0.57105 z"
       id="path3396"
       inkscape:connector-curvature="0" />
    <path
       style="opacity:0.71000013;fill:#d9d9d9;fill-opacity:1;stroke:#001895;stroke-width:1.11111116;stroke-opacity:1"
       d="m 214.95929,135.3396 c -5.15397,-1.58432 -5.26044,-1.70399 -3.61111,-4.05873 0.93469,-1.33445 1.69943,-3.99041 1.69943,-5.90213 0,-1.91172 0.54891,-5.05047 1.2198,-6.97499 1.14603,-3.28751 1.55156,-3.49914 6.70494,-3.49914 l 5.48513,0 -0.75175,-5.83333 c -0.41347,-3.20834 -1.18076,-6.99108 -1.7051,-8.40609 -0.58818,-1.587308 -0.49123,-3.436213 0.25313,-4.827052 0.97304,-1.818136 0.75809,-2.731584 -1.11095,-4.721085 -3.23872,-3.447456 -3.01661,-9.623665 0.56593,-15.736811 1.58585,-2.706043 3.5414,-4.920078 4.34568,-4.920078 2.79967,0 7.44319,-6.833184 6.94592,-10.221293 -0.71772,-4.890181 1.49098,-5.84569 7.34652,-3.178183 2.7628,1.258601 5.51241,2.288365 6.11024,2.288365 0.59783,0 3.29829,1.687948 6.00103,3.750996 3.60867,2.754555 5.39198,3.483546 6.7131,2.74421 1.16329,-0.651008 2.59799,-0.50783 4.05993,0.405168 2.61564,1.633497 3.1146,8.914306 1.00979,14.735045 -1.05375,2.914088 -0.88793,4.171739 1.0512,7.972746 2.13223,4.17951 2.17188,4.699093 0.53676,7.033552 -1.61504,2.305804 -1.61243,2.779853 0.0306,5.56135 0.98789,1.67237 1.47601,3.36083 1.08471,3.75214 -0.3913,0.3913 -4.75313,0.71829 -9.69294,0.72663 -11.79511,0.0199 -13.60077,0.58127 -14.37851,4.46997 -0.52862,2.6431 -1.34248,3.29796 -4.84143,3.89561 -13.37622,2.28479 -15.1794,3.80189 -16.2571,13.67787 -0.59283,5.43263 -0.4411,6.00188 1.75266,6.57556 2.30334,0.60234 2.31312,0.6627 0.23895,1.4744 -3.05425,1.19523 -4.77126,1.07055 -10.8066,-0.7847 l 0,0 z"
       id="path3398"
       inkscape:connector-curvature="0" />
    <path
       style="opacity:0.71000013;fill:#d9d9d9;fill-opacity:1;stroke:#001895;stroke-width:1.11111116;stroke-opacity:1"
       d="m 252.37035,185.75299 c -0.9847,-4.66781 -1.04259,-4.71432 -6.92113,-5.56032 -4.34028,-0.62463 -7.19775,-1.8935 -10.66819,-4.73727 -2.60704,-2.13627 -5.97642,-3.88412 -7.48751,-3.88412 -2.7232,0 -7.57924,-4.0521 -7.57924,-6.32446 0,-0.64967 0.75,-1.80367 1.66666,-2.56443 0.91667,-0.76077 1.66667,-2.34748 1.66667,-3.52603 0,-1.17855 1.70747,-3.74233 3.79439,-5.69729 2.08692,-1.95495 3.97676,-4.55446 4.19966,-5.77668 0.31776,-1.74234 1.14007,-2.15197 3.80786,-1.89688 5.12463,0.49001 6.93256,-2.26501 4.47772,-6.82338 -1.54369,-2.86645 -3.00683,-3.80995 -7.60056,-4.90116 -3.12888,-0.74324 -5.77357,-1.48247 -5.87709,-1.64274 -0.10353,-0.16027 0.0258,-2.68904 0.28745,-5.61949 0.58559,-6.55931 2.72397,-8.20838 12.81153,-9.87994 6.65792,-1.10325 7.26163,-1.43824 7.84455,-4.35286 0.74078,-3.70389 2.04413,-4.11151 14.59089,-4.56334 l 8.89195,-0.32021 -0.39349,4.1241 c -0.21642,2.26826 -1.0928,4.70448 -1.94751,5.41383 -2.16612,1.79773 -1.95979,2.99237 1.15647,6.69584 3.0881,3.66999 4.57638,11.21351 3.42697,17.36992 -0.53707,2.8766 -2.289,5.62287 -5.63604,8.83491 l -4.85673,4.66082 4.95746,0.74342 c 3.67059,0.55044 5.66784,0.27795 7.69412,-1.04971 1.50516,-0.98622 3.72567,-1.79313 4.93446,-1.79313 3.17365,0 9.88814,-4.24055 10.68377,-6.74735 1.18302,-3.72737 3.70093,-2.47733 4.07913,2.02512 0.47155,5.61378 -1.02499,8.84929 -4.87409,10.53779 -1.76364,0.77366 -3.48035,2.48833 -3.81492,3.81037 -0.33457,1.32204 -1.69501,2.67646 -3.02321,3.00982 -1.3282,0.33336 -3.34145,2.17461 -4.47389,4.09168 -1.13244,1.91706 -3.61712,4.14072 -5.52152,4.94146 -2.88662,1.21374 -3.65218,2.34982 -4.60275,6.83046 -0.96501,4.54871 -1.73683,5.66631 -5.02284,7.27313 -2.13545,1.04421 -5.18659,1.92257 -6.78032,1.95193 -2.52419,0.0465 -3.02568,-0.55337 -3.89068,-4.65381 l 0,0 z"
       id="path3400"
       inkscape:connector-curvature="0" />
    <path
       style="opacity:0.71000013;fill:#d9d9d9;fill-opacity:1;stroke:#001895;stroke-width:1.11111116;stroke-opacity:1"
       d="m 269.95934,150.73794 c 6.15707,-6.5255 6.89476,-21.34844 1.38812,-27.89271 -1.45666,-1.73115 -2.25054,-3.60099 -1.76416,-4.15519 0.48637,-0.55421 1.53522,-3.84325 2.33077,-7.30898 1.34336,-5.85221 1.28579,-6.52189 -0.80771,-9.3958 -2.07822,-2.852941 -2.11963,-3.299792 -0.53047,-5.725158 1.58758,-2.422941 1.53559,-3.017882 -0.6583,-7.533569 -1.8619,-3.832342 -2.14415,-5.528484 -1.29266,-7.768065 0.59914,-1.575856 1.08935,-5.803134 1.08935,-9.393951 0,-3.590818 0.45804,-6.811845 1.01787,-7.157838 0.55983,-0.345994 2.40222,-0.10275 4.0942,0.54054 2.471,0.939473 3.26543,0.83172 4.03734,-0.547606 0.63906,-1.14193 2.59414,-1.717226 5.83582,-1.717226 4.19029,0 5.42936,0.585083 8.82404,4.166666 2.17208,2.291667 3.95357,4.528827 3.95887,4.971467 0.005,0.44264 1.58243,1.618127 3.50475,2.612192 3.46493,1.791788 3.51868,1.777281 6.22448,-1.680093 2.12726,-2.718144 3.06129,-3.212017 4.23399,-2.23876 0.82754,0.6868 2.03873,0.918634 2.69152,0.515187 0.65279,-0.403447 2.57228,-0.429258 4.26553,-0.05736 2.76269,0.606788 3.03251,1.071359 2.62911,4.526774 -0.32956,2.822892 -0.0214,3.850591 1.15461,3.850591 2.46365,0 11.37191,10.000155 14.62239,16.414669 1.59801,3.153523 2.90548,6.05855 2.90548,6.45561 0,0.39707 -3.1977,0.37949 -7.106,-0.0391 -6.57883,-0.70454 -7.23775,-0.57287 -8.88213,1.77481 -0.97688,1.39469 -2.09244,4.92017 -2.47903,7.83439 -0.97594,7.35703 -2.40346,8.19845 -8.26274,4.87032 -5.79334,-3.29067 -8.2405,-2.44498 -9.30226,3.2147 -0.59653,3.17977 -1.23359,3.919 -3.37739,3.919 -2.72629,0 -9.47934,4.89271 -9.47934,6.86796 0,0.61317 1,2.38616 2.22222,3.93996 3.06686,3.89888 2.78563,5.77794 -1.06571,7.12052 -1.80837,0.6304 -3.55708,1.97939 -3.88603,2.99776 -0.73921,2.28844 -6.61155,5.72816 -9.86053,5.7758 -1.32547,0.0194 -3.38052,0.76944 -4.56676,1.66667 -1.18625,0.89723 -3.1548,1.63133 -4.37455,1.63133 -2.05495,0 -2.00612,-0.22428 0.66531,-3.05556 z"
       id="path3402"
       inkscape:connector-curvature="0" />
    <path
       style="opacity:0.71000013;fill:#d9d9d9;fill-opacity:1;stroke:#001895;stroke-width:1.11111116;stroke-opacity:1"
       d="m 289.99205,165.15267 c -3.55633,-0.57274 -3.09267,-3.0663 0.8758,-4.71009 4.67404,-1.93606 5.63388,-4.31605 5.96268,-14.78501 0.23026,-7.33172 -0.10968,-9.65898 -1.76046,-12.05201 -2.03232,-2.94612 -2.02641,-2.981 0.89347,-5.27778 1.61662,-1.27163 4.30798,-2.31206 5.98079,-2.31206 2.68921,0 3.1238,-0.51477 3.75218,-4.44444 0.80353,-5.02504 1.92283,-5.37471 7.10018,-2.21807 2.00088,1.21993 4.29838,2.21807 5.10557,2.21807 2.3654,0 5.14535,-3.81852 5.14535,-7.06763 0,-4.71984 2.93682,-10.717 5.22108,-10.66176 1.10063,0.0266 4.13691,0.46144 6.74729,0.96629 2.63629,0.50986 5.01163,0.48835 5.34335,-0.0484 1.56393,-2.53049 2.88458,-0.69439 2.18454,3.03716 -0.60574,3.22888 -0.20064,4.83517 2.09383,8.30235 1.56468,2.36439 4.34701,5.07568 6.18295,6.02508 3.9225,2.02841 4.29002,4.4148 0.95478,6.19976 -3.85837,2.06494 -7.403,6.85041 -8.16624,11.02491 -0.39105,2.13889 -1.96333,5.80749 -3.49395,8.15244 -2.66594,4.0843 -2.69783,4.32999 -0.75862,5.84413 1.91589,1.49593 1.83387,1.74553 -1.53127,4.65991 -3.22507,2.79308 -4.30958,3.06797 -11.66666,2.95716 -4.4611,-0.0672 -9.89315,-0.49595 -12.07123,-0.95281 -2.99844,-0.62893 -4.31316,-0.40529 -5.41382,0.92093 -0.79953,0.96337 -2.8296,1.75158 -4.51127,1.75158 -1.68168,0 -4.99545,0.6464 -7.36395,1.43645 -2.3685,0.79005 -5.43137,1.25527 -6.80637,1.03383 z"
       id="path3404"
       inkscape:connector-curvature="0" />
    <path
       style="opacity:0.71000013;fill:#d9d9d9;fill-opacity:1;stroke:#001895;stroke-width:1.11111116;stroke-opacity:1"
       d="m 304.27577,185.96825 c -1.25932,-4.20323 -1.15879,-4.71418 1.56411,-7.95017 2.30258,-2.73646 2.84922,-4.44535 2.61909,-8.18769 -0.32662,-5.31123 1.71897,-8.78238 4.48888,-7.61716 0.97153,0.4087 6.26643,0.87358 11.76643,1.03306 9.25416,0.26835 10.30899,0.0717 14.14294,-2.63696 4.09995,-2.89657 5.54032,-6.96149 3.0189,-8.51981 -0.78374,-0.48438 -0.62984,-1.55066 0.46498,-3.22158 0.90006,-1.37366 2.22057,-4.70236 2.93448,-7.39711 1.29496,-4.888 5.93758,-11.01067 8.34904,-11.01067 0.6998,0 1.79064,-1.68868 2.42408,-3.75263 1.10343,-3.5953 0.99648,-3.82666 -2.55094,-5.51831 -4.8281,-2.30235 -9.81376,-9.70518 -8.76393,-13.01288 0.72928,-2.29776 1.26802,-2.40377 9.72762,-1.91405 8.31184,0.48117 9.17668,0.76588 12.03134,3.9608 1.95416,2.18708 4.62174,3.72246 7.31529,4.21044 5.13991,0.9312 10.02493,3.2579 13.48177,6.42128 l 2.57557,2.35694 6.51602,-3.41722 6.51602,-3.41721 0.6518,2.59698 c 0.35849,1.42834 1.39227,2.59698 2.2973,2.59698 1.15135,0 1.64549,1.21242 1.64549,4.03735 0,3.38682 0.91538,4.93839 5.68103,9.62946 l 5.68101,5.59212 -4.53075,3.76348 c -2.95478,2.45441 -4.76308,5.00196 -5.19869,7.32397 -0.75499,4.02445 -6.53335,8.5425 -10.92541,8.5425 -1.46152,0 -3.27975,0.75 -4.04052,1.66667 -0.76077,0.91667 -2.74738,1.66667 -4.41469,1.66667 -4.84318,0 -9.59763,2.11643 -11.11229,4.9466 -1.0383,1.94009 -2.73403,2.81452 -6.54819,3.3767 -3.46349,0.51049 -7.0395,2.18081 -10.93271,5.10655 -5.68842,4.27485 -5.94987,4.34872 -15.55556,4.395 -11.73041,0.0565 -21.21646,2.05809 -22.7512,4.80052 -0.89599,1.60104 -1.94762,1.83869 -5.48895,1.24038 -3.14228,-0.53088 -5.14448,-0.2396 -7.08276,1.03041 -3.89494,2.55206 -4.49872,2.27805 -5.9966,-2.72141 l 0,0 z"
       id="path3406"
       inkscape:connector-curvature="0" />
    <path
       style="opacity:0.71000013;fill:#d9d9d9;fill-opacity:1;stroke:#001895;stroke-width:1.11111116;stroke-opacity:1"
       d="m 380.82539,113.7935 c -0.91667,-0.5924 -3.24722,-1.08474 -5.17901,-1.0941 -2.47861,-0.012 -4.29099,-0.94238 -6.15796,-3.16115 -3.40643,-4.04832 -8.41173,-5.74475 -16.9498,-5.74475 -3.81498,0 -7.60713,-0.6147 -8.56817,-1.38889 -0.94827,-0.76389 -3.29276,-4.350703 -5.20999,-7.970698 -3.18737,-6.018208 -3.33714,-6.746153 -1.74895,-8.50108 0.95531,-1.0556 3.45423,-2.241443 5.55318,-2.635207 2.55761,-0.479812 3.82527,-1.340627 3.84359,-2.610031 0.025,-1.731345 6.30285,-5.782985 8.96051,-5.782985 0.61531,0 2.21976,-1.264704 3.56545,-2.810453 2.00807,-2.306606 3.64188,-2.879826 9.11337,-3.197416 6.5411,-0.379674 6.72945,-0.308833 10,3.761351 1.83333,2.281572 4.83333,4.595409 6.66667,5.14186 5.22574,1.557606 5.1782,6.179539 -0.11342,11.026472 -4.09962,3.755107 -4.13022,3.844547 -2.08747,6.101759 2.55009,2.817816 3.07695,12.145398 0.73675,13.043418 -1.02807,0.39451 -1.31995,1.62367 -0.89277,3.75958 0.71441,3.57208 0.74354,3.53287 -1.53198,2.06232 z"
       id="path3408"
       inkscape:connector-curvature="0" />
    <path
       style="opacity:0.71000013;fill:#d9d9d9;fill-opacity:1;stroke:#001895;stroke-width:1.11111116;stroke-opacity:1"
       d="m 420.82539,140.59735 c 0,-0.61889 -2.5,-3.58613 -5.55556,-6.59387 -4.69484,-4.62137 -5.55555,-6.11023 -5.55555,-9.60999 0,-3.20692 -0.50142,-4.27249 -2.22223,-4.72249 -1.22222,-0.31962 -2.22988,-1.14781 -2.23923,-1.84043 -0.009,-0.69261 -0.45557,-1.95177 -0.99158,-2.79812 -0.7887,-1.24535 -2.18356,-0.8471 -7.31396,2.08821 l -6.33941,3.62704 -2.53608,-2.64377 c -3.14431,-3.27781 -4.65569,-8.75488 -2.4159,-8.75488 1.98799,0 1.83107,-12.32852 -0.18788,-14.761206 -1.14148,-1.375401 -0.77633,-2.267477 2.10931,-5.153121 3.22235,-3.222345 3.43127,-3.879883 2.72636,-8.580556 -0.68625,-4.576257 -0.45299,-5.414788 2.30786,-8.296495 3.04597,-3.179309 3.05584,-3.238059 1.19811,-7.13375 -2.58458,-5.419922 -2.34736,-8.57534 0.87205,-11.599824 2.30595,-2.166321 3.02317,-2.348303 4.48232,-1.137309 1.38405,1.148653 2.25277,1.165708 4.27412,0.08391 1.39536,-0.74677 4.50331,-1.197138 6.90657,-1.000817 3.89718,0.318357 4.34542,0.657247 4.14619,3.134724 -0.12285,1.527778 0.61718,5.889764 1.64451,9.693302 1.53358,5.677844 2.42266,7.145321 4.96768,8.199503 l 3.0998,1.283978 -2.73154,3.581232 c -1.867,2.447758 -3.06689,6.006827 -3.79106,11.244943 -1.00644,7.279741 -0.92636,7.805927 1.59834,10.502285 1.89614,2.025061 2.65787,4.125151 2.65787,7.327791 0,5.61776 2.52341,8.09498 9.59086,9.41532 2.87458,0.53703 5.48577,1.23569 5.80265,1.55257 0.31688,0.31688 0.54551,3.83283 0.50806,7.81323 -0.079,8.39638 -2.09629,11.60807 -7.29115,11.60807 -1.79706,0 -4.71956,1.03405 -6.49446,2.29788 -1.77489,1.26384 -3.22707,1.79152 -3.22707,1.17264 z"
       id="path3410"
       inkscape:connector-curvature="0" />
    <path
       style="opacity:0.71000013;fill:#d9d9d9;fill-opacity:1;stroke:#001895;stroke-width:1.11111116;stroke-opacity:1"
       d="m 444.6256,158.62392 c 2.11252,-5.50514 -6.88348,-14.93211 -10.994,-11.52069 -1.47277,1.2223 -1.6951,0.80605 -1.6951,-3.17369 0,-3.06312 0.48795,-4.58049 1.47298,-4.58049 0.81014,0 2.51245,-1.125 3.7829,-2.5 2.29138,-2.47993 3.1393,-8.01457 2.70429,-17.65162 -0.1777,-3.93654 -0.31819,-4.06027 -5.46017,-4.8088 -8.00527,-1.16535 -9.83577,-2.80989 -10.63453,-9.55424 -0.37717,-3.18456 -1.52192,-6.714052 -2.54389,-7.843319 -3.08173,-3.405272 -1.49106,-13.110112 3.09402,-18.876913 2.03253,-2.556377 3.19551,-4.82711 2.5844,-5.046073 -5.02096,-1.799023 -7.6323,-4.670156 -8.94317,-9.832868 -1.68548,-6.638086 -0.60283,-9.415412 3.70448,-9.503196 1.98013,-0.04036 3.924,-1.209229 5.65805,-3.402247 2.25119,-2.84705 2.53648,-4.110566 1.93045,-8.549634 -0.47863,-3.505871 -1.5239,-5.836506 -3.19714,-7.128602 -1.3673,-1.055856 -1.84983,-1.930856 -1.07229,-1.944445 2.63167,-0.04599 11.54645,-9.346893 14.35821,-14.9801 1.5374,-3.080089 4.34073,-7.225162 6.22963,-9.2112731 4.6087,-4.8458799 8.51838,-4.7239675 17.81644,0.5555556 6.16481,3.5004395 7.34343,4.6451585 7.37118,7.1592175 0.0198,1.791102 -0.88722,3.637128 -2.25913,4.598054 -1.83431,1.284804 -2.22272,2.573566 -1.94444,6.451893 0.33597,4.68258 0.48239,4.857679 4.33172,5.180351 2.57739,0.216051 4.48881,-0.274313 5.41383,-1.388889 0.78641,-0.947567 2.11861,-1.722849 2.96045,-1.722849 1.72245,0 2.07121,3.439448 0.51264,5.055556 -1.29477,1.342568 -3.99753,28.409498 -3.93317,39.388889 0.0477,8.132192 0.17713,8.51436 5.36368,15.833333 5.05524,7.133672 5.53296,7.5 9.78065,7.5 4.08011,0 5.40177,-0.863658 15.30301,-10 7.33505,-6.768399 11.69895,-10.003952 13.50383,-10.012229 8.23537,-0.03777 10.76747,-1.239445 13.41542,-6.366674 2.17377,-4.209067 3.6883,-5.505251 9.529,-8.155205 3.81945,-1.7329 6.94445,-3.699154 6.94445,-4.369453 0,-0.670299 2.625,-2.373159 5.83333,-3.784133 4.62937,-2.035922 7.15197,-2.453559 12.22222,-2.02349 6.5967,0.559545 8.96533,2.488962 3.05556,2.488962 -3.40677,0 -3.8293,0.816379 -2.66613,5.151198 0.461,1.717972 1.8091,2.560865 4.88156,3.052172 3.46828,0.554599 5.9911,-0.124275 13.7924,-3.711439 5.25124,-2.414606 9.54772,-4.841195 9.54772,-5.392421 0,-1.169847 17.3591,-2.822747 18.99927,-1.809072 2.21005,1.365893 -1.51771,3.820673 -5.80198,3.820673 -3.56765,0 -4.3084,0.382065 -4.3084,2.222222 0,1.62963 -0.74074,2.222222 -2.77778,2.222222 -4.72333,0 -2.69979,5.886378 2.47069,7.187096 l 3.08487,0.776048 -3.33377,1.40373 c -1.83356,0.772052 -4.01979,2.230344 -4.85826,3.240651 -0.83848,1.010305 -2.67239,1.83692 -4.07537,1.83692 -3.78647,0 -6.06593,1.137206 -6.06593,3.026244 0,1.280272 -0.59186,1.452455 -2.5,0.727297 -6.19803,-2.35546 -45.25479,0.1792 -47.03035,3.052121 -0.33044,0.534663 -3.9938,0.972116 -8.1408,0.972116 -6.10408,0 -7.91924,0.419063 -9.53141,2.200491 -1.09528,1.210271 -3.79777,2.50393 -6.00554,2.874799 -6.84158,1.149273 -7.90302,1.671524 -7.90302,3.888474 0,1.187571 -0.76051,2.147347 -1.70153,2.147347 -0.93585,0 -2.03654,0.875 -2.44597,1.944444 -1.17394,3.066321 -4.93906,5.633458 -9.39566,6.406168 -3.08329,0.53459 -3.93618,1.13423 -3.44264,2.42039 0.5569,1.45125 0.28026,1.5086 -1.82977,0.37935 -1.36722,-0.73172 -2.60954,-1.16489 -2.7607,-0.9626 -0.15116,0.20229 -2.14975,3.50138 -4.4413,7.3313 -2.33815,3.90779 -5.56361,7.68599 -7.35034,8.60995 -3.6556,1.89038 -8.85431,8.24804 -8.85431,10.82821 0,0.96109 -1,4.08034 -2.22222,6.93168 -1.22222,2.85133 -2.22222,6.37519 -2.22222,7.8308 0,1.47907 -0.94773,3.15377 -2.14838,3.79634 -1.18161,0.63238 -2.30661,2.52497 -2.5,4.20577 -0.3102,2.69593 -0.81777,3.05598 -4.30818,3.05598 -2.28222,0 -4.78437,0.82285 -5.9127,1.94444 -2.45579,2.44111 -3.3521,2.48083 -2.44164,0.10822 l 0,-2e-5 z"
       id="path3412"
       inkscape:connector-curvature="0" />
    <path
       style="opacity:0.71000013;fill:#d9d9d9;fill-opacity:1;stroke:#001895;stroke-width:1.11111116;stroke-opacity:1"
       d="m 454.91761,206.82424 c -1.93401,-0.64467 -3.21338,-2.03858 -3.63224,-3.95742 -0.35563,-1.62922 -1.52987,-5.71295 -2.60941,-9.07497 -2.71586,-8.45803 -1.61722,-10.61401 5.86689,-11.51319 3.14984,-0.37844 7.35933,-0.69241 9.35442,-0.69773 2.89499,-0.008 4.07202,-0.73881 5.82918,-3.62077 1.21096,-1.98611 2.20361,-4.95241 2.20589,-6.59179 0.004,-3.04102 0.57021,-3.41138 7.25515,-4.74773 1.92846,-0.38551 3.82362,-1.69316 4.44444,-3.06663 0.59529,-1.31699 1.81585,-2.62971 2.71236,-2.91715 1.31445,-0.42145 1.26068,0.041 -0.27778,2.38902 -2.48569,3.79365 -2.40675,5.09328 0.49718,8.18436 2.17968,2.32017 2.2457,2.74321 0.70478,4.51606 -0.93509,1.07585 -2.01907,3.30007 -2.40883,4.94272 -0.45932,1.93581 -2.27106,3.86476 -5.14924,5.48238 -2.44231,1.37266 -4.44057,3.11531 -4.44057,3.87256 0,2.36405 -5.64547,8.21398 -7.9269,8.21398 -1.85411,0 -2.0734,0.53514 -1.49114,3.63886 0.65189,3.47489 0.48819,3.69076 -3.63294,4.79075 -2.67154,0.71308 -5.453,0.77277 -7.30124,0.15669 l 0,0 z"
       id="path3414"
       inkscape:connector-curvature="0" />
    <path
       style="opacity:0.71000013;fill:#d9d9d9;fill-opacity:1;stroke:#001895;stroke-width:1.11111116;stroke-opacity:1"
       d="m 432.78615,184.31899 c -2.42098,-2.25092 -5.29831,-3.85883 -6.90535,-3.85883 -3.30539,0 -5.05541,-2.83675 -5.05541,-8.19471 0,-2.143 -0.5,-4.20538 -1.11111,-4.58306 -1.92373,-1.18893 -1.24643,-2.13423 3.82452,-5.33783 3.31597,-2.09488 5.33581,-4.34018 6.16526,-6.85344 1.59028,-4.81861 5.24787,-7.32185 8.54224,-5.84629 3.47386,1.55596 5.19831,6.29314 3.71299,10.19984 -1.17824,3.099 -1.15673,3.12017 2.44982,2.41156 2.00117,-0.39319 4.18464,-1.44587 4.85214,-2.33929 0.95084,-1.27266 2.03192,-1.38971 4.99266,-0.54059 2.07847,0.5961 3.90733,1.08381 4.06414,1.08381 0.15681,0 0.28511,-1.46428 0.28511,-3.25396 0,-3.14907 2.41208,-6.74604 4.52381,-6.74604 0.56746,0 1.03175,-1.4555 1.03175,-3.23446 0,-1.77895 1.06203,-6.00972 2.36007,-9.40169 l 2.36006,-6.16724 3.47327,1.79467 c 1.9103,0.98707 4.10732,2.59283 4.88227,3.56836 2.84658,3.58334 5.80714,10.59799 5.23447,12.40234 -0.37553,1.18319 0.42839,2.52307 2.21701,3.69501 3.6939,2.42034 3.54934,4.54337 -0.42135,6.18808 -1.77514,0.73529 -3.46097,2.22955 -3.74628,3.32059 -0.36171,1.38318 -2.07556,2.21716 -5.66136,2.75488 -4.79678,0.71932 -5.1426,0.99447 -5.1426,4.09161 0,1.82624 -0.73917,4.74981 -1.64259,6.49684 -1.55201,3.00126 -2.16281,3.21974 -11.07723,3.96231 -9.22345,0.76831 -9.48432,0.87007 -11.65328,4.54619 -2.99489,5.07596 -6.9791,5.02561 -12.55503,-0.15866 l 0,0 z"
       id="path3416"
       inkscape:connector-curvature="0" />
    <path
       style="opacity:0.71000013;fill:#d9d9d9;fill-opacity:1;stroke:#001895;stroke-width:1.11111116;stroke-opacity:1"
       d="m 412.79133,212.12683 c 0.31258,-2.44444 1.79385,-6.89307 3.29171,-9.88583 2.98538,-5.96489 2.88021,-11.663 -0.32947,-17.84966 -1.5466,-2.98108 -1.50987,-3.39887 0.4732,-5.38194 2.12588,-2.12588 2.17133,-2.11735 4.05763,0.76151 1.10352,1.68419 2.94043,2.91148 4.35767,2.91148 1.34749,0 4.49447,1.75 6.99328,3.88889 3.54391,3.03345 5.51703,3.88888 8.97001,3.88888 5.99042,0 6.54638,2.20522 1.81951,7.21715 -3.28985,3.48826 -3.82171,4.81433 -3.82171,9.52863 0,4.70081 -0.30883,5.47645 -2.18054,5.47645 -1.19929,0 -4.91327,1.02244 -8.25328,2.2721 -3.68475,1.37864 -8.01406,2.14326 -11.00955,1.94445 l -4.9368,-0.32766 0.56834,-4.44445 z"
       id="path3418"
       inkscape:connector-curvature="0" />
    <path
       style="opacity:0.71000013;fill:#d9d9d9;fill-opacity:1;stroke:#001895;stroke-width:1.11111116;stroke-opacity:1"
       d=""
       id="path3420"
       inkscape:connector-curvature="0" />
    <path
       style="opacity:0.71000013;fill:#d9d9d9;fill-opacity:1;stroke:#001895;stroke-width:1.11111116;stroke-opacity:1"
       d="m 403.70615,200.02262 c -0.34551,-1.28713 -0.63502,-4.29304 -0.64337,-6.6798 -0.0171,-4.89261 -4.42813,-11.76023 -7.57172,-11.78856 -4.17614,-0.0376 -4.90204,-1.5695 -2.99831,-6.32738 l 1.78908,-4.47136 8.30831,-0.75288 c 7.48326,-0.67811 8.65202,-0.50814 11.76934,1.71159 l 3.46103,2.46447 -3.32915,2.97459 -3.32915,2.9746 1.8948,3.77725 c 1.04215,2.07748 2.18642,5.31507 2.54285,7.19463 0.59889,3.15821 0.19626,3.71491 -5.30874,7.34024 -5.74549,3.7837 -5.97906,3.83984 -6.58497,1.58261 l 0,0 z"
       id="path3422"
       inkscape:connector-curvature="0" />
    <path
       style="opacity:0.71000013;fill:#d9d9d9;fill-opacity:1;stroke:#001895;stroke-width:1.11111116;stroke-opacity:1"
       d="m 414.92301,169.31474 c -2.58577,-2.03397 -3.83676,-2.20353 -11.28073,-1.52897 -5.61652,0.50895 -8.37245,0.37241 -8.37245,-0.41481 0,-2.87869 1.55627,-4.68857 4.03159,-4.68857 4.34681,0 11.52397,-5.37327 11.52397,-8.62757 0,-3.13228 6.77849,-10.24599 9.80133,-10.28603 1.02593,-0.0136 3.11533,-1.00247 4.64311,-2.19751 3.95902,-3.0968 4.44445,-2.81152 4.44445,2.61197 0,9.6289 -2.66449,13.94076 -11.50548,18.61899 l -4.28326,2.26649 2.52838,2.69134 c 3.26475,3.47517 2.2372,4.51866 -1.53091,1.55467 l 0,0 z"
       id="path3424"
       inkscape:connector-curvature="0" />
    <path
       style="opacity:0.71000013;fill:#d9d9d9;fill-opacity:1;stroke:#001895;stroke-width:1.11111116;stroke-opacity:1"
       d="m 394.03047,201.1521 c -3.32781,-5.48909 -10.48268,-9.58082 -16.75317,-9.58082 -4.29618,0 -7.08469,2.30391 -6.05048,4.99901 0.50995,1.32892 -0.59047,5.46608 -2.1556,8.10425 -0.1062,0.17902 -2.72184,-0.63536 -5.81252,-1.80973 -4.72323,-1.79468 -6.35322,-1.93934 -10.2206,-0.90708 -4.29445,1.14625 -4.74212,1.04469 -6.71557,-1.52361 -1.16292,-1.51345 -2.12551,-4.19272 -2.1391,-5.95392 -0.0136,-1.7612 -1.06549,-4.8862 -2.33755,-6.94444 l -2.31285,-3.74226 8.42084,0 c 8.23328,0 8.57211,-0.11136 15.21285,-5 5.28634,-3.89158 7.74386,-5 11.0857,-5 3.64696,0 4.55331,-0.50207 6.01741,-3.33334 0.94805,-1.83333 2.08589,-3.3551 2.52853,-3.38172 0.44264,-0.0266 2.9298,-0.45948 5.52703,-0.96192 5.70937,-1.10449 5.85142,-0.49527 1.94444,8.33911 -1.52778,3.45457 -2.77778,6.44876 -2.77778,6.65374 0,0.20499 2.02836,0.98041 4.50747,1.72317 6.1616,1.84606 8.36553,5.43206 9.29734,15.12762 0.75978,7.90551 0.72638,8.05491 -1.79308,8.02044 -1.81775,-0.0249 -3.41572,-1.43458 -5.47331,-4.8285 l 0,0 z"
       id="path3426"
       inkscape:connector-curvature="0" />
    <path
       style="opacity:0.71000013;fill:#d9d9d9;fill-opacity:1;stroke:#001895;stroke-width:1.11111116;stroke-opacity:1"
       d=""
       id="path3428"
       inkscape:connector-curvature="0" />
    <path
       style="opacity:0.71000013;fill:#d9d9d9;fill-opacity:1;stroke:#001895;stroke-width:1.11111116;stroke-opacity:1"
       d="m 435.82539,237.74428 c -0.61111,-0.25548 -4.61111,-1.02832 -8.88889,-1.71741 -7.49124,-1.20673 -7.90058,-1.43731 -11.11111,-6.25874 -3.54713,-5.32691 -4.55331,-5.54433 -13.87638,-2.99849 -2.49285,0.68072 -2.38339,0.42318 1.11111,-2.61424 5.96085,-5.18117 8.40596,-6.12416 13.78716,-5.3172 3.48401,0.52246 7.10299,0.0341 13.01325,-1.75597 4.50289,-1.36384 8.84992,-2.66056 9.66005,-2.88161 1.00178,-0.27334 1.37648,-1.971 1.17133,-5.30705 -0.23576,-3.83375 0.30837,-5.69617 2.49119,-8.52667 3.33222,-4.32098 4.88125,-3.72235 5.8372,2.25579 0.8078,5.05174 3.03709,6.72636 8.95426,6.72636 2.17907,0 3.96194,0.46164 3.96194,1.02586 0,0.56423 1.36355,2.64636 3.03011,4.62695 2.38807,2.83806 3.06879,4.85788 3.21263,9.53245 0.17951,5.8342 0.10293,5.98505 -4.67488,9.20956 -4.32184,2.91677 -6.05419,3.34362 -15.71262,3.87156 -5.97038,0.32635 -11.35524,0.38433 -11.96635,0.12885 z"
       id="path3430"
       inkscape:connector-curvature="0" />
    <path
       style="opacity:0.71000013;fill:#d9d9d9;fill-opacity:1;stroke:#001895;stroke-width:1.11111116;stroke-opacity:1"
       d="m 377.49205,276.81273 0,-6.00082 -4.39779,-1.31761 c -5.10385,-1.52915 -6.05072,-2.65142 -5.17634,-6.13522 0.58055,-2.31308 1.13811,-2.49025 6.49349,-2.0634 l 5.85842,0.46695 2.00998,-4.98802 c 1.37013,-3.40016 3.0038,-5.39968 5.1319,-6.28117 1.71706,-0.71123 4.75242,-2.97538 6.74523,-5.03144 2.86532,-2.95626 3.499,-4.38857 3.02911,-6.84665 -0.87453,-4.5748 2.53206,-8.66748 8.63727,-10.37683 2.78619,-0.78008 5.21337,-1.22434 5.39375,-0.98723 3.33493,4.38377 4.99179,7.62852 4.15836,8.14361 -0.57516,0.35547 -1.36542,2.10181 -1.75615,3.88076 -0.55944,2.54712 0.0288,4.25491 2.76821,8.03654 l 3.47862,4.80209 -3.29608,2.94504 c -1.82209,1.62804 -5.36731,3.29498 -7.92771,3.72755 -3.60418,0.60892 -4.89239,1.4359 -5.80708,3.7279 -0.64649,1.61996 -1.69538,4.06611 -2.33087,5.43589 -0.80382,1.73259 -0.79658,3.27813 0.0238,5.07859 1.09465,2.40249 0.92848,2.59672 -2.31732,2.70856 -6.30329,0.21721 -12.3361,1.63766 -15.1632,3.57023 -5.62401,3.84451 -5.55556,3.87526 -5.55556,-2.49532 l 0,0 z"
       id="path3432"
       inkscape:connector-curvature="0" />
    <path
       style="opacity:0.71000013;fill:#d9d9d9;fill-opacity:1;stroke:#001895;stroke-width:1.11111116;stroke-opacity:1"
       d="m 379.99205,222.25695 c -2.59722,-1.29247 -4.72222,-2.93378 -4.72222,-3.64735 0,-0.71358 -1.22248,-2.21412 -2.71663,-3.33454 -2.71329,-2.03462 -2.71447,-2.04461 -0.96323,-8.14823 0.96437,-3.36111 1.81185,-7.61111 1.8833,-9.44444 0.10847,-2.78348 0.64112,-3.39203 3.22905,-3.68912 4.40564,-0.50578 12.96643,3.95495 15.10673,7.87158 3.76455,6.88891 4.71954,7.52201 9.01634,5.97731 2.13889,-0.76893 5.47542,-2.99444 7.41453,-4.94558 1.9391,-1.95114 4.0641,-3.54753 4.72222,-3.54753 1.52508,0 1.51828,0.0698 -0.47009,4.82862 -0.91666,2.19389 -1.66666,5.73736 -1.66666,7.87438 0,2.90762 -0.62918,4.20912 -2.5,5.17145 -1.375,0.70728 -3.87862,2.57188 -5.56359,4.14356 -4.22364,3.93964 -15.73703,4.3896 -22.76975,0.88989 z"
       id="path3434"
       inkscape:connector-curvature="0" />
    <path
       style="opacity:0.71000013;fill:#d9d9d9;fill-opacity:1;stroke:#001895;stroke-width:1.11111116;stroke-opacity:1"
       d="m 367.99741,255.67884 c -1.95963,-3.08391 -2.11258,-4.20943 -1.11112,-8.17672 0.63873,-2.53031 2.32378,-5.53481 3.74457,-6.67668 l 2.58326,-2.07613 -2.29325,-2.91539 -2.29325,-2.9154 2.86054,-5.11806 c 1.5733,-2.81494 3.4428,-5.1162 4.15444,-5.11392 0.71165,0.002 2.98491,1.03508 5.05171,2.2951 2.80578,1.71055 4.78887,2.11675 7.82763,1.60336 2.2384,-0.37818 5.45162,-0.16223 7.14049,0.47987 2.91619,1.10874 2.98355,1.29184 1.33903,3.63972 -0.95239,1.35974 -1.73163,4.26746 -1.73163,6.46159 0,4.37026 -3.26344,8.27154 -9.5845,11.45779 -2.25173,1.13502 -4.10486,3.32903 -5.26878,6.23795 -1.6582,4.14424 -2.11448,4.48354 -5.97106,4.4401 -3.46642,-0.039 -4.56163,-0.65444 -6.44808,-3.62318 l 0,0 z"
       id="path3436"
       inkscape:connector-curvature="0" />
    <path
       style="opacity:0.71000013;fill:#d9d9d9;fill-opacity:1;stroke:#001895;stroke-width:1.11111116;stroke-opacity:1"
       d="m 356.05743,254.54613 c -0.25019,-0.7195 0.22792,-3.2678 1.06247,-5.66287 1.41044,-4.04783 1.34933,-4.53354 -0.86718,-6.89292 l -2.38454,-2.53823 -4.44772,2.26906 c -4.42262,2.25625 -4.46006,2.25672 -6.63294,0.0839 -1.84617,-1.84618 -1.97754,-2.57326 -0.84672,-4.68623 1.18855,-2.22083 0.91628,-2.92322 -2.43044,-6.26995 -3.71013,-3.71013 -3.8367,-3.74549 -8.11029,-2.26593 -3.89752,1.34935 -4.87887,1.27591 -9.59938,-0.71845 -2.89192,-1.2218 -5.47753,-3.06082 -5.74581,-4.0867 -0.35526,-1.35853 -1.36502,-1.73649 -3.71698,-1.3913 -2.25587,0.3311 -3.84039,-0.2014 -5.25691,-1.76663 -1.99643,-2.20604 -1.92521,-2.29233 4.61909,-5.59588 3.65574,-1.84541 7.63018,-4.70526 8.8321,-6.35523 2.10915,-2.8954 2.36308,-2.95517 7.28683,-1.71536 7.99327,2.01273 9.39864,1.73003 10.23063,-2.05799 0.40378,-1.83842 1.66414,-3.84029 2.80079,-4.44861 1.70101,-0.91035 2.42148,-0.50531 4.07239,2.28945 1.50757,2.55213 2.55869,3.23235 4.23194,2.7387 6.28466,-1.85415 9.7666,-1.8618 14.55795,-0.032 4.91251,1.87611 5.06493,2.07213 4.39364,5.65041 -0.59147,3.15281 -0.2699,3.98569 2.15133,5.57214 3.26836,2.14151 3.04599,4.11562 -1.20699,10.7153 -3.16684,4.91422 -3.27627,6.12309 -0.80177,8.85738 1.75978,1.94453 1.72759,2.16243 -0.55555,3.7616 -1.33295,0.93363 -2.42354,2.48615 -2.42354,3.45004 0,4.95733 -2.65486,10.27712 -5.64988,11.32119 -2.23081,0.77766 -3.23597,0.71421 -3.56252,-0.22487 l 0,0 z"
       id="path3438"
       inkscape:connector-curvature="0" />
    <path
       style="opacity:0.71000013;fill:#d9d9d9;fill-opacity:1;stroke:#001895;stroke-width:1.11111116;stroke-opacity:1"
       d="m 275.70625,237.49602 c 0.3602,-1.13834 -0.32552,-3.50536 -1.55546,-5.36919 -1.41134,-2.13874 -2.20227,-5.22477 -2.20697,-8.61111 -0.007,-4.78896 0.23256,-5.27778 2.5827,-5.27778 3.03524,0 4.72406,-2.90612 5.67773,-9.77022 0.64357,-4.63217 0.5496,-4.81751 -3.24695,-6.4038 -2.15033,-0.89847 -3.90969,-2.28195 -3.90969,-3.0744 0,-0.79246 -1.56876,-3.04539 -3.48614,-5.00653 -3.17565,-3.24813 -3.33486,-3.73698 -1.78763,-5.48871 0.93418,-1.05765 2.04715,-4.04958 2.47328,-6.64872 0.61876,-3.77413 1.32313,-4.86334 3.49799,-5.4092 1.49777,-0.37591 4.03116,-2.39828 5.62976,-4.49415 3.87265,-5.0773 5.96339,-6.0704 10.21361,-4.85146 2.48515,0.71274 4.93349,0.50994 8.49517,-0.70364 2.75209,-0.93773 5.74483,-1.42061 6.65054,-1.07305 2.76758,1.06202 2.03487,7.84768 -1.27169,11.77731 l -2.91844,3.46837 1.7649,6.20409 c 0.9707,3.41224 2.01241,6.45157 2.3149,6.75407 0.3025,0.3025 2.48737,-0.45982 4.85526,-1.69404 3.18056,-1.6578 5.61789,-2.09608 9.32985,-1.67768 4.28144,0.48258 5.10673,0.2522 5.58001,-1.55763 0.71007,-2.71531 10.03312,-5.15042 12.44962,-3.25175 2.03256,1.59701 6.19948,8.59799 6.20486,10.42496 0.002,0.77699 -1.21206,1.96685 -2.69853,2.64414 -1.48647,0.67728 -3.29713,2.66656 -4.02369,4.42062 -1.52163,3.67353 -1.93407,3.74002 -9.31358,1.50147 -5.76789,-1.74967 -5.70574,-1.77227 -8.48499,3.08445 -0.61445,1.07375 -4.60891,3.71068 -8.87658,5.85984 -8.25298,4.15613 -8.28005,4.22465 -3.88634,9.83615 1.21307,1.54929 2.4902,1.92238 4.91826,1.43677 6.40843,-1.28169 4.7749,2.07978 -3.55165,7.30854 -8.67898,5.45007 -11.61242,6.32609 -23.90486,7.13873 -7.53033,0.49782 -8.10978,0.38244 -7.51525,-1.49645 l 0,0 z"
       id="path3440"
       inkscape:connector-curvature="0" />
    <path
       style="opacity:0.71000013;fill:#d9d9d9;fill-opacity:1;stroke:#001895;stroke-width:1.11111116;stroke-opacity:1"
       d="m 165.51706,277.61938 c -1.45379,-1.01827 -2.46945,-2.89471 -2.46945,-4.56233 0,-1.55796 -1.59645,-4.90461 -3.54766,-7.43699 -1.95121,-2.53239 -3.70643,-4.81789 -3.90048,-5.07889 -0.19405,-0.26101 -1.7226,0.80316 -3.39678,2.36481 -2.08483,1.94469 -4.72878,3.01647 -8.39093,3.40142 -3.31097,0.34804 -6.29983,1.45722 -7.84939,2.91297 -2.02044,1.8981 -3.89932,2.35091 -9.75494,2.35091 l -7.25252,0 -1.40742,-4.69758 c -1.39253,-4.64785 -1.36837,-4.73019 2.28215,-7.77778 2.4894,-2.07824 4.96825,-3.08514 7.62044,-3.09537 7.31994,-0.0282 8.93086,-0.96073 8.93086,-5.1696 0,-2.09796 -0.70347,-5.17485 -1.56328,-6.83753 -2.648,-5.12067 -2.54951,-11.63627 0.22929,-15.16894 1.34481,-1.70965 2.4451,-3.84353 2.4451,-4.74198 0,-1.29994 0.96434,-1.47876 4.72223,-0.87564 2.59722,0.41684 9.34722,1.00366 15,1.30406 l 10.27777,0.54618 0,-6.18736 0,-6.18735 6.11111,0 6.11112,0 0,-3.71668 c 0,-4.68799 2.88902,-7.39884 7.86526,-7.38019 2.09077,0.008 7.45381,-0.84005 11.91787,-1.88419 l 8.11647,-1.89843 -0.72317,-4.5047 c -0.96892,-6.03546 -5.55912,-13.76573 -9.50784,-16.01196 -1.76555,-1.00434 -3.21326,-2.20108 -3.21712,-2.65941 -0.0119,-1.41628 13.59992,-0.89486 18.93774,0.72543 4.26363,1.29423 5.48239,1.29852 7.77777,0.0274 4.38629,-2.42909 7.74178,-1.83752 12.7212,2.24275 3.37703,2.76721 6.23103,4.03558 10.29305,4.57443 5.56275,0.73793 5.63339,0.79708 6.88444,5.76549 l 1.26404,5.01991 5.92995,-0.61203 c 5.57766,-0.57566 6.13557,-0.39989 9.3907,2.95855 1.90341,1.96382 3.46075,4.17987 3.46075,4.92455 0,0.74468 1.70687,2.16792 3.79305,3.16275 3.5026,1.67027 3.74718,2.11559 3.19401,5.81536 -0.82157,5.49492 -2.56391,6.9823 -8.24062,7.03481 -8.07141,0.0747 -21.3696,2.24119 -23.94971,3.90187 -1.85933,1.19675 -2.96563,1.27209 -4.73948,0.32275 -1.28052,-0.68531 -5.88699,-1.09276 -10.31411,-0.9123 l -8.00013,0.32611 -0.95814,4.06627 c -0.65109,2.76317 -0.45587,6.03833 0.60916,10.22002 l 1.56731,6.15375 -3.14734,1.30367 c -2.38512,0.98795 -3.14734,2.04949 -3.14734,4.38332 0,1.69382 0.715,3.35403 1.58888,3.68937 2.59978,0.99763 3.45241,10.21832 1.25499,13.572 -2.46486,3.76185 -8.20636,7.15786 -12.11021,7.163 -1.91023,0.003 -3.93925,0.97238 -5.1422,2.45796 -1.70546,2.10616 -2.91136,2.41028 -8.51144,2.14659 -10.45319,-0.49221 -11.34039,-0.63777 -12.80262,-2.1004 -2.34332,-2.34395 -4.17419,-1.56452 -5.87246,2.5 -1.31401,3.14488 -2.22615,3.88889 -4.76768,3.88889 -1.72854,0 -4.25405,-0.77835 -5.61225,-1.72967 z"
       id="path3442"
       inkscape:connector-curvature="0" />
    <path
       style="opacity:0.71000013;fill:#d9d9d9;fill-opacity:1;stroke:#001895;stroke-width:1.11111116;stroke-opacity:1"
       d="m 224.71428,329.38732 c -1.22223,-0.54626 -5.09723,-1.02833 -8.61112,-1.07128 -6.9098,-0.0845 -7.71655,-1.02146 -4.64956,-5.4002 1.5898,-2.26977 1.54543,-3.43389 -0.51623,-13.54242 l -2.25554,-11.05919 4.87146,-9.11727 4.87146,-9.11726 -2.65051,-3.90057 -2.65051,-3.90057 3.11605,-1.89499 c 1.71382,-1.04224 4.24743,-3.32637 5.63024,-5.07586 2.17518,-2.75197 2.41911,-3.9986 1.80903,-9.24523 -0.38783,-3.33539 -1.55693,-7.00555 -2.59799,-8.15591 -1.78797,-1.97568 -1.77416,-2.17834 0.24922,-3.65787 1.17813,-0.86147 2.7965,-1.56631 3.59636,-1.56631 1.79193,0 1.80886,0.45234 -0.28955,-7.73856 -0.9751,-3.80619 -1.426,-8.25411 -1.02283,-10.08974 0.69886,-3.18189 0.92166,-3.28281 7.24713,-3.28281 3.58936,0 7.83327,0.59558 9.43092,1.32352 2.37874,1.08382 3.54527,0.99115 6.44117,-0.51171 5.19104,-2.69396 16.51676,-4.43555 20.06697,-3.08576 2.51522,0.95628 2.91483,1.75759 2.92115,5.85756 0.004,2.8014 0.87861,6.07139 2.13142,7.97176 1.57913,2.39538 1.86938,3.89201 1.13129,5.83333 -0.99181,2.60866 -0.98368,2.6113 8.06747,2.6113 4.98315,0 10.7235,-0.60143 12.75633,-1.33651 3.57399,-1.29238 3.86058,-1.17505 8.67769,3.55259 l 4.98164,4.88911 -2.4036,2.55851 c -1.33677,1.42293 -3.71115,2.55852 -5.34956,2.55852 -1.70574,0 -4.04459,1.16942 -5.55556,2.77778 -1.43527,1.52777 -3.71894,2.77777 -5.07481,2.77777 -2.49823,0 -3.81408,1.89588 -3.81408,5.49532 0,1.08913 -2,3.36624 -4.44444,5.06024 -4.55143,3.15414 -5.14773,4.39109 -3.42695,7.1088 0.74194,1.17178 2.64788,1.40231 7.76076,0.93869 5.55445,-0.50366 6.7773,-0.31406 6.7773,1.05078 0,0.91593 -1.01547,1.93088 -2.2566,2.25544 -2.82373,0.73842 -8.11604,9.56365 -7.33014,12.22341 0.61536,2.08259 -7.65065,12.39829 -8.36688,10.44158 -0.87372,-2.38695 -4.50907,-1.55157 -9.07715,2.08586 -3.56481,2.83856 -5.21567,5.15369 -6.14039,8.61111 -1.03711,3.87762 -1.73854,4.72877 -3.89696,4.72877 -1.44771,0 -3.88345,0.98424 -5.41275,2.18719 -2.69899,2.12302 -15.80494,7.55924 -20.29691,8.41895 -1.22222,0.23392 -3.22222,-0.0217 -4.44444,-0.56787 l 0,0 z"
       id="path3444"
       inkscape:connector-curvature="0" />
    <path
       style="opacity:0.71000013;fill:#d9d9d9;fill-opacity:1;stroke:#001895;stroke-width:1.11111116;stroke-opacity:1"
       d="m 152.57093,476.14335 c -0.3343,-0.54091 -5.23881,-2.13041 -10.8989,-3.53221 -9.96632,-2.46829 -10.93871,-2.50922 -30.81246,-1.29714 -11.286757,0.68835 -20.653226,1.11971 -20.814379,0.95856 -0.161153,-0.16115 -0.62431,-5.34848 -1.029239,-11.52741 l -0.736234,-11.2344 11.067211,-19.24751 c 12.583561,-21.88468 15.922901,-29.34791 15.922901,-35.58672 0,-2.72042 1.10517,-6.26202 2.92093,-9.36039 2.41326,-4.11791 3.01178,-6.75941 3.44364,-15.19786 0.44717,-8.73791 1.26632,-12.16133 5.66927,-23.69346 l 5.14658,-13.4798 13.35424,-7.00544 c 15.37896,-8.06758 24.23159,-14.93731 23.24689,-18.03982 -0.81073,-2.5544 3.89301,-9.64392 6.40535,-9.65422 3.80765,-0.0156 5.39884,-1.47166 6.04858,-5.53495 0.54081,-3.38203 1.40477,-4.52532 4.55478,-6.02746 3.6006,-1.71701 3.83494,-2.13329 3.17656,-5.64278 l -0.71083,-3.78901 6.74347,0.0956 c 5.52921,0.0784 7.21892,-0.35106 9.38399,-2.38504 3.47643,-3.26594 6.26482,-2.57386 8.77522,2.17804 l 2.04755,3.87577 -4.58502,8.27759 -4.58502,8.27759 2.12795,11.16685 c 1.82868,9.59639 1.91208,11.47509 0.59303,13.35853 -0.84421,1.20542 -1.53494,3.7692 -1.53494,5.69729 0,1.92808 -0.73676,4.11707 -1.63726,4.86441 -0.90049,0.74735 -1.97653,3.16721 -2.39117,5.37746 -0.52632,2.80553 -2.55566,5.8204 -6.72246,9.98721 -3.28271,3.28271 -6.70281,7.72587 -7.60023,9.8737 -2.15206,5.15061 -19.42665,100.5933 -19.42665,107.33291 l 0,5.2309 -4.90123,0 c -4.08178,0 -5.37018,0.55732 -7.70605,3.33334 -3.0099,3.57706 -3.59143,3.87831 -4.53607,2.34985 l 0,0 z"
       id="path3446"
       inkscape:connector-curvature="0" />
    <path
       style="opacity:0.71000013;fill:#d9d9d9;fill-opacity:1;stroke:#001895;stroke-width:1.11111116;stroke-opacity:1"
       d="m 27.819488,363.42699 c -15.466139,-3.2518 -15.79783,-3.383 -16.487169,-6.52154 -0.414452,-1.88699 -0.152732,-3.8666 0.637,-4.81817 0.947834,-1.14207 1.111942,-4.05415 0.560246,-9.94156 -0.596866,-6.36945 -0.355995,-9.60367 1.024866,-13.76106 1.802856,-5.42789 1.798809,-5.45977 -3.239744,-25.52366 -6.7969451,-27.06592 -6.8357568,-26.57653 2.911358,-36.71063 l 7.885603,-8.19868 5.696648,1.36661 c 5.459465,1.3097 15.020815,1.07639 22.577257,-0.55093 3.13108,-0.67429 3.628368,-0.45108 4.126025,1.85194 1.47819,6.84066 2.869364,19.29087 2.869364,25.67915 0,6.35549 0.328289,7.3938 3.210948,10.15556 l 3.210949,3.07629 10.894373,-2.89966 c 5.991906,-1.5948 10.962155,-3.01059 11.044996,-3.14618 0.08284,-0.13559 0.624072,-1.97878 1.202733,-4.09599 0.98499,-3.60387 1.475487,-3.93748 7.6885,-5.22929 3.650015,-0.75891 8.659919,-1.40165 11.133119,-1.42832 3.7504,-0.0404 5.21701,-0.78613 8.8366,-4.49293 4.29072,-4.39409 4.43307,-4.44444 12.5651,-4.44444 7.15252,0 8.65576,-0.36227 11.52643,-2.77778 2.3491,-1.97663 4.6179,-2.77778 7.86655,-2.77778 3.06348,0 5.35777,-0.74442 6.97409,-2.26288 l 2.40872,-2.26288 2.94067,3.85541 c 1.61737,2.12048 2.94067,5.28097 2.94067,7.02332 0,4.01665 4.63581,6.98037 10.9186,6.98037 4.13279,0 4.56179,-0.29444 5.77201,-3.96145 1.24633,-3.77643 1.40411,-3.87392 3.37812,-2.08746 1.1389,1.03068 2.83934,1.57903 3.77877,1.21853 0.95819,-0.36768 1.71471,-0.061 1.72322,0.69858 0.009,0.74471 0.29665,2.40249 0.64068,3.68396 0.49205,1.83285 -0.10678,2.63329 -2.80708,3.75177 -2.24686,0.93067 -3.64248,2.42873 -4.04019,4.33672 -0.97148,4.66057 -2.1127,6.09821 -5.56674,7.01263 -3.48895,0.92366 -9.04779,7.96624 -8.43849,10.69084 0.68724,3.07311 -7.11517,9.27357 -20.81739,16.54326 -12.86472,6.82536 -14.02772,7.23193 -17.30111,6.04826 -7.03726,-2.54471 -10.76604,-1.72565 -15.10481,3.31792 l -3.97551,4.6213 -7.67986,-1.7228 c -5.178651,-1.16171 -8.328016,-1.37591 -9.67001,-0.6577 -1.852313,0.99133 -23.53784,0.39911 -29.421324,-0.80348 -1.375,-0.28105 -2.5,-0.0276 -2.5,0.5632 0,0.59081 -1.536432,5.32034 -3.414292,10.51006 -2.728411,7.54033 -3.900238,9.50504 -5.833333,9.7803 -1.401492,0.19956 -2.424467,1.14441 -2.431938,2.24623 -0.0071,1.04598 -0.632092,2.52098 -1.388889,3.27778 -0.756796,0.75679 -1.375993,2.24648 -1.375993,3.31042 0,1.06393 -0.375,2.12814 -0.833333,2.36491 -0.458334,0.23677 -7.935988,-1.06286 -16.61701,-2.88807 z"
       id="path3448"
       inkscape:connector-curvature="0" />
    <path
       style="opacity:0.71000013;fill:#d9d9d9;fill-opacity:1;stroke:#001895;stroke-width:1.11111116;stroke-opacity:1"
       d="M 45.867598,461.05904 C 27.557481,454.1433 11.885594,448.04915 11.041183,447.51651 c -1.1549029,-0.72849 3.847761,-6.60907 20.191276,-23.73461 20.212793,-21.17997 21.729654,-23.05649 21.770859,-26.93285 0.03129,-2.94327 0.533646,-4.16666 1.710958,-4.16666 2.101456,0 2.095532,-0.508 -0.157518,-13.50728 -1.773871,-10.23458 -2.001077,-10.75778 -4.925784,-11.34272 -2.407938,-0.48158 -2.940838,-1.09236 -2.482455,-2.84521 0.321023,-1.2276 1.279645,-2.8096 2.130273,-3.51556 0.850627,-0.70595 1.546595,-1.93864 1.546595,-2.7393 0,-0.80065 0.93641,-1.75294 2.080912,-2.11619 1.408845,-0.44715 3.22561,-3.86054 5.625225,-10.56883 2.238822,-6.25877 4.036976,-9.71931 4.881853,-9.3951 0.735645,0.28229 9.329294,0.70133 19.096996,0.9312 9.767701,0.22986 20.259457,0.75114 23.315017,1.1584 5.53541,0.73778 5.56689,0.72412 8.68317,-3.77058 2.71355,-3.91384 3.67835,-4.51106 7.28763,-4.51106 2.28801,0 5.03484,0.63969 6.10405,1.42152 1.81588,1.3278 1.6398,2.18849 -2.671,13.05556 -3.85305,9.71312 -4.74866,13.46861 -5.42435,22.74515 -0.64159,8.80864 -1.42558,12.31225 -3.78329,16.9075 -1.6357,3.18802 -2.97399,7.54451 -2.97399,9.68109 0,5.83905 -3.30202,13.15915 -15.635881,34.66256 l -11.203315,19.53236 0.784768,12.10824 0.784767,12.10825 -2.82985,0 c -1.556418,0 -3.495745,0.21392 -4.309616,0.47537 -0.81387,0.26146 -16.460767,-5.18296 -34.770885,-12.09872 l 0,0 z"
       id="path3450"
       inkscape:connector-curvature="0" />
    <path
       style="opacity:0.71000013;fill:#d9d9d9;fill-opacity:1;stroke:#001895;stroke-width:1.11111116;stroke-opacity:1"
       d="m 191.9365,469.348 c -1.52778,-0.48986 -6.58188,-0.62405 -11.23133,-0.29819 -8.35475,0.58554 -8.45983,0.55964 -8.99043,-2.21599 -0.66281,-3.46728 17.23958,-102.44505 19.46691,-107.62763 0.88547,-2.06031 4.41755,-6.61041 7.84907,-10.11131 4.14061,-4.22435 6.23911,-7.27885 6.23911,-9.08142 0,-1.49387 1.29445,-4.25449 2.87655,-6.13471 2.43515,-2.89401 3.65147,-3.41859 7.92664,-3.41859 2.77756,0 6.98951,0.58107 9.35991,1.29125 3.22848,0.96728 4.93349,0.97442 6.79558,0.0285 1.36717,-0.69453 5.48577,-2.34975 9.15243,-3.67826 3.66667,-1.32852 7.8591,-3.34133 9.31651,-4.47291 3.5542,-2.7596 5.90587,-2.59112 8.94196,0.64066 2.3814,2.53488 2.42673,2.85228 0.74924,5.24722 -1.13257,1.61698 -1.78549,4.86346 -1.78549,8.87796 0,6.03439 -0.18091,6.44063 -3.88888,8.73228 -2.49479,1.54186 -3.89433,3.26719 -3.90407,4.81284 -0.008,1.32516 -0.29684,3.45862 -0.64111,4.74103 -0.53437,1.99051 0.10105,2.53519 4.34322,3.72292 5.67081,1.58773 8.33825,1.01381 12.82154,-2.75863 1.73973,-1.46388 5.11203,-2.97207 7.494,-3.35152 3.70889,-0.59083 4.71771,-0.27734 7.02454,2.18284 2.21814,2.36559 3.69911,2.87274 8.38889,2.87274 3.13236,0 6.2116,-0.51639 6.84274,-1.14753 2.08185,-2.08184 4.85142,0.0603 4.86948,3.76641 0.0224,4.59751 0.99371,5.93449 4.99412,6.87431 1.82721,0.42926 5.23475,2.82316 7.57229,5.31977 3.93357,4.20125 4.10393,4.64617 2.28763,5.97428 -1.27083,0.92926 -5.60766,1.43499 -12.30564,1.43499 -9.6227,0 -10.34319,-0.15572 -10.34319,-2.23536 0,-2.00053 -0.49607,-2.16072 -4.72222,-1.5249 -2.59722,0.39075 -5.97222,1.83225 -7.5,3.20334 -1.52778,1.37109 -4.15278,2.81682 -5.83334,3.21274 -2.41168,0.56816 -3.05556,1.35926 -3.05558,3.75423 -4e-5,3.5722 -5.43323,8.45399 -10.69511,9.60969 -3.17317,0.69695 -3.60848,1.44646 -6.91014,11.89768 l -3.52364,11.15387 2.31821,2.94713 c 2.94326,3.74174 2.14348,10.69086 -2.05493,17.85491 l -2.87267,4.90183 3.08496,2.45986 c 2.70546,2.15725 2.9126,2.73584 1.68385,4.70339 -1.09632,1.75547 -7.47373,3.84317 -29.31649,9.597 -15.35346,4.04441 -28.39508,7.30363 -28.98137,7.24272 -0.58628,-0.0609 -2.31597,-0.51156 -3.84375,-1.00141 z"
       id="path3452"
       inkscape:connector-curvature="0" />
    <path
       style="opacity:0.71000013;fill:#d9d9d9;fill-opacity:1;stroke:#001895;stroke-width:1.11111116;stroke-opacity:1"
       d="m 308.32539,366.91373 c -3.99389,-1.07237 -4.16667,-1.31653 -4.16667,-5.88793 0,-4.17082 -0.35137,-4.85736 -2.80058,-5.47207 -1.54031,-0.3866 -3.75744,-0.1908 -4.92695,0.4351 -4.11243,2.2009 -10.55905,1.3677 -13.46768,-1.74065 -2.42475,-2.59126 -3.2378,-2.80702 -8.14375,-2.1611 -3.65416,0.48111 -6.75819,1.79582 -9.41983,3.98977 -4.21273,3.47249 -6.14018,3.88928 -10.43488,2.25644 -4.07371,-1.54883 -2.90331,-6.99226 2.0805,-9.67622 3.65368,-1.96764 3.78008,-2.25892 3.78716,-8.72735 0.005,-4.77539 0.63182,-7.6392 2.18798,-10.00005 l 2.18067,-3.30827 -2.82258,-2.94613 c -2.603,-2.71695 -2.72789,-3.2978 -1.60538,-7.46647 0.79847,-2.96532 2.64124,-5.69797 5.35681,-7.94368 l 4.13962,-3.42335 0.55556,3.5576 0.55555,3.5576 7.02975,-7.93777 c 4.99112,-5.63583 6.84239,-8.52809 6.38368,-9.97336 -0.35534,-1.11957 -0.0187,-2.84543 0.74803,-3.83524 1.16835,-1.50825 2.39208,-1.63699 7.55726,-0.79504 3.38974,0.55255 8.13974,1.6913 10.55556,2.53055 4.20653,1.46134 4.39419,1.73253 4.43494,6.40887 0.11481,13.17522 -0.001,12.88688 5.513,13.71377 2.75,0.41239 5,0.99868 5,1.30287 0,0.30419 -2.89228,4.39855 -6.4273,9.09858 -6.63466,8.8212 -10.23936,14.15484 -10.23936,15.15051 0,0.31464 2.0026,1.59372 4.45024,2.84241 3.9825,2.03172 4.77078,2.10629 7.5,0.70952 5.14583,-2.63355 11.64672,-3.25465 14.16087,-1.35294 1.22222,0.9245 3.54373,1.6968 5.1589,1.71624 3.87948,0.0467 4.54919,2.2424 2.37338,7.78146 -1.30082,3.31158 -1.45523,4.88648 -0.56623,5.77548 1.87985,1.87986 -1.61598,6.4784 -4.92491,6.4784 -1.48681,0 -3.8043,1.20646 -5.14999,2.68102 -2.89312,3.17019 -10.29962,4.3567 -16.61337,2.66143 z"
       id="path3454"
       inkscape:connector-curvature="0" />
    <path
       style="opacity:0.71000013;fill:#d9d9d9;fill-opacity:1;stroke:#001895;stroke-width:1.11111116;stroke-opacity:1"
       d="m 306.98494,337.87228 c -2.08959,-1.54435 -1.86366,-2.01915 5.83334,-12.25932 4.40391,-5.85901 8.00711,-11.59943 8.00711,-12.75647 0,-1.62135 -1.04015,-2.24324 -4.53621,-2.71216 -2.49492,-0.33464 -4.82825,-0.90047 -5.18519,-1.25741 -0.35693,-0.35694 -0.64897,-4.3997 -0.64897,-8.98391 l 0,-8.33493 -5.64815,-1.61026 c -3.10648,-0.88565 -7.85789,-2.00993 -10.55868,-2.49841 -5.62421,-1.01721 -7.15072,-3.24567 -2.94618,-4.30094 2.36719,-0.59413 2.85671,-1.36408 2.85671,-4.49318 l 0,-3.7762 -7.77778,0.72287 c -4.37434,0.40655 -7.75881,0.2884 -7.73444,-0.27002 0.0238,-0.54609 2.2785,-2.63725 5.01037,-4.64703 4.18318,-3.07747 4.85871,-4.08571 4.28065,-6.38889 -0.58844,-2.34456 -0.3005,-2.73474 2.01818,-2.73474 1.4875,0 3.87886,-1.25 5.31413,-2.77778 1.50039,-1.5971 3.85144,-2.77778 5.53128,-2.77778 1.84568,0 4.22838,-1.34816 6.46977,-3.6607 l 3.54809,-3.66069 -4.964,-4.8718 -4.964,-4.8718 5.75799,-3.87765 c 10.18266,-6.85741 10.63317,-6.9874 15.54032,-4.48396 3.70025,1.88773 4.91364,2.02733 8.19848,0.94324 3.18624,-1.05156 4.33026,-0.9613 6.59098,0.51998 2.9959,1.96298 3.45646,3.90912 1.40953,5.95605 -1.02727,1.02728 -0.60495,2.07863 1.87454,4.66667 3.65449,3.81447 4.90695,4.02405 9.58646,1.60419 2.53048,-1.30857 3.73047,-1.42733 4.86957,-0.48197 1.27329,1.05674 1.26294,1.95928 -0.0657,5.7249 -1.12769,3.19621 -1.25344,5.07539 -0.4412,6.59307 1.37513,2.56946 2.4045,2.63253 6.70121,0.41062 1.82093,-0.94164 3.78208,-1.4208 4.35811,-1.06479 0.57602,0.356 0.88297,3.89754 0.6821,7.87007 -0.28578,5.65186 -0.88316,7.70534 -2.74662,9.44141 -1.30977,1.22024 -2.3814,3.03773 -2.3814,4.03886 0,1.00113 -1.625,3.17714 -3.61111,4.83557 -2.75893,2.30374 -3.61112,3.89611 -3.61112,6.74759 0,3.1554 -1.13307,4.80772 -7.33105,10.69059 l -7.33106,6.95833 -4.29023,-1.79257 c -4.15608,-1.73652 -4.35245,-1.71574 -6.28005,0.66476 -1.09441,1.35153 -1.98983,2.80046 -1.98983,3.21985 0,0.41938 1.98318,2.69904 4.40706,5.06589 5.17127,5.04961 7.46164,12.77826 6.2269,21.0121 -0.86316,5.75599 -2.90415,6.61138 -7.92518,3.32147 -2.82027,-1.84791 -3.60273,-1.78444 -17.70878,1.43644 -1.22222,0.27908 -3.20042,-0.21554 -4.396,-1.09916 l 0,0 z"
       id="path3456"
       inkscape:connector-curvature="0" />
    <path
       style="opacity:0.71000013;fill:#d9d9d9;fill-opacity:1;stroke:#001895;stroke-width:1.11111116;stroke-opacity:1"
       d="m 370.54761,359.93846 c -1.06945,-1.47075 -1.94445,-3.41361 -1.94445,-4.31746 0,-1.07457 -1.94178,-2.0598 -5.61024,-2.84654 -7.36152,-1.57876 -8.47374,-1.52295 -9.23601,0.46348 -0.35176,0.91667 -1.84403,1.66667 -3.31616,1.66667 -1.47213,0 -3.29904,-0.75 -4.05981,-1.66667 -1.67451,-2.01766 -7.39705,-2.21419 -8.08862,-0.27778 -0.27282,0.76389 -0.85135,1.06036 -1.28563,0.65882 -0.43429,-0.40155 -0.0869,-2.15155 0.7719,-3.88889 1.22306,-2.47417 1.40801,-6.35189 0.85331,-17.89094 l -0.70819,-14.73212 -4.25367,-4.35616 c -2.77486,-2.84171 -4.01592,-4.97574 -3.56979,-6.13833 0.6155,-1.60397 1.098,-1.56973 4.82507,0.34237 l 4.14118,2.12455 8.72888,-7.92014 c 8.13767,-7.3837 8.68405,-8.15913 8.0669,-11.4488 -0.57953,-3.08917 -0.17327,-3.90143 3.26167,-6.52139 2.15801,-1.646 3.92366,-3.97823 3.92366,-5.18274 0,-4.21595 7.11578,-7.93587 10.68301,-5.58477 0.68122,0.44898 1.59611,3.72269 2.03311,7.27491 0.77404,6.29202 0.85672,6.41922 3.20587,4.93246 7.51529,-4.75639 10.66046,-6.16977 14.91113,-6.70077 2.59711,-0.32443 4.95814,-0.2078 5.24675,0.25917 0.2886,0.46697 -0.94739,2.79438 -2.74666,5.17202 -3.95701,5.22899 -4.0259,5.73643 -0.84036,6.19014 1.76287,0.25109 2.68273,1.33117 3.14125,3.68839 0.52131,2.68 -0.005,4.03633 -2.68715,6.92003 -3.23332,3.47677 -3.27438,3.6543 -1.33983,5.79195 2.40057,2.65261 1.62266,5.29328 -1.96069,6.65567 -3.34576,1.27206 -5.71358,6.81838 -4.64851,10.88856 0.44287,1.69242 1.41288,7.39346 2.15558,12.66899 l 1.35036,9.59187 -5.47734,7.35258 c -4.02611,5.40449 -6.16567,7.35257 -8.07525,7.35257 -1.42884,0 -2.90692,0.5 -3.2846,1.11112 -1.04353,1.68846 -2.03381,1.30039 -4.16667,-1.63282 z"
       id="path3458"
       inkscape:connector-curvature="0" />
    <path
       style="opacity:0.71000013;fill:#d9d9d9;fill-opacity:1;stroke:#001895;stroke-width:1.11111116;stroke-opacity:1"
       d="m 397.55033,287.28672 c -0.032,-0.82872 1.52952,-3.51153 3.47017,-5.96179 3.21347,-4.05735 3.41396,-4.75829 2.24603,-7.85251 -0.71265,-1.88802 -0.8674,-3.92898 -0.34832,-4.59376 0.51375,-0.65795 1.26142,-2.5667 1.66148,-4.24168 0.60483,-2.53229 1.49842,-3.16869 5.30369,-3.77718 2.64667,-0.42322 6.09736,-2.06728 8.18362,-3.89904 3.95041,-3.46851 7.20283,-4.13035 7.20283,-1.46572 0,0.93584 0.67588,1.96089 1.50195,2.27789 0.90807,0.34845 1.29981,1.63374 0.99073,3.25056 -0.35334,1.84839 0.52807,3.93503 2.8542,6.75703 l 3.36541,4.08282 -3.12765,2.63175 c -1.72021,1.44746 -4.18047,2.63174 -5.46726,2.63174 -1.59886,0 -2.3396,0.70358 -2.3396,2.22222 0,1.48148 -0.74074,2.22223 -2.22222,2.22223 -1.22223,0 -2.22223,0.57749 -2.22223,1.28332 0,0.76782 -0.8162,0.54466 -2.03193,-0.55556 -2.52559,-2.28563 -5.05035,-2.34904 -6.85695,-0.17221 -0.76077,0.91667 -3.01101,1.66667 -5.00053,1.66667 -2.49383,0 -4.15895,0.77646 -5.36123,2.5 -1.02316,1.46676 -1.76799,1.87726 -1.80219,0.99322 z"
       id="path3460"
       inkscape:connector-curvature="0" />
  </g>
</svg>
