<?xml version="1.0" encoding="UTF-8" standalone="no"?>
<svg
   xmlns:dc="http://purl.org/dc/elements/1.1/"
   xmlns:cc="http://creativecommons.org/ns#"
   xmlns:rdf="http://www.w3.org/1999/02/22-rdf-syntax-ns#"
   xmlns:svg="http://www.w3.org/2000/svg"
   xmlns="http://www.w3.org/2000/svg"
   xmlns:sodipodi="http://sodipodi.sourceforge.net/DTD/sodipodi-0.dtd"
   xmlns:inkscape="http://www.inkscape.org/namespaces/inkscape"
   version="1.0"
   width="290"
   height="262"
   viewBox="-0.4 -0.4 290 262"
   id="svg2"
   xml:space="preserve"
   inkscape:version="0.48.2 r9819"
   sodipodi:docname="australia.svg"><metadata
   id="metadata3443"><rdf:RDF><cc:Work
       rdf:about=""><dc:format>image/svg+xml</dc:format><dc:type
         rdf:resource="http://purl.org/dc/dcmitype/StillImage" /></cc:Work></rdf:RDF></metadata><sodipodi:namedview
   pagecolor="#ffffff"
   bordercolor="#666666"
   borderopacity="1"
   objecttolerance="10"
   gridtolerance="10"
   guidetolerance="10"
   inkscape:pageopacity="0"
   inkscape:pageshadow="2"
   inkscape:window-width="1366"
   inkscape:window-height="716"
   id="namedview3441"
   showgrid="false"
   inkscape:zoom="1.8473282"
   inkscape:cx="145"
   inkscape:cy="131"
   inkscape:window-x="-8"
   inkscape:window-y="-8"
   inkscape:window-maximized="1"
   inkscape:current-layer="svg2" />
<defs
   id="defs4">
    
    
    
    
    
    
    
    
  
        
        
        
    
        
        
    
        
        
        
    
        
        
        
        
    </defs>
  <path
   style="fill:#d3d3d3;stroke:#000000;stroke-width:0.5"
   inkscape:connector-curvature="0"
   d="m 271.2875,129.6 -0.875,0.625 -0.65625,0.625 -1.09375,0.0937 -0.90625,0.0937 -0.0937,0.75 0.28125,1.0625 0.71875,-0.0625 -0.65625,0.78125 -0.125,0.5625 -1.03125,0.46875 -0.78125,-0.28125 -0.40625,-0.6875 -0.65625,0.78125 -0.65625,0.8125 -0.3125,0.5625 -0.6875,0.4375 -0.46875,-1.0625 -0.0625,-0.71875 -0.4375,-0.6875 -0.40625,-0.5 -0.65625,-0.84375 -1.125,-0.25 -1.625,-0.0312 -0.59375,-0.3125 -0.75,-0.28125 -0.71875,0.0625 -0.21875,-0.53125 -0.90625,0.0937 -1.4375,0.5 -1.28125,-0.21875 -1.3125,-0.40625 -0.5625,0.0312 -0.78125,1.1875 -1.09375,-0.0937 -0.0937,1.125 -0.71875,0.0625 0.0625,0.53125 -0.875,0.46875 -53.125,-0.0625 0,45.0625 0,0.0312 0.0625,0.21875 1.125,-0.1875 1.84375,0.875 1.03125,-0.71875 1.75,0.28125 2.125,0.25 1.71875,1.4375 0.5,2.03125 1.09375,0.96875 0.0312,-0.96875 1.0625,-0.53125 0.96875,0.21875 1.71875,0.125 1,0.40625 0.625,2.75 1.4375,2.0625 1.125,0.0312 1.625,0.6875 1.96875,1.78125 0.375,1.28125 1.28125,0.9375 1.625,0.6875 1.3125,-0.1875 -0.25,-1.46875 0.5,-0.65625 0.71875,-0.0937 0.84375,0.4375 1.84375,-0.28125 1.4375,0.71875 0.90625,-0.125 1.21875,0.5625 1.1875,0.21875 0.65625,-0.6875 0.875,-0.3125 1.0625,0.59375 1.9375,0.46875 1.46875,-0.40625 1.0625,-0.34375 0.75,-0.125 0.71875,-0.28125 0.90625,-0.34375 1.40625,0.75 -0.1875,1.15625 0.5625,1.21875 0.71875,1.03125 0.34375,1.09375 -0.15625,1.34375 8.1875,4.0625 1.71875,0.125 0.71875,0.65625 0.65625,0 -0.15625,0.4375 0.125,0.0937 1.09375,-0.53125 -0.21875,-1.71875 0.4375,-0.21875 0.4375,0 -0.4375,-1.0625 -0.84375,-0.21875 0.40625,-0.84375 -0.40625,-1.0625 0.40625,0.21875 0.4375,-1.5 0.84375,-3.40625 -0.21875,-2.125 0.4375,-1.28125 -0.4375,0 1.0625,-0.84375 -0.625,-0.84375 0.84375,0.1875 1.71875,-4.03125 1.46875,-0.4375 -0.625,-1.28125 0.625,-0.1875 0,0.84375 0.4375,-0.21875 -0.4375,-1.28125 -0.40625,0.21875 0.21875,-0.4375 -0.875,-0.1875 1.5,-0.65625 0.4375,-1.5 -0.4375,-0.625 0.65625,-0.21875 0,-1.5 1.6875,-1.6875 -0.625,-0.21875 1.0625,-0.21875 -1.28125,-0.40625 1.46875,-0.21875 0.21875,-1.0625 -0.625,0.40625 -0.4375,-0.40625 0.65625,0.21875 -0.21875,-0.65625 0.625,0.4375 0.21875,-1.71875 0,-0.21875 -0.4375,0.4375 0,-0.625 -0.1875,0.1875 -0.21875,-0.625 0.625,0.4375 0.21875,-1.0625 0,0.84375 0.84375,-0.4375 0.21875,-1.0625 -0.40625,-0.40625 0.84375,0 0.625,-1.71875 -0.625,0.84375 -0.21875,-0.84375 0.625,0 0,-0.84375 0.21875,0.84375 0.875,-1.5 -0.21875,-0.40625 0.40625,0 0,0.625 2.5625,-1.5 -0.84375,-0.1875 -0.84375,0.625 -0.21875,-0.21875 0.40625,-0.40625 -0.1875,-0.4375 0.84375,0.4375 0.625,-0.4375 0.21875,0.4375 0.84375,-1.28125 1.5,-0.875 0.21875,-1.6875 -0.65625,-0.21875 0,0.4375 -0.84375,-0.4375 0.84375,0 0.21875,0 0.21875,-1.5 1.5,-1.25 1.90625,-6.1875 -0.21875,-4.25 1.5,-3.84375 0.21875,-0.65625 0.625,-3.59375 -0.625,-0.4375 0.625,0.21875 -0.1875,-0.84375 1.6875,-3.21875 -0.4375,0 0.4375,-0.1875 0.21875,-1.71875 -0.65625,-0.84375 0.1875,-1.90625 -0.96875,0.0312 -0.90625,-0.0937 -0.53125,0.40625 -0.5,0.21875 -0.5625,0.0625 -0.9375,-0.28125 -1.03125,0.46875 -0.8125,-0.8125 -0.9375,-0.28125 z m -25.34375,56.25 c 0.45735,-0.0183 0.9438,0.0521 1.375,0.25 0.36984,0.16974 0.49212,0.41964 0.46875,0.6875 -0.0234,0.26786 -0.22417,0.55024 -0.4375,0.875 -0.42667,0.6495 -1.00155,1.37043 -0.96875,2 -0.0767,0.34535 -0.43732,1.09261 -0.9375,1.1875 -0.25009,0.0474 -0.54888,-0.0682 -0.84375,-0.46875 -0.29488,-0.4006 -0.60731,-1.08191 -0.90625,-2.1875 -0.1825,-0.67495 0.032,-1.24795 0.46875,-1.65625 0.43677,-0.4083 1.09522,-0.66005 1.78125,-0.6875 z"
   id="NSW" /><path
   inkscape:connector-curvature="0"
   id="NT"
   d="m 134.1,8.25625 0,0.875 -1.0625,-0.21875 0.21875,0.40625 -0.40625,0.4375 1.0625,-0.21875 0.1875,0.4375 -0.1875,0.21875 0.84375,0.21875 0.21875,0.625 0.84375,-0.4375 1.90625,-0.1875 0,0.40625 0.4375,0 -0.4375,0.21875 0.65625,0.21875 -0.4375,0 0.4375,0.21875 -0.4375,0.1875 1.0625,0 0.21875,0 -1.0625,1.0625 0.84375,0.65625 L 138.6,13.6 l -0.21875,1.28125 1.0625,0.40625 -1.46875,-0.40625 -0.65625,0.40625 -0.21875,1.28125 -0.40625,-1.0625 -0.65625,0.4375 -0.21875,-0.65625 -1.0625,1.0625 -1.0625,-0.625 -2.96875,0.40625 -0.84375,-0.625 -0.21875,-1.0625 -0.4375,1.28125 -1.6875,-0.4375 0.40625,1.5 -1.0625,-0.21875 -0.40625,0.4375 1.0625,0.84375 -0.875,-0.21875 0.40625,0.65625 -0.40625,0.40625 -0.40625,-0.84375 0,0.21875 -0.4375,0.21875 0.21875,-1.09375 -1.28125,-0.1875 0.21875,1.46875 -0.4375,0 1.28125,0.65625 -0.625,0 0,0.40625 -1.0625,-1.0625 -0.65625,0.21875 0.21875,0.4375 -0.4375,-0.4375 0,1.5 -1.46875,0.40625 0,1.5 1.25,1.5 -0.40625,-0.21875 -1.71875,1.28125 -0.625,-0.21875 0,-0.40625 -0.65625,0.40625 -0.1875,1.90625 0.40625,-0.1875 -0.84375,0.625 0.21875,1.0625 -0.65625,0.4375 -0.40625,-0.4375 0.40625,1.0625 -0.40625,-0.40625 -0.4375,0.84375 -0.21875,-0.65625 -0.84375,1.5 0,0.65625 0.625,0.625 0.4375,-0.4375 0,0.65625 0.84375,-0.21875 0.21875,0.4375 0.84375,-0.4375 -0.1875,0.4375 -1.0625,0.625 0.625,0 0,0.4375 -0.21875,0 0.15625,0.28125 0.15625,0.0625 0.53125,-0.34375 -0.1875,0.625 1.46875,-0.84375 0,0.625 -0.84375,0 0.4375,0.4375 L 119.85,33.6 l -0.40625,0 -0.875,0 0.4375,0.84375 -0.4375,-0.40625 0.21875,1.5 -0.625,0.1875 -0.65625,-1.46875 -0.625,-0.21875 0.21875,1.0625 -0.875,-1.28125 0.21875,0.4375 -0.40625,0 -0.21875,0 0.40625,0.625 -0.40625,0.4375 0.625,0.21875 -0.625,0 -0.21875,0.84375 0,-0.65625 -0.4375,0.875 0.4375,-1.0625 -0.21875,-0.21875 -0.4375,-0.4375 0,-0.84375 -0.40625,0.625 0,-0.84375 -0.6875,0 0,83.53125 59.5625,0 0,-73.15625 -0.75,-1 -2.125,-0.65625 -2.78125,-1.90625 -0.625,0.21875 0.21875,0.4375 -1.0625,-0.4375 -0.65625,0.21875 0,-0.875 -2.34375,-1.0625 -0.84375,-1.6875 -3.40625,-2.125 -0.21875,0.21875 0,-0.4375 -0.625,0.21875 -1.0625,-1.0625 -0.4375,-1.5 1.28125,-0.4375 1.0625,-2.53125 1.28125,-0.65625 L 160.5375,27.85 161.6,25.50625 160.725,26.1625 160.31875,25.94375 160.1,24.0375 l 0.4375,0.1875 0.40625,-0.40625 -0.625,-0.21875 0.21875,-0.625 0.625,-0.4375 0.21875,0.625 0.625,-1.25 0.21875,1.0625 0.21875,-1.0625 0.625,0.1875 0.21875,-0.625 0.4375,1.0625 -0.4375,0.625 0.84375,-0.40625 0.65625,-1.28125 -0.65625,-0.65625 1.28125,0.21875 -1.28125,-1.46875 0.4375,0.1875 0.21875,-0.40625 0.4375,0.625 -0.21875,-0.84375 0.625,0 0.4375,-1.0625 -0.21875,-0.65625 0.4375,0 0,0.65625 1.28125,-1.5 -1.28125,-1.28125 -0.65625,0.4375 0.4375,0.40625 -0.65625,0 -0.84375,-1.90625 -0.4375,0 0.65625,-0.84375 -2.5625,1.90625 1.5,0.4375 -0.65625,1.28125 -0.625,0.40625 -0.84375,-0.1875 -0.4375,0.40625 0,-0.625 -0.4375,0 0.65625,-1.0625 -0.65625,0.1875 -0.1875,-0.40625 0.84375,-1.0625 -1.71875,0.84375 -0.21875,0.65625 -0.625,-0.4375 1.71875,-1.90625 -2.34375,1.25 -0.21875,-0.40625 -1.0625,0.21875 -1.0625,0.625 0.84375,0.4375 -1.28125,-0.21875 0.4375,0.625 -2.5625,-1.0625 -0.65625,-1.46875 -0.84375,1.0625 -2.5625,-0.65625 -0.625,1.28125 0.4375,-1.0625 L 148.6,13.6 l -0.4375,0.21875 -0.21875,-0.65625 -0.84375,0.65625 -0.625,-0.65625 0.625,-0.625 -0.84375,-0.21875 -1.90625,1.0625 0.1875,-0.84375 -0.40625,0.40625 -0.4375,-0.625 -0.625,0.40625 0.1875,-0.625 -1.25,0.21875 -1.5,-2.5625 -0.4375,0 0.21875,0.65625 -0.4375,-0.21875 -1.0625,0.84375 -1.46875,-2.125 -0.4375,0.625 -0.21875,-1.28125 -0.625,0.4375 0.21875,0.625 -1.09375,-1.0625 0.21875,1.28125 0.4375,0.21875 -0.4375,0.65625 -0.40625,-1.5 -0.875,-0.65625 z m -10.625,0.21875 0.53125,2.8125 -0.75,0.1875 0.4375,-0.4375 -0.4375,0.21875 0.4375,-0.84375 -0.4375,-0.875 -1.46875,1.0625 0.84375,0.4375 -0.4375,0 0,0.84375 0.21875,0.15625 0,0.5 -0.21875,-0.65625 -0.1875,0.4375 -0.65625,-0.4375 0,0.84375 -0.4375,0 4.0625,0.4375 0.21875,-0.625 2.125,1.25 2.125,-1.25 0.625,-1.0625 0.65625,0.1875 0,-0.84375 0.625,-0.21875 -0.84375,-1.28125 -0.84375,0 -0.21875,-0.625 -0.625,0.84375 0.40625,1.0625 -0.625,-1.46875 -0.21875,0.625 -0.4375,-0.21875 0,1.28125 -0.1875,-1.0625 -0.21875,0 L 126.88125,9.5375 125.6,9.975 l 0.875,1.28125 -0.875,-0.4375 -0.1875,-1.0625 -0.4375,0.4375 0.21875,0.21875 -0.21875,0 0,-0.21875 0,-0.875 -1.5,-0.84375 z m 42.375,17.03125 -1.0625,0.21875 0.4375,0.65625 -1.5,0.40625 0,1.0625 0.21875,0.875 -0.65625,0.84375 0.65625,-0.4375 1.5,0.84375 1.90625,0 -0.21875,-1.0625 -0.21875,0.4375 -1.0625,-0.21875 0,-0.84375 0.65625,-0.21875 -0.21875,-0.625 1.0625,-0.875 -0.625,-0.40625 0,0.625 -0.875,0 -0.21875,-0.84375 0.21875,-0.4375 z"
   style="fill:#d3d3d3;stroke:#000000;stroke-width:0.5"
   inkscape:label="" /><path
   inkscape:connector-curvature="0"
   id="QLD-mainland"
   d="m 204.81875,5.2875 -0.84375,0.21875 -0.65625,1.28125 -1.25,0.40625 0.1875,1.0625 -0.625,2.78125 -0.21875,0 -0.21875,1.5 0.65625,0 -0.84375,0.1875 -0.21875,1.28125 0.40625,0.65625 0.4375,-0.4375 -0.4375,0.65625 -0.40625,-0.21875 -0.21875,0.84375 -0.21875,-1.5 -1.0625,1.71875 0.625,0.21875 -0.625,0 -0.84375,2.125 0.625,0 -0.21875,-0.84375 0.65625,0.1875 -0.4375,0.21875 0.84375,0.65625 1.09375,0 -1.09375,0.40625 1.09375,0.4375 -0.4375,0.21875 0.21875,1.0625 -0.875,-1.5 -0.40625,1.0625 -1.0625,0.84375 0.625,1.9375 -0.21875,0.625 0.4375,-0.21875 -0.21875,0.21875 0.4375,0.21875 -0.84375,0 -1.09375,3.1875 1.09375,2.34375 -0.65625,2.125 0.84375,3.84375 -1.28125,3.40625 -0.625,2.5625 0.4375,1.0625 -1.5,4.25 -1.71875,2.125 -0.40625,2.78125 -1.9375,1.5 -3.59375,0.84375 -0.4375,-0.21875 -1.28125,-0.84375 -1.5,-0.21875 -0.84375,-1.0625 -1.5,-0.65625 L 182.25625,48.725 181.4125,47.88125 178.63125,47.0375 175.225,46.6 l -1.8125,-2.40625 0,73.15625 20.75,0 0,16.9375 53.125,0.0625 0.875,-0.46875 -0.0625,-0.53125 0.71875,-0.0625 0.0937,-1.125 1.09375,0.0937 0.78125,-1.1875 0.5625,-0.0312 1.3125,0.40625 1.28125,0.21875 1.4375,-0.5 0.90625,-0.0937 0.21875,0.53125 0.71875,-0.0625 0.75,0.28125 0.59375,0.3125 1.625,0.0312 1.125,0.25 0.65625,0.84375 0.40625,0.5 0.4375,0.6875 0.0625,0.71875 0.46875,1.0625 0.6875,-0.4375 0.3125,-0.5625 0.65625,-0.8125 0.65625,-0.78125 0.40625,0.6875 0.7813,0.28125 1.03125,-0.46875 0.125,-0.5625 0.65625,-0.78125 -0.71875,0.0625 -0.28125,-1.0625 0.0937,-0.75 0.90625,-0.0937 1.09375,-0.0937 0.65625,-0.625 0.875,-0.625 0.9375,0.28125 0.8125,0.8125 1.03125,-0.46875 0.9375,0.28125 0.5625,-0.0625 0.5,-0.21875 0.53125,-0.40625 0.90625,0.0937 0.96875,-0.0312 0.0312,-0.4375 -0.84365,-0.84385 -0.59375,-2.5625 -0.46875,-1.90625 -0.625,-0.875 -0.65625,0.4375 0.4375,-0.65625 -0.875,-0.40625 0.65625,-0.65625 -0.65625,-0.625 0.875,-0.4375 -0.65625,-0.625 0,-0.65625 1.0625,1.28125 -0.625,-1.90625 -0.21875,0.625 0.4375,-1.6875 -0.4375,-0.28125 0.21875,-1.84375 -0.4375,0 0.875,-3.40625 -0.4375,0 -0.4375,-0.875 -0.40625,1.28125 0.1875,-1.0625 -0.625,0 0.4375,-0.40625 -0.875,-0.65625 0,-1.28125 0.65625,-0.625 -1.28125,0.40625 1.0625,-0.40625 -0.21875,-1.0625 -2.34375,-0.65625 0.65625,-0.40625 -1.28125,-1.5 0.21875,-0.84375 -0.65625,-0.4375 -0.21875,0.4375 0.21875,-0.65625 -1.28125,-0.625 0,0.21875 -1.0625,-1.0625 L 267.225,99.4125 266.38125,99.19375 266.6,98.35 l -0.4375,0.625 0,-0.625 -0.625,-0.21875 0.40625,0.84375 -0.84375,-0.40625 0,0.40625 -0.84375,-0.40625 0,0.40625 -2.78125,-3.8125 -0.625,0.84375 -0.875,-1.28125 0.4375,-0.21875 -0.625,-1.28125 0.40625,-0.40625 -0.625,-2.34375 0.40625,0 0.21875,-1.71875 -0.40625,-1.0625 0,0.65625 -0.4375,-0.21875 -0.4375,-0.84375 0.65625,0.21875 0.21875,-0.21875 -0.65625,-1.0625 0,0.84375 -0.21875,-0.84375 -0.40625,-0.21875 -0.21875,0.625 0.625,1.0625 -0.40625,-0.1875 0.40625,1.0625 -2.96875,-2.15625 -1.0625,-1.6875 -0.21875,0.4375 -0.625,1.0625 0.625,1.46875 0.4375,0.875 -0.4375,-0.4375 -1.28125,-1.5 -1.28125,1.5 0.65625,-1.5 -0.875,0 0.4375,-0.21875 L 252.1,86.00625 251.25625,86.225 252.1,85.7875 l -1.28125,-2.96875 0.4375,-2.34375 -0.21875,0.40625 -0.84375,-0.84375 -0.21875,0.4375 0,-1.9375 -0.84375,0.4375 0.21875,-0.65625 -0.21875,0 0.40625,-1.0625 -0.84375,-0.84375 -0.625,0.4375 0.1875,-0.84375 -1.46875,0 -0.21875,-0.65625 0.4375,-0.21875 -1.0625,-0.625 0.1875,-0.4375 -0.625,-0.625 0.625,-0.21875 -0.40625,-0.4375 0.625,0.21875 0.21875,-0.4375 1.0625,0.875 -1.28125,-2.125 -0.40625,0.1875 0,-0.625 -0.65625,0 -0.21875,-0.84375 -0.625,0 -0.21875,0 0,0.84375 -0.625,-0.21875 -0.875,-0.84375 0.21875,-0.21875 0,-0.21875 -1.0625,-0.625 -1.28125,0.21875 -0.40625,-1.5 -0.65625,0 0.4375,1.0625 -0.875,-0.21875 -1.25,-1.28125 0.84375,0.4375 -1.28125,-2.78125 0,0.875 -1.90625,0.1875 -0.875,-1.90625 -0.1875,0.84375 -0.65625,0 -0.625,-0.84375 -2.15625,-0.84375 -1.25,-1.5 0.40625,-2.34375 -0.84375,0 -1.5,-2.5625 1.0625,-3.625 -0.40625,0 0,-1.6875 -1.28125,-2.34375 0.40625,-1.0625 -1.0625,0.21875 -2.53125,-3.40625 0,-1.0625 0.40625,0 0,-1.5 -0.84375,-1.0625 -0.21875,-2.34375 -0.84375,-0.84375 1.0625,-1.28125 0,-0.21875 -0.65625,0.21875 -0.1875,-1.0625 0.84375,-1.0625 -0.4375,0 -0.40625,-0.875 -1.28125,-0.1875 -0.875,-1.28125 -1.46875,-0.4375 -1.0625,-2.78125 -1.28125,1.0625 -0.84375,-0.40625 -0.4375,1.28125 -1.28125,0.625 -1.0625,-0.84375 -0.625,-2.78125 -1.09375,-1.6875 0.4375,-2.125 -0.625,-2.125 0.1875,-1.9375 -1.25,0.4375 0.625,-1.9375 -1.28125,-0.84375 0,-0.84375 -1.0625,-0.21875 -0.21875,-1.5 1.28125,-1.0625 -1.0625,-0.40625 -0.84375,0.21875 -0.65625,-0.65625 0,-3.1875 -0.84375,-2.5625 -0.625,0 -0.4375,-0.84375 0,0.40625 -0.84375,0.4375 1.0625,-1.71875 -0.21875,-0.1875 -0.21875,-0.21875 z m -20,38.96875 -1.71875,0.625 -1.0625,1.09375 1.0625,0.625 0.4375,-0.625 0.625,0.1875 0.65625,-1.28125 0.21875,0.65625 0.84375,-0.21875 -1.0625,-1.0625 z m 91.78125,59 -1.0625,0.84375 0.84375,1.28125 -1.6875,1.90625 0.40625,0 -0.40625,1.5 -0.4375,1.0625 0.84375,1.5 1.9375,-5.75 -0.4375,-0.875 0,-1.46875 z"
   style="fill:#d3d3d3;stroke:#000000;stroke-width:0.5" /><path
   style="fill:#d3d3d3;stroke:#000000;stroke-width:0.5"
   inkscape:connector-curvature="0"
   d="m 113.85,156.31875 0,-38.96875 0,0 0,-83.53125 -1.25,0 -0.40625,-0.4375 -0.84375,-0.1875 -1.28125,0.1875 0.84375,0.65625 0.21875,0.84375 -0.84375,-1.0625 0.625,1.0625 -0.21875,-0.21875 -0.21875,0.4375 -0.40625,-0.4375 -0.21875,0.875 -0.4375,-1.09375 -0.40625,0.65625 1.0625,2.96875 -0.4375,0 -0.21875,-1.0625 -1.0625,-1.0625 0,1.71875 -0.625,0.625 0.40625,-0.84375 -0.40625,-0.65625 0.40625,-0.1875 -0.21875,-1.28125 0.65625,-1.5 -0.4375,0 0.875,-0.21875 -0.4375,-0.625 0.4375,-0.21875 -1.5,-1.0625 -0.21875,0.4375 -1.90625,-3 -1.5,-0.84375 -0.21875,-0.84375 -0.625,-0.21875 0.21875,0.625 -0.65625,-0.625 -0.4375,0.40625 0,-0.40625 -0.40625,0.40625 -0.4375,-1.0625 -1.28125,-0.40625 0,0.40625 -0.84375,-0.1875 0.4375,1.0625 0.84375,0.40625 -0.375,-0.03125 -1.125,-0.1875 0.21875,0.65625 -0.4375,0.4375 -0.1875,-0.4375 -0.21875,1.28125 -0.65625,-1.28125 -0.40625,0.21875 0.40625,-1.0625 -1.28125,0.84375 -0.1875,0.4375 0.40625,0.40625 -0.84375,0.4375 -0.21875,-1.0625 -0.40625,0 0.40625,-0.4375 -0.40625,0 0.40625,-0.4375 -0.625,0.4375 -0.65625,-0.21875 0,0.4375 L 94.1,27.85 l 0,0.4375 1.25,0.625 -0.84375,0.65625 0.21875,0.625 -0.625,0.4375 0.40625,0.84375 -0.84375,0 0,1.0625 -0.65625,-0.625 0.21875,-0.84375 -0.84375,0.1875 0,-0.625 -0.625,1.6875 0.1875,-1.90625 0.4375,-0.625 -0.84375,-0.4375 0,2.34375 -0.65625,-0.21875 -0.40625,0.84375 -0.21875,-0.625 -0.4375,0.4375 0.21875,-0.875 -0.84375,0.875 0.40625,0.1875 -1.28125,0.65625 0.65625,0.84375 0.625,0 -0.84375,0.65625 1.28125,0.40625 0.21875,-0.40625 0.40625,0.1875 -0.84375,0.875 1.0625,0.40625 -1.0625,0 -0.40625,-0.625 -0.875,0.625 -0.625,-1.46875 -0.4375,0.1875 0.21875,0.875 -1.28125,0.1875 0.4375,0.21875 -0.21875,0.65625 1.28125,-0.875 -1.28125,1.09375 0.4375,0.40625 1.0625,-0.625 0,0.40625 0.40625,0 -0.625,0.65625 1.28125,1.0625 -1.0625,-0.84375 -0.4375,0.40625 -0.4375,-0.84375 -0.84375,-0.21875 0,-0.4375 -0.625,0.4375 -0.4375,0.84375 -0.21875,-0.40625 -0.21875,0.625 -0.84375,-0.21875 0.21875,0.21875 -0.84375,0.65625 0.40625,0.1875 -0.625,0.21875 0.84375,2.34375 0.21875,-0.375 0,0.15625 0.4375,-0.625 -0.375,0.34375 0.5625,-1 0.65625,-0.40625 -0.4375,0.40625 0.65625,0 -0.875,0.65625 -0.1875,1.5 0.40625,0 -0.84375,0.40625 0.4375,0.21875 -0.4375,0.21875 -0.4375,-1.0625 -0.40625,1.90625 1.46875,-0.21875 0.84375,0.4375 -1.90625,0.21875 -0.40625,-0.4375 -0.4375,0.4375 0.375,0.21875 -1,0.1875 0.625,-0.1875 -0.625,-0.21875 -0.65625,-0.84375 -1.46875,-0.65625 0.625,0.65625 -0.4375,0 0.4375,0.625 -0.84375,-0.625 0,0.1875 -1.0625,-0.40625 0.40625,0 -0.21875,-0.4375 0.4375,0 -0.84375,-0.4375 0,0.4375 -0.65625,-0.21875 0.21875,0.4375 -0.40625,-0.4375 0.40625,0.65625 -0.40625,0.21875 0.84375,0.1875 0.21875,0.4375 -0.65625,-0.21875 0.65625,0.4375 -0.4375,0 -0.21875,0 -0.84375,0 1.0625,0.625 -1.46875,0 0.40625,0.65625 0.21875,-0.4375 0.625,0.21875 -0.84375,0.625 1.5,0.4375 0.40625,1.28125 0.875,-0.4375 0,-0.40625 0.40625,0.1875 -1.0625,1.0625 0.4375,0.4375 -0.65625,-0.21875 1.09375,1.9375 -1.9375,-1.9375 -0.625,0.21875 0.84375,1.5 -0.4375,-0.21875 -0.40625,1.0625 0,1.0625 L 76.63125,50.85 75.975,48.725 75.13125,48.1 l 0,-1.71875 -0.625,0 -0.65625,-0.625 0.21875,-0.875 0.65625,-0.1875 -0.4375,-0.65625 -0.65625,0.21875 -1.25,2.125 0.625,0.65625 -1.71875,-0.21875 -0.1875,0.625 0.40625,0.84375 -0.84375,-0.40625 0,0.40625 -0.84375,0.21875 -0.65625,0.875 0.4375,0.1875 -1.0625,0.875 -0.21875,1.90625 0.625,1.5 -0.40625,1.46875 1.5,0.21875 0,0.84375 -3,2.15625 -0.84375,0.1875 -0.65625,0.875 0.4375,0.625 -1.0625,0.21875 0.21875,0.84375 -1.0625,1.9375 -2.5625,3.1875 -5.96875,2.5625 -1.5,0.1875 -1.46875,0 -0.65625,0.4375 -0.84375,0.625 -0.625,-0.625 -1.9375,-0.4375 0.21875,0.4375 0,0.21875 L 48.50625,69.6 48.1,69.38125 47.88125,69.6 l -1.5,1.90625 -4.46875,0.875 0,-0.4375 -1.6875,1.0625 0.1875,0.4375 -0.625,0 -0.4375,0.84375 -1.0625,0.21875 0,-0.21875 L 36.6,75.13125 35.31875,74.50625 35.1,73.85 l -1.5,0.875 -0.625,-0.21875 -0.4375,-0.21875 0.65625,-1.0625 -0.4375,0 -1.0625,1.28125 0.21875,0.21875 -0.4375,0 -2.125,1.0625 -0.65625,-0.4375 -0.1875,1.0625 -1.71875,0.84375 -0.625,1.28125 L 25.1,78.75625 24.0375,80.475 19.975,81.5375 18.2875,82.6 l -0.21875,1.28125 -0.4375,0.1875 -0.4375,-0.1875 0.21875,0.84375 -0.625,1.0625 0.40625,0.4375 -0.40625,-0.21875 0.21875,0.40625 -0.875,1.0625 -0.40625,-0.625 -1.0625,0.625 0.40625,-1.46875 -0.40625,0.40625 -0.21875,-1.46875 0.84375,-2.5625 -1.5,0.4375 -2.125,5.09375 1.0625,2.78125 -0.40625,1.28125 0.21875,2.53125 -2.15625,3 -0.40625,3.8125 1.6875,2.78125 -0.21875,0.4375 0.4375,1.6875 0.84375,0.65625 2.34375,4.6875 0.65625,0.1875 0.21875,1.0625 -0.65625,0 0.21875,2.34375 -1.0625,1.28125 -1.0625,-1.6875 -0.21875,-2.34375 0,1.0625 -1.0625,0.84375 0.21875,-2.34375 -1.71875,-2.75 -0.625,1.6875 0.40625,0.4375 0,-0.875 0.65625,3.21875 2.125,1.6875 -0.21875,1.9375 -1.28125,0.625 -0.21875,-1.5 -0.1875,1.28125 -0.4375,-2.5625 -0.21875,1.28125 -0.84375,-3.40625 0.21875,2.78125 -0.65625,-0.4375 0,-2.34375 -0.1875,1.71875 -0.875,-0.65625 5.53125,8.09375 1.28125,3.40625 -0.40625,1.0625 0.40625,2.15625 2.34375,2.75 0.65625,1.28125 -0.21875,0.84375 1.90625,2.5625 0.875,3 -0.21875,3.8125 0,0.4375 0.625,3.40625 4.25,8.9375 0.21875,3.1875 1.0625,-0.625 0,0.40625 -1.0625,0.21875 0.21875,1.0625 -0.4375,0.65625 0.21875,1.5 -0.84375,1.6875 0.625,4.90625 -2.3125,2.75 -1.09375,0 -1.25,-0.84375 0,4.46875 0.84375,2.34375 0.21875,-0.40625 1.25,-0.21875 2.34375,1.28125 1.9375,2.96875 2.5625,0.84375 0.1875,-0.625 0.875,0.625 -1.0625,0 1.6875,1.0625 0.65625,-0.625 1.25,0.625 3,-0.40625 1.6875,1.0625 0.4375,-0.875 1.90625,0.65625 0.4375,-0.21875 -1.0625,-0.4375 0.4375,-0.84375 0.40625,-0.21875 -0.21875,0.875 1.71875,0 -0.21875,-0.65625 1.5,-0.21875 0.21875,-1.28125 1.90625,-0.84375 0.21875,-0.84375 1.0625,-0.4375 -0.4375,-0.40625 2.78125,0.84375 0.21875,-0.84375 0.84375,0.21875 0,-0.875 1.0625,0.21875 -0.84375,-0.84375 2.96875,-2.78125 0.625,0 2.78125,0.4375 1.0625,-0.84375 5.34375,-0.65625 2.75,0.84375 1.5,-0.625 0.84375,1.5 1.0625,0 0.4375,-0.875 1.46875,0.4375 0.21875,-0.625 2.78125,-0.21875 0.625,0.40625 0.21875,0.875 1.5,-1.0625 1.0625,0.40625 2.96875,-2.96875 0.875,-3.40625 0.84375,-0.875 3.84375,-1.25 7.65625,-4.5 1.6875,-0.40625 3.21875,0.40625 3.59375,-0.1875 6.84375,-2.125 4.625,-2.3125 z m -26.59375,-112.0625 -1.0625,0.4375 -0.375,-0.40625 0.375,0.1875 1.0625,-0.21875 z M 8.693,113.044 l -1.704,-3.833 0,2.13 1.704,2.768 0,-1.065 z"
   id="WA" /><path
   style="fill:#d3d3d3;stroke:#000000;stroke-width:0.5"
   inkscape:connector-curvature="0"
   d="m 253.1625,203.75625 -0.625,-0.625 0.1875,0 -0.71875,-0.65625 -1.71875,-0.125 -8.1875,-4.0625 0.15625,-1.34375 -0.34375,-1.09375 -0.71875,-1.03125 -0.5625,-1.21875 0.1875,-1.15625 -1.40625,-0.75 -0.90625,0.34375 -0.71875,0.28125 -0.75,0.125 -1.0625,0.34375 -1.46875,0.40625 -1.9375,-0.46875 -1.0625,-0.59375 -0.875,0.3125 -0.65625,0.6875 -1.1875,-0.21875 -1.21875,-0.5625 -0.90625,0.125 -1.4375,-0.71875 -1.84375,0.28125 -0.84375,-0.4375 -0.71875,0.0937 -0.5,0.65625 0.25,1.46875 -1.3125,0.1875 -1.625,-0.6875 -1.28125,-0.9375 -0.375,-1.28125 -1.96875,-1.78125 -1.625,-0.6875 -1.125,-0.0312 -1.4375,-2.0625 -0.625,-2.75 -1,-0.40625 -1.71875,-0.125 -0.96875,-0.21875 -1.0625,0.53125 -0.0312,0.96875 -1.09375,-0.96875 -0.5,-2.03125 -1.7188,-1.4375 -2.125,-0.25 -1.75,-0.28125 -1.03125,0.71875 -1.84375,-0.875 -1.125,0.1875 -0.0625,-0.21875 0,28.40625 0.4375,0.0312 2.34375,1.90625 0,1.0625 0.65625,-0.21875 0.625,0.4375 1.28125,-1.5 2.5625,1.28125 1.6875,-0.4375 7.875,4.28125 3.21875,-3.1875 2.53125,-1.71875 1.5,0 0.4375,-1.28125 -1.5,0.4375 -0.84375,-0.65625 1.0625,0 2.75,-2.125 1.28125,2.5625 -1.28125,1.6875 -1.90625,-0.40625 1.90625,1.6875 1.28125,-0.84375 0.65625,0.21875 0.1875,-1.71875 1.5,0 0.4375,1.28125 -0.84375,0.21875 -0.21875,1.28125 1.46875,1.0625 1.5,-0.21875 0.21875,0.4375 -0.625,-0.21875 1.0625,1.90625 0.84375,-0.625 0.84375,0.4375 -0.21875,-0.65625 0.875,1.71875 1.0625,1.0625 0.40625,-2.78125 -1.28125,0.84375 -0.40625,-1.6875 2.125,0 2.53125,-0.84375 4.0625,-4.28125 2.78125,-1.6875 -3.40625,1.46875 1.90625,-1.25 -0.0625,-0.0937 -0.5625,-0.5625 1.46875,0.4375 1.71875,-0.65625 -0.21875,0.4375 9.375,-0.84375 1.90625,-1.71875 z"
   id="VIC" /><path
   inkscape:connector-curvature="0"
   id="SA-mainland"
   d="m 113.85,117.35 0,38.96875 0.46875,-0.25 6.59375,-0.65625 1.0625,-0.21875 4.28125,0.4375 2.34375,-1.28125 4.03125,2.125 3,2.34375 1.90625,0 -0.21875,-0.40625 0.4375,-0.21875 1.46875,0 2.5625,2.125 2.5625,0 -0.65625,-0.625 0.4375,-0.21875 0.4375,0.40625 0.40625,-0.625 2.34375,2.34375 -0.625,0.21875 0,1.0625 1.28125,-0.65625 0.84375,0.21875 0.84375,1.71875 -0.625,0.84375 0.21875,-0.65625 -1.0625,0 0.40625,0.875 -0.40625,0.625 0.84375,0.21875 -0.4375,0.625 1.28125,1.28125 -0.40625,-1.28125 0.625,1.28125 0.625,-0.40625 1.28125,0.84375 -0.625,-0.625 1.0625,0.1875 -0.4375,0.4375 1.28125,1.71875 0,1.25 2.34375,2.15625 1.28125,5.75 0.21875,-0.65625 0.21875,0.65625 0.40625,0.1875 -0.84375,0.21875 -0.4375,-0.84375 0.21875,-0.21875 -0.84375,-0.21875 0,-0.40625 -0.65625,1.28125 0.875,-0.4375 2.5625,3.1875 1.0625,-0.625 1.0625,1.28125 0.40625,-2.34375 -1.46875,0.625 0.625,-0.4375 0.21875,-1.6875 0.84375,-0.4375 0.4375,0.4375 0,-1.5 3.1875,-3.625 2.5625,-1.28125 -0.65625,0.21875 0.4375,-0.84375 0.4375,0.4375 1.46875,-0.4375 1.5,-4.25 1.28125,-1.5 0.84375,0.4375 0,-4.28125 1.0625,2.34375 0.21875,1.9375 0.625,0.625 -1.6875,1.5 1.28125,2.34375 -2.5625,2.5625 -0.625,1.90625 -0.4375,0.21875 0.4375,1.28125 -0.65625,1.25 0.4375,-0.1875 0.21875,1.25 -0.4375,2.5625 -0.4375,0.4375 -2.53125,-0.65625 -1.09375,3.21875 2.15625,-0.21875 1.6875,-1.28125 1.5,0.625 0.84375,-0.40625 -0.4375,-0.4375 1.0625,-2.34375 0.21875,-2.125 1.28125,-2.96875 3,5.15625 0.1875,0.375 -0.40625,0.21875 -0.21875,-0.65625 -0.21875,4.6875 -2.34375,2.125 3,0.21875 1.25,-1.0625 1.09375,0.21875 3.1875,2.53125 -3.1875,-2.3125 2.75,2.125 1.8125,2.34375 -1.375,-2.125 1.0625,0.84375 1.28125,2.78125 -0.5625,-0.875 1.625,4.28125 -0.21875,1.0625 -1.0625,1.0625 0.84375,1.28125 -0.40625,0.625 1.6875,2.34375 2.46875,3.3125 0.0937,0.3125 1.28125,1.0625 2.53125,0.1875 0,-28.40625 0,-0.0312 0,-45.0625 0,-16.9375 -20.75,0 -59.5625,0 z m 58.1875,69.8125 -7.03125,1.46875 -0.4375,1.09375 1.28125,1.46875 1.9375,-0.21875 1.46875,-0.40625 1.71875,0.84375 0.84375,-0.625 0.21875,-0.875 2.78125,0 0.40625,-0.84375 -1.5,-0.625 -0.84375,1.0625 0.21875,-1.0625 -1.5,0 0.4375,-1.28125 z"
   style="fill:#d3d3d3;stroke:#000000;stroke-width:0.5" /><path
   inkscape:connector-curvature="0"
   id="TAS"
   d="m 214.19375,220.81875 -0.625,1.25 0.21875,2.5625 0,0.84375 0.40625,0.4375 1.28125,-1.28125 -0.21875,-2.96875 -1.0625,-0.84375 z m 26.625,1.25 -1.28125,1.5 0.875,0.21875 0,0.84375 0.84375,0.84375 0.625,1.5 1.71875,-0.625 -0.4375,-1.0625 -0.4375,0.40625 0.4375,-1.0625 0.21875,-0.40625 -0.84375,0 -1.71875,-2.15625 z m 2.78125,5.125 -2.34375,1.0625 2.125,0 0.21875,0.65625 0.84375,-0.65625 -0.84375,-1.0625 z m -24.5,3.1875 0.21875,1.71875 -0.65625,1.28125 0.875,3.59375 1.46875,2.15625 -0.40625,0.40625 2.125,2.78125 0,1.90625 0.625,-0.625 1.0625,1.90625 0.4375,0 -0.4375,1.5 -0.1875,-1.28125 -1.9375,-1.71875 0.65625,3.84375 0.625,0.21875 1.0625,3.1875 1.0625,0.4375 1.0625,2.34375 0.65625,0 -0.4375,-0.21875 0.4375,-0.84375 0.40625,1.25 1.71875,0 -0.21875,0.4375 -1.5,-0.4375 0,0.65625 -0.40625,-0.21875 0.625,1.71875 1.5,-0.65625 2.34375,0.4375 -0.21875,-0.65625 0.84375,1.5 1.28125,0 0.84375,-1.28125 -0.625,-0.625 0.84375,0.21875 0.21875,-0.875 -0.625,-0.21875 0.84375,-0.40625 -0.65625,-0.84375 -0.1875,-0.21875 0.1875,-0.4375 0,0.65625 0.4375,0.40625 0.21875,-0.625 0,0.625 0.84375,0.4375 0.21875,-2.34375 0.625,0.21875 0,-1.28125 -1.0625,-1.71875 1.5,1.9375 0.4375,-0.21875 -0.4375,1.28125 0.84375,-0.65625 -0.21875,-1.0625 0.65625,-0.21875 -1.0625,-0.625 1.0625,0.21875 0.4375,1.0625 0.84375,-0.21875 1.0625,-1.90625 -0.625,-1.0625 0.84375,-0.4375 0.21875,-1.71875 -0.65625,0.21875 1.0625,-2.125 0.65625,0 -0.65625,-0.21875 0.84375,-1.28125 -0.40625,1.28125 1.0625,0.4375 0,1.28125 0.4375,-0.65625 -0.65625,-1.46875 0.21875,-3.84375 -0.4375,-1.28125 0.65625,-1.6875 -0.65625,-0.65625 0.65625,-1.6875 -1.71875,-2.15625 -1.0625,-0.1875 -0.40625,1.28125 -1.28125,-0.65625 -1.5,1.71875 -1.0625,-0.65625 -1.0625,0.84375 -0.875,-0.40625 -1.46875,0.625 1.0625,1.0625 -0.21875,0.4375 -1.28125,-1.5 -1.0625,0.84375 0.21875,0.875 -0.4375,-1.0625 -1.90625,0.40625 -4.90625,-2.96875 -1.28125,0 -0.40625,-1.0625 0,0.84375 -0.875,-0.21875 0,0.4375 -2.96875,-1.5 z m 20.03125,20.25 -0.4375,1.28125 0.84375,0.1875 -0.40625,0.4375 0.625,0.84375 0.65625,-0.21875 0,-0.84375 0.84375,1.0625 -0.4375,-1.90625 -1.0625,0.21875 -0.625,-1.0625 z"
   style="fill:#d3d3d3;stroke:#000000;stroke-width:0.5"
   inkscape:label="" /><path
   style="fill:#d3d3d3;stroke:#000000;stroke-width:0.5"
   inkscape:connector-curvature="0"
   d="m 245.95389,185.84376 c 0.45736,-0.0183 0.92768,0.0569 1.35888,0.25479 0.36984,0.16974 0.49049,0.41158 0.46712,0.67944 -0.0234,0.26786 -0.21132,0.56701 -0.42465,0.89177 -0.42668,0.6495 -1.0095,1.36629 -0.9767,1.99586 -0.0767,0.34534 -0.43405,1.09413 -0.93423,1.18902 -0.25009,0.0474 -0.55443,-0.0665 -0.8493,-0.46712 -0.29488,-0.4006 -0.59283,-1.10259 -0.89177,-2.20818 -0.1825,-0.67494 0.0303,-1.24784 0.46712,-1.65614 0.43677,-0.4083 1.0975,-0.65199 1.78353,-0.67944 z"
   id="ACT" />
</svg>