<?xml version="1.0" encoding="UTF-8" standalone="no"?>
<!-- Generator: Adobe Illustrator 15.1.0, SVG Export Plug-In . SVG Version: 6.00 Build 0)  -->

<svg
   xmlns:dc="http://purl.org/dc/elements/1.1/"
   xmlns:cc="http://creativecommons.org/ns#"
   xmlns:rdf="http://www.w3.org/1999/02/22-rdf-syntax-ns#"
   xmlns:svg="http://www.w3.org/2000/svg"
   xmlns="http://www.w3.org/2000/svg"
   xmlns:sodipodi="http://sodipodi.sourceforge.net/DTD/sodipodi-0.dtd"
   xmlns:inkscape="http://www.inkscape.org/namespaces/inkscape"
   version="1.1"
   id="svg2"
   inkscape:output_extension="org.inkscape.output.svg.inkscape"
   sodipodi:version="0.32"
   inkscape:version="0.48.2 r9819"
   sodipodi:docname="brasil.svg"
   x="0px"
   y="0px"
   width="527.09198"
   height="540.52502"
   viewBox="0 0 527.09197 540.525"
   enable-background="new 0 0 623.622 549.921"
   xml:space="preserve"><metadata
   id="metadata3194"><rdf:RDF><cc:Work
       rdf:about=""><dc:format>image/svg+xml</dc:format><dc:type
         rdf:resource="http://purl.org/dc/dcmitype/StillImage" /></cc:Work></rdf:RDF></metadata><defs
   id="defs3192">

</defs>
<sodipodi:namedview
   id="base"
   showgrid="false"
   inkscape:zoom="1"
   pagecolor="#ffffff"
   bordercolor="#666666"
   borderopacity="1.0"
   objecttolerance="10.0"
   inkscape:cy="282.59443"
   gridtolerance="10.0"
   guidetolerance="10.0"
   inkscape:cx="200.6509"
   inkscape:window-maximized="1"
   inkscape:current-layer="svg2"
   inkscape:window-y="-8"
   inkscape:window-x="-8"
   inkscape:window-width="1366"
   inkscape:pageopacity="0.0"
   inkscape:pageshadow="2"
   inkscape:window-height="716"
   fit-margin-top="0"
   fit-margin-left="0"
   fit-margin-right="0"
   fit-margin-bottom="0">
	</sodipodi:namedview>

<path
   style="fill:#b3b3b3;stroke:#ededed"
   d="m 96.717505,208.90399 c 1.06219,-1.79373 6.168285,-2.29945 5.286995,-5.562 2.4946,0.27167 6.85487,-0.5002 8.478,2.279 0.9997,-2.12742 3.28909,-2.06154 4.652,-1.642 -1.51695,-2.69561 4.49111,-3.51242 3.374,-0.36 3.00565,0.23784 3.08711,-3.66063 4.194,-5.746 2.36578,-0.14137 4.95377,-0.36465 7.476,-0.914 1.31372,2.28542 2.75476,-1.58064 2.553,-3.188 2.04753,-0.6977 2.63744,-2.07788 2.279,-4.013 -1.02574,-2.86197 3.80526,-0.34302 3.008,-3.461 1.5126,-4.47855 8.08515,-3.07934 12.213,-2.28 2.43735,0.91276 2.56573,4.85027 4.468,4.74 2.77898,-0.69372 1.21804,5.55712 3.281,3.098 1.16992,1.13232 2.25372,4.93624 5.106,3.738 0.2999,-3.69217 5.02221,-1.45009 4.922,1.367 -1.23043,1.97771 0.0298,4.62162 -1.551,4.559 -0.21236,2.41059 2.44868,3.57173 1.186,5.835 -0.52175,0.66653 0.63009,3.90477 -0.912,5.837 0.5898,2.35827 2.11017,5.10994 1.55,8.205 -0.0612,1.33558 -2.58058,5.11786 2.14817,3.831 4.52399,0.22673 11.19825,-1.01504 12.97983,1.552 0.77544,-0.65773 5.09549,0.27186 4.741,0.639 1.22726,1.8452 1.14729,4.6333 -1.276,5.652 -0.79222,2.0176 -0.3606,4.349 1.367,5.561 0.25001,1.25912 2.01883,4.57876 2.279,5.835 -1.32352,1.86921 -4.6511,3.4362 -3.828,7.478 -3.13487,1.67364 -2.63044,5.6571 -4.741,7.931 -2.93046,0.76748 -3.62501,4.80774 -6.31,0.638 -1.6121,-0.22742 -1.37009,-0.90991 -3.009,-0.271 -1.19536,-0.49938 -2.81565,0.25873 -5.193,0.063 -2.13817,-1.20556 -4.03548,1.88412 -5.47,-1.641 -1.21789,-0.12282 -2.35391,-3.65266 -3.191,-3.648 -1.20132,0.26973 -3.48902,-0.44029 -4.013,-0.91 -2.24269,-0.90426 -2.32407,-1.63754 -4.013,-0.914 -1.24348,-2.39719 -3.92289,-2.26015 -4.194,-4.923 -1.44743,-1.21676 -2.36695,1.80911 -4.74,-0.822 -1.05317,-1.54953 -5.47813,-3.26342 -7.005,-0.993 -2.01939,-0.63171 -2.90865,-0.41993 -4.376,-0.731 -3.69673,-0.18395 -1.81851,-4.27999 -5.655,-4.1 0.10264,-2.284 -0.36237,0.42897 -1.274,-1.096 0.005,0.17917 -0.86648,-2.29561 -2.371,-1.095 -1.33156,-0.32406 -0.47166,-5.72443 -2.734,-3.647 -2.13901,-0.59765 1.26612,-3.57637 -1.641,-3.646 0.37733,-2.83644 -1.5175,-3.92003 0.365,-5.927 0.9067,-2.73953 -2.42158,-5.3648 -1.64,-8.286 1.9531,-2.68956 1.27122,-6.66034 1.001,-9.483 -2.03505,-3.90063 -3.0545,3.25103 -4.557,0 -0.21757,0.20683 -1.05718,-0.94159 -1.824,0.09 -0.50154,-0.56181 -2.01274,-0.27964 -2.918,0.366 -2.42809,-1.33371 -5.21894,2.90849 -10.471995,0.005 z"
   id="RO"
   inkscape:connector-curvature="0" />
<path
   style="fill:#b3b3b3;stroke:#ededed"
   d="m 2.7535046,171.53699 c 14.8577694,8.93729 32.5386884,9.90496 48.4478004,15.57467 14.879525,9.37779 33.52083,15.85624 47.8872,23.42833 -3.05553,1.30152 -4.04672,3.75285 -6.29,4.927 -1.50753,0.88606 -3.04545,0.42348 -3.83,1.367 -1.15393,0.67955 -4.3673,3.5292 -4.831,4.463 -2.253112,-1.76636 -4.771462,-0.86138 -5.923,2.098 -1.44891,2.64632 -5.145162,3.69205 -7.563,3.281 -0.292006,-2.74908 -2.604601,-0.30012 -4.74,-1.639 -3.139417,-0.8196 -5.072329,-0.46059 -8.658,-0.186 -3.109082,-1.6471 -4.382319,1.21576 -7.199,1.277 -2.209829,1.21094 -2.413799,-2.93862 -4.559,-0.821 0.452749,-5.47017 -1.459777,-14.47498 1.185,-17.772 -2.317638,-2.60117 1.184554,-2.56964 0.093,-3.919 -2.519696,1.15804 -3.573675,2.76008 -6.288,4.923 -2.880971,2.3221 -5.511182,3.89561 -10.444168,3.008 -4.924625,0.99241 -6.089246,-0.20669 -5.413832,-3.008 -2.117347,-0.76183 -0.72397,-3.95293 -3.373,-4.102 -3.039712,-0.34409 -5.878295,-1.25673 -10.299,-1.733 2.168575,-1.17056 4.733621,-4.97305 2.097,-6.197 -0.7996,-3.18413 -3.6666104,-3.53146 -4.1980004,-6.202 -3.474904,-1.00627 -2.737594,-6.25502 -5.743,-7.841 2.528795,-0.88328 -0.367431,-2.61212 -2.098,-4.102 -1.06593198,-0.56447 -0.17016798,-3.63622 0.008,-3.456 2.250289,0.22643 4.227653,-0.4719 1.732,-3.369 z"
   id="AC"
   inkscape:connector-curvature="0" />
<path
   style="fill:#b3b3b3;stroke:#ededed"
   d="m 2.7535046,171.53699 c 0.546799,-3.27373 3.036525,-6.0186 6.201,-7.203 4.5853714,0.10607 2.1206154,-4.43967 1.3660004,-7.106 0.836427,-3.62374 4.464417,-4.96501 4.102,-9.117 1.122253,-2.43948 0.595525,-4.31059 2.827,-4.923 2.143459,-0.85653 3.699244,-1.84703 4.552,-3.19 2.113887,-0.97216 5.447843,-2.59541 6.746,-4.379 2.651513,-1.03287 3.102219,0.55468 4.832,-0.638 0.996962,-0.69897 3.287475,0.0747 3.829,-1.185 1.242491,0.1475 2.684028,0.42586 4.833,-0.911 -0.05095,-2.18616 3.103649,-1.91578 3.375,-2.463 0.432526,0.69663 2.001352,0.69236 2.55,-0.094 2.768169,0.0338 1.27697,2.81569 3.467,2.919 0.585459,-2.63603 2.419574,2.12031 3.283,-1.824 2.264271,-14.12755 5.628608,-29.73633 7.199,-42.914997 -0.612441,-2.407137 -3.851693,-4.282568 -2.566,-6.834 -0.621372,-3.794044 -8.008707,-3.525639 -6.196,-9.479 -0.247758,-4.494269 -0.525963,-8.233033 3.191,-7.016 1.722307,-1.304421 3.098211,-1.208423 4.742,-2.008 1.802784,1.924328 2.650383,1.438891 4.65,0.913 -1.562882,-2.453951 0.418353,-4.546991 -2.835,-6.107 -2.387859,0.765815 -5.11596,-0.663992 -7.012,0.091 0.08828,-4.64055 -1.49869,-9.709515 3.28,-9.388 4.972784,0.378709 13.68212,0.888389 19.323,0.181 -2.410567,0.277461 -0.604976,-5.387748 1.277,-2.004 2.652047,2.794481 2.97031,-3.429358 6.199,-1.915 2.35864,-5.485114 4.02383,-1.014268 4.831,2.459 5.2866,0.37672 -1.3746,12.439732 5.197,8.658 3.67342,4.574945 10.145355,9.209947 13.214995,4.289 2.20753,-2.113866 6.44717,-1.10275 4.285,2.006 -0.006,3.882431 2.73844,-1.061252 3.375,-2.282 2.7043,1.907083 1.35173,-4.46499 3.83,-2.552 1.02906,-1.495418 2.21506,-2.487303 3.19,-1.823 1.8211,0.814367 4.19854,-4.657756 5.65,-3.096 -0.82549,3.625915 1.46347,-1.388733 3.375,-1.46 0.73042,-2.866387 0.40973,-6.714326 4.195,-5.561 1.88743,-0.484224 2.53235,-2.173894 5.379,-2.189 0.18953,-1.277047 4.04405,-0.711809 4.379,1.461 4.37591,-0.774508 6.39483,2.92209 3.554,6.289 2.78526,2.427634 4.50405,6.291964 4.466,9.301 -0.31431,2.673258 -1.30578,5.77671 0.179,7.746 -0.17019,3.65259 2.99947,7.02966 3.17,9.204 0.61929,1.650409 -1.90293,3.042896 -1.186,4.829 -0.60343,1.143882 -4.04167,-0.108626 -1.821,2.099 2.60162,2.044831 6.05904,4.205424 7.751,8.202 2.35797,-1.690606 7.24703,4.97181 4.284,0.363 -1.89203,-1.520368 0.43975,-5.204428 -0.09,-7.385 0.36109,-3.40554 4.01863,-5.669145 6.653,-5.285 2.69919,0.671498 3.43345,3.485347 4.742,4.832 2.1247,0.811787 3.32271,-1.283148 5.38,-2.371 -2.27071,-2.126612 0.27874,-5.379824 0.729,-7.292 1.55495,-3.496257 2.88972,-7.647097 8.96267,-5.925 5.96778,-0.811815 10.19736,-0.284621 9.72233,5.65 -1.05255,3.156992 2.85367,4.018927 2.003,6.929 2.50026,2.517609 3.80186,3.309128 4.725,6.381 1.61518,1.238287 3.08702,1.476213 4.65,0.181 0.81889,2.067859 -0.22394,4.594599 2.642,4.558 1.99137,2.215421 4.6288,2.62648 6.381,3.828 2.81799,-1.41142 3.38154,2.99652 7.382,4.103997 1.44631,-0.14319 -0.10491,4.12274 2.556,2.188 2.16148,0.2616 4.65532,-1.66686 6.655,-1.824 -1.5683,2.51232 -5.73372,3.812 -4.373,6.473 -8.66361,18.511 -16.5667,38.42354 -25.795,56.05 -5.4386,4.64538 6.34177,8.35384 1.825,13.676 -0.57511,2.87652 -3.49237,4.47151 -1.004,7.659 -0.13157,2.75312 -2.05843,5.7456 -1.64,8.479 4.61043,1.3623 -13.77865,1.81713 -8.73984,1.185 -11.32522,-0.46015 -23.75532,0.74743 -34.45916,-0.729 -1.91813,-2.68677 -2.9135,2.69391 -4.83,1.367 -2.8269,-0.19229 -1.77892,-4.43869 -4.104,-3.375 -0.64903,0.87283 -0.6194,-5.17261 -3.19,-3.279 -1.61933,-2.53443 -3.46259,-7.20374 -9.0025,-5.469 -5.05925,-1.3853 -6.57558,1.55376 -7.8625,4.922 -3.66271,-1.9119 -1.20569,3.87238 -2.642,3.555 -1.05434,1.90291 -2.50174,2.73366 -2.551,5.197 -1.98625,0.51935 -3.41562,-0.7402 -5.835,0.729 -2.73087,-1.16255 -4.72285,0.59736 -4.56,3.556 -1.00025,1.64492 -3.60519,3.8019 -3.465,0.091 -2.42113,-0.31294 -3.49923,1.40969 -3.466,2.462 -1.82187,-1.23094 -3.07554,0.63102 -4.467,1.823 -1.20808,-3.50828 -6.9481,-2.22375 -8.024,-2.095 -1.42403,4.13277 -6.558725,6.36423 -10.299995,3.1 -15.924687,-5.78319 -30.500185,-14.79887 -45.751,-21.692 -14.940217,-3.33484 -29.914424,-5.93108 -43.3700004,-13.602 z"
   id="AM"
   inkscape:connector-curvature="0" />
<path
   style="fill:#b3b3b3;stroke:#ededed"
   d="m 131.8965,24.803993 c -1.42444,-4.07091 -6.15023,-5.17141 -8.021,-9.211 -1.32518,-4.523319 2.99994,2.59729 5.289,0.275 3.30823,-1.511038 4.47502,3.651422 6.019,3.191 1.75086,-1.606658 3.94187,1.349327 3.555,-1.548 1.22548,2.869946 3.65479,2.67336 3.281,0.548 3.27684,-0.718391 1.92639,2.07487 4.65,2.915 0.22005,2.408937 2.06878,2.220497 3.74,0.457 2.21154,1.765416 -0.32072,-2.784669 0.545,-3.467 0.59317,-1.771341 3.85163,0.378742 3.012,-1.73 0.97226,-2.053174 3.70028,0.308152 5.65,0.094 1.34097,-1.85543 2.13279,0.383635 3.647,-1.003 0.52044,-1.881471 3.6476,-0.02805 4.378,-2.189 -0.24896,-2.52194 4.54468,-0.349817 2.644,-2.822 1.67026,0.543829 5.40342,0.861195 5.469,-1.8259997 2.22267,-1.001859 5.66346,-3.6450233 3.466,-6.468 -1.98122,-2.68438006 3.85673,0.2579622 5.106,-1.36899996 1.97122,-0.8893349 4.61454,2.34652786 3.646,4.55899996 0.57967,2.712395 -3.03046,5.1728477 -1.37,5.3799997 2.15954,0.828752 4.4274,-0.0449 5.655,2.546 -1.54759,2.172582 1.82389,4.111512 1.551,5.017 1.34081,0.09406 -0.52908,2.335441 -0.913,2.553 -0.29197,2.084072 -4.35726,2.36391 -2.279,4.284 -0.0876,2.101897 -1.30784,4.154593 -2.004,6.203 -0.74748,3.85449 -0.0278,8.475018 2.461,10.303 1.85009,0.97079 -0.4443,4.76207 0.911,5.926 1.14628,-0.08336 -0.24197,2.247856 2.371,2.005 1.95119,2.793924 3.98731,5.308001 8.298,5.656 -0.5465,3.689063 3.56269,16.082332 -3.735,14.399 -5.27972,-0.168597 -12.32124,-1.10467 -13.214,3.738 -1.27658,2.980859 -2.44669,4.915447 -2.737,8.117 3.05198,1.861251 -2.10248,2.434981 -2.186,3.827 -2.92796,1.04917 -3.26127,-2.286076 -4.927,-4.037 -2.50918,-1.62392 -4.59058,-0.944933 -6.954,0.912 -3.064,2.870847 -1.16085,6.139367 -2.464,9.207 -0.24168,1.293912 3.94367,5.53257 0.093,1.914 -3.69991,-0.143262 -4.4905,-2.259193 -6.473,-4.832 -1.53773,-2.300987 -5.83745,-3.315759 -5.381,-5.835 3.2889,1.717763 1.69768,-2.721442 3.918,-4.375 -0.78229,-2.229289 -2.43462,-5.348594 -3.646,-8.844 0.10521,-2.718408 -1.66588,-4.979024 -0.172,-7.833 0.70302,-3.11232 -1.18964,-6.054177 -2.918,-8.75 -3.40498,-1.93183 2.97927,-7.604895 -3.007,-7.66 -2.82376,0.0064 -3.08315,-2.755038 -6.017,-2.552 0.36433,-5.038538 -3.57857,-1.585526 -7.019,-3.001 -4.62922,-0.515253 0.78336,-4.081878 -2.371,-6.2 -1.20412,-2.183835 -3.8845,-6.285819 -1.547,-8.474 z"
   id="RR"
   inkscape:connector-curvature="0" />
<path
   style="fill:#b3b3b3;stroke:#ededed"
   d="m 256.9395,39.383993 c 3.07334,-0.02378 8.01368,5.920868 12.58,2.464 0.2013,-0.529291 3.1066,-2.41974 2.736,-0.822 1.93287,1.434551 4.3067,0.06026 5.56,-0.091 1.95734,0.978385 -0.90745,2.48174 2.371,1.551 3.44344,1.656575 4.80308,-1.887671 7.382,-3.647 0.6328,-2.798655 3.2999,-6.892526 3.465,-9.663 2.7554,-2.157647 4.327,-7.602371 7.386,-10.389 2.35425,-1.238959 2.24834,-5.638186 3.737,-6.93 3.28635,2.312461 5.13538,6.105862 5.65,9.207 -0.85015,6.446341 2.08808,11.831136 3.283,17.317 0.91344,-0.470676 1.57041,4.807025 2.282,4.92 5.52264,-3.065485 3.79434,6.250977 8.933,5.561 3.49901,3.244763 0.8377,10.8465 -1.093,13.311 -1.79455,1.510125 -6.25158,2.352335 -6.399,6.655 -4.35154,4.043501 -10.36927,5.764276 -12.486,11.849 -3.57916,1.978731 -2.33221,10.758176 -6.382,8.019 -1.17846,0.951298 -1.52257,2.049712 -2.825,0.094 -3.79373,0.126508 -3.02507,-2.315929 -3.739,-4.202 -2.43105,1.751957 1.18471,-4.921974 -2.551,-3.371 -0.99746,-2.283715 -0.25642,-5.689612 -3.921,-6.199 -1.2579,-4.223332 -4.26855,-7.55609 -2.552,-11.577 -2.28098,-1.715239 -5.50558,-4.777329 -3.92,-7.014 -1.20621,-0.435461 -1.94422,-0.493214 -2.007,-2.004 -1.93898,0.142115 -1.11898,-1.303642 -2.918,-0.73 -1.2616,0.421316 -2.64437,-1.756725 -4.01,-1.457 -0.82194,-2.269166 -2.29906,-2.772019 -4.56,-3.465 -3.15854,0.370469 -4.99307,-0.514326 -4.924,-3.463 -0.57004,-2.178393 0.94462,-3.526276 -1.078,-5.924 z"
   id="AP"
   inkscape:connector-curvature="0" />
<path
   style="fill:#b3b3b3;stroke:#ededed"
   d="m 312.3515,231.41299 c 2.59133,-5.48059 0.72362,-10.60694 4.377,-14.95 0.69385,-5.19405 4.45679,-9.58767 5.109,-14.765 2.38539,-3.50369 5.85597,-6.45525 8.57,-10.121 1.45096,-3.61137 5.99016,-9.90694 0.734,-12.489 -1.20082,-3.42523 3.92403,-6.13026 1.824,-10.118 2.67207,-2.88443 7.99977,-1.81875 8.022,-6.565 1.97032,-2.18318 3.86301,-0.29803 2.368,-3.556 2.67359,-0.93754 0.51139,-2.6242 2.739,-3.737 -3.36733,-2.52088 4.29347,-4.00985 -0.639,-5.38 -0.46315,-3.1308 -5.51354,-0.84059 -6.111,-2.643 2.1409,0.0364 3.44632,-4.18276 6.835,-1.55 2.36835,0.49779 4.67058,-0.44101 5.741,2.096 6.35194,0.63129 3.77322,7.98349 5.565,12.4 -1.89818,3.87941 -0.60029,9.08174 -3.922,11.94 -2.55284,0.76022 3.48742,1.5916 2.352,2.099 -0.53815,2.38558 -1.19667,1.15467 0.367,3.281 1.20765,0.34839 1.18721,1.67836 1.915,1.826 0.79865,1.32062 2.49945,3.92574 4.472,5.56 1.39727,-1.46096 4.08724,-3.27141 6.752,-1.185 1.00355,2.99975 -1.17694,5.44826 -4.012,5.561 -0.89827,2.52639 -1.67386,2.52539 -1.826,4.742 1.10888,2.3168 -3.87623,4.47113 -0.638,4.925 0.99874,-0.13545 1.97784,1.97811 2.188,3.1 0.86805,2.17667 3.07604,1.14575 3.648,3.463 -3.56015,3.26869 1.9167,2.99214 1.091,6.377 0.80476,3.85613 5.53801,1.27225 6.835,3.373 2.76824,-0.0377 4.38644,-2.59867 2.644,1.276 -1.82295,1.08986 -4.02812,3.54944 -6.111,4.286 0.14358,2.43154 -2.98082,4.4621 -3.916,7.569 -3.63564,1.66744 1.12398,5.3311 3.738,5.198 3.7115,1.16785 -0.69507,0.16295 -1.094,1.096 -0.20156,1.28341 -1.98262,3.10098 0.639,3.281 2.93127,-0.11011 -3.81699,1.25817 -1.546,3.284 -0.44199,2.41732 0.83083,2.88913 1.913,5.014 2.4796,-0.62984 -1.83095,1.33745 -0.729,2.462 -0.54233,2.45438 0.60857,4.395 1.64,3.556 -2.15635,1.37786 -3.09628,0.40105 -3.007,-1.185 0.24714,2.08311 -4.4283,1.16837 -6.108,2.551 -2.01291,1.65391 -4.55767,2.29213 -6.39,3.012 -2.35442,0.72278 -1.95494,-0.93293 -4.285,-2.009 -1.18293,1.55328 1.55395,7.08541 -3.102,2.903 -1.79776,-0.0442 -2.49296,-1.65042 -3.925,-0.091 0.31081,-1.88664 -0.39504,-2.49563 -1.735,-1.461 -0.9789,1.24336 -2.8868,1.2722 -2.828,-0.909 -0.84268,1.48452 -1.66575,3.39868 -1.095,0.548 -0.3121,-2.41476 -2.60943,-3.06599 -3.837,-5.108 -1.79671,4.02593 -2.84647,-0.33146 -4.1,0.364 -1.88079,1.39067 -2.3713,3.96819 -2.736,6.108 -4.02924,-3.95584 -10.75424,-4.53152 -12.672,-6.564 0.50682,-2.2108 1.0619,-2.9359 2.098,-5.107 -1.42122,-0.18006 -4.31856,2.97784 -4.718,5.933 -1.59365,-0.11405 -2.20678,-2.78513 -2.095,-3.65 1.15964,-3.14537 -0.76534,-6.83644 0.092,-10.119 -1.30239,-1.91483 0.80047,-3.81232 -1.094,-5.653 l 0,-0.269 0.003,0 z"
   id="TO"
   inkscape:connector-curvature="0" />
<path
   style="fill:#b3b3b3;stroke:#ededed"
   d="m 166.1655,201.52099 c 2.45982,-0.19428 0.42621,-3.63667 1.914,-5.469 -4.83156,-3.71851 16.14137,1.31191 9.934,-1.186 10.49228,-0.20027 21.30642,0.6423 31.624,-0.275 1.37155,-1.28947 -1.08155,-0.9808 -0.182,-3.463 1.44573,-3.16039 1.87015,-6.41896 0.457,-9.757 2.91558,-1.22727 1.94436,-10.27675 5.379,-4.013 0.82229,3.69892 3.51811,7.32595 4.104,10.574 -0.19771,3.0599 0.4227,6.36272 3.371,7.294 1.55806,1.30178 5.5331,2.25661 5.105,5.382 3.87203,-0.60946 2.61077,3.86382 6.42755,2.31716 27.93905,2.71254 58.12805,4.05192 84.71045,6.79984 -1.80532,4.01441 -3.17618,8.28362 -4.561,11.574 -0.21474,3.66619 -1.2432,7.33016 -2.096,11.491 2.33461,0.98208 -0.5348,4.00537 1.094,5.196 -0.7908,3.68256 1.33784,7.37498 -0.549,10.212 1.65637,1.10041 0.57784,2.60051 2.644,3.1 -2.11343,2.56758 -0.14363,6.25597 -3.462,9.118 -1.85298,2.63017 -0.73732,5.33948 -1.462,8.204 -2.41904,1.36127 -0.77794,6.3105 -2.461,8.842 0.0171,3.12272 -2.91861,3.72867 -5.014,3.369 -3.59809,1.25133 -2.91441,5.22494 -4.375,7.546 0.30405,1.06109 -1.87679,4.10643 -3.464,4.559 -3.72449,-1.00181 -4.23074,3.53722 -7.11,4.101 -0.13785,1.44073 -3.68791,2.29311 -0.82,3.924 -1.41367,2.12862 -1.5447,2.01818 -3.191,4.197 -1.84325,0.63605 -2.9226,2.52262 -3.193,4.383 -1.97112,2.00428 -1.56288,3.95493 -2.281,6.206 -0.55283,2.56698 1.87648,3.86644 2.372,7.118 -3.18432,-0.70378 -4.64414,-0.69035 -6.564,-0.365 -1.65811,-0.30724 -3.64512,-0.5575 -4.635,-1.372 -1.73713,-0.0239 0.91254,-4.22305 2.733,-3.559 1.1592,-3.95641 -0.0306,-7.95708 -2.279,-4.012 -2.03606,1.24912 -2.35288,2.85115 -3.556,3.47 -1.57938,0.10726 -3.60381,1.0446 -3.644,-0.911 -2.5124,-3.0334 -5.78156,1.61653 -8.297,1.096 -2.93206,0.25972 -3.56985,-1.42858 -6.928,-2.467 -0.70187,-1.83042 -3.87308,-2.05884 -5.19,-2.583 -0.95549,-1.34609 -3.5068,-1.66686 -4.559,-0.362 -2.02156,1.12405 -4.20995,1.07749 -6.565,1.094 -0.59322,1.4823 -2.06921,2.69293 -2.733,4.015 -2.17305,3.50582 -4.79367,1.92702 -6.748,3.921 -2.30389,-1.51008 -2.63658,-2.56817 -3.737,-5.018 -2.81373,0.22907 -4.89449,-1.32313 -6.745,-2.463 -2.64003,-3.56972 -3.85011,-5.54638 -2.371,-10.852 1.60164,-0.87903 2.10488,-5.94238 -0.184,-3.458 -7.33092,-1.52536 -18.42808,1.28068 -23.46116,-2.32355 -0.0209,-10.85321 -6.23118,-12.9187 -1.12072,-19.15223 -0.89678,-4.61244 -2.5868,-5.19666 -2.94412,-9.06222 2.5453,-2.30463 -0.52234,-3.34202 -0.091,-4.47 -1.68102,-0.39971 -4.79479,-2.06416 -0.531,-3.557 3.52434,-1.39186 1.8163,-6.78205 5.561,-8.022 0.27343,-2.88529 0.78251,-6.73282 3.737,-6.931 1.25936,-2.06337 -2.03818,-4.68463 -1.729,-6.563 -1.7078,-1.56258 -2.6305,-3.50142 -1.642,-5.745 1.94856,-1.10734 2.84275,-3.84544 1.276,-5.718 0.35609,-0.65617 -4.33521,-1.25014 -5.013,-0.823 -2.20649,-3.4399 -12.03111,-0.33275 -15.587,-1.639 0.40052,-2.92045 1.09574,-4.85508 0.547,-8.117 -2.69294,-2.57003 0.13848,-5.77257 -0.547,-9.028 0.0373,-0.4408 1.2149,-2.95933 -0.637,-3.737 1.10658,-1.23113 -1.19773,-1.57106 -0.731,-2.63 z"
   id="MT"
   inkscape:connector-curvature="0" />
<path
   style="fill:#b3b3b3;stroke:#ededed"
   d="m 278.8145,315.35399 c 0.43383,-1.96506 0.64863,-4.52251 2.278,-5.932 0.20622,-2.44513 1.53438,-3.54638 3.284,-4.385 1.47373,-2.4349 1.66663,-1.87491 3.005,-4.105 -2.54446,-1.12458 0.0146,-2.92022 0.729,-3.285 0.44323,-1.9209 4.14647,-2.06805 4.193,-4.649 3.75387,0.97161 6.29666,-2.81894 6.654,-4.65 0.80632,-3.12069 1.58583,-7.65477 5.83,-7.812 3.34418,1.37711 3.668,-4.59927 4.467,-7.198 -0.97426,-3.78012 2.89576,-5.15316 1.547,-8.841 0.33529,-3.38339 4.33913,-7.24732 3.742,-10.76 1.34244,-4.42283 2.38017,-7.48032 5.828,-9.106 -1.26462,1.97199 -1.06493,3.29176 -2.099,4.375 -0.86117,4.02608 7.04403,2.22331 10.61481,6.76719 3.38403,2.61646 1.80753,-3.68316 4.24619,-4.76319 1.78539,-2.00841 2.23809,4.04895 4.284,-0.636 1.40445,1.20769 2.40272,2.62495 3.743,3.832 0.31612,1.35068 -0.21249,4.74904 1.005,1.184 1.07947,-1.3791 0.28569,3.25461 2.283,1.001 0.98537,-0.65947 3.19316,-1.8712 2.831,0.822 1.47199,-1.52166 2.23948,0.32627 4.559,0.457 4.26956,4.70179 0.10092,-4.94234 3.076,-2.557 1.78575,1.39791 1.83285,1.72193 4.103,1.371 1.43929,-1.01388 3.52397,-1.42071 5.295,-2.464 1.02626,-2.33031 6.90666,-0.4271 6.292,-3.099 0.72538,0.86542 0.35427,2.88657 3.007,1.367 2.02346,-0.34835 -3.47169,1.71175 -1.644,3.556 -1.10829,2.62676 1.82092,1.37273 3.465,1.094 -1.86707,1.44307 -3.89868,3.10016 -1.549,4.284 -2.21126,2.28188 -1.19119,2.82428 -0.82,5.654 -1.75002,2.65207 4.82973,2.63557 3.647,5.745 -1.67223,0.31021 0.0794,2.87899 -0.821,4.015 0.46491,3.6391 -4.00965,4.35715 -4.655,1.275 -4.09645,-3.56973 -1.43526,2.82328 -2.735,3.832 -2.92608,-1.27416 -6.27017,0.039 -4.464,2.278 1.71738,1.63378 -2.22021,4.06303 0.544,5.743 2.78936,3.63153 -3.23384,4.37825 -4.194,4.01 -0.4015,1.55583 -3.62061,1.47087 -2.831,-0.821 1.98391,-3.08479 -0.12544,-6.75326 -5.376,-5.293 -3.81178,-1.08556 -7.23275,0.63484 -5.924,3.554 -1.53328,1.9934 -1.15018,5.3023 2.642,4.104 3.67804,0.42733 11.1289,-1.5606 9.115,1.81 0.17987,1.5665 -2.89691,5.89283 -0.184,5.563 1.93549,0.66905 1.95532,4.74739 3.015,5.844 -1.5222,1.20402 -3.35884,2.35397 -4.471,4.835 -1.77716,-0.62153 -1.04691,3.45887 2.006,2.556 1.35742,2.37151 -1.99046,4.23637 -0.092,6.027 0.98481,1.7947 -2.29824,2.90236 -2.922,3.105 -1.36401,1.04255 -1.96958,2.83572 -3.917,3.057 -1.28409,2.12594 -3.68019,-0.85635 -6.205,-1.096 -1.5564,0.88422 -5.11683,-0.55635 -7.296,-0.002 -2.22824,-0.88855 -3.10501,1.36111 -5.104,1.093 -0.0363,1.48312 -3.41809,4.83528 -3.831,1.004 -1.77095,1.32595 -4.01718,2.28317 -7.185,1.548 -3.00208,0.59704 -6.29878,3.15655 -6.555,6.474 -2.07713,0.8212 -5.36474,3.39646 -4.286,5.836 -2.61275,-1.11696 -3.40916,-3.32781 -6.202,-3.559 -2.96224,-1.75751 -6.94109,-1.81503 -8.847,-3.65 -1.76325,-0.1901 -3.35936,-2.36951 -5.471,-2.466 -0.76882,-3.69039 -7.98633,0.47071 -7.658,-3.924 1.75322,-1.32737 3.75122,-3.44835 -0.548,-2.917 -2.57319,1.723 -1.98432,-3.76708 -1.367,-4.741 -1.06728,-2.72228 -2.81883,-3.95341 -2.077,-6.361 z"
   id="GO"
   inkscape:connector-curvature="0" />
<path
   style="fill:#b3b3b3;stroke:#ededed"
   d="m 214.4685,343.69599 c 2.94765,-6.15062 4.99728,-7.49065 4.89579,-13.35208 2.76607,-5.62075 3.28626,-4.59868 -0.4795,-10.09871 0.32019,-0.99432 -2.5506,-5.99494 0.0487,-3.52821 0.31157,2.0458 2.06936,3.65503 3.556,3.74 2.3864,-1.1297 5.4934,-1.18126 6.926,-4.559 1.53745,-1.42021 2.13616,-3.84501 4.197,-2.918 2.97381,-0.29066 4.17259,-1.05132 6.746,-2.193 2.20842,1.14877 2.92969,1.57016 5.644,2.461 1.15604,-0.0436 2.65857,2.70558 4.926,2.741 1.50158,1.28794 4.22521,1.96149 7.475,0.09 2.33234,-2.52287 5.00887,0.0234 5.927,1.459 2.20489,-0.9306 3.58315,-0.17125 3.922,-2.555 2.45283,-0.38771 5.22333,-7.06831 4.50302,-0.0802 1.32096,2.82109 -4.71376,3.99985 -3.22602,6.09624 1.53143,0.5955 2.82888,1.47734 5.014,1.278 1.63251,0.61586 2.52969,-1.00055 5.198,0.551 2.2849,-1.17867 -1.09626,3.77559 2.004,4.281 1.97909,-1.94512 5.01151,0.37866 1.918,1.552 -3.15885,3.5632 3.81057,2.92365 5.831,3.101 1.32436,2.73589 4.53954,2.26931 5.837,4.018 2.45527,0.39915 3.99089,2.57807 7.574,2.555 2.45222,1.6515 7.49745,2.12537 6.748,5.931 -3.16989,1.95624 2.03429,9.34554 -3.918,10.028 -2.94919,1.62285 -6.0267,5.12746 -5.196,8.751 -2.4999,1.23604 -3.72512,2.96123 -3.284,5.651 -0.5278,2.51192 -4.42398,1.66084 -2.461,4.374 -3.23533,3.71383 -5.4068,8.33809 -10.574,10.301 -3.619,1.93793 -5.32313,5.17523 -9.481,6.564 -1.95566,2.5113 -1.48017,7.5419 -5.836,7.93 -0.8543,2.97007 -1.89228,10.81597 -5.654,7.017 -2.44772,-3.2678 -5.68544,-1.19176 -7.842,-0.09 -2.42495,0.3836 -7.13988,1.57853 -6.124,-2.829 -0.7583,-1.63882 -2.00913,-3.52637 -1.275,-5.927 0.0225,-2.64493 -2.61803,-5.68274 -1.095,-9.299 -2.04017,-2.22896 -1.89041,-5.90901 -5.379,-5.109 -2.44127,0.46888 -4.60088,-1.53294 -5.47,-2.92 -1.53892,0.0571 -2.39396,3.08809 -3.65,2.191 -1.69447,0.80547 -2.80832,0.32073 -4.913,-0.09 -2.21217,0.0331 -3.86406,0.11707 -6.29,-0.733 -1.68273,-1.93093 -2.89471,-0.22585 -5.014,-0.73 -2.45593,-0.2274 0.15277,-3.46223 -0.363,-4.104 0.79494,-2.44531 -1.25586,-4.01978 1,-7.108 -1.72808,-0.82408 2.34447,-5.59115 -1.002,-5.743 1.84258,-1.63375 -1.38872,-1.47844 0.729,-2.556 -1.97037,-0.39058 -1.59779,-1.68084 -1.914,-4.372 -0.87544,-1.62654 -2.09641,-1.87745 -1.55,-3.009 -0.73001,-1.65958 7.3763,-2.35567 1.35348,-4.77759 -2.74967,-0.70613 -0.2313,-2.55596 0.0175,-3.98041 z"
   id="MS"
   inkscape:connector-curvature="0" />
<path
   style="fill:#b3b3b3;stroke:#ededed"
   d="m 308.4315,346.97899 c -0.69625,-2.07989 2.19904,-2.82617 1.281,-4.468 2.41746,1.47925 0.1891,-2.73652 2.642,-3.647 2.98611,-0.60208 2.85339,-3.55334 4.922,-5.38 2.12225,-3.98859 6.39131,-1.75708 9.482,-3.099 1.18814,-0.88646 2.56022,-1.90491 3.924,0.728 1.91961,-2.55694 2.89903,-3.37602 5.197,-3.919 1.5579,-0.94266 3.59016,0.44161 5.833,-0.364 2.32484,1.3156 4.00019,-0.57207 6.566,1.28 1.4101,1.36638 2.80313,0.42616 3.744,-0.09 1.89605,-0.23871 2.20133,-2.9413 3.376,-2.65 2.13076,-1.36773 4.26447,-2.34302 2.193,-5.48 1.62661,-1.33252 1.72479,-5.31953 -1.55,-4.197 -1.68291,-3.07879 1.02994,-2.08338 1.461,-4.29 1.21082,-1.96549 4.67202,-2.22193 2.461,-4.747 -0.15402,-2.74743 -1.66178,-3.8383 -3.288,-4.656 0.29553,-2.51914 1.93503,-4.80157 1.553,-6.15 0.14174,-1.20353 2.47606,-1.85483 2.74,-2.102 3.86308,1.32978 5.46791,-2.72972 3.009,-4.83 -1.39568,-1.97459 2.15852,-4.3596 -0.455,-5.103 -0.13456,-2.96212 1.65577,-3.31729 4.464,-1.917 2.77503,-0.15766 -1.3081,-6.98683 2.646,-4.46 1.41458,1.84072 2.00024,2.68251 3.923,2.372 3.1998,-2.22659 0.78806,3.59462 0.181,4.196 1.07268,-0.31013 3.34262,-1.67626 5.108,-1.916 1.68514,-2.34686 5.11021,-2.23013 6.846,-4.929 2.7779,-0.19155 4.92346,-2.61909 5.655,-3.559 1.78482,-1.27367 5.4032,-3.49166 7.757,-3.284 1.9278,0.8399 4.79526,-0.15723 5.48,1.734 -2.73051,4.04033 -0.20273,4.52603 3.011,5.199 1.13213,2.05095 4.12486,-3.17879 6.841,-0.825 2.81528,0.39846 4.75801,3.3678 7.483,4.016 1.6726,2.58093 4.37663,0.74094 5.927,2.734 3.28285,-1.20663 5.49519,-0.75379 8.203,3.099 1.88072,2.53292 1.76725,6.49937 5.468,4.466 1.64549,-1.58732 3.22914,-0.4129 4.196,-0.546 1.74164,0.11761 2.38723,2.0837 4.196,1.275 0.94147,0.88749 3.74663,0.35605 3.742,1.734 1.61134,-0.26429 1.01255,1.78342 3.102,1.371 1.78162,2.12498 -1.05723,4.94728 -2.282,6.018 -0.98364,1.7641 -1.24147,1.52668 -2.735,2.551 -1.57876,2.18854 2.03486,3.41583 -0.639,3.831 -4.20482,-0.83159 -2.69839,5.92 -3.468,7.297 2.27804,1.48242 2.59865,2.58867 4.198,3.83 2.24607,1.46947 0.98084,4.88078 -1.368,3.099 -2.66368,-1.28014 -4.16245,2.77479 -5.745,0.46 -2.60126,-0.14186 2.09279,4.19787 -1.007,2.097 -2.07437,0.3697 -3.56774,2.19727 -3.83,4.647 4.0332,-0.38558 0.16676,3.41859 3.191,3.925 1.58871,3.08152 -5.70705,0.1992 -3.646,1.732 2.02724,0.8707 2.38416,1.98109 2.372,3.013 2.00664,1.54051 1.93106,3.9446 0.369,6.024 -1.02214,1.01619 -2.87499,3.12736 -2.462,5.383 -2.91434,0.63159 -1.03212,6.51731 -6.382,4.379 -2.75895,0.51707 -2.43169,2.42458 -1.915,4.691 -0.42032,1.53609 -0.54501,2.77919 -1.921,4.289 0.0297,1.47685 -3.95337,0.91617 -1.914,2.464 -2.132,2.21322 -1.6232,4.87478 -2.921,7.118 -2.38701,1.48378 2.8002,1.91012 -1.087,2.923 -3.48359,0.8356 -8.16242,4.60689 -10.212,4.284 -0.44901,-2.10045 -5.65746,0.63888 -6.753,-0.001 -2.35865,-0.0338 -5.89257,1.3643 -8.123,2.74 -2.09561,-1.01302 -4.52385,1.51345 -7.299,1.732 -2.8402,0.93955 -5.41751,2.12704 -8.026,3.56 -0.94924,-1.41634 -2.49404,0.55687 -2.738,-0.455 -0.92109,1.17098 -1.61081,-1.89374 -1.457,0.233 -0.5829,0.60703 -1.87954,1.12876 0,1.644 -0.0802,1.26745 -2.22163,1.64878 -2.832,1.003 -2.74606,1.7133 -3.65327,0.48578 -6.203,0.547 2.11322,-1.77873 -3.11055,-2.50062 -0.089,-2.826 0.34075,-2.57705 -4.19327,-2.49263 -4.341,-5.294 0.51628,-1.39587 1.95456,-2.37635 -0.093,-2.921 1.80511,-0.33843 0.644,-1.9214 0.638,-3.558 0.4828,-1.83648 3.70555,-3.55812 1.276,-5.369 -1.33663,-0.59498 -2.79191,-1.31944 -4.836,0.008 -1.68288,-0.0181 -1.25676,-2.96827 -2.465,-3.836 -0.26017,-1.88907 -2.74436,-5.29344 0.276,-6.837 -1.56035,-2.61148 -3.65923,-3.4373 -2.174,-6.466 -1.99322,-1.25437 -2.69115,-4.5157 -5.108,-1.915 -1.68082,-2.41168 -3.27801,0.14414 -3.921,0.819 -0.70376,-1.58701 -2.72443,1.96993 -4.193,-1.093 1.19209,2.90266 -4.30895,0.36216 -6.014,1.823 -3.91808,-1.94084 -1.77786,7.68393 -3.646,1.643 -0.3805,-5.1076 -3.56133,3.99563 -4.559,-1.55 0.61398,-3.17931 0.96447,-2.69898 -2.459,-3.007 -2.81974,-0.83524 -6.78243,0.17891 -9.84,-1.185 -2.29956,0.12182 -4.40499,-2.4022 -6.198,0.637 -3.30368,0.68966 -4.98287,3.89253 -4.559,-0.999 0.46537,-0.44262 -0.28023,-0.44096 -0.18,-0.728 z"
   id="MG"
   inkscape:connector-curvature="0" />
<path
   style="fill:#b3b3b3;stroke:#ededed"
   d="m 260.4945,425.26399 c 2.95268,-3.53795 1.94624,-7.71077 3.827,-12.028 1.56824,-2.42183 -1.32698,-5.15741 0.638,-7.109 4.75943,-1.41403 1.07989,-9.28106 6.839,-9.661 1.22934,-4.3205 3.19839,-8.0845 7.84,-9.024 1.39456,-2.82484 5.47706,-0.85046 8.207,-1.735 1.78537,0.30917 5.03185,1.58996 5.471,0.181 0.71651,-2.64256 4.62241,0.94805 5.836,0.824 3.36768,0.40794 6.39719,-0.21291 9.843,1.824 2.46364,-0.41598 2.68574,3.80111 4.742,1.638 2.9948,0.2594 5.19825,0.9283 8.368,0.003 0.97513,0.11407 1.40901,2.81346 3.923,2.828 0.99298,2.30301 2.40112,3.95372 1.457,5.474 0.0183,1.89092 1.40077,3.75233 0.177,5.026 1.85189,0.99579 1.16174,2.62738 3.649,3.923 -0.19636,2.24929 2.73432,2.87495 0.548,4.835 -1.70167,2.23093 1.84531,3.4532 3.375,2.01 1.36556,0.41943 4.54621,0.44338 6.3,0.636 2.06193,1.07455 -1.96912,4.48878 0.73,5.388 1.82538,-2.25564 2.75469,0.35539 3.743,-1.185 0.64371,1.69791 0.95737,3.96928 2.83,3.285 -2.8444,3.56746 -4.50444,4.60188 -7.019,8.569 -0.16576,3.33572 -5.25276,1.33989 -7.046,2.19 -2.42057,-0.36753 -3.61707,2.26207 -5.663,2.648 -2.10041,1.33571 -3.5341,-2.01769 -6.285,-2.462 -0.38455,0.34643 -3.02359,-0.0795 -3.104,0.55 -2.01207,-1.07394 -1.50846,2.24233 -3.087,-0.059 -1.5526,-1.08475 -1.52795,-0.34646 -2.918,0.181 -0.61201,2.33818 -2.80367,3.11585 -4.107,2.282 -0.341,-0.10892 -4.56561,0.53698 -4.559,2.372 0.48121,1.25316 1.60577,3.64217 -1.63,3.654 0.0416,0.0232 -3.02152,-2.3786 -5.288,-1.188 -3.28876,0.14698 -5.56442,-2.85914 -8.934,-2.105 -2.61399,-1.30471 -5.67894,-1.3268 -8.936,-1.003 -1.92855,-1.6628 -3.11988,-1.75761 -5.652,-1.096 -2.37895,-0.88239 -2.35313,-3.94105 -3.83,-4.564 0.0781,-1.44191 0.27425,-3.45999 -1.081,-4.748 -0.52363,-0.33701 -3.16637,0.12723 -2.371,-1.277 -1.70206,0.0609 -0.99852,1.24283 -3.1,0.733 -1.50895,2.48983 -3.57042,0.63568 -3.733,-1.81 z"
   id="PR"
   inkscape:connector-curvature="0" />
<path
   style="fill:#b3b3b3;stroke:#ededed"
   d="m 223.9465,487.96899 c 0.68357,-3.52325 6.49868,-4.63036 7.657,-8.386 0.98863,-2.45706 4.21516,-3.63613 4.833,-5.652 1.49474,-1.98559 3.59488,-3.34855 5.196,-5.379 1.04033,-0.87914 1.48718,-3.51823 3.732,-2.642 2.16477,1.12095 -2.52079,-2.94002 1.368,-2.827 0.4284,-0.8101 3.18156,-0.96905 3.829,-2.829 1.04377,-2.09638 5.06169,-0.59432 3.647,-2.734 2.87718,1.31595 2.24672,-4.40486 4.741,-2.916 0.96265,-0.12054 1.11635,-1.20192 2.279,-1.187 1.23596,0.11636 1.91488,-1.10283 2.827,-0.731 1.68711,0.82159 1.64957,-3.26086 3.646,-1.918 1.55056,-2.64663 3.57303,-1.80775 5.651,-1.273 0.66576,0.24478 2.27172,-0.29815 2.371,-0.641 1.11003,-1.08898 2.84064,-0.61073 2.191,0.916 1.97222,-1.04586 2.47909,-0.56359 3.92,-1.733 -0.1922,0.75723 0.32728,2.23424 1.093,1.095 1.34075,-0.13846 2.70474,1.7665 3.741,0.999 1.6485,0.42441 3.25694,-0.21345 3.46,0.274 0.80575,1.59505 1.93155,-0.84069 2.098,0.638 1.12026,-0.43511 2.29808,0.55355 3.738,0.911 -0.84888,0.37066 0.91982,2.23212 1.642,1.549 0.28623,1.24401 2.85027,-0.88866 3.103,0.821 0.72883,-0.28675 2.0468,1.43352 3.195,1.278 0.94847,1.5572 4.2541,2.82614 5.103,4.289 1.83602,0.95263 1.28332,2.63356 2.827,3.194 0.76018,2.23971 3.78722,3.74996 5.84,3.827 0.95901,-0.43464 2.80828,0.52014 3.101,-10e-4 1.6063,0.80049 3.41065,-0.93198 3.742,0.642 0.72132,-1.3443 2.17572,1.0328 1.461,1.73 -1.88312,-0.0714 -1.23837,2.06571 -2.738,1.465 -0.74548,1.70432 0.33306,2.80299 -0.367,4.469 0.24708,-0.28992 -0.31442,2.20108 -1.772,1.735 0.22136,0.45434 -0.26484,0.51881 -0.821,0.639 -0.57054,0.72549 2.43175,2.59073 0.641,0.457 2.32589,-1.59851 4.85736,0.59626 5.019,1.463 -7.16857,9.2984 -8.93056,22.38363 -19.416,29.255 -6.43067,6.41495 -16.00714,8.357 -17.315,18.32 -2.02457,5.66287 -7.93454,11.19041 -12.944,12.939 -2.94977,-0.85417 -0.92832,-6.79315 -0.271,-9.387 1.24716,-1.58456 5.57546,-2.95865 3.737,-5.469 -3.21954,-1.30831 -6.18194,-2.51346 -7.022,-6.293 -0.34958,-1.67738 -2.91382,-3.46617 -4.745,-4.2 -2.35768,0.75167 -5.62126,-4.4841 -7.11,-6.019 -3.26901,0.098 -5.0009,-1.882 -6.109,-2.559 -2.10453,1.22965 -3.88097,-1.99115 -4.284,-3.103 -1.34642,-1.11864 -3.8394,-4.76361 -4.56,-1.459 -0.43232,0.12606 -5.15326,4.01525 -4.284,-0.547 0.10078,-2.69453 -2.32386,-2.858 -3.191,-4.746 -1.97647,-1.22998 -4.656,-3.76194 -5.836,-5.201 -2.34148,-1.98917 -6.31689,-2.31923 -6.655,0.729 -2.03925,0.88229 -4.62539,0.86895 -6.111,-1.001 2.08498,0.22094 2.48412,-2.0975 4.122,-2.801 z"
   id="RS"
   inkscape:connector-curvature="0" />
<path
   style="fill:#b3b3b3;stroke:#ededed"
   d="m 480.2285,202.24899 c 2.40637,-2.29166 5.02464,-3.91159 6.384,-6.565 0.99213,2.90918 1.75037,1.38022 3.649,1.914 2.83492,0.86998 3.40751,4.48241 5.562,3.65 0.85817,2.74724 2.1139,0.62578 3.188,0.452 3.00213,0.95712 3.72873,0.28124 5.563,-0.908 1.89384,-0.4493 2.30933,-0.68286 2.83,-2.099 1.53881,-1.39133 3.84415,-3.51691 5.839,-2.825 1.40358,1.54572 3.8382,-2.02138 5.111,-0.275 4.11985,-0.17311 2.90468,2.09325 1.457,4.195 -3.44098,4.86827 -7.15974,7.9654 -10.671,13.038 -1.89083,1.34818 -3.13995,4.15824 -4.283,5.379 -1.58657,-1.15598 -1.96596,-1.00109 -3.193,-3.189 -3.79563,0.49431 -4.15279,-5.20937 -8.203,-5.288 -4.14839,-2.52096 -8.14406,-3.66296 -11.581,-6.018 -1.42656,0.4209 -0.82875,-0.82181 -1.652,-1.461 z"
   id="path76"
   inkscape:connector-curvature="0" />
<path
   style="fill:#b3b3b3;stroke:#ededed"
   d="m 367.8535,229.58999 c 1.39697,-1.81612 4.33532,-5.42517 4.831,-7.565 0.55579,-2.50254 4.86456,-3.0139 6.11,-5.649 2.10822,-0.53564 0.40724,-4.75436 3.01,-2.642 1.59242,2.30905 2.08934,4.13154 2.096,6.655 1.55383,2.44749 5.79651,4.2589 8.116,3.098 1.42186,-2.08189 2.7589,-3.16669 5.56,-3.645 1.38321,-1.19354 4.338,2.37102 4.925,-1.734 0.89563,-1.03435 3.43949,-2.67237 3.556,-5.471 1.63785,-0.53511 1.34257,-3.12267 0.543,-4.013 -4.10884,-2.50981 0.73818,-6.65623 3.919,-7.203 1.97047,4.25177 5.49387,-0.79309 6.749,3.556 2.18362,2.00254 3.04947,-0.28512 5.926,-0.639 1.5443,-2.77629 5.9858,-3.11441 8.754,-3.285 1.38405,-4.10166 4.56943,-3.85716 6.385,-7.473 2.34629,0.12945 3.502,0.0354 4.559,1.915 2.747,-0.61584 2.06346,4.27425 4.652,4.558 -0.60717,2.06925 -2.61436,4.93302 1.639,3.827 2.55298,-0.69645 3.27064,-2.65759 4.375,-5.459 2.08009,1.86406 5.16018,-1.19853 4.741,-3.193 3.58166,0.0664 2.36739,-3.14407 6.015,-3.647 2.72968,-0.9768 1.99295,3.37285 5.29,2.465 1.86923,1.1575 4.61923,0.86355 5.38,3.371 1.06663,-3.35078 1.85178,-1.67103 2.008,0.275 2.8995,-0.22607 2.04038,0.59477 2.642,3.008 -0.0113,3.66191 4.78976,2.52494 3.374,5.469 0.5575,0.67241 -0.33162,2.42028 0.82,3.374 -0.84569,2.17426 3.40421,1.6522 2.735,4.649 0.99485,2.60912 -2.18866,2.52946 -0.818,4.924 0.86855,3.14306 -2.64512,2.65967 -4.013,2.37 -3.12664,0.0882 -0.58937,4.24367 0.639,4.742 0.33699,1.70619 1.84659,2.44242 1.277,3.829 0.98695,1.78503 1.40245,1.07603 3.193,2.737 1.3789,0.001 3.13757,0.54681 5.382,-1.275 -4.22102,7.5552 -7.92178,17.66388 -15.495,21.69 -1.05132,-2.66981 -3.33637,2.23748 -6.021,3.099 0.11377,2.55143 0.96436,2.71754 0.458,4.923 0.63735,0.92738 -2.29339,2.22872 -0.18,4.835 -0.89061,5.29422 -2.42705,10.26489 -0.913,14.582 -0.9012,6.2573 4.02606,12.25814 -0.272,17.41 -0.49196,2.88181 -1.58079,8.44133 -2.554,12.309 -0.41966,4.70715 2.50067,9.7613 -3.191,11.123 -2.0171,1.43846 -2.19822,4.09837 -3.148,5.258 -2.46345,-2.15175 -9.62579,-4.42035 -7.018,-7.021 -1.66228,-3.02896 -2.98982,-2.67605 -4.928,-5.472 -0.93455,-1.09725 0.3028,-3.56046 0.365,-6.115 0.24076,-2.63905 5.24672,-0.0334 3.284,-2.551 -1.61229,-1.04116 1.33356,-3.76375 1.645,-3.556 0.94104,-1.84329 3.65218,-2.88958 3.649,-5.561 1.18916,-1.97783 -2.70133,-2.1202 -2.464,-3.01 -1.10656,-0.28025 -2.2486,-1.96223 -4.564,-1.644 -1.44045,-0.49782 -2.50516,-0.39553 -4.016,-1.822 -1.28591,0.54234 -2.70297,-0.83918 -4.741,0.638 -2.44565,1.72169 -4.34551,-0.52535 -4.193,-3.374 -2.58784,-2.72023 -5.25235,-5.98161 -8.205,-4.375 -2.0627,0.40864 -2.404,-1.37647 -4.378,-0.912 -3.67404,-1.59256 -6.2827,-4.06933 -9.942,-5.746 -2.00325,-1.11686 -5.50213,1.02789 -6.384,1.736 -2.44011,-1.9029 -6.97415,-1.1551 -3.558,-5.928 -0.76006,-1.88865 -4.13066,-1.04843 -5.933,-1.734 -3.17898,0.24566 -6.05506,2.46159 -7.851,3.742 -0.48739,1.94265 -5.47108,2.97278 -7.024,4.837 -1.73226,1.28391 -4.14385,1.69073 -5.112,3.375 -2.21424,-0.0653 -3.71047,1.5991 -4.849,1.734 0.37436,-1.1826 2.83112,-3.99238 0.639,-5.654 1.21228,-2.32823 0.53477,-4.26381 0.731,-5.566 2.75024,-1.78371 -2.8102,-3.77356 -3.374,-4.651 0.62177,-1.86272 -0.41219,-4.48818 -0.09,-5.469 2.21839,-1.60589 -1.70038,-3.48848 1.914,-4.624 2.66532,-3.03719 -4.14375,1.63902 -2.735,-1.914 -0.6021,-1.99405 1.48754,-3.06928 2.553,-4.285 -3.86933,1.70887 -1.41905,-3.16454 -1.914,-4.742 3.09608,-1.20379 -0.49051,-1.61974 -1.095,-3.194 -0.27389,-1.42115 -1.59208,-5.49714 2.279,-6.289 -3.18247,0.95423 -2.62351,-1.74022 -1.551,-2.646 -1.16341,-1.83052 5.15813,-0.30807 1.459,-1.173 -2.68195,-1.50611 -4.64438,-0.62717 -5.653,-4.192 z"
   id="BA"
   inkscape:connector-curvature="0" />
<path
   style="fill:#b3b3b3;stroke:#ededed"
   d="m 376.6955,215.10099 c 1.75764,-3.65723 1.43515,-8.68412 2.006,-11.673 -2.32599,-1.7325 -1.23576,-4.61116 -2.466,-7.376 1.91262,-2.50264 3.09685,-4.78554 4.292,-8.208 2.79015,-4.61034 0.37155,-9.16291 6.477,-10.303 2.45303,-0.53808 4.89192,-2.53256 6.752,-2.551 2.54189,-3.05554 6.00968,-3.76286 7.569,-7.297 0.2651,-0.3599 4.6736,-2.92286 7.294,-1.093 1.88452,2.38954 4.94913,-0.29083 7.84,-0.183 2.03866,-3.15016 3.16334,-7.19262 -0.82,-8.933 -1.12697,-3.80316 -0.99241,-8.14473 3.098,-10.574 0.92025,-4.60018 -3.37563,-7.96868 -0.457,-11.853 -2.68231,-1.79553 -1.28515,-4.24437 0.183,-6.198 2.18894,-1.70368 2.48734,-6.96375 4.743,-7.749 1.68473,0.0843 5.56139,-0.79044 5.019,-2.89 2.14204,-0.16242 4.25361,-3.15495 3.647,-4.832 -0.97299,-4.59829 3.73194,1.23851 6.38,0.091 4.30899,1.24465 -2.9604,5.85707 0.453,7.567 -0.24761,0.75364 -0.47635,3.25251 1.005,3.647 -0.45654,0.92446 0.0633,4.06895 0.642,4.104 3.14053,0.63307 -4.7e-4,6.16187 -0.276,8.296 0.63115,1.58967 -1.22543,4.31156 1.457,5.29 1.39663,1.61589 3.75028,3.30695 2.464,6.016 0.65048,4.02531 -0.0444,8.51083 2.099,12.49 -1.86014,4.41827 4.46511,5.37767 5.286,6.747 -1.12637,2.52479 -0.64506,7.26433 -4.378,8.935 1.39562,2.18223 0.18515,4.10637 2.369,5.466 0.20536,3.78928 -3.12902,5.28954 -4.375,6.839 -0.85847,0.97949 -2.42898,0.73774 -3.65,2.37 -1.72231,1.86948 -4.76564,3.78612 -5.838,5.836 -2.98467,0.2824 -3.00605,5.75276 -6.66,4.193 -3.96273,0.2389 -5.85411,4.11466 -8.75,4.103 -2.16552,2.24542 -3.06679,-2.90021 -5.472,-2.462 -1.99525,2.59641 -4.26717,-3.87439 -6.747,-0.092 -4.75677,1.32553 -2.31986,5.27711 -0.544,6.932 -0.72863,1.13068 0.25267,2.6224 -1.369,3.647 -0.53572,2.94959 -2.89596,3.49253 -3.737,5.108 -1.17548,4.05052 -4.20658,-0.84357 -6.382,2.006 -2.90225,-0.21345 -3.85989,5.87593 -7.384,2.642 -3.88695,0.37542 -5.421,-3.82956 -4.832,-6.655 -1.63766,-2.47097 -3.09663,-4.69814 -4.833,-1.276 -0.84208,-0.0425 -1.2482,-0.62481 -2.105,-0.127 z"
   id="PI"
   inkscape:connector-curvature="0" />
<path
   style="fill:#b3b3b3;stroke:#ededed"
   d="m 437.5785,119.49599 c 0.74824,-2.46185 3.43789,-4.29071 1.184,-5.925 5.30083,-0.58022 9.47891,-1.58304 14.859,-1.549 3.30198,0.17627 3.83421,0.93594 7.837,2.823 5.0895,3.25775 8.72069,5.47156 13.126,9.208 3.64482,0.10124 3.85464,3.23603 6.385,5.197 2.91865,3.34384 5.7271,5.62621 8.84,8.021 2.22718,-0.34882 6.02835,3.79368 0.737,3.466 -5.11744,1.61241 -3.86005,8.03809 -8.206,10.848 0.77939,1.68095 -2.66691,6.96599 -4.474,5.38 -1.07497,1.57387 -3.66895,4.66704 -1.458,4.833 -3.23367,2.80032 -0.18876,5.529 -3.195,7.204 -0.0956,0.97037 1.79296,2.28125 1.278,3.556 3.08992,0.91123 0.48583,3.9987 -0.276,5.451 -1.50812,1.54634 -2.93959,2.20581 -4.29,3.556 -1.08723,0.2041 -2.8183,-2.30809 -4.011,-2.647 -0.19649,-2.84612 -6.28423,-6.37419 -9.109,-3.463 -3.25267,-0.18451 -9.55512,1.47982 -6.745,-3.647 0.99061,-1.40809 0.97247,-3.69634 1.094,-4.558 -2.34392,-1.08211 -6.60373,-2.66034 -5.103,-6.837 -2.38321,-4.05966 -1.636,-9.5335 -2.01,-13.304 1.15339,-3.75443 -5.08971,-4.25494 -4.1,-8.024 0.41185,-1.94888 -0.015,-3.66262 1.55,-6.29 0.82018,-2.39543 -0.46749,-4.24085 -1.643,-4.287 -0.24394,-1.69566 -0.28547,-3.28256 -0.453,-4.183 -2.63626,-1.60557 0.92898,-3.22547 -1.817,-4.829 z"
   id="CE"
   inkscape:connector-curvature="0" />
<path
   style="fill:#b3b3b3;stroke:#ededed"
   d="m 475.6735,160.05199 c 1.31028,-2.21704 2.25803,-3.2738 4.377,-3.281 2.78208,-2.76043 1.55124,-5.57476 4.834,-7.843 1.69596,-3.88027 2.72332,-9.39729 8.659,-8.752 1.92943,2.05893 6.07663,0.93454 7.291,3.281 5.62323,0.65225 13.16309,-2.26316 17.771,2.646 3.12754,5.62 3.05874,11.14113 5.478,16.771 -2.72041,1.52338 -5.96174,0.10509 -8.481,-0.361 -2.18332,0.35365 -5.45292,0.28288 -6.842,-0.457 -3.279,1.31459 -1.79759,-4.05345 -4.649,-0.914 -2.80035,0.67137 2.09423,4.48167 -0.818,3.465 0.19748,2.24623 -0.35717,4.67461 -3.006,4.922 0.76794,-2.93471 -4.00307,-3.63988 -3.096,-3.099 -1.44747,-0.33658 -4.15853,2.15535 -4.56,-0.729 -4.42391,0.67073 -0.91351,-2.89809 -0.636,-5.107 3.54426,-0.9948 2.96168,-6.0052 -0.64,-2.918 -1.8377,0.78657 -5.00817,1.03696 -5.376,2.464 -1.37612,2.12595 -2.93257,2.26331 -4.748,2.914 -3.10392,0.13464 -3.88172,-2.40335 -5.654,-2.371 -0.17915,-0.15898 0.53317,-0.59442 0.096,-0.631 z"
   id="RN"
   inkscape:connector-curvature="0" />
<path
   style="fill:#b3b3b3;stroke:#ededed"
   d="m 480.2285,222.48099 c 0.98649,-2.90315 6.18266,1.51944 5.564,-3.555 -1.4322,-2.41351 2.15976,-2.55075 0.638,-5.56 -0.87647,-2.4542 -3.32161,-2.33057 -3.008,-4.561 -0.59695,-1.76333 -0.33138,-2.54594 -0.091,-4.009 4.14908,1.98734 8.91234,3.85486 13.128,6.565 1.42293,0.96952 3.06731,4.43043 5.563,3.918 0.2937,2.92025 2.50225,1.22139 2.825,3.373 -8.7126,0.48869 -9.43576,13.44627 -15.861,14.22 -0.85896,-0.21888 -3.19131,0.56086 -3.561,-1.461 -1.57032,0.29199 -2.09215,-1.69458 -2.007,-3.463 -1.45819,-1.29021 -1.81636,-2.76722 -3.287,-4.47 0.39388,-0.37705 -0.18308,-0.66742 0.097,-0.997 z"
   id="SE"
   inkscape:connector-curvature="0" />
<path
   style="fill:#b3b3b3;stroke:#ededed"
   d="m 345.3425,292.20499 c 2.22079,-1.15659 -1.09514,-5.41967 3.373,-4.557 4.86366,-1.01757 11.98097,0.23704 8.93,4.745 -1.0648,1.71532 2.90006,3.77928 -2.19834,2.831 -3.76909,-0.36065 -10.95921,1.66085 -10.01166,-2.371 l -0.093,-0.456 0,-0.192 0,0 z"
   id="DF"
   inkscape:connector-curvature="0" />
<path
   style="fill:#b3b3b3;stroke:#ededed"
   d="m 438.3045,193.59199 c 2.87229,-0.85115 3.8836,-4.4964 6.113,-4.103 0.65616,-0.73053 3.15747,-3.03859 4.011,-4.194 2.81689,-3.46199 -1.62977,-4.29811 -0.636,-7.199 -2.43491,-4.44708 6.83084,-1.84533 8.659,-2.735 2.99282,-2.58891 8.81567,0.39971 9.47,3.286 0.27313,0.95112 3.09903,1.8301 3.192,2.919 1.94817,0.32317 2.36348,-2.45558 4.29,-2.464 1.29655,-0.736 2.76265,2.87622 4.559,0.731 1.89395,-0.80576 1.15248,2.65146 3.834,1.366 1.49352,0.28591 2.93043,-2.17653 4.742,-2.281 -0.0269,-0.79347 3.30095,-2.05391 4.013,-4.011 1.87024,-1.45424 5.34777,-0.70588 6.015,1.095 1.1836,1.25371 -4.35994,2.00884 -1.549,4.283 -0.79739,1.14911 -4.58094,3.39462 -1.092,3.194 1.48489,0.27819 0.37056,5.62615 3.921,4.103 3.42961,-1.36786 3.87475,-2.50132 4.83,-5.106 2.16481,0.90211 1.9778,-2.30389 4.377,-1.276 1.60822,-0.57766 5.02618,0.25755 7.297,-1.644 3.04531,0.0769 1.60326,-2.26475 3.465,-3.281 1.51863,-0.62663 5.5296,-2.05514 6.569,1.186 3.20298,-0.44433 0.86932,3.86815 1.548,6.47 -1.88508,4.34899 -2.4801,9.48662 -4.559,12.213 -3.92496,-0.87315 -4.47279,-1.43698 -7.66,0.366 -1.01744,-2.02343 -4.78772,0.37463 -5.659,1.732 -1.6953,1.49073 -0.98208,2.2028 -3.468,2.553 -1.57905,0.48006 -2.29698,2.55842 -4.469,0.634 -2.41901,-0.69969 -2.2713,2.94961 -4.101,0.458 -1.38095,-1.13646 -2.24819,-0.58738 -3.646,-3.1 -1.85594,-2.28824 -4.23609,-0.69688 -4.74,-1.46 -1.86914,-4.1809 -2.43306,3.23194 -5.569,2.828 -2.62167,4.47576 -2.33083,-2.12959 -3.462,-2.552 -3.20526,2.36928 -0.68712,-4.83187 -3.372,-1.367 -0.48858,3.08392 -2.19503,-3.40322 -4.925,-1.457 -2.01351,-1.55245 -3.81676,-0.63352 -4.377,-3.194 -2.0048,-0.48552 -5.56463,1.15822 -5.199,3.284 -4.05863,-0.98842 -1.68146,3.92934 -5.383,4.013 -3.01246,-1.47928 -2.43341,1.97019 -3.736,4.009 -1.05114,-0.0142 -5.77868,2.96461 -5.103,-0.092 1.08289,-1.39744 1.2202,-3.411 -1.003,-4.283 -0.52799,-3.57388 -3.46465,-3.55214 -5.02,-4.922 -0.75695,-0.0388 -1.33146,0.93199 -2.177,-0.002 z"
   id="PE"
   inkscape:connector-curvature="0" />
<path
   style="fill:#b3b3b3;stroke:#ededed"
   d="m 339.0555,147.11199 c 4.68651,-3.1257 9.10593,-8.93399 14.129,-10.302 2.36414,-1.99335 4.13689,-4.67495 4.742,-6.562 1.17743,-1.92052 4.70677,-4.29142 4.108,-6.928 1.0872,-2.3086 1.38379,-3.62905 2.919,-4.65 0.93953,-1.87335 2.03266,-2.5066 2.102,-4.651 0.0538,-2.10099 2.13754,-1.38811 0,-3.09 0.99891,-2.05652 3.79649,-1.97754 3.284,-5.198 -1.49544,-0.54274 2.02311,-2.13253 2.008,-3.827 1.45375,-2.651657 0.22411,-3.640177 -0.456,-4.834997 3.51825,0.003 1.75694,-4.650961 2.37,-5.831 -0.21024,-2.169608 1.63648,-2.152328 1.823,-3.553 1.06138,0.334102 -0.3553,1.308243 0.639,1.644 -0.26515,2.215749 1.96847,-4.118197 1.275,-0.638 -1.80178,1.634148 0.86839,-0.414294 -0.546,1.55 0.0308,-0.228585 0.69101,0.08396 0.547,0.363 0.57501,-0.862577 0.88897,-2.102744 0.639,-0.092 0.31523,1.062592 0.0521,-1.453053 1.613,-1.73 -1.21694,1.642704 0.13373,2.608274 -0.456,3.373 -0.15713,0.122342 0.78923,-1.449743 1.004,-1.824 0.31527,-2.909252 0.70938,-0.921678 0,0.914 0.44298,0.766632 -2.14416,2.024178 0.365,0.181 0.74459,-2.093264 -0.13961,1.826782 0.729,-0.548 0.42824,-0.05071 -0.0551,1.266621 0.181,0.639 1.07222,-0.981802 -0.23632,2.10159 1.006,0.275 1.48059,-1.604458 -0.32564,0.734122 0.09,2.003 -0.30977,2.39928 0.497,-2.543 0.819,-0.09 0.17917,-0.973096 0.57411,-1.500707 0.917,-1.824 0.2561,-1.165676 1.08849,1.051293 -0.546,2.187 0.83948,-1.367192 -0.98693,2.18641 0.638,-0.454 0.91493,0.01015 -0.99598,3.23141 -0.637,2.824 0.1099,0.22693 0.40126,1.0911 1.185,-1.276 0.53087,0.76318 2.61924,-3.345113 2.008,-0.999 0.47311,1.41051 0.47028,-4.852007 0.549,-0.366 0.34693,0.251565 0.34245,-2.002127 0.458,0.18 1.72954,-0.490392 1.87579,0.401558 2.829,-1.276 1.59185,0.444849 -1.76348,1.277209 0,2.737 1.26772,0.29842 0.87218,-0.495641 1.185,0 0.942,-1.132632 0.45298,0.45135 1.279,-0.639 0.52583,2.00937 -2.50188,1.08963 -1.463,2.461 1.52466,-1.13905 0.52448,0.8836 -0.911,1.185 2.04624,-0.5478 1.43577,-0.35065 2.551,-0.821 -0.90891,1.73849 1.27675,-2.634403 0.366,0.821 0.4687,-1.39983 0.74519,0.55617 1.097,0.548 -1.57102,0.8109 1.76395,0.28451 0.458,1.185997 0.54736,1.13841 0.83579,3.47335 1.639,4.01 0.89773,1.14627 -1.29952,4.08793 2.735,3.008 1.85233,-1.38379 2.9521,-0.43957 1.094,0.094 1.97601,-0.85282 1.41198,3.37442 3.278,-0.912 1.94829,-0.73486 3.38544,-4.19577 5.107,-0.638 3.7432,-1.05311 9.6198,2.59364 10.573,3.647 -0.0246,-0.40002 -1.41149,-2.11879 1.731,0.821 2.30793,0.43343 6.47666,-0.16764 7.538,0.453 3.82827,-0.71719 1.33533,1.9751 2.556,3.832 -0.87064,2.11781 -3.54188,3.70584 -3.832,4.375 -1.59693,3.50154 -5.24334,0.54702 -6.567,3.725 -1.59618,2.67038 -2.61673,6.67689 -4.742,8.204 -1.70318,2.99549 3.07049,4.52389 -10e-4,7.478 0.6779,3.0638 3.66561,8.37605 -0.457,10.758 -2.64692,2.53537 -2.07809,7.70089 0.549,9.753 2.37004,1.79662 0.80515,6.04293 -1.365,7.928 -3.25969,-0.0176 -5.69071,2.14521 -8.115,-0.637 -2.75886,-0.34971 -6.27145,0.96433 -6.658,2.007 -1.53848,3.33954 -5.55973,4.66451 -7.931,7.294 -2.41366,0.0471 -5.23808,2.51675 -8.209,2.645 -3.7748,2.55961 -1.95259,6.91969 -5.115,11.398 0.0672,3.7282 -4.21217,4.52379 -3.283,8.298 0.91965,2.49821 0.71181,4.82712 2.282,6.473 -1.22815,2.75549 0.21668,9.67215 -3.012,10.666 -0.96434,-1.56488 -6.11567,0.33728 -6.109,-3.645 0.41223,-2.87822 -4.03964,-3.01739 -1.182,-6.014 -0.58986,-2.26963 -4.36942,-1.9985 -3.738,-4.74 -0.79683,-1.93729 -2.2752,-1.25725 -2.918,-2.28 0.13679,-1.1467 2.44294,-2.54763 1.914,-4.556 -0.2533,-1.99953 1.03156,-2.11853 1.735,-4.651 3.69567,0.55844 5.88737,-4.77881 2.37,-6.566 -2.78365,0.29202 -4.03603,1.68173 -5.838,2.096 -1.53366,-2.06238 -3.74624,-4.92718 -4.201,-5.651 -0.61586,-0.76186 -2.29477,-2.64721 -2.824,-3.19 3.98326,-1.95023 -5.07646,-1.75134 -1.412,-3.65 3.30075,-3.02005 2.18998,-8.30218 3.922,-12.414 -1.7411,-4.51606 0.55546,-11.92074 -6.203,-12.127 -0.68059,-3.59232 -4.90958,-0.21809 -7.015,-2.828 -3.40347,-0.0797 -2.3786,2.72828 -5.193,2.469 z m 39.371,-57.965997 0,-0.09 0,0.09 z m 7.019,3.646 c -0.16136,-0.407341 -0.34557,-0.08267 0,0 z m 3.279,-1.001 c 0.2399,0.06328 0.11613,0.02705 0,0 z m 0.094,-0.093 c -0.17345,-0.129135 -0.0978,0.311759 0,0 z m -8.113,-1.001 c 0.25325,0.105166 -0.1065,-0.257806 0,0 z m 0.091,0 c -0.49298,0.974202 0.034,0.392696 0,0 z m 12.03,5.649 c 0.82301,0.0338 -0.357,0.65008 0,0 z m -0.091,-1.184 c -0.25003,0.103564 0.10356,-0.250027 0,0 z m -14.309,-4.558 c -0.0377,0.907509 0.50566,1.708931 0,0 z m 18.32,12.031997 c -0.20698,-0.0995 0.32552,-0.0229 0,0 z m -5.743,-10.937997 c -0.19695,-0.733413 -1.3665,2.093375 -1.825,-0.272 1.43249,0.642916 0.3042,-1.685605 2.37,0.181 -0.90081,0.725109 -0.0258,-0.706783 -0.545,0.091 z m 1.366,3.101 c 0.0978,-0.311759 0.17345,0.129135 0,0 z m -14.49,-4.286 c -0.0463,-0.277289 0.27859,0.04714 0,0 z m 16.679,7.293 c 0.0981,-0.28515 0.32223,-0.12947 0,0 z m -13.672,-6.746 c -0.24751,0.295787 0.0995,0.222975 0,0 z m 0.913,-0.363 c 0.15999,-0.328869 0.2802,0.0039 0,0 z m 9.933,4.008 c 1.31457,-3.184478 1.25451,0.108988 0,0 z m 10.937,11.757997 c 0.0772,-0.43212 0.32711,-0.16668 0,0 z m -13.488,-14.033997 c 0.41518,-0.07977 0.34312,0.492611 0,0 z m -6.381,-0.094 c 0.51316,-0.355726 -0.10298,-0.411452 0,0 z m 11.576,5.652 c 0.0892,-0.42092 0.16567,0.8819 0,0 z m 2.37,3.188997 c -0.069,-0.68513 0.43193,0.0928 0,0 z m -3.829,-4.919997 c 0.38629,-0.66748 0.41555,0.49759 0,0 z m -9.023,-3.646 c 0.16885,-0.597616 0.29081,0.339049 0,0 z m 12.486,9.203997 c 0.98361,-0.81501 0.4596,0.19531 0,0 z m -0.09,0.547 c 0.35465,-0.76206 0.56302,0.56709 0,0 z m -8.204,-9.659997 c 1.87491,-2.578532 0.34357,-0.500625 0,0 z m -9.385,-3.007 c 0.47315,-0.672254 0.16679,1.033773 0,0 z m -0.275,-1.004 c 0.74572,-0.745149 0.0888,1.108074 0,0 z m 16.222,9.754 c 0.24541,0.2949 0.25277,-0.053 0,0 z m -0.272,0.309 c 0.15684,0.35612 0.74732,-0.009 0,0 z m -1.641,-3.863 c 0.0906,-1.291501 0.92768,0.0693 0,0 z m -2.917,-3.283 c -0.28955,0.558451 0.0533,0.170679 0,0 z m -0.09,0.275 c -0.9984,-0.965856 0.67253,1.336441 0,0 z m 5.195,6.834 c -0.23281,-1.72228 0.95014,0.0294 0,0 z m -12.576,-8.566 c -2.1297,0.31462 0.0751,-0.965776 0,0 z m -1.823,0.272 c -1.2562,0.178609 0.40152,-1.555218 0,0 z m 11.755,3.829 c 1.26057,-1.627081 -0.76603,0.487863 0,0 z m -1.639,-2.825 c 0.41547,-0.02997 0.03,-0.415466 0,0 z m 0.091,-0.182 c -0.16791,-0.125013 -0.0947,0.301809 0,0 z m -0.091,0 c 0.30376,-0.09776 -0.12776,-0.170189 0,0 z"
   id="MA"
   inkscape:connector-curvature="0" />
<path
   style="fill:#b3b3b3;stroke:#ededed"
   d="m 202.8955,56.061993 c 1.7439,2.03565 2.67988,-1.759511 4.466,-0.82 2.09134,0.829369 -0.0594,-3.281567 2.282,-2.917 0.878,-3.086137 6.40392,2.464284 5.378,-2.187 2.85566,-0.435562 3.40598,-1.091041 6.108,-0.544 1.06073,-1.874579 2.36658,-4.755164 4.379,-3.647 1.78293,-1.696189 3.45233,1.377426 5.561,1.37 2.30718,-1.648371 6.37066,-1.228873 9.117,0.09 2.6708,1.350813 3.83246,-2.743942 1.641,-3.921 -0.56141,-1.10706 -2.60144,-1.865488 -1.001,-3.189 1.35215,1.181142 0.54931,-4.140035 2.918,-1.367 3.79167,1.849852 7.75675,-0.592964 11.374,-1.731 2.95133,2.394685 3.02771,5.405916 2.918,8.113 0.7058,1.462899 -0.0125,4.301039 2.916,3.193 3.61689,0.286166 4.66237,1.333138 6.293,2.643 -0.23321,1.894811 2.17487,1.080146 2.462,1.824 1.18203,1.755942 2.52104,-0.220849 3.374,1.095 0.0469,0.24231 2.41216,0.166286 1.732,2.279 3.75014,-1.351513 -0.82412,3.778526 3.191,4.832 4.37751,2.199676 0.45547,5.626176 2.646,8.753 1.51132,3.126335 3.0433,5.578496 5.65,7.93 -1.46631,3.629987 3.61483,2.897999 2.37,6.471 -1.07996,0.930545 2.70219,0.13316 0.913,1.914 -0.0417,2.426021 4.26668,2.623144 5.285,3.72 0.0464,-2.551419 3.80754,1.144614 4.741,-3.098 -0.16547,-4.837141 4.50425,-8.542644 6.93,-12.302 3.71662,-2.491477 9.18628,-4.256284 9.932,-9.756 3.86889,-4.031069 5.92923,1.138029 5.631,3.648 3.33826,0.89326 4.95176,-2.251915 6.658,2.644 3.21994,3.518924 9.05322,6.194603 14.038,5.193 1.59473,2.782817 0.2335,5.495842 6.381,6.019 0.21939,0.974173 2.53473,-3.58806 1.825,-0.002 0.75417,0.156915 0.81913,-2.840883 1.369,-0.456 0.20379,-2.584959 1.75466,-0.141746 1.994,0.91 0.44517,-4.637629 2.51221,4.279551 1.733,-1.092 1.34075,0.182161 0.54968,0.310467 2.731,-0.183 -0.15621,0.398308 0.96208,1.046734 1.004,1.186 0.96695,-1.030088 0.23072,2.575934 0.911,-0.092 1.45879,-0.182139 0.60675,1.917378 1.098,0.729 -0.80084,2.354291 1.95155,-2.237659 1.004,0.638 0.79555,1.22922 0.80313,1.316193 1.55,-0.272 0.57912,-0.580792 0.15252,1.484721 0.548,1.548 0.39458,1.150429 0.88786,-2.164596 1.095,0.548 1.06425,-1.162357 0.76068,-1.311923 1.277,-1.548 1.55266,0.960609 -1.94165,2.55139 0.913,2.368 0.7518,-1.58345 0.45153,0.813002 1.097,-1.37 1.95368,-0.282196 -0.66996,1.388105 0.361,2.007 0.37633,-0.01101 0.69604,1.038326 1.096,-0.456 0.35451,1.393842 0.34974,-0.460252 1.096,1.366 -0.24178,-0.792344 0.6837,-1.523727 0.82,-2.462 1.45076,0.291267 -0.27139,0.882103 0.366,2.098 -2.15732,4.156924 2.11251,-3.588189 0.457,0.729 -0.0234,0.288864 0.64583,0.439348 0.641,-0.729 2.42659,-1.446142 -1.32926,3.847144 0.367,4.012 -1.12214,1.898807 0.49859,5.20193 -2.827,5.741 2.89067,0.47323 0.32104,6.655177 -1.276,6.838997 -0.65252,2.03749 -0.18883,1.54525 0,3.737 -1.86125,0.92862 -4.38223,2.49358 -2.485,3.916 0.14086,0.29056 -1.23995,1.36765 -1.003,2.553 -0.65046,2.47367 -1.12791,2.57298 -2.465,4.741 -1.40729,0.47411 -1.6777,2.58397 -2.559,4.375 0.48862,3.83181 -4.59907,4.82317 -4.38,8.207 -1.93303,0.97769 -2.84493,5.65983 -5.907,5.096 -3.82437,3.72836 -10.20075,6.93818 -12.12,10.571 2.58249,0.97314 4.98087,-0.55648 6.109,2.28 4.64679,1.407 -2.97189,2.79036 0.457,5.289 -2.22761,1.1128 -0.0654,2.79946 -2.739,3.737 2.23287,3.62552 -2.54469,1.26849 -3.098,5.198 -0.14823,3.88546 -9.3808,2.09697 -7.108,7.749 -0.22803,3.45806 -5.05004,7.24225 0.546,9.3 -0.1718,6.75471 -4.1717,12.76198 -9.304,16.955 -2.11831,3.11294 -3.58408,5.86787 -4.194,9.483 -3.98712,4.17152 -13.11117,-0.33466 -19.00665,0.53493 -23.06177,-1.48521 -47.8146,-3.54617 -69.85335,-5.36593 -0.0628,-2.88181 -4.87619,-1.035 -4.011,-4.285 -1.93513,-2.50351 -4.28036,-2.19488 -6.105,-4.284 -2.27778,-1.15599 -1.58607,-5.28032 -2.008,-7.936 -2.86223,-3.58524 -3.1739,-9.36222 -6.656,-12.487 -0.32478,-3.55868 -7.39161,-6.67502 -2.097,-10.21 8.87813,-17.77843 17.88635,-38.21846 25.611,-56.507 -2.05244,-1.97954 7.60507,-6.06543 2.64,-5.469 -2.04466,1.99912 -4.37502,1.55719 -6.474,1.824 -1.24724,-0.82284 0.6751,-2.90822 -2.28,-2.735 -3.21378,-2.160317 -3.80438,-4.816437 -6.925,-3.647997 -0.91914,-1.56624 -3.88729,-1.728823 -5.562,-3.556 -1.90979,-0.776922 -2.96858,-1.540729 -2.277,-4.376 -1.44509,-1.793135 -2.47258,2.651511 -3.92,-0.182 -2.84924,-0.830346 -1.47134,-4.371397 -4.625,-5.29 -2.58918,-1.367864 -0.14903,-4.976131 -3.463,-5.744 -0.11273,-6.622606 -0.46039,-14.449385 -0.272,-21.78 z m 171.886,31.9 c 0.20137,-0.896719 0.69087,1.294473 0,0 z m -12.395,-5.011 -0.091,0.09 0.091,-0.09 z m 10.936,3.098 c 0.0461,0.278163 -0.28076,-0.04782 0,0 z m -11.299,-3.008 c 0.2046,-0.118954 -0.11895,0.204601 0,0 z m 5.83,1.457 c 0.28166,-0.04766 -0.0468,0.28036 0,0 z m 3.83,1.823 c -0.31004,-0.381978 0.26169,-0.06256 0,0 z m -1.64,0.731 c -0.2586,0.01634 0.32387,-0.158747 0,0 z m -18.777,-4.833 c 0.38581,-0.376806 -0.0812,0.496002 0,0 z m 19.595,4.833 c 0.24165,-1.243176 0.14916,0.611198 0,0 z m -8.747,-4.376 c 0.62715,-0.103231 0.0999,0.576249 0,0 z m 8.565,3.554 c -1.09202,1.753037 -0.25409,-0.971222 0,0 z"
   id="PA"
   inkscape:connector-curvature="0" />
<path
   style="fill:#b3b3b3;stroke:#ededed"
   d="m 280.6365,386.16799 c 2.91064,-3.88432 9.97353,-4.79253 11.669,-10.214 2.10736,-1.43642 2.26254,-3.54729 2.37,-5.192 3.97276,-0.25969 1.41651,-5.11599 3.83,-6.291 3.25396,-1.68794 0.98834,-6.29217 4.922,-8.292 1.58725,-2.51846 5.73641,-2.10458 6.198,-5.838 2.72699,-0.83758 5.78397,-5.01733 8.48,-2.188 3.57411,0.10309 7.13215,1.40282 10.843,0.638 1.66254,1.88165 4.65138,-0.66767 2.731,2.734 0.35992,5.16605 2.71075,0.54976 4.286,0.823 -0.009,4.52105 1.92161,3.80172 1.64,0.363 2.37859,-1.28165 6.24737,-0.75807 8.659,-1.186 -1.474,-2.92175 3.02415,2.86102 3.188,-1.092 1.45677,2.94541 1.56879,-2.96364 4.102,-0.278 1.88408,-0.21531 3.11076,-1.09077 4.196,1.187 3.45873,1.70316 -1.45315,5.07722 3.007,6.3 1.73677,2.12344 -3.44097,3.70014 -0.091,5.837 -0.20336,2.77954 1.75304,4.02865 2.099,6.205 2.19067,-0.46978 4.19792,-1.52737 5.201,0.181 2.9099,0.51891 0.009,3.58934 -0.73,4.656 -0.63778,1.61993 0.82703,3.30621 -0.09,3.927 -2.29432,0.36714 2.5348,0.91153 -0.089,1.732 -2.40759,3.54121 4.09952,4.0336 3.649,6.388 -1.77381,0.38741 -0.14086,1.2996 0.639,1.824 -1.70528,2.9655 3.09535,0.437 3.193,1.823 2.69134,-1.31364 2.92698,-0.59698 4.651,-1.002 0.98021,-0.44115 0.71201,-1.43286 -0.636,-1.915 2.12771,-0.0693 0.73571,-2.39391 2.006,-1.187 0.10594,0.93065 1.5283,-0.56715 1.64,0.547 1.52661,-0.89135 3.85538,0.28881 5.567,-2.096 2.76696,-1.29521 5.45246,-1.36249 6.567,0.82 0.40336,2.05222 3.46019,0.12047 3.925,0.365 2.62713,-0.16663 2.45161,2.03302 1.189,3.013 -2.11321,1.52596 -6.87107,0.26086 -7.57,4.017 -0.47811,1.15354 -0.99335,2.30403 0.54,3.375 0.99862,1.56588 -1.97374,-0.53597 -2.367,0.64 -2.04844,0.91515 -1.1075,1.42422 -2.102,2.01 -1.39923,-0.90094 -0.82476,1.32969 -3.009,0.912 -2.05807,0.63125 0.0804,4.4498 -2.645,3.101 -2.86668,-1.48707 -9.02027,-0.41959 -8.941,2.462 -1.16668,1.49276 -2.13841,-1.339 -2.554,0.365 -2.8147,-0.009 -7.96119,3.91931 -8.842,5.654 -3.93127,3.10755 -10.97078,6.2674 -12.031,10.299 -4.0986,3.8245 0.37455,-0.37243 -2.282,1.095 -1.43463,-0.84905 -1.05623,-5.46641 -2.922,-2.555 -0.059,-2.64002 -4.10682,2.04454 -3.283,-1.187 -0.0193,-1.74141 1.93299,-4.29169 -0.915,-4.11 -0.93017,0.16076 -4.69607,-0.58276 -5.295,-0.364 -2.08889,1.27181 -5.24505,-0.32773 -3.012,-2.554 1.42294,-1.84475 -1.11623,-2.66663 -1.367,-4.927 -1.86788,-1.20896 -2.30255,-2.87516 -3.098,-4.017 1.61287,-1.61259 -1.73296,-4.16424 0.365,-5.574 -1.17596,-0.78833 -0.8845,-5.12954 -4.288,-5.018 -0.80909,-2.83492 -2.00737,-1.9246 -4.831,-1.732 -2.12887,-0.29191 -3.54451,-0.0661 -5.831,-0.459 -1.81978,1.88846 -2.71012,-3.18743 -5.833,-2.003 -2.70893,-2.73023 -6.47708,0.12289 -8.841,-2.114 -2.18988,0.44381 -5.26299,-3.04529 -5.655,0.638 -2.14755,-0.80208 -5.45832,-0.79138 -8.298,-0.822 -1.59143,-1.46342 -3.24863,1.0273 -3.904,0.276 z m 110.823,10.844 c -0.1113,0.4065 -0.01,-0.40649 -0.091,0 m -2.279,4.74 c 0.19166,0.25367 0.0541,0.0838 0,0 z m -13.398,1.186 0,-0.092 0,0.092 z m 10.848,-4.102 0.091,0 -0.091,0 z m 2.369,-0.181 c -0.0768,-0.10369 -0.0375,0.004 0,0 z m 1.823,-2.28 0,-0.092 0,0.092 z m -5.468,3.19 0,-0.092 0,0.092 z m 0.182,4.648 0,-0.092 0,0.092 z m 5.195,-6.927 c 0.27859,-0.0471 -0.0463,0.27729 0,0 z m -5.56,6.927 0,-0.092 0,0.092 z m 0.636,-0.91 c 0.86265,0.98763 0.67924,1.43916 -1.002,0.822 -3.68901,0.74702 2.27931,-4.89139 1.461,-1.091 0.64201,0.17918 -0.93825,-0.25751 -0.459,0.269 z m 3.284,-4.287 0.09,0 -0.09,0 z m -2.645,3.74 c -0.10674,-0.25804 0.25576,0.10607 0,0 z m -23.513,7.653 0.091,0 -0.091,0 z m 27.889,-13.762 c 0.24776,-0.004 -0.27261,0.10331 0,0 z m -0.548,0.186 c -0.27989,0.0458 0.0492,-0.28508 0,0 z m -10.39,5.556 0.094,0 -0.094,0 z m 2.554,0.914 c 0.0405,-0.28577 0.24357,-0.0749 0,0 z m -18.596,7.199 c 0.28508,-0.0492 -0.0458,0.27989 0,0 z m 0.094,0.272 c -0.0461,-0.27816 0.28076,0.0478 0,0 z m 27.433,-13.488 c -0.0421,0.03 0.24639,-0.0161 0,0 z m -11.576,5.285 c -0.0463,-0.27729 0.27859,0.0471 0,0 z m 5.743,-2.826 c 0.13555,-0.28147 0.35498,0.12352 0,0 z m -6.563,3.648 c 0.24206,-0.41627 0.10242,0.35228 0,0 z m 8.385,-4.102 c 0.39029,-0.38192 0.0629,0.36309 0,0 z m 0,3.28 c 0.84743,-0.59182 0.54844,0.82826 0,0 z m 1.366,-3.735 c 0.95189,0.53167 -1.1588,0.0914 0,0 z"
   id="SP"
   inkscape:connector-curvature="0" />
<path
   style="fill:#b3b3b3;stroke:#ededed"
   d="m 391.0035,394.27799 c 1.20271,-2.05328 1.61755,-4.59414 5.473,-4.839 1.55184,0.51723 4.36018,-1.1105 3.833,-3.101 -2.0553,-1.18671 -3.214,-0.1346 -4.656,-0.182 -1.48035,0.46356 -2.73197,-2.34287 -3.194,-3.288 2.86399,-0.45825 5.4528,-2.33337 7.665,-1.826 2.39489,-1.82892 6.80167,-2.77631 8.669,-2.373 2.14738,-0.86766 5.80222,-1.44611 5.841,0.183 2.81972,-1.72638 9.21723,-3.84692 11.302,-5.655 -2.27614,-0.55092 0.76407,-3.26897 0.546,-4.286 0.0844,-1.67692 1.48181,-3.93433 1.824,-5.023 -1.11766,-1.35693 3.10814,-1.07888 2.738,-3.013 3.37969,-1.28566 1.81593,4.00443 2.827,4.472 3.06006,1.72563 6.14132,1.17354 9.311,2.095 1.95978,0.82442 -2.60643,3.76136 -0.179,4.741 1.89821,4.57655 -0.76985,7.69013 -5.565,8.11 -3.60529,1.55116 -7.72998,3.4826 -7.385,7.386 3.67691,0.0325 -1.48511,1.50477 -0.366,3.103 -0.32801,0.86828 -7.84022,-0.98302 -10.845,0.092 -5.86143,1.00674 -3.81959,-1.15442 -3.188,-3.745 -1.53835,-0.57658 -4.05042,2.11669 -2.647,1.825 0.44628,-1.17448 1.84213,0.0619 0.274,0.186 0.0393,0.53771 2.57105,2.17108 -1.277,2.19 -3.38669,-0.5413 3.11231,0.31159 -2.006,0.548 -1.20985,0.69174 -7.23046,1.26327 -6.929,0.366 1.79449,-0.479 1.7551,0.005 5.197,-0.276 0.97345,0.40891 -3.88024,-2.75874 -3.65,-1.548 -0.38531,0.71989 -0.79,-0.73932 -2.464,0.729 -0.40341,-0.17145 -2.6297,1.98858 -2.919,0.367 -1.89057,0.79831 0.26793,-1.13507 -1.279,-1.096 -0.10029,0.30547 -1.06589,1.06142 -1.465,1.096 -2.26971,0.43402 -3.72982,1.42036 -2.918,3.103 2.09314,-0.88684 -0.91712,0.4949 0.895,0.183 -1.02696,1.97211 1.22804,-1.53116 1.002,0.458 1.13639,0.7831 -1.71789,0.98462 -2.465,1.186 -0.41697,-0.55817 -1.82789,-1.37753 -2,-2.168 z m 42.834,-11.117 c -0.0489,-0.2869 0.28431,0.0472 0,0 z m -0.181,0.091 c 0.20908,-0.41418 0.20351,0.51413 0,0 z m -19.959,8.657 0,-0.092 0,0.092 z m -4.283,0.273 0.09,0 -0.09,0 z m -8.02,-0.455 0,0.09 0,-0.09 z m -7.656,1.184 c 0.0592,0.14591 0.0592,0.14591 0,0 z m 10.935,-2.188 c 0.0381,-0.23406 0.1078,0.37311 0,0 z m -1.365,0 c -0.12364,-0.16607 0.29849,-0.0936 0,0 z m 9.297,1.186 c -0.2869,0.0488 0.0472,-0.28431 0,0 z m -18.957,1.002 0,0.092 0,-0.092 z m 0.271,1.824 c -0.0818,-0.24603 -0.38371,0.11892 0,0 z m -0.271,-0.82 0.09,0 -0.09,0 z m 1.547,1.275 0,-0.09 0,0.09 z m -0.362,-2.551 c 0.20372,-0.12014 -0.11906,0.20773 0,0 z m 0.454,-0.457 c 0.33124,0.31033 -0.0271,-0.0102 0,0 z m 8.202,-1.275 0.091,0 -0.091,0 z m -9.113,1.367 c 0.42669,-0.1846 -0.20484,0.39107 0,0 z m 14.309,0.271 0.09,0 -0.09,0 z m -7.656,-0.546 c 0,0.0848 0,0.0848 0,0 z m 11.119,0 c -0.0461,-0.27816 0.28076,0.0478 0,0 z m -8.659,-0.182 0,-0.09 0,0.09 z m 10.026,0 0.09,0 -0.09,0 z m -18.32,4.558 c 0.0592,-0.14591 0.0592,-0.14591 0,0 z m -1.276,-2.644 c 0.0583,-0.14557 0.0583,-0.14557 0,0 z m 9.661,-2.004 0,0.09 0,-0.09 z m 0.457,-0.365 c -0.0478,-0.28076 0.27816,0.0461 0,0 z m 9.478,0.637 c 0.14274,-0.0579 0.14274,-0.0579 0,0 z m -19.505,2.007 c 0,-0.32656 0,0.32071 0,0 z m 1.003,0.182 c 0.26631,0.38445 -0.96152,0.51432 0,0 z m -0.365,-1.824 c 0.0672,-0.27812 0.28582,-0.11616 0,0 z m 14.766,0 0,-0.09 0,0.09 z m -14.309,1.732 c -0.0465,-0.27641 0.27641,0.0465 0,0 z m 19.139,-1.822 c 0.14274,0.0579 0.14274,0.0579 0,0 z m -10.207,-1.094 0.09,0 -0.09,0 z m -2.918,0.819 c -0.10289,-0.24776 0.25231,0.10422 0,0 z m 12.486,0.365 c 0.28255,-0.0475 -0.0475,0.28255 0,0 z m -19.41,0.092 c 0.14373,-0.21617 0.0239,-0.0643 0,0 z m 20.596,-4.194 c -0.0426,-0.53684 0.15859,-0.196 0,0 z m -21.235,5.377 c 0.3836,-0.34601 -0.10301,0.56631 0,0 z m 8.567,-2.094 c 0.71133,-0.54548 0.28943,0.32201 0,0 z m 1.55,0 c 0.19406,-0.6393 0.40802,0.12711 0,0 z m 9.385,-2.007 c -0.11186,0.35986 0.26401,-0.0174 0,0 z m -13.58,4.74 c -1.00278,-0.13003 -2.40163,0.15203 -0.544,-1.279 0.71785,-0.23247 1.79774,-0.0712 2.46,0.729 0.51879,0.15118 -1.20877,0.27988 -1.916,0.55 z"
   id="RJ"
   inkscape:connector-curvature="0" />
<path
   style="fill:#b3b3b3;stroke:#ededed"
   d="m 431.3785,360.55899 c 0.81038,-1.61296 0.51574,-2.11507 1.005,-4.834 -2.17326,-2.32518 3.33998,-3.58526 5.651,-3.19 0.61327,-3.31344 3.32194,-4.18436 2.92,-7.294 1.88812,-1.53955 3.18342,-3.03632 3.097,-5.019 1.00267,-1.54269 -2.3707,-3.59148 -1.55,-4.472 -1.11719,-1.47522 -4.33698,-2.31233 -1.006,-2.19 4.69157,1.56241 1.33131,-2.41703 1.093,-3.013 1.28329,-3.31598 -3.29551,-1.44342 -1.182,-4.466 1.15053,-2.08272 2.33932,-2.45083 4.834,-1.733 -3.31784,-3.95204 -0.14237,-2.10259 1.556,-2.006 2.85396,-4.16666 9.43005,2.23 13.215,4.737 -2.91406,6.73464 2.82415,16.583 -5.197,20.509 -1.66975,2.2155 -2.12305,6.4599 -3.102,6.655 0.36371,1.21693 -2.69487,5.52124 -2.918,5.013 -1.12637,2.59022 -1.54874,1.45676 -2.922,2.19 -1.43856,0.578 -2.21032,8.89867 -5.017,5.287 -2.6574,0.78926 -6.40476,-0.64918 -8.487,-1.553 -0.0349,-1.54692 0.7545,-4.42372 -1.99,-4.621 z m 20.323,-3.373 0.092,0 -0.092,0 z m -0.182,1.275 0,-0.092 0,0.092 z m -0.182,-0.273 -0.09,0 0.09,0 z m -1.548,0.91 c -0.48592,-0.25641 -0.91659,0.98615 0,0 z m 1.64,-0.637 0,-0.092 0,0.092 z m 1.094,-3.279 0.09,0 -0.09,0 z"
   id="ES"
   inkscape:connector-curvature="0" />
<path
   style="fill:#b3b3b3;stroke:#ededed"
   d="m 270.8835,449.14499 c 0.77669,-1.55403 0.4345,-1.82916 2.098,-3.106 -0.0544,-1.87177 -1.03777,-2.93079 -0.913,-4.11 0.80937,-2.06948 -0.26669,-2.57082 1.642,-5.371 2.84511,0.43557 4.6871,-0.68777 7.021,1.735 4.98486,-1.52704 8.5269,1.2677 12.949,1.183 2.13442,2.89565 9.13445,0.74311 9.753,2.831 3.69412,-5.5e-4 1.59325,-2.80697 1.734,-3.928 1.02042,-2.38703 4.80355,-1.97716 5.381,-1.827 1.66624,0.63472 3.3361,-2.56688 4.015,-2.917 0.27374,-1.64597 3.28874,1.28861 3.283,0.822 1.02398,-1.40411 2.40023,-0.61788 2.621,-0.915 2.02419,-0.58358 3.81509,-0.0608 5.015,1.001 2.04349,2.54566 4.17687,1.24246 6.289,-0.368 1.93815,-1.99302 5.68288,-0.97897 9.395,-1.55 -0.18091,3.35533 2.65594,2.89126 0.002,6.561 -2.43335,2.4968 -0.2153,4.60581 -0.09,5.198 -1.46339,2.20614 1.18657,2.15797 10e-4,4.104 1.77068,-0.10566 1.83793,0.64774 1.368,1.181 -3.2035,-0.46133 0.51412,2.3781 -0.729,2.188 -0.77674,0.99568 -1.25756,2.26123 -0.365,3.469 -1.41607,0.3325 1.01783,3.79004 -0.638,5.474 0.17369,2.00817 -1.3536,6.01542 -2.557,8.3 -4.87946,0.63105 -9.95316,8.31289 -12.396,9.661 -1.12951,-0.81905 -4.25949,-2.34703 -4.651,-0.183 1.10251,1.66922 -2.4147,-1.79504 -0.097,-1.186 0.0374,0.23279 -10e-4,-0.86551 0.908,-0.542 1.55749,-1.582 0.60368,-1.37512 1.188,-2.831 -0.43113,-1.72932 -0.22522,-3.54229 1.465,-3.742 0.0998,-1.27223 3.01036,-0.98543 0.911,-2.737 -0.21975,-0.32997 -1.45273,-0.43245 -1.735,-0.547 -0.80748,0.29044 -3.44415,-0.49521 -3.378,0.271 -1.6507,-0.59184 -2.61628,-0.57212 -5.198,-0.729 -2.35483,-1.36424 -3.6741,-3.9654 -4.739,-4.903 -1.13771,-1.6767 -2.26111,-2.82218 -4.377,-4.108 -1.83739,-1.14377 -2.62878,-2.41106 -4.65,-2.829 -0.57887,-0.81014 -2.15602,-1.66399 -3.288,-0.549 -1.12866,-0.72449 -1.83924,-0.60372 -2.552,-1.913 0.73024,-0.13173 -2.42483,-1.74834 -2.828,-1.096 -1.07735,0.0728 -0.80241,-1.31668 -1.55,-0.089 -1.41681,-0.2226 -0.9689,-1.11384 -2.186,-0.822 -2.15517,0.16015 -3.11348,0.44662 -4.558,-0.637 -1.18464,-1.00295 -2.55139,1.04915 -2.462,-0.91 -0.73344,-0.74945 -0.40973,-0.47514 -1.824,0.457 -0.55884,-0.81507 -3.09847,1.85982 -2.28,-0.732 -2.38048,-0.67252 -2.00391,1.5324 -4.195,1.004 -0.0501,0.28846 -1.97948,-0.64995 -2.803,-0.263 z m 70.632,4.555 0,-0.09 0,0.09 z m 0,2.826 c 0.90067,-1.26293 0.0906,-3.03779 0.91,-3.65 2.84556,-2.04852 1.03844,2.16984 0,4.374 0.48554,0.77836 -1.6778,1.7437 -0.91,-0.724 z m 0.092,-3.098 c -0.10587,-0.0831 0.0481,0.0426 0,0 z"
   id="SC"
   inkscape:connector-curvature="0" />
<path
   style="fill:#b3b3b3;stroke:#ededed"
   d="m 473.1195,168.71099 c 3.26908,-1.35574 0.187,-4.61444 3.195,-7.113 -2.31182,-0.0277 1.69939,-1.6114 1.095,0.091 1.73261,1.40754 4.34739,1.74317 5.564,0.824 1.03001,-0.57734 3.73147,-1.78556 3.83,-3.646 2.91779,0.52847 5.86604,-3.33384 7.749,-1.547 0.009,2.3545 -3.60094,3.45337 -3.647,6.199 -2.23293,2.81071 2.53617,1.38814 2.826,4.013 2.71858,-2.11877 3.12332,-0.0887 5.288,-1.276 1.21241,2.33401 1.64354,4.64226 3.918,1.547 1.06432,-0.83993 -1.01226,-4.30552 1.457,-3.008 -2.06191,-2.0423 -0.60086,-5.24626 2.092,-4.283 -0.47982,2.93843 3.54691,0.37421 4.561,2.461 4.58638,-1.35391 7.21897,0.80124 11.037,0.546 3.09324,-1.99083 1.9965,3.98528 3.372,5.559 0.42783,1.93311 0.0123,-0.0268 1.006,3.012 0.53776,2.58322 -0.65457,7.84162 -2.554,4.277 -2.79452,-1.95586 -6.5289,-0.66734 -7.387,1.642 0.11025,1.49246 -4.96934,2.71108 -6.932,3.1 -2.34462,-0.71299 -2.85652,0.30747 -5.107,0.457 -0.26536,1.86995 -3.70301,0.8004 -2.736,3.552 -1.26037,1.20126 -5.57538,4.47843 -7.109,0.914 1.36605,-2.63726 -1.69244,-2.67676 -2.37,-2.918 0.98864,-1.54194 3.27982,-1.89951 2.094,-4.56 2.10379,-1.53623 3.69458,-2.94241 0.635,-3.739 -3.20835,-2.67717 -5.34165,2.25293 -7.656,3.1 -0.49704,1.78444 -1.90998,0.37303 -2.92,2.19 -1.83458,1.17918 -2.67505,1.0133 -5.016,1.185 0.10902,-3.85312 -4.31518,1.38484 -5.657,-2.825 0.89987,-1.29122 3.03285,-3.73572 1.826,-5.014 -1.59442,-0.82166 -1.11188,-2.99162 -2.095,-3.831 -0.52134,-0.33301 -0.0792,-0.39633 -0.359,-0.909 z"
   id="PB"
   inkscape:connector-curvature="0" />

</svg>