<?xml version="1.0" encoding="UTF-8" standalone="no"?>
<!-- Created with Inkscape (http://www.inkscape.org/) cleaned up by Marmelad-->

<svg
   xmlns:dc="http://purl.org/dc/elements/1.1/"
   xmlns:cc="http://creativecommons.org/ns#"
   xmlns:rdf="http://www.w3.org/1999/02/22-rdf-syntax-ns#"
   xmlns:svg="http://www.w3.org/2000/svg"
   xmlns="http://www.w3.org/2000/svg"
   xmlns:sodipodi="http://sodipodi.sourceforge.net/DTD/sodipodi-0.dtd"
   xmlns:inkscape="http://www.inkscape.org/namespaces/inkscape"
   version="1.0"
   id="svg3062"
   inkscape:version="0.48.2 r9819"
   width="476.63931"
   height="512.96716"
   sodipodi:docname="norway.svg">
  <defs
     id="defs3137" />
  <sodipodi:namedview
     pagecolor="#ffffff"
     bordercolor="#666666"
     borderopacity="1"
     objecttolerance="10"
     gridtolerance="10"
     guidetolerance="10"
     inkscape:pageopacity="0"
     inkscape:pageshadow="2"
     inkscape:window-width="1366"
     inkscape:window-height="716"
     id="namedview3135"
     showgrid="false"
     fit-margin-top="0"
     fit-margin-left="0"
     fit-margin-right="0"
     fit-margin-bottom="0"
     inkscape:zoom="1.73"
     inkscape:cx="182.40463"
     inkscape:cy="138.85778"
     inkscape:window-x="-8"
     inkscape:window-y="-8"
     inkscape:window-maximized="1"
     inkscape:current-layer="svg3062" />
  <metadata
     id="metadata2027">
    <rdf:RDF>
      <cc:Work
         rdf:about="">
        <dc:format>image/svg+xml</dc:format>
        <dc:type
           rdf:resource="http://purl.org/dc/dcmitype/StillImage" />
        <cc:license
           rdf:resource="http://web.resource.org/cc/PublicDomain" />
        <dc:title>Counties of Norway</dc:title>
      </cc:Work>
      <cc:License
         rdf:about="http://web.resource.org/cc/PublicDomain">
        <cc:permits
           rdf:resource="http://web.resource.org/cc/Reproduction" />
        <cc:permits
           rdf:resource="http://web.resource.org/cc/Distribution" />
        <cc:permits
           rdf:resource="http://web.resource.org/cc/DerivativeWorks" />
      </cc:License>
    </rdf:RDF>
  </metadata>
  <style
     type="text/css"
     id="style3065">
	  
	  
.land
{
	fill:#c0c0c0;
	fill-opacity:1.0000000;
	fill-rule:nonzero;
	stroke:none;
	stroke-opacity:1.0000000;
}

/* color a few counties: */	  
/*
.county20, .akershus
{
fill:red;
}
*/

</style>
  <path
     id="ostfold"
     class="land ostfold county01 ostlandet"
     d="m 126.71262,489.21464 c -0.69954,-2.33485 -2.08567,-4.7534 -3.08029,-5.37455 -0.99462,-0.62115 -1.8084,-1.71435 -1.8084,-2.42933 0,-0.8878 -1.25957,-1.22564 -3.97277,-1.06555 -2.18502,0.12893 -4.1481,0.0347 -4.36241,-0.20949 -0.91762,-1.04539 -1.39405,-8.99321 -0.56964,-9.50273 0.49765,-0.30756 0.90482,-1.43265 0.90482,-2.50019 0,-1.24601 0.68609,-1.94098 1.91618,-1.94098 1.14993,0 2.42636,-1.15256 3.19199,-2.88224 1.18973,-2.68778 1.61455,-2.86396 6.29671,-2.61133 2.76149,0.149 5.1876,0.77101 5.39134,1.38224 0.59216,1.77646 3.60937,1.28643 5.47175,-0.88867 1.84074,-2.14983 4.73203,-2.70047 4.73203,-0.90121 0,0.60433 -1.33825,2.3489 -2.97388,3.87681 -2.87149,2.68238 -2.95279,3.00381 -2.36142,9.33663 0.54716,5.85947 0.32056,7.12513 -2.12577,11.87319 -4.31185,8.36884 -5.14803,8.85134 -6.65024,3.8374 z"
     title="østfold"
     inkscape:connector-curvature="0"
     style="fill:#c0c0c0;fill-opacity:1;fill-rule:nonzero;stroke:none" />
  <path
     style="fill:#c0c0c0;fill-opacity:1;fill-rule:nonzero;stroke:none"
     inkscape:connector-curvature="0"
     d="m 114.25402,459.90339 c 0.7962,-6.00204 1.16492,-6.80745 3.11644,-6.80745 2.31524,0 5.45241,-3.26534 5.45241,-5.67519 0,-3.31379 -2.09949,-7.30864 -3.91052,-7.44081 -1.28308,-0.0936 -1.25214,-0.20416 0.16052,-0.57333 0.9625,-0.25152 1.75,-1.09932 1.75,-1.88399 0,-0.78468 0.9,-2.32668 2,-3.42668 2.49999,-2.49999 2.49917,-3.23828 -0.006,-5.50555 -2.58326,-2.33782 -2.0266,-2.7861 3.82731,-3.08212 l 4.81009,-0.24324 1.81625,4.66545 c 0.99893,2.56601 2.655,7.09207 3.68015,10.05792 1.02515,2.96586 2.27491,5.89086 2.77725,6.5 1.06075,1.28629 -0.71627,11.60754 -1.99848,11.60754 -0.45569,0 -1.72064,0.95757 -2.81099,2.12792 -1.75974,1.88886 -2.15051,1.95987 -3.47831,0.63208 -0.93978,-0.93979 -3.486,-1.51373 -6.84955,-1.54395 -4.97215,-0.0447 -5.4457,0.15971 -6.64447,2.86792 -0.70991,1.60382 -1.98601,2.91603 -2.83577,2.91603 -1.28342,0 -1.42839,-0.87916 -0.8562,-5.19255 z"
     id="path1604" />
  <path
     style="fill:#c0c0c0;fill-opacity:1;fill-rule:nonzero;stroke:none"
     inkscape:connector-curvature="0"
     d="m 109.42797,450.34594 c 0.35376,-1.5125 1.28984,-3.425 2.08017,-4.25 1.27353,-1.3294 1.60302,-1.27593 2.89703,0.47009 1.31874,1.77942 1.26229,2.04326 -0.58329,2.72598 -1.12384,0.41573 -2.30651,1.44169 -2.62816,2.27991 -1.01343,2.64094 -2.43873,1.65134 -1.76575,-1.22598 z"
     id="path1602" />
  <path
     id="oslo"
     class="land oslo county03 ostlandet"
     d="m 117.73579,448.19051 c -3.42296,-3.64861 -3.38765,-7.19057 0.0717,-7.19057 2.02527,0 4.54997,5.16176 3.6596,7.48204 -0.73719,1.92108 -1.72819,1.84367 -3.73129,-0.29147 z"
     inkscape:connector-curvature="0"
     style="fill:#c0c0c0;fill-opacity:1;fill-rule:nonzero;stroke:none" />
  <path
     d="m 139.82287,457.86761 c 0,-0.37031 0.4612,-2.83294 1.0249,-5.47251 0.88249,-4.13237 0.74354,-5.34966 -1,-8.76066 -1.1137,-2.17879 -2.0249,-4.4853 -2.0249,-5.12557 0,-0.64027 -1.125,-3.70795 -2.5,-6.81707 -1.375,-3.10912 -2.5,-6.38605 -2.5,-7.28206 0,-0.89602 -1.72606,-3.92068 -3.83569,-6.72149 -5.04466,-6.69742 -6.74422,-13.83847 -4.30596,-18.09237 0.94576,-1.65 2.72539,-3.44889 3.95475,-3.99753 2.01194,-0.89789 2.16277,-1.44727 1.50999,-5.5 -0.39887,-2.47636 -0.67773,-5.62747 -0.61968,-7.00247 0.0581,-1.375 -0.10163,-3.98792 -0.35484,-5.80648 -0.40027,-2.87472 -0.81219,-3.28056 -3.15448,-3.10795 -4.07995,0.30066 -7.19409,-1.08549 -7.19409,-3.2022 0,-1.03585 0.45,-1.88337 1,-1.88337 1.94597,0 0.98966,-3.76944 -1.09458,-4.31448 -1.74868,-0.45729 -1.98515,-1.04603 -1.43189,-3.565 0.49215,-2.24075 0.11924,-3.75231 -1.44901,-5.87349 -2.63508,-3.56413 -1.98817,-5.33715 2.96253,-8.1196 2.8856,-1.62179 4.54306,-3.60558 6.39836,-7.65811 1.37717,-3.00812 2.86634,-5.46764 3.30927,-5.46558 0.44292,0.002 2.33578,0.93677 4.20634,2.07714 1.87055,1.14037 4.28135,1.84319 5.35732,1.56181 2.67679,-0.69999 6.74166,0.98111 6.74166,2.78815 0,0.81419 1.125,3.13812 2.5,5.1643 1.375,2.02617 2.5,4.26583 2.5,4.97702 0,1.5513 3.13095,2.69856 5.19891,1.90501 0.81436,-0.31251 2.05786,0.12729 2.76332,0.97732 0.70546,0.85003 2.07941,1.54551 3.05323,1.54551 0.97381,0 2.06253,0.76087 2.41939,1.69081 0.65626,1.7102 -4.29982,17.52696 -5.68485,18.14252 -1.34449,0.59756 -0.79627,3.14184 1.76685,8.19991 1.38426,2.73172 3.19011,4.96676 4.01299,4.96676 0.82289,0 2.42022,1.9125 3.54964,4.25 l 2.05349,4.25 -2.52396,5.68235 c -2.42733,5.46481 -2.69786,5.70843 -7.06648,6.36354 -2.49839,0.37466 -4.52759,1.1926 -4.50933,1.81765 0.0183,0.62505 0.90188,5.41146 1.96359,10.63646 1.83119,9.01181 1.847,9.9111 0.30774,17.5 -1.40043,6.90442 -2.17359,8.57838 -5.64565,12.22336 -3.06353,3.2161 -4.54892,4.09136 -6.22814,3.6699 -1.56934,-0.39388 -2.67014,0.11044 -3.81793,1.74915 -0.88705,1.26643 -1.61281,1.99962 -1.61281,1.62932 z"
     id="hedmark"
     class="land hedmark county04 ostlandet"
     inkscape:connector-curvature="0"
     style="fill:#c0c0c0;fill-opacity:1;fill-rule:nonzero;stroke:none" />
  <path
     id="oppland"
     class="land oppland county05 ostlandet"
     d="m 114.68831,435.76689 c -2.0111,-1.8648 -2.76877,-3.77046 -3.28011,-8.25 -1.19619,-10.47906 -1.54628,-11.47169 -3.92635,-11.13255 -1.18686,0.16911 -2.60213,1.31998 -3.14505,2.55748 -1.23262,2.80955 -1.43946,2.80065 -4.676969,-0.20134 -1.58306,-1.4679 -2.91189,-4.03898 -3.31225,-6.4087 -0.54497,-3.22562 -1.25614,-4.19723 -3.84612,-5.25464 -1.74764,-0.71351 -5.20253,-3.55116 -7.67753,-6.30589 -2.475,-2.75474 -5.175004,-5.70572 -6.000004,-6.55774 -2.63331,-2.71955 -3.98388,-6.63781 -2.72267,-7.89902 0.61747,-0.61747 1.6991,-1.12267 2.40362,-1.12267 1.46988,0 2.830974,-4.36268 1.85418,-5.94316 -0.37808,-0.61175 0.214,-1.05684 1.405854,-1.05684 1.13246,0 2.05288,-0.3375 2.04537,-0.75 -0.0519,-2.8508 -1.57887,-5.25279 -3.968474,-6.2426 -1.97556,-0.8183 -2.6523,-1.68937 -2.31489,-2.97964 0.80597,-3.08202 -1.46616,-6.02776 -4.64935,-6.02776 -2.80884,0 -2.88391,-0.13935 -3.21482,-5.96727 -0.29425,-5.18234 -0.07574,-6.08674 1.66118,-6.87549 5.27729,-2.39646 7.34487,-2.90955 9.81875,-2.43664 1.566684,0.29949 2.681254,0.0646 2.681254,-0.56507 0,-0.59269 0.98485,-1.99515 2.18856,-3.11657 2.5087,-2.33721 9.43403,-2.76369 14.755329,-0.90868 5.72529,1.99585 12.61281,7.21753 12.21879,9.26351 -0.19621,1.01884 0.52412,3.04388 1.60074,4.50009 1.35698,1.83541 1.80932,3.65718 1.4745,5.93845 -0.40047,2.72853 -0.12032,3.38566 1.63954,3.84588 2.13483,0.55827 2.98745,2.32179 1.12254,2.32179 -0.55,0 -1,1.24015 -1,2.75589 0,2.09589 0.71328,3.07162 2.97838,4.07425 1.63811,0.7251 3.88811,1.02962 5,0.67672 1.31311,-0.41676 2.05682,-0.17993 2.12206,0.67575 0.0553,0.72457 0.21747,4.02763 0.36049,7.34015 0.14303,3.31252 0.54471,6.91965 0.89263,8.01586 0.46097,1.45239 0.0346,2.26007 -1.57154,2.97723 -1.21226,0.54128 -3.033,2.41657 -4.04608,4.1673 -2.70224,4.66984 -0.75434,13.45988 4.43738,20.0239 l 3.7909,4.79295 -2.73211,0.59201 c -1.50266,0.32561 -3.96268,0.38324 -5.46671,0.12808 -3.75939,-0.63779 -4.73358,2.12043 -1.83767,5.20299 1.83186,1.94992 1.93687,2.4149 0.65632,2.90629 -0.83845,0.32175 -1.81164,1.72926 -2.16266,3.12781 -0.79849,3.18143 -2.22058,3.2116 -5.55701,0.11789 z"
     inkscape:connector-curvature="0"
     style="fill:#c0c0c0;fill-opacity:1;fill-rule:nonzero;stroke:none" />
  <path
     d="m 90.962691,462.96437 c -1.27726,-3.26949 -4.16827,-16.88654 -4.15264,-19.55947 0.007,-1.20504 -0.43718,-2.4691 -0.98718,-2.80902 -0.55,-0.33992 -1,-1.90882 -1,-3.48644 0,-3.36814 -3.986644,-7.01356 -7.670044,-7.01356 -1.32018,0 -3.51277,-0.7289 -4.87243,-1.61979 -2.02966,-1.32988 -3.21882,-1.43025 -6.64418,-0.5608 -6.86966,1.7437 -9.85004,-1.02255 -5.77506,-5.36016 1.5091,-1.60637 2.09003,-3.70007 2.23762,-8.06445 0.10964,-3.24214 -0.14997,-6.60215 -0.57692,-7.46668 -0.56007,-1.13409 -0.06512,-1.8959 1.7771,-2.73527 1.40435,-0.63987 3.05199,-2.25776 3.66143,-3.59533 0.944,-2.07185 1.6081,-2.35078 4.48527,-1.88388 2.58587,0.41963 3.37721,0.1946 3.37721,-0.96035 0,-0.82962 0.5625,-1.97305 1.25,-2.54095 0.92785,-0.76645 2.66287,0.58931 6.732254,5.26065 3.02145,3.46839 6.91224,6.81029 8.66803,7.44519 2.6503,0.95836 3.29976,1.82661 3.86387,5.16556 0.4097,2.42503 1.72443,4.9838 3.32175,6.46492 2.891609,2.68125 6.164099,3.25132 6.164099,1.07378 0,-1.55411 2.77027,-4.1855 3.56731,-3.38847 0.28543,0.28544 1.08197,4.37447 1.77008,9.08674 1.07243,7.3442 1.63742,8.87163 3.95621,10.6956 2.40403,1.891 2.53823,2.29472 1.20576,3.62719 -0.82465,0.82465 -1.49936,1.91721 -1.49936,2.42793 0,0.51071 -0.6199,0.92857 -1.37756,0.92857 -2.00078,0 -3.35061,2.00305 -4.11818,6.11108 -0.5639,3.01797 -0.36662,3.69165 1.20109,4.10162 1.54163,0.40314 1.80532,1.22957 1.48019,4.63891 -0.39743,4.16752 -2.18554,5.90768 -2.18554,2.12695 0,-3.01695 -4.31238,-4.68452 -7.585,-2.93307 -1.893599,1.01342 -2.452949,1.97566 -2.130119,3.66441 0.24077,1.25955 0.10643,2.2901 -0.29855,2.2901 -0.40498,0 -2.12793,0.27832 -3.82878,0.61849 -2.61746,0.52349 -3.23457,0.2547 -4.01773,-1.75 z"
     id="buskerud"
     class="land buskerud county06 ostlandet"
     inkscape:connector-curvature="0"
     style="fill:#c0c0c0;fill-opacity:1;fill-rule:nonzero;stroke:none" />
  <path
     d="m 93.211451,482.9156 c -0.2695,-0.43607 -0.0197,-2.4864 0.55513,-4.55628 0.57483,-2.06989 1.04765,-5.68719 1.05071,-8.03844 0.005,-3.97101 0.22412,-4.31871 3.07893,-4.88967 2.529399,-0.50588 2.978199,-0.9938 2.535729,-2.75676 -0.723949,-2.88444 2.59854,-5.07301 5.41395,-3.56624 2.07426,1.1101 2.68822,2.98767 0.97697,2.98767 -1.27713,0 -1.31669,3.72288 -0.0443,4.16667 1.44904,0.50539 -0.35635,7.13485 -3.32041,12.19263 -2.16297,3.69083 -3.17702,4.48513 -6.172449,4.83483 -1.97135,0.23014 -3.80478,0.0617 -4.07429,-0.37441 z"
     id="vestfold"
     class="land vestfold county07 ostlandet"
     inkscape:connector-curvature="0"
     style="fill:#c0c0c0;fill-opacity:1;fill-rule:nonzero;stroke:none" />
  <path
     id="telemark"
     class="land telemark county08 ostlandet"
     d="m 77.561967,483.12251 c -0.84532,-2.23952 -1.82363,-3.12257 -3.4594,-3.12257 -1.28282,0 -2.28076,0.60951 -2.28076,1.39301 0,1.99225 -2.95905,2.87727 -3.64484,1.09013 -0.31303,-0.81573 -1.40346,-1.48314 -2.42319,-1.48314 -1.01973,0 -2.73238,-0.94277 -3.80589,-2.09504 -1.34577,-1.44452 -2.59989,-1.88935 -4.03895,-1.43261 -1.53459,0.48706 -2.08713,0.23008 -2.08713,-0.9707 0,-0.89822 -0.53649,-2.61605 -1.19221,-3.81739 -0.65571,-1.20134 -1.24124,-3.81443 -1.30116,-5.80685 -0.05993,-1.99243 -0.87343,-4.38707 -1.80779,-5.32143 -1.95229,-1.95228 -2.16556,-3.23374 -0.62373,-3.74768 0.71407,-0.23803 0.84131,-2.42491 0.37888,-6.51218 -0.6281,-5.55166 -0.97792,-6.2705 -3.57511,-7.34629 -3.32707,-1.37812 -3.51528,-2.54742 -1.19367,-7.4159 1.0371,-2.17482 2.40064,-3.53393 3.54546,-3.53393 1.02313,0 2.97221,-1.11197 4.33128,-2.47104 2.0733,-2.0733 2.84583,-2.30029 4.79942,-1.41017 1.64312,0.74866 3.46593,0.74679 6.19355,-0.006 3.08046,-0.85056 4.32292,-0.76729 6.11994,0.41016 1.24012,0.81257 3.33492,1.47739 4.6551,1.47739 3.6834,0 7.670044,3.64542 7.670044,7.01356 0,1.57762 0.45,3.14652 1,3.48644 0.55,0.33992 0.99423,1.60398 0.98718,2.80902 -0.0152,2.60689 2.85878,16.23914 4.09865,19.44098 0.47921,1.2375 1.55594,2.25 2.39273,2.25 1.1389,0 1.49638,1.06859 1.42176,4.25 -0.0548,2.3375 -0.44288,5.375 -0.86235,6.75 -0.65782,2.15628 -0.86505,2.2594 -1.50731,0.75 -0.85478,-2.00885 -4.53066,-2.39221 -4.53066,-0.47251 0,0.70263 0.68625,2.25725 1.52499,3.45473 1.472,2.10157 1.38294,2.21548 -2.56254,3.27789 -2.24815,0.60537 -4.752674,1.35589 -5.565604,1.66784 -0.99874,0.38326 -1.86026,-0.4454 -2.65669,-2.55538 z"
     inkscape:connector-curvature="0"
     style="fill:#c0c0c0;fill-opacity:1;fill-rule:nonzero;stroke:none" />
  <path
     d="m 51.277417,506.04536 c 0,-2.22779 -0.45017,-4.36529 -1.00037,-4.75 -0.55021,-0.38471 -1.78786,-1.93698 -2.75033,-3.44948 -0.96248,-1.5125 -2.63958,-2.75 -3.7269,-2.75 -2.42981,0 -2.71873,-3.50138 -0.3635,-4.40516 1.0437,-0.40051 1.42424,-1.34272 1.07763,-2.66816 -0.32665,-1.24912 0.01944,-2.2621 0.88654,-2.59484 1.49051,-0.57196 1.8445,-3.06825 0.81539,-5.75005 -0.44185,-1.15145 -1.97149,-1.58179 -5.62244,-1.58179 -3.84827,0 -4.79616,-0.2909 -4.07314,-1.25 1.68449,-2.23451 3.5903,-9.5578 2.93304,-11.27059 -0.35231,-0.91811 -1.53829,-1.90405 -2.63552,-2.19098 -2.8455,-0.74412 -2.58543,-5.43323 0.50505,-9.10606 1.375,-1.6341 2.5,-3.61518 2.5,-4.40241 0,-0.78723 1.06186,-2.4289 2.35968,-3.64814 2.01591,-1.89385 2.72583,-2.04998 4.87286,-1.07173 2.06151,0.93929 2.62303,2.07018 3.12442,6.2925 0.36232,3.05111 0.21047,5.28316 -0.37285,5.48074 -1.55946,0.52822 -1.1451,3.86283 0.71058,5.71851 1.01768,1.01767 1.65404,3.12901 1.59293,5.28505 -0.05598,1.97469 0.53141,4.49435 1.3053,5.59924 0.7739,1.10488 1.40708,2.84096 1.40708,3.85794 0,1.35859 0.61985,1.76783 2.33678,1.54284 1.28522,-0.16842 3.11736,0.47438 4.07142,1.42844 0.95406,0.95406 2.44041,1.73465 3.30299,1.73465 0.86258,0 2.10222,0.73015 2.75476,1.62255 1.40811,1.9257 5.53405,1.03853 5.53405,-1.18994 0,-2.87799 2.55007,-1.27261 4.42407,2.78516 1.35928,2.94322 1.57944,4.28106 0.75,4.55754 -0.64574,0.21525 -1.17407,1.03999 -1.17407,1.83277 0,0.79278 -1.125,1.86915 -2.5,2.39192 -1.375,0.52277 -2.5,1.32829 -2.5,1.79004 0,0.46174 -1.48143,1.54598 -3.29207,2.40941 -1.81064,0.86344 -4.39814,3.19371 -5.75,5.17838 -1.35186,1.98468 -3.27757,3.61158 -4.27936,3.61534 -1.00178,0.004 -2.49643,0.68183 -3.32143,1.50683 -2.60446,2.60446 -3.90259,1.75608 -3.90259,-2.55052 z"
     id="aust-agder"
     class="land aust-agder county09 sorlandet"
     inkscape:connector-curvature="0"
     style="fill:#c0c0c0;fill-opacity:1;fill-rule:nonzero;stroke:none" />
  <path
     d="m 34.791337,512.15484 c -4.9187,-1.49441 -9.96847,-5.03412 -9.96847,-6.98753 0,-0.58929 -0.675,-1.07143 -1.5,-1.07143 -0.825,0 -1.5,0.67881 -1.5,1.50847 0,1.25815 -0.33189,1.30121 -2,0.25946 -2.52958,-1.57975 -2.52958,-2.46507 0,-3.26793 2.13617,-0.67799 2.66247,-3.43753 0.97705,-5.12295 -0.69727,-0.69727 -0.50688,-2.25808 0.598,-4.90242 0.93822,-2.24549 1.401,-5.23478 1.09875,-7.09732 -0.79747,-4.91427 4.43588,-14.9851 8.89111,-17.10965 1.8893,-0.90095 3.43509,-2.22974 3.43509,-2.95287 0,-1.73897 1.45903,-1.67155 2.9598,0.13677 0.94167,1.13465 0.92383,2.28087 -0.0817,5.25 -0.70751,2.08914 -1.64452,4.22594 -2.08224,4.74844 -2.02164,2.41318 -0.69692,3.55 4.13675,3.55 4.11259,0 5.04202,0.3447 5.5907,2.07344 0.44149,1.39101 0.08106,2.49536 -1.09509,3.35539 -1.07761,0.78797 -1.5044,1.93027 -1.10756,2.96442 0.39638,1.03296 0.07307,1.90217 -0.83752,2.25159 -0.83793,0.32155 -1.48314,1.82769 -1.48314,3.46215 0,2.2151 0.46325,2.89301 1.97695,2.89301 1.08732,0 2.76442,1.2375 3.7269,2.75 0.96247,1.5125 2.01817,2.975 2.34599,3.25 2.29904,1.92859 1.82318,7 -0.65683,7 -0.76615,0 -1.39301,0.45 -1.39301,1 0,0.55 -1.575,1 -3.5,1 -1.925,0 -3.5,0.45 -3.5,1 0,1.14331 -1.40818,1.15981 -5.03153,0.059 z"
     id="vest-agder"
     class="land vest-agder county10  sorlandet"
     inkscape:connector-curvature="0"
     style="fill:#c0c0c0;fill-opacity:1;fill-rule:nonzero;stroke:none" />
  <path
     style="fill:#c0c0c0;fill-opacity:1;fill-rule:nonzero;stroke:none"
     inkscape:connector-curvature="0"
     id="path7728"
     d="m 33.28125,436.0625 c -2.196194,0.15857 -5.46875,1.28514 -5.46875,2.1875 0,0.34526 -0.88013,1.65107 -1.96875,2.90625 -1.53972,1.77532 -2.65239,2.15077 -4.96875,1.6875 -1.63772,-0.32751 -5.90133,-0.3048 -9.5,0.0312 -5.48684,0.51237 -6.5625,0.91286 -6.5625,2.46875 0,1.02047 0.4204,1.84375 0.90625,1.84375 0.48585,0 1.18634,1.0125 1.5625,2.25 0.41435,1.36311 0.87487,1.75728 1.1875,1 0.61281,-1.48445 3.34375,-1.68871 3.34375,-0.25 0,0.55 0.64646,1 1.4375,1 0.94788,0 1.37408,-0.93831 1.25,-2.75 -0.15073,-2.20106 0.31301,-2.82342 2.21875,-3.09375 2.13479,-0.30282 2.29763,-0.0559 1.6875,2.375 l -0.6875,2.71875 3.9375,-3.125 c 4.59699,-3.64088 8.15625,-4.13254 8.15625,-1.125 0,1.1 -0.45207,2 -1.03125,2 -2.07018,0 -7.63607,4.52166 -7.1875,5.84375 0.47905,1.41192 -3.16133,7.09392 -5.4375,8.46875 -0.72818,0.43983 -1.34375,2.12733 -1.34375,3.75 0,1.95583 -0.50561,2.9375 -1.5,2.9375 -0.825,0 -1.5,-0.34984 -1.5,-0.78125 0,-0.43142 -1.30262,-1.55271 -2.90625,-2.5 L 6,464.1875 4.90625,469.21875 c -1.20719,5.62893 -1.31569,11.55363 -0.25,14.25 0.386,0.97665 3.17466,4.43362 6.1875,7.6875 3.01284,3.25388 5.9524,5.93675 6.53125,5.96875 1.66309,0.0919 4.65476,-9.29896 3.90625,-12.28125 -1.059,-4.2194 4.73179,-15.29493 9.09375,-17.375 3.21687,-1.53402 3.4375,-1.95762 3.4375,-6.375 0,-3.59498 0.60314,-5.46446 2.5,-7.71875 1.375,-1.6341 2.5,-3.61902 2.5,-4.40625 0,-0.78723 1.125,-2.4895 2.5,-3.78125 2.71664,-2.55215 3.43037,-5.5529 1.09375,-4.65625 -0.78594,0.30159 -3.03594,0.85029 -5,1.21875 -3.80312,0.71347 -4.88947,-0.86053 -2.34375,-3.40625 0.98886,-0.98886 0.9784,-1.39987 -0.09375,-2.0625 -0.33582,-0.20755 -0.955435,-0.27161 -1.6875,-0.21875 z m -30.8125,13.46875 c -0.2174675,0.098 -0.575945,0.64112 -1.15625,1.65625 -1.97922,3.46228 -1.87778,3.80743 1.25,4.28125 1.5125,0.22912 3.2,0.46715 3.75,0.53125 0.55,0.0641 -0.0125,-0.71764 -1.25,-1.75 -1.2375,-1.03236 -2.26175,-2.70691 -2.28125,-3.71875 -0.014385,-0.74702 -0.095032,-1.09804 -0.3125,-1 z m 9.9375,9.34375 c -0.549771,0.0621 -1.5625,0.42529 -2.59375,0.96875 -1.37794,0.72617 -1.82677,1.31281 -1,1.3125 1.72415,-6.6e-4 4.67202,-1.67278 3.96875,-2.25 -0.06477,-0.0532 -0.191743,-0.0519 -0.375,-0.0312 z" />
  <path
     style="fill:#c0c0c0;fill-opacity:1;fill-rule:nonzero;stroke:none"
     inkscape:connector-curvature="0"
     id="path1571"
     d="m 32.75,385.46875 c -0.678964,0.0289 -1.555525,0.12901 -2.71875,0.28125 -2.58452,0.33826 -5.5152,1.47672 -6.5,2.5 -0.98393,1.02237 -2.55893,1.8941 -3.5,1.9375 -1.04265,0.0481 -1.23045,0.25515 -0.46875,0.5625 0.6875,0.27741 1.25,1.38334 1.25,2.4375 0,3.21344 -3.99516,2.12646 -5.3125,-1.4375 -0.7169,-1.93954 -2.77151,-1.84172 -3.4375,0.15625 -0.21771,0.65312 0.31666,1.1875 1.1875,1.1875 0.94575,0 1.5625,0.86071 1.5625,2.125 0,1.62432 -0.4652,1.99511 -2,1.59375 -2.46094,-0.64355 -2.66138,0.78042 -0.25,1.78125 4.04264,1.67789 7.17375,1.28066 8.75,-1.125 1.94311,-2.96556 5.5,-3.20635 5.5,-0.375 0,1.1 -0.39995,2 -0.90625,2 -0.5063,0 -1.22319,1.37534 -1.59375,3.0625 -0.82388,3.75109 -2.69044,4.62731 -5.59375,2.59375 -2.03456,-1.42506 -2.31875,-1.38737 -4,0.75 -1.32949,1.69017 -1.65227,3.29728 -1.21875,5.96875 0.6123,3.77314 1.96782,4.7334 2.96875,2.125 0.31659,-0.825 1.4572,-1.5 2.5625,-1.5 1.51733,0 1.89488,0.48997 1.5,2 -0.28765,1.1 -0.05814,2 0.5,2 0.97262,0 0.60006,2.64181 -0.90625,6.65625 -0.60912,1.62337 -0.48625,1.67771 1,0.46875 0.92798,-0.75485 1.6875,-2.4173 1.6875,-3.6875 0,-1.47177 1.17885,-3.11131 3.25,-4.5625 1.7875,-1.25245 3.84382,-3.10874 4.5625,-4.09375 1.08738,-1.49032 2.80782,-1.78125 10.25,-1.78125 6.92159,0 8.9375,0.31083 8.9375,1.375 0,0.75625 -1.36644,1.66079 -3.0625,2 -2.23133,0.44627 -3.39713,1.4483 -4.21875,3.625 -0.67679,1.79304 -1.87609,3 -2.9375,3 -2.041,0 -2.18351,-0.81177 -0.78125,-4.5 0.92834,-2.44172 0.83761,-2.58913 -1.25,-1.9375 -3.10789,0.97009 -8.91998,6.1951 -7.71875,6.9375 0.53953,0.33345 0.96875,1.33085 0.96875,2.1875 0,1.12216 -0.69883,1.40681 -2.5,1.0625 -1.78707,-0.34162 -2.5,-0.033 -2.5,1.0625 0,2.16173 -2.97121,5.1875 -5.09375,5.1875 -2.5236,0 -3.18079,1.56922 -1.40625,3.34375 1.70429,1.7043 2.01775,4.65625 0.5,4.65625 -0.55,0 -1,0.675 -1,1.5 0,1.47812 -3.96905,2.21655 -4.03125,0.75 -0.14787,-3.48708 -8.20272,-6.69221 -9.34375,-3.71875 -0.34425,0.89708 -0.35718,2.70138 -0.03125,4 0.57062,2.27354 0.91462,2.33977 9.25,2.15625 7.07244,-0.15571 8.97648,-0.53897 10.40625,-2.09375 0.9625,-1.04666 1.75,-2.1759 1.75,-2.53125 0,-1.14188 6.68953,-3.11552 8.375,-2.46875 1.93476,0.74244 2.12859,3.49853 0.375,5.28125 -1.00831,1.02506 -0.66994,1.14101 1.75,0.5625 5.77105,-1.37965 7.20093,-2.28295 8.46875,-5.34375 0.78917,-1.90521 2.02133,-3.09375 3.1875,-3.09375 2.27612,0 7.84375,-5.10409 7.84375,-7.1875 0,-0.81771 0.84701,-2.25718 1.875,-3.1875 2.2558,-2.04147 3.49061,-9.75083 2.0625,-12.875 -0.56666,-1.23964 -3.08565,-3.15 -5.59375,-4.25 -5.15249,-2.25978 -7.89438,-5.20879 -8.84375,-9.53125 -0.65308,-2.97348 -1.62611,-3.45377 -6.53125,-3.09375 -2.0625,0.15137 -2.78077,-0.4593 -3.8125,-3.3125 -0.94305,-2.60796 -1.181857,-3.27412 -3.21875,-3.1875 z m -23.40625,20.1875 c -0.132454,-0.012 -0.2445,1.04687 -0.25,2.9375 -0.0075,2.75005 0.20014,4.01119 0.4375,2.78125 0.23741,-1.22994 0.22986,-3.47994 0,-5 -0.071828,-0.47502 -0.1272936,-0.71328 -0.1875,-0.71875 z m 0.875,13.53125 c -0.293015,0.0679 -0.40625,0.32362 -0.40625,0.78125 0,0.48585 0.9,1.11859 2,1.40625 2.54284,0.66497 2.64695,3.71875 0.125,3.71875 -1.79087,0 -3.5726,4.20865 -2.3125,5.46875 1.0383,1.0383 1.91239,0.48688 3.03125,-1.96875 0.62649,-1.375 1.81946,-2.5 2.65625,-2.5 2.69835,0 1.6819,-3.85565 -1.4375,-5.46875 -2.127437,-1.10014 -3.167892,-1.55072 -3.65625,-1.4375 z" />
  <path
     style="fill:#c0c0c0;fill-opacity:1;fill-rule:nonzero;stroke:none"
     inkscape:connector-curvature="0"
     id="path1600"
     d="m 32.5,341.28125 c -0.117069,0.0132 -0.263699,0.14602 -0.4375,0.40625 -0.40408,0.60503 -1.4026,1.3309 -2.21875,1.59375 -0.85235,0.27451 0.63725,1.25714 3.5,2.3125 2.74115,1.01053 5.415,2.19716 5.9375,2.65625 0.5225,0.4591 1.8725,0.84075 3,0.84375 1.1275,0.003 3.35491,0.68968 4.96875,1.53125 1.61384,0.84157 3.57638,1.29446 4.34375,1 2.1649,-0.83075 6.21875,0.54398 6.21875,2.09375 0,1.03263 -1.52899,1.375 -5.9375,1.375 -3.26754,0 -6.22258,-0.45 -6.5625,-1 -0.33992,-0.55 -1.60746,-1.01255 -2.8125,-1.03125 -1.20504,-0.0187 -3.9875,-0.90607 -6.1875,-1.96875 -2.2,-1.06268 -4.71156,-1.95005 -5.59375,-1.96875 -0.88218,-0.0187 -2.72672,-1.07683 -4.09375,-2.34375 -1.36704,-1.26693 -3.01797,-2.11901 -3.65625,-1.90625 -2.03814,0.67938 -1.24693,1.98508 1.84375,3.0625 3.59878,1.25454 4.08473,4.15625 0.6875,4.15625 -3.42346,0 -4.04835,1.211 -1.59375,3.0625 2.87006,2.1649 1.90858,7.9375 -1.3125,7.9375 -4.73483,0 -5.4293,6.36036 -1.28125,11.5625 2.18977,2.74623 2.61145,2.87115 9.40625,2.59375 4.55514,-0.18597 7.09375,0.0984 7.09375,0.78125 0,0.58666 0.8651,1.0625 1.90625,1.0625 1.04116,0 2.15216,0.675 2.46875,1.5 0.31658,0.825 1.02648,1.5 1.59375,1.5 0.56726,0 1.03125,-0.675 1.03125,-1.5 0,-0.825 0.60124,-1.5 1.3125,-1.5 0.71127,0 1.72377,-1.4625 2.25,-3.25 0.65884,-2.23791 1.63818,-3.34246 3.1875,-3.5625 2.63869,-0.37475 3.10883,2.10991 0.8125,4.40625 -1.28237,1.28237 -1.25859,1.71209 0.21875,3.4375 0.92621,1.08173 2.44306,1.96875 3.375,1.96875 0.93193,0 1.87796,0.54012 2.09375,1.1875 0.80814,2.42441 2.75,-0.43116 2.75,-4.03125 0,-4.29275 1.43329,-6.15625 4.71875,-6.15625 2.83137,0 2.9785,2.09679 0.28125,3.78125 -1.13065,0.7061 -2,2.31023 -2,3.71875 0,1.82486 0.53515,2.5 2,2.5 1.1,0 2,0.63286 2,1.40625 0,0.92539 -1.67865,1.64984 -4.90625,2.09375 -5.11204,0.70309 -6.0295,1.80871 -6.0625,7.25 -0.0081,1.32726 -0.64641,2.25 -1.53125,2.25 -0.825,0 -1.5,-0.59502 -1.5,-1.34375 0,-0.91282 -0.82359,-1.22672 -2.5,-0.90625 -3.39462,0.64892 -3.39136,-2.46061 0,-3.75 2.74957,-1.04538 2.52709,-2.97291 -0.6875,-6.1875 -1.49912,-1.49913 -1.93619,-1.58102 -2.375,-0.4375 -0.93977,2.44901 -6.48823,2.89158 -8.84375,0.71875 -2.38772,-2.20252 -9.32956,-4.35244 -9.78125,-3.03125 -0.16594,0.48536 -1.6625,1.15617 -3.3125,1.46875 -2.30366,0.4364 -3.67053,-0.0413 -5.90625,-2 -1.60134,-1.40295 -3.09014,-2.34736 -3.3125,-2.125 -0.72658,0.72657 -1.07398,7.58551 -0.40625,7.96875 0.35789,0.20541 4,-0.23387 8.125,-0.96875 10.61669,-1.89138 10.72281,-1.87036 12.15625,2.09375 0.93923,2.59739 1.69878,3.37182 2.96875,2.96875 3.62747,-1.15132 6.57028,0.56244 7.75,4.5 1.22157,4.07723 2.33167,5.25643 7.40625,8.09375 1.78138,0.99601 3.44375,1.8455 3.71875,1.875 1.52898,0.16408 6.94628,-4.12566 7.53125,-5.96875 0.57268,-1.80434 1.20735,-2.05709 3.84375,-1.5625 2.77609,0.5208 3.31634,0.25163 4.4375,-2.28125 0.9944,-2.24649 1.01263,-3.45203 0.09375,-5.46875 -1.27102,-2.78958 0.05446,-5.65625 2.625,-5.65625 1.65744,0 2.47089,-2.26906 1.78125,-4.90625 -0.42322,-1.6184 -0.06171,-2.09375 1.5,-2.09375 3.05231,0 1.66592,-3.55697 -1.96875,-5.0625 -2.26833,-0.93958 -2.86839,-1.72177 -2.46875,-3.25 0.83811,-3.20492 -1.08369,-5.6875 -4.40625,-5.6875 -2.90803,0 -2.95375,-0.10062 -2.96875,-5.25 -0.0201,-6.89107 -0.86768,-8.22859 -4.25,-6.6875 -2.20239,1.00348 -3.02799,0.87149 -5.65625,-1 -1.69353,-1.2059 -3.09375,-2.52647 -3.09375,-2.9375 0,-0.903 -6.77923,-0.60544 -9.28125,0.40625 -1.12772,0.45598 -2.4888,0.0848 -3.6875,-1 -1.04486,-0.94556 -2.4134,-1.41311 -3.03125,-1.03125 -1.6893,1.04404 -6.9825,-1.51143 -7,-3.375 -0.006,-0.64215 -0.117385,-0.95945 -0.3125,-0.9375 z m -17,31.40625 c -0.33644,0.0621 -0.889369,0.5099 -1.53125,1.25 -1.02702,1.18416 -2.37822,2.15625 -2.96875,2.15625 -0.59053,0 -1.37367,0.48483 -1.75,1.09375 -0.46936,0.75944 0.05895,0.88197 1.65625,0.375 2.77902,-0.88202 4.90625,-2.87165 4.90625,-4.5625 0,-0.25254 -0.110636,-0.34975 -0.3125,-0.3125 z" />
  <path
     style="fill:#c0c0c0;fill-opacity:1;fill-rule:nonzero;stroke:none"
     inkscape:connector-curvature="0"
     id="path2364"
     d="m 92.3125,295.59375 c -2.78112,0 -3.05808,0.53567 -1.28125,2.3125 1.75867,1.75867 3.78125,1.45071 3.78125,-0.5625 0,-1.2 -0.78571,-1.75 -2.5,-1.75 z m 4.84375,7.875 c -0.04966,0.0118 -0.09063,0.0594 -0.125,0.0937 -0.275,0.275 0.0745,1.17967 0.78125,2.03125 0.70675,0.85158 1.50625,1.3375 1.78125,1.0625 0.275,-0.275 -0.0745,-1.21092 -0.78125,-2.0625 -0.618406,-0.74513 -1.308612,-1.20729 -1.65625,-1.125 z m -5.90625,1.625 c -0.85748,0 -1.27742,0.45 -0.9375,1 0.33992,0.55 1.04496,1 1.5625,1 0.51754,0 0.9375,-0.45 0.9375,-1 0,-0.55 -0.70504,-1 -1.5625,-1 z m 13.3125,3.28125 c -0.25307,-0.0957 -0.73701,0.32732 -1.6875,1.1875 -1.07952,0.97695 -2.65452,1.51194 -3.5,1.1875 -0.84549,-0.32419 -2.24003,-0.3276 -3.09375,0 -1.33176,0.51105 -1.28738,0.86177 0.4375,2.46875 1.10572,1.03013 2.4895,1.875 3.0625,1.875 1.49093,0 1.297,1.8905 -0.375,3.5625 -2.85256,2.85256 -5.18281,1.72709 -6.78125,-3.28125 -1.27674,-4.00036 -2.01466,-4.83751 -4.8125,-5.5625 -4.50725,-1.16795 -8,-0.15542 -8,2.3125 0,2.33961 -2.23448,2.59608 -4,0.46875 -1.77135,-2.13435 -4,-1.85577 -4,0.5 0,1.1 0.45,2 1,2 0.55,0 1,0.61415 1,1.375 0,1.44547 -2.7495,2.5215 -7,2.71875 -2.0522,0.0952 -1.87307,0.28405 1,1 1.925,0.47969 4.7375,0.6172 6.25,0.3125 2.12734,-0.42856 2.75,-0.17279 2.75,1.125 0,1.46116 0.77424,1.57526 6,0.96875 5.9725,-0.69318 6,-0.68002 6,1.90625 0,1.64284 -0.55155,2.59375 -1.5,2.59375 -0.825,0 -1.5,0.45 -1.5,1 0,1.59968 -5.45727,1.15388 -11.1875,-0.90625 -8.7327,-3.13958 -20.39914,-4.88604 -19.15625,-2.875 0.26763,0.43304 1.11371,0.78125 1.90625,0.78125 2.04902,0 1.78776,2.76365 -0.3125,3.3125 -0.9625,0.25153 0.24188,0.4987 2.65625,0.5625 4.52576,0.11959 6.999,1.9853 7.0625,5.28125 0.01773,0.92102 1.35889,2.10451 3.03125,2.6875 2.01892,0.70379 3,1.7128 3,3.09375 0,2.11107 -2.39969,2.84284 -3.5,1.0625 -0.93407,-1.51136 -2.5,-1.19817 -2.5,0.5 0,0.825 -0.5625,1.55035 -1.25,1.59375 -1,0.0632 -1,0.15899 0,0.5625 0.6875,0.27741 1.25,1.1843 1.25,2 0,1.02795 -0.84392,1.37557 -2.75,1.15625 -2.37667,-0.27346 -2.7224,-0.72807 -2.53125,-3.3125 0.12165,-1.64472 0.68415,-3.12388 1.25,-3.3125 1.33492,-0.44496 1.32163,-2.49341 -0.0625,-5.53125 -1.00756,-2.21136 -1.56766,-2.37151 -6.25,-1.96875 -5.62367,0.48374 -9.65625,2.51519 -9.65625,4.875 0,0.82958 0.675,1.74592 1.5,2.0625 2.33161,0.89472 1.77828,3.3922 -0.75,3.375 -3.19408,-0.0217 -5.12417,-1.53538 -4.40625,-3.40625 0.45754,-1.19233 -0.0036,-1.59375 -1.78125,-1.59375 -1.31275,0 -3.0764,-0.24406 -3.90625,-0.5625 -1.13309,-0.43481 -1.37704,-0.0613 -0.96875,1.5 0.38498,1.47218 0.08228,2.0625 -1.0625,2.0625 -0.88915,0 -1.625,0.42457 -1.625,0.9375 0,1.20348 3.90767,2.49216 6.59375,2.1875 1.1473,-0.13012 2.67248,0.46601 3.375,1.3125 0.70252,0.8465 1.78107,1.21321 2.40625,0.8125 0.62518,-0.4007 3.05262,-0.8012 5.40625,-0.875 3.40977,-0.10698 4.90695,0.43832 7.28125,2.65625 3.37005,3.14809 2.5842,3.2367 16.625,-2.03125 1.74696,-0.65544 4.10946,-0.89324 5.25,-0.53125 1.18069,0.37474 2.0625,0.21055 2.0625,-0.375 0,-0.56564 0.98379,-1.94108 2.1875,-3.0625 2.48722,-2.3172 11.55642,-2.8483 16.5,-0.96875 2.49221,0.94753 3.08763,0.75374 5.1875,-1.6875 2.00578,-2.33186 2.1322,-2.90827 0.90625,-3.8125 -2.0725,-1.52863 -4.02066,-5.4803 -3.4375,-7 0.27361,-0.71301 2.575,-1.62229 5.09375,-2 3.54713,-0.53193 4.5625,-1.09413 4.5625,-2.53125 0,-1.02047 0.54759,-2.03669 1.1875,-2.25 0.63992,-0.2133 1.24465,-1.94872 1.34375,-3.84375 0.0991,-1.89503 0.33898,-4.09431 0.5625,-4.90625 0.2551,-0.92671 -0.43133,-1.597 -1.84375,-1.8125 -1.2375,-0.18881 -2.25,0.0492 -2.25,0.5625 0,0.51325 -1.8,0.9375 -4,0.9375 -3.60789,0 -4,-0.22827 -4,-2.5 0,-1.21967 0.003,-1.84178 -0.25,-1.9375 z m -36.625,5.71875 c -0.55,0 -1.28508,0.45 -1.625,1 -0.33992,0.55 -0.14375,1 0.40625,1 0.55,0 1.25383,-0.45 1.59375,-1 0.33992,-0.55 0.175,-1 -0.375,-1 z m -17.125,8 c -0.55,0 -1,0.45 -1,1 0,0.55 0.45,1 1,1 0.55,0 1,-0.45 1,-1 0,-0.55 -0.45,-1 -1,-1 z m 0.9375,6 c -0.58246,0 -0.77742,0.45 -0.4375,1 0.33992,0.55 0.81996,1 1.0625,1 0.24254,0 0.4375,-0.45 0.4375,-1 0,-0.55 -0.48004,-1 -1.0625,-1 z m -5.9375,0.46875 c -1.688036,-0.10434 -4,0.9091 -4,2.15625 0,0.76085 -1.0125,1.38875 -2.25,1.40625 -2.19371,0.031 -2.20507,0.0685 -0.3125,1.5 2.48747,1.88143 2.55172,1.87937 5.96875,-1.125 1.70993,-1.50342 2.50281,-2.90344 1.96875,-3.4375 -0.317923,-0.31793 -0.812321,-0.46522 -1.375,-0.5 z M 31,334.1875 c -0.35063,-0.027 -0.785965,0.25655 -1.1875,0.90625 -0.57045,0.92302 -0.45243,1.70827 0.3125,2.1875 0.71285,0.44661 1.32976,0.14281 1.53125,-0.78125 0.297469,-1.36423 -0.07187,-2.26749 -0.65625,-2.3125 z" />
  <path
     style="fill:#c0c0c0;fill-opacity:1;fill-rule:nonzero;stroke:none"
     inkscape:connector-curvature="0"
     id="path10047"
     d="m 147.0625,267.40625 c -0.84871,0.006 -1.97516,0.90188 -4.4375,3.09375 -2.3658,2.10594 -4.68101,4.63286 -5.15625,5.59375 -0.47525,0.96088 -1.82525,1.98977 -3,2.3125 -1.64163,0.45098 -1.84885,0.8002 -0.8125,1.46875 2.39228,1.54327 0.86076,4.43631 -2.84375,5.375 -3.81612,0.96697 -6.77857,3.28393 -5.65625,4.40625 0.38893,0.38893 1.22416,0.18209 1.875,-0.46875 1.74628,-1.74628 6.78125,-1.51531 6.78125,0.3125 0,0.825 -0.604,1.5 -1.34375,1.5 -0.73976,0 -2.15555,0.89424 -3.15625,2 -1.76721,1.95274 -1.75138,2.08504 0.59375,4.59375 l 2.40625,2.59375 1.40625,-3.59375 C 134.48088,294.6174 135.6769,293 136.375,293 c 0.69811,0 2.45581,-2.025 3.90625,-4.5 1.45045,-2.475 2.98315,-4.5 3.40625,-4.5 2.01109,0 5.19322,-4.2675 4.59375,-6.15625 -0.34829,-1.09736 -0.0879,-3.32314 0.59375,-4.96875 1.04764,-2.52922 1.00632,-3.24368 -0.34375,-4.59375 -0.54855,-0.54855 -0.95953,-0.87865 -1.46875,-0.875 z m -36.46875,15.625 c -0.14206,0.008 -0.37623,0.41607 -0.84375,1.21875 -0.65723,1.1284 -2.3328,1.77515 -4.71875,1.84375 l -3.71875,0.125 2.75,1.09375 c 3.33309,1.31707 3.98466,5.6875 0.84375,5.6875 -2.82908,0 -5.16381,1.07025 -4.53125,2.09375 0.3043,0.49237 3.68246,0.90625 7.5,0.90625 3.96065,0 6.9375,0.42938 6.9375,1 0,0.55 0.9,1 2,1 1.11111,0 2,0.66667 2,1.5 0,0.825 -0.40774,1.5 -0.90625,1.5 -0.49848,0 -0.6741,0.85074 -0.40625,1.875 0.34663,1.32552 -0.18488,2.02456 -1.84375,2.46875 -3.62292,0.97009 -3.84375,0.8492 -3.84375,-2.3125 0,-2.22792 -0.37426,-2.83823 -1.5,-2.40625 -0.825,0.31659 -1.51375,1.31509 -1.53125,2.21875 -0.0175,0.90365 -0.6925,2.52613 -1.5,3.59375 -2.4118,3.18868 -1.84607,5.0625 1.53125,5.0625 1.65,0 3,-0.36515 3,-0.8125 0,-0.4474 1.4625,-0.67235 3.25,-0.5 2.80611,0.27056 3.20657,0.65395 2.96875,2.8125 -0.1515,1.375 -0.23805,3.68837 -0.21875,5.15625 0.0193,1.46788 -0.63841,3.35716 -1.46875,4.1875 -0.83033,0.83034 -1.53125,2.18406 -1.53125,3 0,0.96835 -1.47588,1.72846 -4.25,2.1875 -2.3375,0.38678 -4.58602,0.91132 -5,1.15625 -0.9551,0.56508 1.1144,4.56672 2.90625,5.625 1.90145,1.12301 1.68561,2.98308 -0.6875,6 l -2.03125,2.59375 4.09375,2.71875 4.09375,2.71875 3.6875,-2.09375 c 2.6061,-1.46883 4.51182,-3.7224 6.4375,-7.65625 3.02634,-6.18231 4.37943,-6.72139 9.40625,-3.65625 1.73759,1.05951 4.00251,1.70652 5.03125,1.4375 2.61623,-0.68416 7.3125,1.28342 7.3125,3.0625 0,0.81419 1.125,3.13007 2.5,5.15625 1.375,2.02617 2.5,4.283 2.5,5.03125 0,1.39977 0.97612,1.7163 4.59375,1.4375 1.1473,-0.0884 2.66746,0.52246 3.375,1.375 1.77668,2.14077 4.29215,2.01666 3.6875,-0.1875 -1.63086,-5.94497 -1.68247,-9.56213 -0.1875,-11.84375 0.99483,-1.51834 1.34178,-3.35797 0.9375,-4.96875 -0.46847,-1.86653 -0.0352,-3.17433 1.5625,-4.875 1.97288,-2.10004 2.05955,-2.73472 1.0625,-6.4375 -0.94955,-3.52634 -1.48742,-4.1119 -3.8125,-4.125 -3.39657,-0.0192 -5.05498,-1.08678 -6.5625,-4.125 -0.6509,-1.3118 -2.96939,-3.275 -5.15625,-4.375 -2.18686,-1.1 -4.12917,-2.3375 -4.3125,-2.75 -0.18334,-0.4125 -0.97084,-0.75 -1.75,-0.75 -0.77917,0 -1.4375,-0.675 -1.4375,-1.5 0,-1.07801 -1.09143,-1.5 -3.90625,-1.5 -2.18982,0 -4.14728,-0.55112 -4.4375,-1.25 -0.35962,-0.86599 -1.13205,-0.55878 -2.5,1 -2.19447,2.50061 -6.15625,3.0472 -6.15625,0.84375 0,-0.77916 0.57414,-1.61846 1.25,-1.84375 0.90265,-0.30088 0.76994,-1.09307 -0.5,-3.03125 -0.95086,-1.45119 -1.76375,-3.68065 -1.78125,-4.9375 -0.0304,-2.18635 -0.0817,-2.19656 -1.4375,-0.40625 -1.8075,2.38677 -5.99513,1.50712 -9.1875,-1.9375 C 112.91716,292.1005 111.22626,291 110.375,291 c -1.71223,0 -2.15494,-3.51582 -0.5625,-4.5 0.55,-0.33992 0.98545,-1.38246 0.96875,-2.3125 -0.0139,-0.77561 -0.0454,-1.16423 -0.1875,-1.15625 z M 102.5625,300 c -1.81944,0.0124 -1.96296,0.21613 -0.75,1 1.93876,1.25292 3,1.25292 3,0 0,-0.55 -1.0125,-1.008 -2.25,-1 z" />
  <path
     style="fill:#c0c0c0;fill-opacity:1;fill-rule:nonzero;stroke:none"
     inkscape:connector-curvature="0"
     id="nord-trondelag"
     d="m 170.6875,239.09375 c -1.58125,0 -2.875,0.45 -2.875,1 0,0.55 0.9,1 2,1 1.11111,0 2,0.66667 2,1.5 0,0.825 -0.45,1.5 -1,1.5 -0.55,0 -1,0.64088 -1,1.40625 0,3.29776 -9.62668,2.91342 -10.1875,-0.40625 -0.26954,-1.59546 -0.64612,-1.69135 -3.15625,-0.65625 l -2.875,1.1875 4.6875,2.34375 c 3.46411,1.73005 5.5425,2.16612 8.09375,1.6875 2.97052,-0.55727 3.4375,-0.38166 3.4375,1.3125 0,1.07909 -0.5625,2.19134 -1.25,2.46875 -0.6875,0.27741 -0.2375,0.55035 1,0.59375 3.09601,0.10863 2.84159,2.70053 -0.34375,3.5 -2.77277,0.69592 -5.40625,-0.78295 -5.40625,-3.03125 0,-0.77836 -0.61203,-1.11001 -1.46875,-0.78125 -1.96202,0.75289 -0.10583,4.41905 2.59375,5.125 1.96088,0.51279 2.69824,3.25 0.875,3.25 -0.56361,0 -1.47187,1.14215 -2,2.53125 -1.85765,4.88598 -6.0132,4.01571 -8.4375,-1.75 l -1.125,-2.6875 -3.28125,2.78125 c -2.96279,2.52869 -3.11549,2.91925 -1.625,4.15625 1.18565,0.984 1.46653,2.20025 1,4.40625 -0.35556,1.68128 -0.62555,4.51343 -0.59375,6.28125 0.0536,2.97409 -2.93456,7.28125 -5.0625,7.28125 -0.4231,0 -1.9558,2.025 -3.40625,4.5 -1.45044,2.475 -3.22361,4.5 -3.9375,4.5 -0.7139,0 -1.57587,0.70154 -1.90625,1.5625 -0.71205,1.85557 1.44974,1.38603 8.125,-1.75 4.53331,-2.12974 5.5283,-3.8125 2.25,-3.8125 -3.39991,0 -2.20476,-2.77274 1.75,-4.0625 2.0625,-0.67264 4.84458,-2.07373 6.15625,-3.09375 1.31167,-1.02001 2.99917,-1.84375 3.75,-1.84375 1.94374,0 1.66907,3.04961 -0.40625,4.625 -1.06875,0.8113 -1.26339,1.32435 -0.5,1.34375 1.64938,0.042 1.56873,5.05005 -0.125,7.28125 -0.73064,0.9625 -2.62939,1.7877 -4.21875,1.8125 -2.88925,0.0451 -10.01769,2.69032 -7.65625,2.84375 1.48402,0.0964 1.68984,4.70388 0.25,5.59375 -1.47804,0.91348 -1.19279,2.5 0.4375,2.5 0.77916,0 1.56666,0.3375 1.75,0.75 0.18333,0.4125 2.12564,1.65 4.3125,2.75 2.18686,1.1 4.50535,3.0632 5.15625,4.375 0.65089,1.3118 1.76276,2.78272 2.5,3.25 2.44499,1.54968 5.84375,0.9975 5.84375,-0.9375 0,-2.23468 2.23533,-7.1769 3.25,-7.1875 0.4125,-0.004 0.75,-1.49213 0.75,-3.3125 0,-3.19103 3.59252,-8.33644 10.75,-15.4375 1.2375,-1.22775 2.25,-2.59174 2.25,-3.03125 0,-0.43951 1.64336,-1.40843 3.625,-2.125 2.9622,-1.07154 4.65178,-1.07558 9.5,0 3.24336,0.71953 5.875,1.7127 5.875,2.1875 0,0.47482 1.0091,0.707 2.21875,0.53125 2.90532,-0.42212 5.43065,-5.0899 6.28125,-11.5625 0.6436,-4.89745 0.54036,-5.27797 -1.6875,-6.125 -3.4085,-1.29591 -5.10799,-3.75831 -4.4375,-6.375 0.31892,-1.24465 3.06251,-5.625 6.09375,-9.75 3.03124,-4.125 5.51995,-7.8375 5.53125,-8.25 0.0112,-0.4125 -1.125,-0.75 -2.5,-0.75 -1.375,0 -2.5,-0.45 -2.5,-1 0,-0.57724 -3.13447,-1 -7.4375,-1 -6.70666,0 -7.70854,0.27105 -10.0625,2.625 -2.27321,2.27322 -3.18173,2.52062 -6.8125,1.96875 -6.27695,-0.95407 -10.72423,-3.62654 -11.375,-6.84375 -0.45175,-2.23333 -1.10265,-2.75 -3.4375,-2.75 z m -12.59375,19.46875 c -0.28924,0.0926 -0.26317,0.95033 0.21875,2.46875 0.36228,1.14145 1.06135,2.0625 1.5625,2.0625 0.50114,0 0.37755,-1.12267 -0.25,-2.5 -0.66502,-1.45979 -1.24201,-2.12381 -1.53125,-2.03125 z m -5.15625,30.53125 c -0.48585,0 -1.11859,0.9 -1.40625,2 -0.61756,2.36157 0.80641,2.70233 1.6875,0.40625 0.80555,-2.09921 0.76422,-2.40625 -0.28125,-2.40625 z"
     inkscape:label="#path1596" />
  <path
     style="fill:#c0c0c0;fill-opacity:1;fill-rule:nonzero;stroke:none"
     inkscape:connector-curvature="0"
     id="path1565"
     d="m 263,76.0625 c -1.38086,-0.106894 -11.17762,12.299197 -11.1875,14.28125 -0.002,0.4125 0.675,0.75 1.5,0.75 1.67158,0 2.06417,3.53329 0.5,4.5 -0.55,0.33992 -1,2.18759 -1,4.09375 0,2.77665 -0.49707,3.64474 -2.5,4.40625 -1.375,0.52277 -2.5,1.13721 -2.5,1.34375 0,1.14904 2.47035,7.34835 3.375,8.5 0.86365,1.09945 1.40853,0.91946 2.9375,-0.96875 1.15009,-1.4203 1.44691,-2.46562 0.78125,-2.6875 -1.72379,-0.5746 -1.35567,-6.1875 0.40625,-6.1875 0.89855,0 1.5,-0.93472 1.5,-2.3125 0,-1.265 0.4323,-2.7275 0.9375,-3.25 0.50521,-0.5225 1.06771,-2.5125 1.25,-4.4375 0.28306,-2.98905 -0.016,-3.5396 -1.9375,-3.8125 -2.79534,-0.397 -2.98532,-3.1875 -0.21875,-3.1875 1.4728,0 2.6395,-1.4212 4.34375,-5.25 1.28527,-2.8875 2.16644,-5.45664 1.9375,-5.71875 -0.0264,-0.03025 -0.0805,-0.05905 -0.125,-0.0625 z m -15.6875,10.96875 c -0.27033,0.03024 -0.5,0.501315 -0.5,1.5 0,0.78675 -1.0125,1.60539 -2.25,1.84375 l -2.25,0.4375 2.25,0.15625 c 2.36914,0.14339 2.86563,1.63791 1.3125,4.09375 -0.79406,1.25558 -1.46377,1.27676 -4.5625,0.15625 -1.99621,-0.72184 -3.77664,-1.15674 -3.9375,-0.96875 -0.16086,0.18799 -0.57702,2.14375 -0.9375,4.34375 l -0.65625,4 1.9375,-2.25 c 2.21451,-2.57761 7.09375,-3.09409 7.09375,-0.75 0,0.825 -0.49813,1.5 -1.125,1.5 -1.36689,0 -3.79915,2.9988 -3.84375,4.75 -0.0175,0.6875 0.64375,1.25 1.46875,1.25 0.9202,0 1.5,-0.92133 1.5,-2.40625 0,-1.87641 0.6744,-2.58296 3,-3.09375 2.52699,-0.55502 3.0252,-1.14185 3.125,-3.8125 0.0651,-1.7438 0.007,-3.6375 -0.125,-4.1875 -0.13202,-0.55 -0.3044,-2.23875 -0.375,-3.75 -0.0808,-1.730087 -0.67446,-2.862893 -1.125,-2.8125 z M 285,107.40625 c -2.09474,-0.03 -2.19479,0.36388 -1.71875,2.53125 0.46397,2.11241 0.12196,2.86256 -1.6875,3.65625 -1.76479,0.7741 -2.35521,1.95316 -2.59375,5.25 -0.39821,5.50382 -2.69845,5.68474 -3.5625,0.28125 -0.49393,-3.08891 -0.97691,-3.82029 -2.21875,-3.34375 -0.87699,0.33653 -1.95581,0.0533 -2.375,-0.625 -0.4192,-0.67827 -1.69939,-1.09187 -2.875,-0.90625 -2.05124,0.32388 -2.03576,0.46439 0.84375,3.53125 1.65031,1.75767 3,3.89517 3,4.75 0,2.90182 -3.60849,1.58658 -6.5625,-2.40625 -3.41786,-4.61979 -4.32194,-5.01359 -3.65625,-1.53125 0.26285,1.375 0.91872,2.5 1.46875,2.5 0.55004,0 0.75641,0.9 0.46875,2 -0.41601,1.59081 -0.039,2 1.875,2 1.47234,0 2.40625,0.58223 2.40625,1.5 0,0.825 -0.45499,1.5 -1.03125,1.5 -0.57626,0 -2.10069,1.125 -3.375,2.5 -1.27431,1.375 -2.75837,2.5 -3.3125,2.5 -1.30915,0 -2.46922,-7.2313 -1.71875,-10.75 0.55814,-2.61694 0.53312,-2.67161 -0.96875,-0.8125 -0.86247,1.06762 -1.59375,2.30512 -1.59375,2.75 0,1.20124 -2.77619,0.98395 -3.1875,-0.25 -0.24472,-0.73415 -1.25376,-0.69152 -3.3125,0.125 -2.00009,0.79326 -2.50703,1.31615 -1.5,1.625 0.825,0.25301 2.175,0.71805 3,1.03125 0.825,0.31321 2.5125,0.49614 3.75,0.375 1.64675,-0.1612 2.25,0.30754 2.25,1.75 0,1.57685 -0.84967,2.05416 -4.25,2.4375 -2.3375,0.26352 -5.2625,0.81274 -6.5,1.21875 -1.72522,0.56603 -2.25,0.33331 -2.25,-0.9375 0,-2.83713 -5.48055,3.59313 -5.59375,6.5625 l -0.0937,2.625 3.53125,-2.40625 c 6.45796,-4.38249 10.15625,-4.28647 10.15625,0.28125 0,2.1224 -0.43053,2.49669 -2.75,2.34375 -4.98948,-0.32899 -5.43492,-0.11378 -4.6875,2.28125 0.96728,3.09948 2.39238,3.81952 6.1875,3.125 2.6284,-0.48101 3.25,-0.25383 3.25,1.125 0,0.9377 -0.87402,1.93248 -1.96875,2.21875 -1.5269,0.3993 -1.86562,1.07598 -1.40625,2.90625 0.89205,3.55421 -2.72087,3.13706 -4.90625,-0.5625 -0.95491,-1.61653 -2.63007,-3.21697 -3.71875,-3.5625 -1.08868,-0.34554 -2,-1.23256 -2,-1.96875 0,-1.06774 -0.48681,-1.10808 -2.4375,-0.1875 -2.29427,1.08273 -2.32517,1.19983 -0.5,1.875 2.5809,0.95475 2.60644,4.78125 0.0312,4.78125 -1.05416,0 -2.17916,-0.5625 -2.5,-1.25 -0.46666,-1 -0.68959,-1 -1.15625,0 -0.86926,1.86269 -4.22469,1.51019 -4.75,-0.5 -0.36325,-1.38999 -0.4704,-1.31487 -0.5625,0.375 -0.0638,1.17015 0.4375,2.58349 1.125,3.125 1.98637,1.56456 6.5704,2.34961 7.25,1.25 0.98657,-1.5963 3.33259,-1.16741 5.5,1 1.1,1.1 2.9,2 4,2 1.34363,0 2,0.66654 2,2.03125 0,2.87447 -2.26805,3.40075 -6.125,1.40625 -1.82287,-0.94264 -5.69198,-1.73935 -8.59375,-1.78125 -2.90177,-0.0419 -5.28125,-0.47484 -5.28125,-0.9375 0,-0.46267 -0.45,-0.55867 -1,-0.21875 -1.86263,1.15117 -1.01304,2.34059 2.5,3.5 5.8555,1.93249 4.40963,3.7697 -3,3.8125 -4.97699,0.0287 -6.5,-0.28375 -6.5,-1.375 0,-0.78385 -0.40774,-1.4375 -0.90625,-1.4375 -0.49848,0 -0.68004,0.85927 -0.40625,1.90625 0.34343,1.31325 -0.15143,2.10473 -1.59375,2.5625 -1.74219,0.55296 -1.89686,1.0117 -1,2.6875 0.59193,1.10604 0.83134,2.65548 0.53125,3.4375 -0.30009,0.78202 -0.12648,1.40625 0.40625,1.40625 0.53274,0 0.96875,0.675 0.96875,1.5 0,0.93333 -0.94444,1.5 -2.5,1.5 -2.11111,0 -2.5,-0.46667 -2.5,-3 0,-3.9831 -1.76506,-3.80856 -3.5,0.34375 -2.34627,5.61542 -2.27343,6.15401 0.75,5.8125 2.24891,-0.25402 2.75,0.10435 2.75,1.875 0,1.32419 -0.77684,2.36764 -2,2.6875 -1.1,0.28766 -2,0.9204 -2,1.40625 0,0.48585 -0.675,0.875 -1.5,0.875 -0.825,0 -1.5,-0.64496 -1.5,-1.4375 0,-0.79254 -0.45921,-1.74021 -1.03125,-2.09375 -0.67303,-0.41595 -0.82108,0.25344 -0.40625,1.90625 0.44379,1.76821 0.10904,3.11182 -1.125,4.34375 -1.70954,1.70663 -1.59373,1.82057 2.65625,2.46875 2.43739,0.37173 6.54375,0.7092 9.15625,0.75 3.52261,0.055 4.75,0.4501 4.75,1.5625 0,1.08333 -1.11111,1.5 -4,1.5 -2.88889,0 -4,0.41667 -4,1.5 0,0.825 -0.675,1.5 -1.5,1.5 -0.825,0 -1.5,-0.6575 -1.5,-1.46875 0,-1.122 -0.7778,-1.33691 -3.25,-0.875 -1.7875,0.33398 -3.665,0.99148 -4.1875,1.46875 -0.5225,0.47727 -1.82379,0.875 -2.875,0.875 -1.66574,0 -1.79834,-0.46266 -1.1875,-3.71875 0.68186,-3.63464 0.64751,-3.68894 -1.21875,-2 -1.05509,0.95485 -2.44956,1.71875 -3.09375,1.71875 -0.64419,0 -1.1875,0.83669 -1.1875,1.84375 0,1.00706 -1.11451,2.41476 -2.5,3.15625 -1.6371,0.87615 -2.12295,1.60023 -1.375,2.0625 0.71953,0.44469 0.91979,2.18089 0.5625,4.59375 -0.52121,3.51987 -0.47407,3.6167 0.53125,1.1875 0.60627,-1.46497 2.18322,-3.13302 3.46875,-3.71875 1.28554,-0.58573 2.3125,-1.53196 2.3125,-2.09375 0,-2.14483 3.55734,-0.88059 4.75,1.6875 2.35566,5.07233 0.72002,8.65228 -2.15625,4.71875 -2.45959,-3.36369 -5.5307,0.40536 -5.5625,6.8125 -0.009,1.77171 -0.56486,2.75 -1.53125,2.75 -0.825,0 -1.5,-0.675 -1.5,-1.5 0,-1.73033 -1.56467,-2.00147 -2.53125,-0.4375 -0.36134,0.58466 -0.0539,1.82216 0.6875,2.75 2.82426,3.53459 3.85273,6.28604 3.25,8.6875 -0.64828,2.58294 -3.40625,3.52201 -3.40625,1.15625 0,-1.58198 -2.79714,-7.39635 -3.875,-8.0625 -0.4094,-0.25303 -0.71875,1.75214 -0.71875,4.46875 0,3.71951 -0.50611,5.29998 -1.96875,6.40625 -1.84288,1.39385 -1.77752,1.4698 1.1875,1.5 2.70266,0.0275 3.23057,0.46531 3.78125,3.21875 0.67789,3.38941 -0.4066,4.7849 -3.75,4.8125 -1.51443,0.0125 -1.76041,-0.509 -1.25,-2.75 l 0.625,-2.75 -2.5625,2.875 -2.5625,2.875 2.9375,1.78125 c 1.61942,0.98483 4.01176,2.00336 5.3125,2.25 4.44069,0.84202 4.93975,0.7165 7.4375,-1.78125 2.2724,-2.2724 3.28391,-2.5 10.96875,-2.5 4.9697,0 8.4375,0.41219 8.4375,1 0,0.55 1.13912,1 2.5,1 1.73783,0 2.91041,-0.89296 4,-3 0.85325,-1.65 1.94142,-3 2.40625,-3 0.46484,0 1.13639,-2.8125 1.5,-6.25 0.3636,-3.4375 1.10486,-8.5 1.625,-11.25 0.52014,-2.75 1.19461,-8.0793 1.53125,-11.84375 l 0.625,-6.84375 3.375,0.625 c 2.52164,0.47306 4.62178,-0.004 8.375,-1.90625 4.69114,-2.37718 4.94226,-2.69761 4.03125,-5.09375 -1.32219,-3.47761 -1.21867,-5.42885 0.28125,-5.46875 2.23068,-0.0594 5.48701,-3.49605 8.0625,-8.53125 1.3856,-2.7089 4.35029,-6.67286 6.5625,-8.8125 5.19531,-5.02488 6.02753,-9.36408 3.15625,-16.0625 -2.36408,-5.51517 -1.97063,-8.10564 1.34375,-8.9375 1.71132,-0.42951 2.98314,-2.2983 5,-7.34375 2.17786,-5.44825 3.67863,-7.51466 7.59375,-10.53125 4.53753,-3.49616 8.03125,-4.79375 8.03125,-2.96875 0,0.43142 1.2375,1.51885 2.75,2.40625 2.14114,1.25623 3.00708,1.349 3.875,0.40625 2.28023,-2.47682 3.11415,-5.27418 3.65625,-12.09375 0.67817,-8.53143 -0.42164,-10.93906 -5.09375,-11.15625 -0.38569,-0.0179 -0.70075,-0.027 -1,-0.0312 z m -44.15625,3.1875 c -3.42354,0.0115 -9.03125,4.02393 -9.03125,6.46875 0,1.44539 2.05765,1.27749 3.9375,-0.3125 0.86831,-0.73441 3.06795,-1.9279 4.90625,-2.65625 2.82302,-1.11851 3.49632,-1.0968 4.25,0.0937 0.75299,1.1895 0.875,1.17203 0.875,-0.0937 0,-2.56958 -1.33939,-3.5121 -4.9375,-3.5 z M 228.5625,113.125 c -1.5125,-0.0167 -2.75,0.44668 -2.75,1.03125 0,0.58457 -1.0125,0.92207 -2.25,0.75 -1.89899,-0.26405 -2.29155,0.20139 -2.5625,3.03125 -0.17657,1.8441 0.0484,3.18879 0.5,2.96875 5.15393,-2.51141 6.3125,-3.34089 6.3125,-4.4375 0,-0.70473 0.7875,-1.72065 1.75,-2.28125 1.49611,-0.87141 1.35103,-1.0365 -1,-1.0625 z m -11.40625,6.6875 c -0.50797,0.0276 -1.33854,0.32675 -2.4375,0.96875 -3.04661,1.77979 -5.9372,5.95898 -5.875,8.5 0.0185,0.75771 0.63656,0.47851 1.46875,-0.6875 0.78509,-1.1 1.85758,-2.37625 2.375,-2.84375 0.51742,-0.4675 1.87625,-1.705 3.03125,-2.75 2.16995,-1.96329 2.55504,-3.24823 1.4375,-3.1875 z M 204.375,135.09375 c -0.79254,0 -1.72258,0.45 -2.0625,1 -0.33992,0.55 0.30504,1 1.4375,1 1.13246,0 2.0625,-0.45 2.0625,-1 0,-0.55 -0.64496,-1 -1.4375,-1 z m -25.9375,80 c -1.69602,0 -3.83876,2.44249 -2.9375,3.34375 1.1743,1.17429 3.09686,0.68313 3.71875,-0.9375 0.85017,-2.21551 0.7749,-2.40625 -0.78125,-2.40625 z" />
  <path
     style="fill:#c0c0c0;fill-opacity:1;fill-rule:nonzero;stroke:none"
     inkscape:connector-curvature="0"
     id="path1477"
     d="m 324.1875,37.375 c -0.20462,0.07534 -0.3138,0.61563 -0.28125,1.40625 0.048,1.16495 0.27453,1.39148 0.59375,0.59375 0.28891,-0.72188 0.26979,-1.57396 -0.0625,-1.90625 -0.0831,-0.08307 -0.18179,-0.118865 -0.25,-0.09375 z m -8.875,1.8125 c -0.27021,0 -0.5,0.9 -0.5,2 0,1.1 -0.45,2 -1,2 -1.84451,0 -1.02251,1.48302 1.75,3.15625 1.51151,0.91222 2.845,1.6997 2.9375,1.75 0.55829,0.30344 3.3125,-1.25868 3.3125,-1.875 0,-0.83239 -5.73058,-7.03125 -6.5,-7.03125 z m 25.4375,1.53125 c -0.34142,0.0938 -0.79822,0.399336 -1.46875,0.90625 -1.59327,1.2045 -1.65659,1.50555 -0.375,1.53125 0.87159,0.01749 2.77984,1.38125 4.25,3.03125 1.61792,1.81585 3.67897,3 5.1875,3 1.82562,0 2.46875,0.53498 2.46875,2 0,1.1 -0.4619,2 -1.03125,2 -0.71358,0 -0.71358,0.60417 0,1.9375 1.36246,2.54588 1.31337,5.0625 -0.0937,5.0625 -0.61816,0 -2.88391,-2.025 -5.0625,-4.5 -2.17858,-2.475 -4.70549,-4.5 -5.59375,-4.5 -1.25612,0 -1.33958,0.28542 -0.40625,1.21875 1.96275,1.96275 1.37759,3.78125 -1.21875,3.78125 -1.47023,0 -2.62918,-0.68974 -2.90625,-1.75 -0.29757,-1.13868 -0.487,-0.85059 -0.5625,0.84375 -0.0638,1.43218 -1.25,3.82885 -2.625,5.3125 -1.375,1.48365 -2.5,3.74343 -2.5,5.03125 0,1.28782 -0.675,2.62091 -1.5,2.9375 -0.825,0.31658 -1.5,1.5176 -1.5,2.6875 0,3.1293 -3.16206,7.9375 -5.21875,7.9375 -2.31981,0 -2.24701,-1.77682 0.21875,-5.5 1.09275,-1.65 2.0347,-4.575 2.0625,-6.5 0.0278,-1.925 0.67617,-5.3 1.46875,-7.5 2.32014,-6.44014 1.73867,-7.33834 -2.0625,-3.25 -3.63933,3.91428 -4.72698,8.75 -1.96875,8.75 0.825,0 1.5,0.675 1.5,1.5 0,0.825 -0.81436,1.5 -1.8125,1.5 -1.08946,0 -2.46678,1.39886 -3.46875,3.5 -1.64474,3.44906 -4.71875,4.83618 -4.71875,2.125 0,-0.76493 0.91208,-3.35243 2,-5.75 4.54838,-10.02373 1.7915,-12.01553 -5.84375,-4.21875 -3.1499,3.21654 -6.58408,6.31949 -7.625,6.90625 -1.83201,1.03269 -1.8008,1.1367 0.3125,3.25 2.68833,2.68833 2.71256,3.8216 0.21875,5.15625 -2.86637,1.53403 -4.0625,1.26638 -4.0625,-0.90625 0,-2.49585 -1.96154,-3.72505 -3.09375,-1.9375 -0.48009,0.75796 -0.867,3.0625 -0.875,5.125 -0.0132,3.23115 -0.35012,3.75 -2.3125,3.75 -5.31497,0 -9.29994,6.52074 -4.71875,7.71875 2.31806,0.60619 2.72593,3.28125 0.5,3.28125 -0.825,0 -1.5,0.61267 -1.5,1.375 0,0.76233 -1.575,2.14902 -3.5,3.0625 -1.925,0.91347 -3.5,2.1008 -3.5,2.625 0,1.36073 -2.75518,1.17194 -3.21875,-0.21875 -0.23139,-0.69419 -1.71263,0.0513 -3.71875,1.84375 -3.86232,3.45097 -3.41387,5.53902 1,4.65625 1.8778,-0.37556 2.9375,-0.18214 2.9375,0.53125 0,1.66968 2.98915,1.36344 3.65625,-0.375 0.31659,-0.825 1.20259,-1.5 1.96875,-1.5 0.76615,0 1.375,-0.40595 1.375,-0.90625 0,-0.50031 2.03446,-0.88105 4.5,-0.84375 3.52532,0.0533 4.60889,0.47237 5.09375,2 0.44861,1.41346 0.91786,1.64464 1.71875,0.84375 1.67332,-1.67332 3.48025,-1.3174 4.15625,0.8125 0.43745,1.37828 1.94726,2.11144 5.34375,2.59375 2.59087,0.36792 7.1625,1.94212 10.1875,3.5 l 5.5,2.84375 2.21875,-2.6875 c 1.87543,-2.27397 1.985,-2.80195 0.75,-3.75 -1.90763,-1.4644 -1.83712,-2.36644 0.4375,-4.84375 1.04255,-1.13545 2.19457,-4.32359 2.5625,-7.09375 0.57413,-4.32272 0.36562,-5.30274 -1.40625,-6.90625 -2.9749,-2.69225 -2.59339,-4.5625 0.90625,-4.5625 1.62412,0 4.07028,-0.50205 5.4375,-1.125 2.01887,-0.91986 2.79906,-0.82593 4.125,0.5 2.41407,2.41407 2.73333,2.02805 2,-2.3125 -0.58284,-3.4498 -0.35691,-4.1098 1.8125,-5.53125 3.63939,-2.38462 7.22694,-1.06225 9.84375,3.59375 2.25105,4.00519 2.80175,4.27328 6.5,3.28125 3.23742,-0.86841 3.67027,-4.63787 1.15625,-9.8125 -1.81085,-3.72727 -1.94981,-4.73619 -0.875,-6.03125 0.71134,-0.85712 2.1117,-1.5625 3.125,-1.5625 2.0205,0 4.37035,-3.47129 3.40625,-5.03125 -0.3329,-0.53863 -1.22641,-0.96875 -2,-0.96875 -0.93275,0 -1.6539,-1.68426 -2.09375,-5 -0.41178,-3.10418 -1.15932,-5 -1.96875,-5 -1.27758,0 -1.64324,-0.83739 -2.8125,-6.125 -0.47458,-2.14613 -1.30552,-2.71919 -4.625,-3.25 -2.76986,-0.44292 -4.30602,-1.2871 -4.8125,-2.65625 -0.42034,-1.136294 -0.68096,-1.593826 -1.25,-1.4375 z m -10.65625,0.5 c -0.60983,0.04105 -1.31836,0.443358 -2.0625,1.1875 -1.76428,1.76428 -1.47944,4.56831 0.53125,5.09375 0.9625,0.25153 1.975,0.5071 2.25,0.5625 0.275,0.05538 1.175,-0.34184 2,-0.875 1,-0.64625 1.08333,-0.95855 0.25,-0.96875 -0.6875,-0.0084 -1.25,-1.15625 -1.25,-2.53125 0,-1.664531 -0.70236,-2.537171 -1.71875,-2.46875 z m -26.375,4.96875 c -0.32111,0.01393 -0.75741,0.118747 -1.34375,0.34375 -0.84872,0.32568 -1.5625,1.05308 -1.5625,1.625 0,0.65815 0.73168,0.61631 1.96875,-0.15625 1.65703,-1.034813 1.90084,-1.854279 0.9375,-1.8125 z m 5.59375,1.3125 -3,2.84375 c -1.65,1.56101 -2.4375,2.84313 -1.75,2.84375 0.6875,6.1e-4 1.25,0.675 1.25,1.5 0,0.82536 -0.88553,1.5 -1.96875,1.5 -1.36657,0 -1.78726,0.48818 -1.375,1.5625 0.73731,1.92139 -2.27347,4.33125 -5.65625,4.53125 -1.72235,0.10183 -1.95564,0.27868 -0.75,0.59375 2.74953,0.71852 2.11261,3.3125 -0.8125,3.3125 -1.45136,0 -2.28802,0.43284 -1.9375,1 1.63204,2.64069 8.20119,-1.14669 11,-6.34375 1.08533,-2.01535 2.48833,-3.65625 3.125,-3.65625 0.63668,0 1.88032,-1.125 2.78125,-2.5 1.80379,-2.75293 4.59375,-3.36011 4.59375,-1 0,1.80819 1.17929,1.94571 2.8125,0.3125 1.62411,-1.62411 1.49922,-2.8125 -0.28125,-2.8125 -0.80827,0 -2.94577,-0.83212 -4.75,-1.84375 L 309.3125,47.5 z m -22.5,19.28125 c -0.0956,0.0093 -0.19753,0.04201 -0.28125,0.09375 -2.85107,1.76206 -4.71875,3.91641 -4.71875,5.4375 0,0.91362 -0.90929,1.8941 -2.03125,2.1875 -1.62808,0.42575 -1.89244,1.0321 -1.375,3.09375 0.55544,2.21305 0.30173,2.61935 -1.71875,2.71875 -1.69474,0.08336 -1.88254,0.23387 -0.625,0.5625 2.47464,0.64669 2.17267,2.95412 -0.5,3.8125 -1.90551,0.61199 -1.98206,0.79172 -0.5,1.1875 0.9625,0.25703 1.7776,0.97783 1.8125,1.625 0.0349,0.64718 0.48464,0.20155 0.96875,-1 1.10134,-2.73348 3.97623,-4.3125 7.84375,-4.3125 2.76231,0 3.05664,-0.36178 4.03125,-4.90625 0.85384,-3.98132 0.75594,-5.48242 -0.5,-8 -0.80411,-1.611872 -1.73686,-2.564974 -2.40625,-2.5 z m -20.75,22.75 c -0.16293,0.0337 -0.25,0.20119 -0.25,0.53125 0,0.72046 -0.92505,2.62135 -2.0625,4.21875 -1.13746,1.5974 -1.58746,2.90625 -1,2.90625 0.58745,0 1.0625,0.45479 1.0625,1 0,1.44995 -6.04274,7 -7.625,7 -0.74343,0 -1.375,0.94486 -1.375,2.09375 0,2.01019 0.13295,1.99135 3.09375,-0.5 1.69219,-1.42389 4.07352,-2.59375 5.28125,-2.59375 2.61403,0 7.03417,-7.03028 4.875,-7.75 -1.61577,-0.53848 -1.61618,-2.93205 0,-3.53125 0.91553,-0.33943 0.78174,-0.96911 -0.5,-2.3125 -0.73492,-0.770269 -1.22845,-1.118673 -1.5,-1.0625 z m 14,4.46875 c -0.67984,0.107581 -1.67804,0.811963 -3.21875,2.1875 -3.75272,3.35043 -3.14898,3.79982 1.6875,1.21875 2.11605,-1.12927 2.94715,-2.14411 2.4375,-2.96875 C 280.75647,94.09403 280.4704,93.935451 280.0625,94 z M 264.5,107.59375 c -0.309,-0.0172 -0.90152,0.44227 -2.0625,1.3125 -1.31833,0.98817 -2.21888,2.07663 -2,2.4375 0.84688,1.39624 4.375,-0.46942 4.375,-2.3125 0,-0.93482 -0.003,-1.42031 -0.3125,-1.4375 z" />
  <path
     style="fill:#c0c0c0;fill-opacity:1;fill-rule:nonzero;stroke:none"
     inkscape:connector-curvature="0"
     id="path10041"
     d="m 422.90625,0 c -0.49851,0 -0.66266,0.9 -0.375,2 0.30628,1.1712 0.0395,2 -0.65625,2 -1.39623,0 -4.0625,2.45291 -4.0625,3.75 0,0.49546 0.99842,0.88745 2.21875,0.84375 2.95762,-0.10584 3.45259,2.76912 0.9375,5.46875 -1.25754,1.34981 -2.22381,4.27402 -2.65625,8 -0.51212,4.4124 -1.13598,6.00457 -2.5,6.4375 -0.99759,0.31662 -2.06646,1.22718 -2.375,2.03125 C 413.12895,31.33531 412.13796,32 411.21875,32 c -1.42794,0 -1.57874,-0.80082 -1.09375,-5.5 0.32226,-3.12235 0.15168,-5.5 -0.375,-5.5 -1.47967,0 -1.07078,-1.85583 1.03125,-4.78125 2.52119,-3.50878 1.82148,-8.71203 -0.96875,-7.21875 -0.9849,0.5271 -2.76611,2.98443 -3.96875,5.46875 -1.20263,2.48432 -2.6495,4.53125 -3.1875,4.53125 -0.538,0 -0.66545,0.9192 -0.3125,2.03125 0.78323,2.46774 -2.20301,10.62547 -4.15625,11.375 -0.9363,0.35929 -1.21394,1.36928 -0.8125,2.96875 0.83468,3.32561 -2.01288,8.43766 -5.125,9.21875 -3.15302,0.79136 -3.58768,0.35997 -3.78125,-3.78125 -0.14299,-3.05918 0.0811,-3.3085 2.6875,-3.125 2.08238,0.14661 2.58056,-0.11765 1.875,-1 -0.52744,-0.65959 -0.9455,-3.8875 -0.9375,-7.1875 0.0142,-5.50579 0.285,-6.24711 3.3125,-9 3.27602,-2.97888 5.67646,-9.5 3.5,-9.5 -0.59371,0 -1.09375,-0.88447 -1.09375,-1.96875 0,-1.36499 0.99972,-2.2565 3.25,-2.90625 1.7875,-0.51612 2.4625,-0.98165 1.5,-1.03125 -0.9625,-0.04961 -1.75,-0.70078 -1.75,-1.4375 0,-0.73671 -1.07401,-1.83049 -2.40625,-2.4375 -2.07121,-0.94371 -2.64637,-0.78155 -3.875,1.09375 -1.0946,1.67072 -1.15741,2.63142 -0.3125,4.0625 0.83749,1.4185 0.78762,2.00036 -0.15625,2.34375 -0.6875,0.25012 -1.25,1.32084 -1.25,2.375 0,1.05417 -0.47634,1.90625 -1.0625,1.90625 -1.44683,0 -5.27625,-2.07587 -6.0625,-3.28125 -1.15862,-1.77627 -2.60186,0.18575 -2.09375,2.84375 0.40803,2.13448 0.1653,2.54219 -1.375,2.28125 -1.0356,-0.17544 -2.01875,0.03401 -2.15625,0.4375 -0.66901,1.96317 -0.0349,2.71875 2.25,2.71875 2.02972,0 2.5,0.50059 2.5,2.625 0,2.13 -0.36132,2.52227 -2,2.09375 -2.7527,-0.71985 -4.98746,3.12916 -2.59375,4.46875 0.88751,0.49668 1.59375,1.60987 1.59375,2.46875 0,1.23537 -0.70747,1.44379 -3.40625,0.9375 -2.97934,-0.55893 -3.66652,-0.281 -5.46875,2.25 -1.135,1.59395 -2.51242,4.08442 -3.0625,5.53125 -0.55009,1.44684 -1.35514,2.623 -1.78125,2.625 -0.42611,0.0025 -0.8391,1.57747 -0.9375,3.5 -0.0984,1.92254 0.2391,3.5 0.75,3.5 1.42661,0 1.10167,2.96083 -0.5,4.5625 -2.61563,2.61563 -4.39095,1.7451 -4.28125,-2.125 0.0556,-1.96202 -0.4148,-3.86902 -1.03125,-4.25 C 360.48719,45.19459 359.33543,40 360.71875,40 c 0.60963,0 1.09375,-1.35 1.09375,-3 0,-3.56674 2.69077,-4.19977 3.1875,-0.75 0.27043,1.8781 0.68809,1.49857 2.5625,-2.3125 2.43722,-4.95537 2.81277,-7.47166 1.25,-8.4375 -0.55,-0.33992 -1,-0.0357 -1,0.6875 0,0.7232 -1.31031,1.88732 -2.90625,2.59375 -1.65432,0.73227 -3.14804,2.34768 -3.5,3.75 C 360.96303,34.29718 360.11382,35 358.375,35 c -2.89235,0 -4.33499,1.77695 -2.125,2.625 1.71414,0.65778 2.16719,3.375 0.5625,3.375 -0.55,0 -1,0.675 -1,1.5 0,0.825 -0.675,1.5 -1.5,1.5 -0.825,0 -1.5,-0.83915 -1.5,-1.875 0,-1.10107 -0.89761,-2.13143 -2.1875,-2.46875 -2.55456,-0.66803 -2.35973,-0.80253 -3.25,2.09375 -0.58949,1.91776 -0.31834,2.25 1.8125,2.25 2.4956,0 2.76244,0.4082 4.0625,6.25 0.3366,1.5125 1.22509,2.75 1.96875,2.75 0.86333,0 1.58595,1.75369 2,4.875 0.49292,3.71582 1.11972,5.01261 2.625,5.40625 C 363.21102,64.16181 361.57924,71 358,71 c -3.54082,0 -4.20076,2.02867 -2.03125,6.28125 2.84481,5.5763 1.9102,10.31874 -2.1875,11.21875 -3.14472,0.69069 -3.50918,1.45056 -2.0625,4.25 0.49354,0.95504 1.69126,3.6625 2.65625,6 1.34222,3.25128 2.28007,4.25 4.03125,4.25 1.25901,0 2.56633,0.45 2.90625,1 0.33992,0.55 1.71996,1 3.0625,1 1.34254,0 2.45205,0.5625 2.46875,1.25 0.0169,0.69372 0.49682,0.47121 1.0625,-0.5 0.5606,-0.9625 2.10031,-1.75 3.4375,-1.75 1.74992,0 2.61735,-0.69514 3.0625,-2.46875 0.6604,-2.63127 4.56444,-4.6192 5.21875,-2.65625 0.78693,2.36078 3.17163,3.85284 7.21875,4.5 2.974,0.47556 4.31954,1.24915 4.6875,2.65625 0.28364,1.08462 0.73981,1.96875 1,1.96875 1.20813,0 4.2203,-4.71879 4.25,-6.65625 0.0577,-3.76353 1.1935,-5.36288 4.8125,-6.875 l 3.5,-1.46875 -0.6875,-8.5625 c -0.92404,-11.38822 0.86336,-23.14735 3.96875,-26.0625 1.24434,-1.1681 3.02076,-3.57096 3.9375,-5.34375 1.487,-2.87554 2.01939,-3.16072 4.875,-2.625 2.49508,0.46808 3.49942,0.15542 4.625,-1.40625 0.7942,-1.10189 1.83317,-2 2.3125,-2 0.47933,0 2.03908,-0.9 3.4375,-2 2.71368,-2.13459 6.25,-2.68805 6.25,-0.96875 0,1.73384 8.22091,8.96875 10.1875,8.96875 1.01048,0 1.8125,0.45 1.8125,1 0,0.55 0.91117,1 2,1 1.29952,0 2.67379,1.36916 4,3.96875 2.58368,5.06444 2.52314,6.06537 -0.5,12.03125 -2.92009,5.76252 -3.19031,9.76971 -0.78125,11.53125 2.35675,1.7233 4.2077,-0.79448 4.25,-5.78125 0.0253,-2.97809 0.85286,-4.57148 3.9375,-7.75 2.13564,-2.20062 4.36486,-4 4.96875,-4 0.60388,0 1.35608,-1.2375 1.6875,-2.75 0.33142,-1.5125 0.7882,-3.3125 1,-4 0.45956,-1.49174 4.05694,-1.67478 4.9375,-0.25 0.51721,0.83687 3.47441,0.01097 5.3125,-1.5 0.16107,-0.1324 -0.48706,-1.88191 -1.4375,-3.875 -1.73702,-3.64257 -4.375,-4.92099 -4.375,-2.125 0,2.53288 -2.54407,1.6623 -3.65625,-1.25 -1.00398,-2.62898 -1.07479,-2.51896 -1.8125,2.5 -0.63406,4.31379 -1.14793,5.25 -2.78125,5.25 -1.49549,0 -1.83098,-0.49535 -1.4375,-2 0.60492,-2.31323 -0.79801,-2.73653 -1.65625,-0.5 -0.60111,1.56646 -4.65625,2.13858 -4.65625,0.65625 0,-0.46792 0.53186,-2.33387 1.15625,-4.125 0.88766,-2.54634 0.84535,-3.41223 -0.15625,-4.03125 -0.70452,-0.43543 -1.02623,-1.44871 -0.71875,-2.25 0.43131,-1.12396 -1.05787,-1.76029 -6.46875,-2.78125 -6.22902,-1.17533 -9.15391,-2.97109 -7.53125,-4.59375 0.28911,-0.2891 3.11026,-0.04916 6.25,0.53125 7.72686,1.42839 14.12144,-0.12784 16.34375,-4 C 465.28562,31.12169 468.61132,29 471.375,29 c 1.49928,0 1.90943,-2.62914 0.84375,-5.40625 C 471.88491,22.72376 470.81756,22 469.84375,22 c -0.97382,0 -2.33469,-0.66709 -3,-1.46875 -0.81966,-0.98762 -2.17662,-1.25843 -4.25,-0.84375 -2.87076,0.57415 -3.02948,0.4524 -2.4375,-1.90625 0.45215,-1.8015 0.0778,-2.99477 -1.34375,-4.28125 -1.78944,-1.61941 -2,-1.64907 -2,-0.15625 0,0.98832 -0.80565,1.65625 -2,1.65625 -1.19435,0 -2,-0.66793 -2,-1.65625 0,-1.53998 -0.11084,-1.53998 -1.8125,0 -2.74098,2.48055 -4.02682,2.01745 -4.375,-1.59375 -0.39282,-4.07411 -3.89209,-4.96899 -7.21875,-1.84375 -1.92339,1.80693 -2.18714,3.01907 -2.03125,9.34375 0.20214,8.20104 -0.74416,11.75 -3.15625,11.75 -1.29972,0 -1.5352,-0.63651 -1.0625,-3 0.50464,-2.52321 0.28611,-3 -1.375,-3 -2.52013,0 -2.48907,-1.50619 0.0625,-4.75 l 2.03125,-2.5625 -3.03125,-1.46875 C 427.07512,14.39355 426.68945,11 430.25,11 c 1.72342,0 2.88272,-0.91661 4,-3.15625 0.86528,-1.7345 1.5625,-3.22952 1.5625,-3.34375 0,-0.11423 -1.125,-0.01285 -2.5,0.25 -2.01026,0.38428 -2.5,0.08889 -2.5,-1.5625 0,-1.78861 -0.45178,-1.99465 -3.5,-1.5 -2.27148,0.36861 -3.5,0.17141 -3.5,-0.5625 C 423.8125,0.50304 423.40476,0 422.90625,0 z M 384.8125,3 c -0.55,0 -1,0.45 -1,1 0,0.55 0.45,1 1,1 0.55,0 1,-0.45 1,-1 0,-0.55 -0.45,-1 -1,-1 z m -8.25,3.28125 c -0.12945,-0.1044262 -0.36922,0.332625 -0.75,1.21875 -0.47269,1.1 -0.86765,2.3375 -0.90625,2.75 -0.0387,0.4125 0.35625,0.75 0.90625,0.75 0.55,0 0.9762,-1.2375 0.9375,-2.75 -0.0311,-1.21842 -0.058,-1.8643238 -0.1875,-1.96875 z M 366.46875,15.625 c -0.2642,0.0095 -0.65186,0.214362 -1.15625,0.71875 -0.825,0.825 -1.5,2.03859 -1.5,2.6875 0,0.75915 -0.89141,0.96623 -2.5,0.5625 -2.04838,-0.51411 -2.5,-0.27931 -2.5,1.375 0,2.20293 -2.53046,2.79679 -3.34375,0.78125 -0.40351,-1 -0.4993,-1 -0.5625,0 -0.0445,0.70468 -1.40252,1.25 -3.09375,1.25 -1.65,0 -3,0.45 -3,1 0,0.55 0.675,1 1.5,1 0.83333,0 1.5,0.88889 1.5,2 0,4.21726 8.08562,1.40282 12.46875,-4.34375 2.33099,-3.056089 3.33236,-7.072403 2.1875,-7.03125 z m 5.96875,3.53125 c -0.15836,0.04736 -0.36729,0.211035 -0.625,0.46875 -0.68724,0.68724 -0.51625,2.02508 0.5625,4.1875 1.77059,3.54922 3.4375,3.37254 3.4375,-0.375 0,-1.50309 -0.57634,-2.4375 -1.5,-2.4375 -0.825,0 -1.5,-0.5275 -1.5,-1.1875 0,-0.5076 -0.11107,-0.735176 -0.375,-0.65625 z M 461.40625,47 c -0.87083,0 -1.59375,0.72292 -1.59375,1.59375 0,1.76593 2.16318,1.44797 2.78125,-0.40625 C 462.81146,47.53437 462.27709,47 461.40625,47 z" />
</svg>
